<?xml version="1.0" encoding="utf-8"?>
<svg xmlns="http://www.w3.org/2000/svg" xmlns:xlink="http://www.w3.org/1999/xlink" width="600" height="400" viewBox="0 0 2400 1600">
<defs>
  <clipPath id="clip220">
    <rect x="0" y="0" width="2400" height="1600"/>
  </clipPath>
</defs>
<path clip-path="url(#clip220)" d="M0 1600 L2400 1600 L2400 0 L0 0  Z" fill="#ffffff" fill-rule="evenodd" fill-opacity="1"/>
<defs>
  <clipPath id="clip221">
    <rect x="480" y="0" width="1681" height="1600"/>
  </clipPath>
</defs>
<path clip-path="url(#clip220)" d="M219.38 1423.18 L2352.76 1423.18 L2352.76 47.2441 L219.38 47.2441  Z" fill="#ffffff" fill-rule="evenodd" fill-opacity="1"/>
<defs>
  <clipPath id="clip222">
    <rect x="219" y="47" width="2134" height="1377"/>
  </clipPath>
</defs>
<polyline clip-path="url(#clip222)" style="stroke:#000000; stroke-linecap:round; stroke-linejoin:round; stroke-width:2; stroke-opacity:0.1; fill:none" points="672.54,1423.18 672.54,47.2441 "/>
<polyline clip-path="url(#clip222)" style="stroke:#000000; stroke-linecap:round; stroke-linejoin:round; stroke-width:2; stroke-opacity:0.1; fill:none" points="1212.49,1423.18 1212.49,47.2441 "/>
<polyline clip-path="url(#clip222)" style="stroke:#000000; stroke-linecap:round; stroke-linejoin:round; stroke-width:2; stroke-opacity:0.1; fill:none" points="1752.43,1423.18 1752.43,47.2441 "/>
<polyline clip-path="url(#clip222)" style="stroke:#000000; stroke-linecap:round; stroke-linejoin:round; stroke-width:2; stroke-opacity:0.1; fill:none" points="2292.38,1423.18 2292.38,47.2441 "/>
<polyline clip-path="url(#clip222)" style="stroke:#000000; stroke-linecap:round; stroke-linejoin:round; stroke-width:2; stroke-opacity:0.1; fill:none" points="219.38,1394.11 2352.76,1394.11 "/>
<polyline clip-path="url(#clip222)" style="stroke:#000000; stroke-linecap:round; stroke-linejoin:round; stroke-width:2; stroke-opacity:0.1; fill:none" points="219.38,1050.63 2352.76,1050.63 "/>
<polyline clip-path="url(#clip222)" style="stroke:#000000; stroke-linecap:round; stroke-linejoin:round; stroke-width:2; stroke-opacity:0.1; fill:none" points="219.38,707.153 2352.76,707.153 "/>
<polyline clip-path="url(#clip222)" style="stroke:#000000; stroke-linecap:round; stroke-linejoin:round; stroke-width:2; stroke-opacity:0.1; fill:none" points="219.38,363.673 2352.76,363.673 "/>
<polyline clip-path="url(#clip220)" style="stroke:#000000; stroke-linecap:round; stroke-linejoin:round; stroke-width:4; stroke-opacity:1; fill:none" points="219.38,1423.18 2352.76,1423.18 "/>
<polyline clip-path="url(#clip220)" style="stroke:#000000; stroke-linecap:round; stroke-linejoin:round; stroke-width:4; stroke-opacity:1; fill:none" points="672.54,1423.18 672.54,1404.28 "/>
<polyline clip-path="url(#clip220)" style="stroke:#000000; stroke-linecap:round; stroke-linejoin:round; stroke-width:4; stroke-opacity:1; fill:none" points="1212.49,1423.18 1212.49,1404.28 "/>
<polyline clip-path="url(#clip220)" style="stroke:#000000; stroke-linecap:round; stroke-linejoin:round; stroke-width:4; stroke-opacity:1; fill:none" points="1752.43,1423.18 1752.43,1404.28 "/>
<polyline clip-path="url(#clip220)" style="stroke:#000000; stroke-linecap:round; stroke-linejoin:round; stroke-width:4; stroke-opacity:1; fill:none" points="2292.38,1423.18 2292.38,1404.28 "/>
<path clip-path="url(#clip220)" d="M650.422 1454.1 Q646.811 1454.1 644.982 1457.66 Q643.177 1461.2 643.177 1468.33 Q643.177 1475.44 644.982 1479.01 Q646.811 1482.55 650.422 1482.55 Q654.056 1482.55 655.862 1479.01 Q657.69 1475.44 657.69 1468.33 Q657.69 1461.2 655.862 1457.66 Q654.056 1454.1 650.422 1454.1 M650.422 1450.39 Q656.232 1450.39 659.288 1455 Q662.366 1459.58 662.366 1468.33 Q662.366 1477.06 659.288 1481.67 Q656.232 1486.25 650.422 1486.25 Q644.612 1486.25 641.533 1481.67 Q638.477 1477.06 638.477 1468.33 Q638.477 1459.58 641.533 1455 Q644.612 1450.39 650.422 1450.39 Z" fill="#000000" fill-rule="nonzero" fill-opacity="1" /><path clip-path="url(#clip220)" d="M670.584 1479.7 L675.468 1479.7 L675.468 1485.58 L670.584 1485.58 L670.584 1479.7 Z" fill="#000000" fill-rule="nonzero" fill-opacity="1" /><path clip-path="url(#clip220)" d="M685.699 1451.02 L704.056 1451.02 L704.056 1454.96 L689.982 1454.96 L689.982 1463.43 Q691 1463.08 692.019 1462.92 Q693.037 1462.73 694.056 1462.73 Q699.843 1462.73 703.223 1465.9 Q706.602 1469.08 706.602 1474.49 Q706.602 1480.07 703.13 1483.17 Q699.658 1486.25 693.338 1486.25 Q691.162 1486.25 688.894 1485.88 Q686.649 1485.51 684.241 1484.77 L684.241 1480.07 Q686.324 1481.2 688.547 1481.76 Q690.769 1482.32 693.246 1482.32 Q697.25 1482.32 699.588 1480.21 Q701.926 1478.1 701.926 1474.49 Q701.926 1470.88 699.588 1468.77 Q697.25 1466.67 693.246 1466.67 Q691.371 1466.67 689.496 1467.08 Q687.644 1467.5 685.699 1468.38 L685.699 1451.02 Z" fill="#000000" fill-rule="nonzero" fill-opacity="1" /><path clip-path="url(#clip220)" d="M1179.64 1481.64 L1187.28 1481.64 L1187.28 1455.28 L1178.97 1456.95 L1178.97 1452.69 L1187.23 1451.02 L1191.91 1451.02 L1191.91 1481.64 L1199.55 1481.64 L1199.55 1485.58 L1179.64 1485.58 L1179.64 1481.64 Z" fill="#000000" fill-rule="nonzero" fill-opacity="1" /><path clip-path="url(#clip220)" d="M1208.99 1479.7 L1213.87 1479.7 L1213.87 1485.58 L1208.99 1485.58 L1208.99 1479.7 Z" fill="#000000" fill-rule="nonzero" fill-opacity="1" /><path clip-path="url(#clip220)" d="M1234.06 1454.1 Q1230.45 1454.1 1228.62 1457.66 Q1226.81 1461.2 1226.81 1468.33 Q1226.81 1475.44 1228.62 1479.01 Q1230.45 1482.55 1234.06 1482.55 Q1237.69 1482.55 1239.5 1479.01 Q1241.33 1475.44 1241.33 1468.33 Q1241.33 1461.2 1239.5 1457.66 Q1237.69 1454.1 1234.06 1454.1 M1234.06 1450.39 Q1239.87 1450.39 1242.93 1455 Q1246 1459.58 1246 1468.33 Q1246 1477.06 1242.93 1481.67 Q1239.87 1486.25 1234.06 1486.25 Q1228.25 1486.25 1225.17 1481.67 Q1222.12 1477.06 1222.12 1468.33 Q1222.12 1459.58 1225.17 1455 Q1228.25 1450.39 1234.06 1450.39 Z" fill="#000000" fill-rule="nonzero" fill-opacity="1" /><path clip-path="url(#clip220)" d="M1720.08 1481.64 L1727.72 1481.64 L1727.72 1455.28 L1719.41 1456.95 L1719.41 1452.69 L1727.67 1451.02 L1732.35 1451.02 L1732.35 1481.64 L1739.99 1481.64 L1739.99 1485.58 L1720.08 1485.58 L1720.08 1481.64 Z" fill="#000000" fill-rule="nonzero" fill-opacity="1" /><path clip-path="url(#clip220)" d="M1749.43 1479.7 L1754.32 1479.7 L1754.32 1485.58 L1749.43 1485.58 L1749.43 1479.7 Z" fill="#000000" fill-rule="nonzero" fill-opacity="1" /><path clip-path="url(#clip220)" d="M1764.55 1451.02 L1782.91 1451.02 L1782.91 1454.96 L1768.83 1454.96 L1768.83 1463.43 Q1769.85 1463.08 1770.87 1462.92 Q1771.89 1462.73 1772.91 1462.73 Q1778.69 1462.73 1782.07 1465.9 Q1785.45 1469.08 1785.45 1474.49 Q1785.45 1480.07 1781.98 1483.17 Q1778.51 1486.25 1772.19 1486.25 Q1770.01 1486.25 1767.74 1485.88 Q1765.5 1485.51 1763.09 1484.77 L1763.09 1480.07 Q1765.17 1481.2 1767.4 1481.76 Q1769.62 1482.32 1772.1 1482.32 Q1776.1 1482.32 1778.44 1480.21 Q1780.78 1478.1 1780.78 1474.49 Q1780.78 1470.88 1778.44 1468.77 Q1776.1 1466.67 1772.1 1466.67 Q1770.22 1466.67 1768.35 1467.08 Q1766.49 1467.5 1764.55 1468.38 L1764.55 1451.02 Z" fill="#000000" fill-rule="nonzero" fill-opacity="1" /><path clip-path="url(#clip220)" d="M2263.62 1481.64 L2279.94 1481.64 L2279.94 1485.58 L2257.99 1485.58 L2257.99 1481.64 Q2260.65 1478.89 2265.24 1474.26 Q2269.84 1469.61 2271.02 1468.27 Q2273.27 1465.74 2274.15 1464.01 Q2275.05 1462.25 2275.05 1460.56 Q2275.05 1457.8 2273.11 1456.07 Q2271.19 1454.33 2268.08 1454.33 Q2265.88 1454.33 2263.43 1455.09 Q2261 1455.86 2258.22 1457.41 L2258.22 1452.69 Q2261.05 1451.55 2263.5 1450.97 Q2265.95 1450.39 2267.99 1450.39 Q2273.36 1450.39 2276.56 1453.08 Q2279.75 1455.77 2279.75 1460.26 Q2279.75 1462.39 2278.94 1464.31 Q2278.15 1466.2 2276.05 1468.8 Q2275.47 1469.47 2272.37 1472.69 Q2269.26 1475.88 2263.62 1481.64 Z" fill="#000000" fill-rule="nonzero" fill-opacity="1" /><path clip-path="url(#clip220)" d="M2289.75 1479.7 L2294.63 1479.7 L2294.63 1485.58 L2289.75 1485.58 L2289.75 1479.7 Z" fill="#000000" fill-rule="nonzero" fill-opacity="1" /><path clip-path="url(#clip220)" d="M2314.82 1454.1 Q2311.21 1454.1 2309.38 1457.66 Q2307.57 1461.2 2307.57 1468.33 Q2307.57 1475.44 2309.38 1479.01 Q2311.21 1482.55 2314.82 1482.55 Q2318.45 1482.55 2320.26 1479.01 Q2322.09 1475.44 2322.09 1468.33 Q2322.09 1461.2 2320.26 1457.66 Q2318.45 1454.1 2314.82 1454.1 M2314.82 1450.39 Q2320.63 1450.39 2323.69 1455 Q2326.76 1459.58 2326.76 1468.33 Q2326.76 1477.06 2323.69 1481.67 Q2320.63 1486.25 2314.82 1486.25 Q2309.01 1486.25 2305.93 1481.67 Q2302.87 1477.06 2302.87 1468.33 Q2302.87 1459.58 2305.93 1455 Q2309.01 1450.39 2314.82 1450.39 Z" fill="#000000" fill-rule="nonzero" fill-opacity="1" /><path clip-path="url(#clip220)" d="M864.798 1530.75 Q863.811 1530.18 862.634 1529.92 Q861.488 1529.64 860.088 1529.64 Q855.122 1529.64 852.449 1532.88 Q849.807 1536.1 849.807 1542.14 L849.807 1560.92 L843.919 1560.92 L843.919 1525.27 L849.807 1525.27 L849.807 1530.81 Q851.653 1527.57 854.613 1526.01 Q857.573 1524.42 861.806 1524.42 Q862.411 1524.42 863.143 1524.51 Q863.875 1524.57 864.766 1524.73 L864.798 1530.75 Z" fill="#000000" fill-rule="nonzero" fill-opacity="1" /><path clip-path="url(#clip220)" d="M887.142 1543 Q880.044 1543 877.307 1544.63 Q874.57 1546.25 874.57 1550.16 Q874.57 1553.28 876.607 1555.13 Q878.675 1556.94 882.208 1556.94 Q887.078 1556.94 890.006 1553.51 Q892.966 1550.04 892.966 1544.31 L892.966 1543 L887.142 1543 M898.823 1540.58 L898.823 1560.92 L892.966 1560.92 L892.966 1555.51 Q890.961 1558.76 887.969 1560.32 Q884.977 1561.85 880.649 1561.85 Q875.174 1561.85 871.928 1558.79 Q868.713 1555.7 868.713 1550.55 Q868.713 1544.53 872.723 1541.48 Q876.766 1538.42 884.755 1538.42 L892.966 1538.42 L892.966 1537.85 Q892.966 1533.8 890.293 1531.61 Q887.651 1529.38 882.845 1529.38 Q879.789 1529.38 876.893 1530.11 Q873.997 1530.84 871.323 1532.31 L871.323 1526.9 Q874.538 1525.66 877.561 1525.05 Q880.585 1524.42 883.45 1524.42 Q891.184 1524.42 895.003 1528.43 Q898.823 1532.44 898.823 1540.58 Z" fill="#000000" fill-rule="nonzero" fill-opacity="1" /><path clip-path="url(#clip220)" d="M916.679 1515.15 L916.679 1525.27 L928.742 1525.27 L928.742 1529.83 L916.679 1529.83 L916.679 1549.18 Q916.679 1553.54 917.856 1554.78 Q919.066 1556.02 922.726 1556.02 L928.742 1556.02 L928.742 1560.92 L922.726 1560.92 Q915.947 1560.92 913.369 1558.41 Q910.79 1555.86 910.79 1549.18 L910.79 1529.83 L906.494 1529.83 L906.494 1525.27 L910.79 1525.27 L910.79 1515.15 L916.679 1515.15 Z" fill="#000000" fill-rule="nonzero" fill-opacity="1" /><path clip-path="url(#clip220)" d="M966.936 1541.63 L966.936 1544.5 L940.009 1544.5 Q940.391 1550.55 943.637 1553.73 Q946.916 1556.88 952.74 1556.88 Q956.114 1556.88 959.265 1556.05 Q962.448 1555.23 965.567 1553.57 L965.567 1559.11 Q962.416 1560.45 959.106 1561.15 Q955.796 1561.85 952.39 1561.85 Q943.86 1561.85 938.863 1556.88 Q933.898 1551.91 933.898 1543.45 Q933.898 1534.7 938.609 1529.57 Q943.351 1524.42 951.372 1524.42 Q958.565 1524.42 962.735 1529.06 Q966.936 1533.68 966.936 1541.63 M961.079 1539.92 Q961.016 1535.11 958.374 1532.24 Q955.764 1529.38 951.435 1529.38 Q946.534 1529.38 943.574 1532.15 Q940.646 1534.92 940.2 1539.95 L961.079 1539.92 Z" fill="#000000" fill-rule="nonzero" fill-opacity="1" /><path clip-path="url(#clip220)" d="M1011.08 1529.38 Q1006.37 1529.38 1003.63 1533.07 Q1000.9 1536.73 1000.9 1543.13 Q1000.9 1549.53 1003.6 1553.22 Q1006.34 1556.88 1011.08 1556.88 Q1015.76 1556.88 1018.5 1553.19 Q1021.24 1549.5 1021.24 1543.13 Q1021.24 1536.8 1018.5 1533.1 Q1015.76 1529.38 1011.08 1529.38 M1011.08 1524.42 Q1018.72 1524.42 1023.08 1529.38 Q1027.44 1534.35 1027.44 1543.13 Q1027.44 1551.88 1023.08 1556.88 Q1018.72 1561.85 1011.08 1561.85 Q1003.41 1561.85 999.051 1556.88 Q994.722 1551.88 994.722 1543.13 Q994.722 1534.35 999.051 1529.38 Q1003.41 1524.42 1011.08 1524.42 Z" fill="#000000" fill-rule="nonzero" fill-opacity="1" /><path clip-path="url(#clip220)" d="M1055.2 1511.4 L1055.2 1516.27 L1049.59 1516.27 Q1046.44 1516.27 1045.2 1517.54 Q1043.99 1518.81 1043.99 1522.12 L1043.99 1525.27 L1053.64 1525.27 L1053.64 1529.83 L1043.99 1529.83 L1043.99 1560.92 L1038.1 1560.92 L1038.1 1529.83 L1032.5 1529.83 L1032.5 1525.27 L1038.1 1525.27 L1038.1 1522.79 Q1038.1 1516.84 1040.87 1514.13 Q1043.64 1511.4 1049.66 1511.4 L1055.2 1511.4 Z" fill="#000000" fill-rule="nonzero" fill-opacity="1" /><path clip-path="url(#clip220)" d="M1118.35 1536.38 Q1118.35 1538.86 1116.99 1544.34 Q1115.64 1549.81 1114 1553.55 Q1110.49 1561.66 1104.43 1561.66 Q1103.69 1561.66 1102.95 1561.6 Q1102.24 1561.53 1101.18 1561.24 Q1100.12 1560.95 1099.25 1560.5 Q1098.38 1560.02 1097.51 1559.12 Q1096.67 1558.22 1096.19 1557.03 Q1093.52 1561.66 1089.33 1561.66 Q1085.27 1561.66 1082.6 1559.6 Q1079.96 1557.54 1079.96 1553.32 Q1079.96 1551.42 1080.73 1548.62 Q1081.5 1545.82 1083.66 1540.02 Q1084.85 1537.03 1084.85 1535.38 Q1084.85 1534.64 1084.69 1534.16 Q1084.53 1533.68 1084.21 1533.52 Q1083.92 1533.32 1083.73 1533.29 Q1083.53 1533.23 1083.21 1533.23 Q1081.28 1533.23 1079.54 1535.19 Q1077.8 1537.12 1076.54 1541.41 Q1076.29 1542.21 1076.12 1542.4 Q1075.96 1542.6 1075.48 1542.6 Q1074.68 1542.57 1074.68 1541.92 Q1074.68 1541.66 1074.97 1540.66 Q1075.26 1539.63 1075.93 1538.12 Q1076.64 1536.57 1077.61 1535.19 Q1078.57 1533.77 1080.09 1532.77 Q1081.63 1531.78 1083.4 1531.78 Q1085.79 1531.78 1087.3 1533.35 Q1088.81 1534.93 1088.81 1537.19 Q1088.81 1537.83 1088.65 1538.54 Q1088.49 1539.22 1088.33 1539.67 Q1088.2 1540.09 1087.69 1541.41 Q1085.56 1546.98 1084.88 1549.65 Q1084.24 1552.32 1084.24 1554.19 Q1084.24 1554.8 1084.27 1555.29 Q1084.31 1555.77 1084.56 1556.77 Q1084.85 1557.77 1085.37 1558.44 Q1085.88 1559.09 1086.95 1559.63 Q1088.04 1560.18 1089.52 1560.18 Q1093.23 1560.18 1095.61 1554.64 Q1095.54 1554.32 1095.54 1553.48 Q1095.54 1551.61 1096.12 1549.1 Q1096.29 1548.52 1097.22 1544.82 Q1098.15 1541.08 1098.96 1537.83 Q1099.8 1534.55 1099.89 1534.35 Q1100.21 1533.45 1100.92 1532.97 Q1101.63 1532.48 1102.34 1532.48 Q1103.15 1532.48 1103.69 1532.97 Q1104.24 1533.45 1104.24 1534.29 Q1104.24 1534.45 1104.05 1535.19 Q1103.89 1535.9 1103.63 1536.96 Q1103.37 1538.02 1103.24 1538.57 L1100.47 1549.65 Q1099.76 1552.23 1099.76 1554.45 Q1099.76 1557.25 1101.02 1558.73 Q1102.28 1560.18 1104.63 1560.18 Q1109.04 1560.18 1111.87 1554.38 Q1113.16 1551.87 1114.32 1547.94 Q1115.51 1544.01 1115.51 1542.31 Q1115.51 1539.09 1113.13 1536.7 Q1112.61 1536.25 1112.39 1535.9 Q1112.16 1535.51 1112.16 1534.93 Q1112.16 1533.84 1113.19 1532.81 Q1114.22 1531.78 1115.45 1531.78 Q1116.54 1531.78 1117.44 1532.87 Q1118.35 1533.93 1118.35 1536.38 Z" fill="#000000" fill-rule="nonzero" fill-opacity="1" /><path clip-path="url(#clip220)" d="M1148.99 1553.29 Q1149.25 1553.58 1149.25 1553.87 Q1149.25 1554.16 1148.6 1555 Q1147.99 1555.83 1146.67 1556.96 Q1145.35 1558.09 1143.64 1559.15 Q1141.94 1560.21 1139.42 1560.92 Q1136.91 1561.66 1134.27 1561.66 Q1129.34 1561.66 1126.45 1558.41 Q1123.58 1555.16 1123.58 1550.49 Q1123.58 1545.95 1126.12 1541.6 Q1128.67 1537.22 1132.79 1534.51 Q1136.91 1531.78 1141.26 1531.78 Q1144.71 1531.78 1146.86 1533.39 Q1149.02 1535 1149.02 1537.44 Q1149.02 1539.34 1147.93 1540.5 Q1146.83 1541.66 1145.35 1541.66 Q1144.32 1541.66 1143.61 1541.08 Q1142.9 1540.47 1142.9 1539.34 Q1142.9 1537.9 1144.09 1536.77 Q1144.54 1536.32 1145.06 1536.12 Q1145.61 1535.9 1145.93 1535.9 Q1146.25 1535.87 1146.99 1535.87 Q1146.32 1534.61 1144.71 1533.93 Q1143.13 1533.23 1141.32 1533.23 Q1138.65 1533.23 1136.11 1535.09 Q1133.56 1536.93 1132.02 1539.83 Q1130.47 1542.66 1129.47 1546.69 Q1128.47 1550.68 1128.47 1553 Q1128.47 1556.19 1129.96 1558.18 Q1131.44 1560.18 1134.4 1560.18 Q1134.98 1560.18 1135.59 1560.15 Q1136.24 1560.12 1137.85 1559.76 Q1139.49 1559.41 1140.94 1558.8 Q1142.39 1558.18 1144.22 1556.86 Q1146.09 1555.51 1147.57 1553.68 Q1148.09 1553 1148.44 1553 Q1148.73 1553 1148.99 1553.29 Z" fill="#000000" fill-rule="nonzero" fill-opacity="1" /><path clip-path="url(#clip220)" d="M1213.69 1543.5 Q1214.07 1543.89 1214.07 1544.43 Q1214.07 1544.98 1213.69 1545.37 Q1213.3 1545.75 1212.75 1545.75 L1171.46 1545.75 Q1170.92 1545.75 1170.53 1545.37 Q1170.14 1544.98 1170.14 1544.43 Q1170.14 1543.89 1170.53 1543.5 Q1170.92 1543.11 1171.46 1543.11 L1212.75 1543.11 Q1213.3 1543.11 1213.69 1543.5 Z" fill="#000000" fill-rule="nonzero" fill-opacity="1" /><path clip-path="url(#clip220)" d="M1239.26 1523.27 L1239.26 1521.21 Q1247.18 1521.21 1251.27 1516.99 Q1252.4 1516.99 1252.59 1517.25 Q1252.79 1517.51 1252.79 1518.7 L1252.79 1555.71 Q1252.79 1557.67 1253.75 1558.28 Q1254.72 1558.89 1258.94 1558.89 L1261.03 1558.89 L1261.03 1560.92 Q1258.71 1560.73 1250.34 1560.73 Q1241.97 1560.73 1239.68 1560.92 L1239.68 1558.89 L1241.77 1558.89 Q1245.93 1558.89 1246.93 1558.31 Q1247.92 1557.7 1247.92 1555.71 L1247.92 1521.53 Q1244.48 1523.27 1239.26 1523.27 Z" fill="#000000" fill-rule="nonzero" fill-opacity="1" /><path clip-path="url(#clip220)" d="M1329.28 1541.63 L1329.28 1544.5 L1302.35 1544.5 Q1302.73 1550.55 1305.98 1553.73 Q1309.26 1556.88 1315.08 1556.88 Q1318.46 1556.88 1321.61 1556.05 Q1324.79 1555.23 1327.91 1553.57 L1327.91 1559.11 Q1324.76 1560.45 1321.45 1561.15 Q1318.14 1561.85 1314.73 1561.85 Q1306.2 1561.85 1301.21 1556.88 Q1296.24 1551.91 1296.24 1543.45 Q1296.24 1534.7 1300.95 1529.57 Q1305.69 1524.42 1313.72 1524.42 Q1320.91 1524.42 1325.08 1529.06 Q1329.28 1533.68 1329.28 1541.63 M1323.42 1539.92 Q1323.36 1535.11 1320.72 1532.24 Q1318.11 1529.38 1313.78 1529.38 Q1308.88 1529.38 1305.92 1532.15 Q1302.99 1534.92 1302.54 1539.95 L1323.42 1539.92 Z" fill="#000000" fill-rule="nonzero" fill-opacity="1" /><path clip-path="url(#clip220)" d="M1367.38 1525.27 L1354.49 1542.62 L1368.05 1560.92 L1361.14 1560.92 L1350.76 1546.92 L1340.39 1560.92 L1333.48 1560.92 L1347.33 1542.27 L1334.66 1525.27 L1341.57 1525.27 L1351.02 1537.97 L1360.47 1525.27 L1367.38 1525.27 Z" fill="#000000" fill-rule="nonzero" fill-opacity="1" /><path clip-path="url(#clip220)" d="M1381.99 1555.58 L1381.99 1574.48 L1376.1 1574.48 L1376.1 1525.27 L1381.99 1525.27 L1381.99 1530.69 Q1383.83 1527.5 1386.63 1525.97 Q1389.47 1524.42 1393.38 1524.42 Q1399.88 1524.42 1403.92 1529.57 Q1407.99 1534.73 1407.99 1543.13 Q1407.99 1551.53 1403.92 1556.69 Q1399.88 1561.85 1393.38 1561.85 Q1389.47 1561.85 1386.63 1560.32 Q1383.83 1558.76 1381.99 1555.58 M1401.91 1543.13 Q1401.91 1536.67 1399.24 1533.01 Q1396.6 1529.32 1391.95 1529.32 Q1387.3 1529.32 1384.63 1533.01 Q1381.99 1536.67 1381.99 1543.13 Q1381.99 1549.59 1384.63 1553.28 Q1387.3 1556.94 1391.95 1556.94 Q1396.6 1556.94 1399.24 1553.28 Q1401.91 1549.59 1401.91 1543.13 Z" fill="#000000" fill-rule="nonzero" fill-opacity="1" /><path clip-path="url(#clip220)" d="M1438.36 1530.75 Q1437.37 1530.18 1436.19 1529.92 Q1435.05 1529.64 1433.65 1529.64 Q1428.68 1529.64 1426.01 1532.88 Q1423.36 1536.1 1423.36 1542.14 L1423.36 1560.92 L1417.48 1560.92 L1417.48 1525.27 L1423.36 1525.27 L1423.36 1530.81 Q1425.21 1527.57 1428.17 1526.01 Q1431.13 1524.42 1435.36 1524.42 Q1435.97 1524.42 1436.7 1524.51 Q1437.43 1524.57 1438.32 1524.73 L1438.36 1530.75 Z" fill="#000000" fill-rule="nonzero" fill-opacity="1" /><path clip-path="url(#clip220)" d="M1473.56 1541.63 L1473.56 1544.5 L1446.63 1544.5 Q1447.01 1550.55 1450.26 1553.73 Q1453.54 1556.88 1459.36 1556.88 Q1462.74 1556.88 1465.89 1556.05 Q1469.07 1555.23 1472.19 1553.57 L1472.19 1559.11 Q1469.04 1560.45 1465.73 1561.15 Q1462.42 1561.85 1459.01 1561.85 Q1450.48 1561.85 1445.49 1556.88 Q1440.52 1551.91 1440.52 1543.45 Q1440.52 1534.7 1445.23 1529.57 Q1449.97 1524.42 1457.99 1524.42 Q1465.19 1524.42 1469.36 1529.06 Q1473.56 1533.68 1473.56 1541.63 M1467.7 1539.92 Q1467.64 1535.11 1465 1532.24 Q1462.39 1529.38 1458.06 1529.38 Q1453.16 1529.38 1450.2 1532.15 Q1447.27 1534.92 1446.82 1539.95 L1467.7 1539.92 Z" fill="#000000" fill-rule="nonzero" fill-opacity="1" /><path clip-path="url(#clip220)" d="M1505.9 1526.32 L1505.9 1531.86 Q1503.41 1530.59 1500.74 1529.95 Q1498.07 1529.32 1495.2 1529.32 Q1490.84 1529.32 1488.64 1530.65 Q1486.48 1531.99 1486.48 1534.66 Q1486.48 1536.7 1488.04 1537.88 Q1489.6 1539.02 1494.31 1540.07 L1496.32 1540.52 Q1502.55 1541.86 1505.16 1544.31 Q1507.81 1546.73 1507.81 1551.09 Q1507.81 1556.05 1503.86 1558.95 Q1499.94 1561.85 1493.07 1561.85 Q1490.2 1561.85 1487.09 1561.27 Q1484 1560.73 1480.56 1559.62 L1480.56 1553.57 Q1483.81 1555.26 1486.96 1556.12 Q1490.11 1556.94 1493.2 1556.94 Q1497.33 1556.94 1499.56 1555.54 Q1501.79 1554.11 1501.79 1551.53 Q1501.79 1549.15 1500.17 1547.87 Q1498.58 1546.6 1493.13 1545.42 L1491.1 1544.94 Q1485.65 1543.8 1483.23 1541.44 Q1480.82 1539.06 1480.82 1534.92 Q1480.82 1529.89 1484.38 1527.15 Q1487.94 1524.42 1494.5 1524.42 Q1497.75 1524.42 1500.61 1524.89 Q1503.48 1525.37 1505.9 1526.32 Z" fill="#000000" fill-rule="nonzero" fill-opacity="1" /><path clip-path="url(#clip220)" d="M1539.86 1526.32 L1539.86 1531.86 Q1537.37 1530.59 1534.7 1529.95 Q1532.03 1529.32 1529.16 1529.32 Q1524.8 1529.32 1522.61 1530.65 Q1520.44 1531.99 1520.44 1534.66 Q1520.44 1536.7 1522 1537.88 Q1523.56 1539.02 1528.27 1540.07 L1530.28 1540.52 Q1536.51 1541.86 1539.12 1544.31 Q1541.77 1546.73 1541.77 1551.09 Q1541.77 1556.05 1537.82 1558.95 Q1533.91 1561.85 1527.03 1561.85 Q1524.17 1561.85 1521.05 1561.27 Q1517.96 1560.73 1514.52 1559.62 L1514.52 1553.57 Q1517.77 1555.26 1520.92 1556.12 Q1524.07 1556.94 1527.16 1556.94 Q1531.3 1556.94 1533.52 1555.54 Q1535.75 1554.11 1535.75 1551.53 Q1535.75 1549.15 1534.13 1547.87 Q1532.54 1546.6 1527.09 1545.42 L1525.06 1544.94 Q1519.61 1543.8 1517.2 1541.44 Q1514.78 1539.06 1514.78 1534.92 Q1514.78 1529.89 1518.34 1527.15 Q1521.91 1524.42 1528.46 1524.42 Q1531.71 1524.42 1534.57 1524.89 Q1537.44 1525.37 1539.86 1526.32 Z" fill="#000000" fill-rule="nonzero" fill-opacity="1" /><path clip-path="url(#clip220)" d="M1551.09 1525.27 L1556.95 1525.27 L1556.95 1560.92 L1551.09 1560.92 L1551.09 1525.27 M1551.09 1511.4 L1556.95 1511.4 L1556.95 1518.81 L1551.09 1518.81 L1551.09 1511.4 Z" fill="#000000" fill-rule="nonzero" fill-opacity="1" /><path clip-path="url(#clip220)" d="M1583.02 1529.38 Q1578.31 1529.38 1575.57 1533.07 Q1572.83 1536.73 1572.83 1543.13 Q1572.83 1549.53 1575.54 1553.22 Q1578.27 1556.88 1583.02 1556.88 Q1587.7 1556.88 1590.43 1553.19 Q1593.17 1549.5 1593.17 1543.13 Q1593.17 1536.8 1590.43 1533.1 Q1587.7 1529.38 1583.02 1529.38 M1583.02 1524.42 Q1590.66 1524.42 1595.02 1529.38 Q1599.38 1534.35 1599.38 1543.13 Q1599.38 1551.88 1595.02 1556.88 Q1590.66 1561.85 1583.02 1561.85 Q1575.35 1561.85 1570.99 1556.88 Q1566.66 1551.88 1566.66 1543.13 Q1566.66 1534.35 1570.99 1529.38 Q1575.35 1524.42 1583.02 1524.42 Z" fill="#000000" fill-rule="nonzero" fill-opacity="1" /><path clip-path="url(#clip220)" d="M1638.72 1539.41 L1638.72 1560.92 L1632.86 1560.92 L1632.86 1539.6 Q1632.86 1534.54 1630.89 1532.02 Q1628.91 1529.51 1624.97 1529.51 Q1620.22 1529.51 1617.49 1532.53 Q1614.75 1535.56 1614.75 1540.78 L1614.75 1560.92 L1608.86 1560.92 L1608.86 1525.27 L1614.75 1525.27 L1614.75 1530.81 Q1616.85 1527.6 1619.68 1526.01 Q1622.55 1524.42 1626.27 1524.42 Q1632.41 1524.42 1635.57 1528.23 Q1638.72 1532.02 1638.72 1539.41 Z" fill="#000000" fill-rule="nonzero" fill-opacity="1" /><path clip-path="url(#clip220)" d="M1694.83 1527.06 Q1694.83 1528.9 1693.7 1530 Q1692.61 1531.09 1691.22 1531.09 Q1690 1531.09 1689.35 1530.38 Q1688.71 1529.67 1688.71 1528.77 Q1688.71 1528.38 1688.87 1527.9 Q1689.03 1527.39 1689.39 1526.77 Q1689.77 1526.16 1690.58 1525.71 Q1691.38 1525.26 1692.48 1525.2 Q1692.25 1524.97 1692.19 1524.94 Q1691.71 1524.55 1690.8 1524.42 Q1690.68 1524.36 1690.22 1524.36 Q1688 1524.36 1685.75 1526 Q1683.53 1527.61 1680.79 1530.67 Q1677.34 1534.25 1675.12 1535.57 Q1684.88 1536.85 1684.88 1542.49 Q1684.88 1543.42 1684.62 1544.55 Q1684.11 1546.68 1684.11 1548.22 Q1684.11 1551.32 1686.2 1551.32 Q1688.23 1551.32 1689.52 1549.25 Q1690.84 1547.19 1691.93 1543.17 Q1692.09 1542.43 1692.25 1542.2 Q1692.41 1541.98 1692.87 1541.98 Q1693.67 1541.98 1693.67 1542.62 Q1692.93 1546.39 1691.29 1549.29 Q1689.19 1552.8 1686.07 1552.8 Q1683.46 1552.8 1681.72 1550.99 Q1680.02 1549.16 1680.02 1546.26 Q1680.02 1545.55 1680.27 1543.94 Q1680.47 1543.3 1680.47 1542.56 Q1680.47 1541.04 1679.63 1539.91 Q1678.79 1538.76 1677.44 1538.18 Q1676.09 1537.6 1674.96 1537.34 Q1673.86 1537.05 1672.8 1536.95 Q1669.58 1550.57 1669.13 1551.41 Q1668.84 1551.99 1668.2 1552.38 Q1667.55 1552.8 1666.88 1552.8 Q1666.23 1552.8 1665.59 1552.35 Q1664.97 1551.93 1664.97 1550.93 Q1664.97 1550.41 1665.23 1549.48 L1674.8 1511.48 L1674.99 1510.19 Q1674.99 1509.8 1674.83 1509.61 Q1674.7 1509.38 1673.93 1509.22 Q1673.19 1509.06 1671.71 1509.06 Q1671.09 1509.06 1670.8 1509.03 Q1670.55 1509 1670.32 1508.84 Q1670.1 1508.64 1670.1 1508.26 Q1670.1 1507.71 1670.32 1507.42 Q1670.58 1507.1 1670.77 1507.03 Q1670.97 1506.97 1671.35 1506.94 Q1671.9 1506.9 1673.73 1506.74 Q1675.57 1506.55 1677.15 1506.42 Q1678.73 1506.29 1679.4 1506.29 Q1679.79 1506.29 1679.98 1506.48 Q1680.21 1506.65 1680.24 1506.84 L1680.27 1507 L1673.41 1534.83 Q1676.25 1533.7 1680.72 1528.71 Q1685.91 1522.91 1690.35 1522.91 Q1692.45 1522.91 1693.64 1524.2 Q1694.83 1525.45 1694.83 1527.06 Z" fill="#000000" fill-rule="nonzero" fill-opacity="1" /><path clip-path="url(#clip220)" d="M1701.58 1549.62 L1703.09 1540.13 L1704.24 1540.13 Q1704.37 1540.69 1704.6 1540.94 Q1704.85 1541.19 1706.15 1541.39 Q1707.48 1541.59 1710.17 1541.59 L1721.37 1541.59 Q1721.37 1542.65 1720.97 1543.22 L1714.72 1551.99 Q1712.74 1554.76 1711.86 1559.88 Q1711.34 1563.3 1711.36 1567.45 L1711.36 1569.8 Q1711.36 1572.34 1709.22 1572.34 Q1707.1 1572.34 1707.1 1569.8 Q1707.1 1560.98 1712.78 1552.44 Q1713.39 1551.56 1715.62 1548.42 Q1717.88 1545.29 1717.97 1545.16 L1708.41 1545.16 Q1704.22 1545.16 1703.88 1545.43 Q1703.43 1545.83 1702.73 1549.62 L1701.58 1549.62 Z" fill="#000000" fill-rule="nonzero" fill-opacity="1" /><polyline clip-path="url(#clip220)" style="stroke:#000000; stroke-linecap:round; stroke-linejoin:round; stroke-width:4; stroke-opacity:1; fill:none" points="219.38,1423.18 219.38,47.2441 "/>
<polyline clip-path="url(#clip220)" style="stroke:#000000; stroke-linecap:round; stroke-linejoin:round; stroke-width:4; stroke-opacity:1; fill:none" points="219.38,1394.11 238.278,1394.11 "/>
<polyline clip-path="url(#clip220)" style="stroke:#000000; stroke-linecap:round; stroke-linejoin:round; stroke-width:4; stroke-opacity:1; fill:none" points="219.38,1050.63 238.278,1050.63 "/>
<polyline clip-path="url(#clip220)" style="stroke:#000000; stroke-linecap:round; stroke-linejoin:round; stroke-width:4; stroke-opacity:1; fill:none" points="219.38,707.153 238.278,707.153 "/>
<polyline clip-path="url(#clip220)" style="stroke:#000000; stroke-linecap:round; stroke-linejoin:round; stroke-width:4; stroke-opacity:1; fill:none" points="219.38,363.673 238.278,363.673 "/>
<path clip-path="url(#clip220)" d="M126.205 1379.91 Q122.593 1379.91 120.765 1383.48 Q118.959 1387.02 118.959 1394.15 Q118.959 1401.26 120.765 1404.82 Q122.593 1408.36 126.205 1408.36 Q129.839 1408.36 131.644 1404.82 Q133.473 1401.26 133.473 1394.15 Q133.473 1387.02 131.644 1383.48 Q129.839 1379.91 126.205 1379.91 M126.205 1376.21 Q132.015 1376.21 135.07 1380.82 Q138.149 1385.4 138.149 1394.15 Q138.149 1402.88 135.07 1407.48 Q132.015 1412.07 126.205 1412.07 Q120.394 1412.07 117.316 1407.48 Q114.26 1402.88 114.26 1394.15 Q114.26 1385.4 117.316 1380.82 Q120.394 1376.21 126.205 1376.21 Z" fill="#000000" fill-rule="nonzero" fill-opacity="1" /><path clip-path="url(#clip220)" d="M146.366 1405.51 L151.251 1405.51 L151.251 1411.39 L146.366 1411.39 L146.366 1405.51 Z" fill="#000000" fill-rule="nonzero" fill-opacity="1" /><path clip-path="url(#clip220)" d="M171.436 1379.91 Q167.825 1379.91 165.996 1383.48 Q164.19 1387.02 164.19 1394.15 Q164.19 1401.26 165.996 1404.82 Q167.825 1408.36 171.436 1408.36 Q175.07 1408.36 176.876 1404.82 Q178.704 1401.26 178.704 1394.15 Q178.704 1387.02 176.876 1383.48 Q175.07 1379.91 171.436 1379.91 M171.436 1376.21 Q177.246 1376.21 180.301 1380.82 Q183.38 1385.4 183.38 1394.15 Q183.38 1402.88 180.301 1407.48 Q177.246 1412.07 171.436 1412.07 Q165.626 1412.07 162.547 1407.48 Q159.491 1402.88 159.491 1394.15 Q159.491 1385.4 162.547 1380.82 Q165.626 1376.21 171.436 1376.21 Z" fill="#000000" fill-rule="nonzero" fill-opacity="1" /><path clip-path="url(#clip220)" d="M127.2 1036.43 Q123.589 1036.43 121.76 1040 Q119.955 1043.54 119.955 1050.67 Q119.955 1057.77 121.76 1061.34 Q123.589 1064.88 127.2 1064.88 Q130.834 1064.88 132.64 1061.34 Q134.468 1057.77 134.468 1050.67 Q134.468 1043.54 132.64 1040 Q130.834 1036.43 127.2 1036.43 M127.2 1032.73 Q133.01 1032.73 136.066 1037.34 Q139.144 1041.92 139.144 1050.67 Q139.144 1059.4 136.066 1064 Q133.01 1068.59 127.2 1068.59 Q121.39 1068.59 118.311 1064 Q115.256 1059.4 115.256 1050.67 Q115.256 1041.92 118.311 1037.34 Q121.39 1032.73 127.2 1032.73 Z" fill="#000000" fill-rule="nonzero" fill-opacity="1" /><path clip-path="url(#clip220)" d="M147.362 1062.03 L152.246 1062.03 L152.246 1067.91 L147.362 1067.91 L147.362 1062.03 Z" fill="#000000" fill-rule="nonzero" fill-opacity="1" /><path clip-path="url(#clip220)" d="M162.477 1033.35 L180.834 1033.35 L180.834 1037.29 L166.76 1037.29 L166.76 1045.76 Q167.778 1045.41 168.797 1045.25 Q169.815 1045.07 170.834 1045.07 Q176.621 1045.07 180.001 1048.24 Q183.38 1051.41 183.38 1056.83 Q183.38 1062.4 179.908 1065.51 Q176.436 1068.59 170.116 1068.59 Q167.94 1068.59 165.672 1068.21 Q163.427 1067.84 161.019 1067.1 L161.019 1062.4 Q163.102 1063.54 165.325 1064.09 Q167.547 1064.65 170.024 1064.65 Q174.028 1064.65 176.366 1062.54 Q178.704 1060.44 178.704 1056.83 Q178.704 1053.21 176.366 1051.11 Q174.028 1049 170.024 1049 Q168.149 1049 166.274 1049.42 Q164.422 1049.84 162.477 1050.71 L162.477 1033.35 Z" fill="#000000" fill-rule="nonzero" fill-opacity="1" /><path clip-path="url(#clip220)" d="M117.015 720.498 L124.654 720.498 L124.654 694.133 L116.343 695.799 L116.343 691.54 L124.607 689.873 L129.283 689.873 L129.283 720.498 L136.922 720.498 L136.922 724.433 L117.015 724.433 L117.015 720.498 Z" fill="#000000" fill-rule="nonzero" fill-opacity="1" /><path clip-path="url(#clip220)" d="M146.366 718.554 L151.251 718.554 L151.251 724.433 L146.366 724.433 L146.366 718.554 Z" fill="#000000" fill-rule="nonzero" fill-opacity="1" /><path clip-path="url(#clip220)" d="M171.436 692.952 Q167.825 692.952 165.996 696.517 Q164.19 700.059 164.19 707.188 Q164.19 714.295 165.996 717.859 Q167.825 721.401 171.436 721.401 Q175.07 721.401 176.876 717.859 Q178.704 714.295 178.704 707.188 Q178.704 700.059 176.876 696.517 Q175.07 692.952 171.436 692.952 M171.436 689.248 Q177.246 689.248 180.301 693.855 Q183.38 698.438 183.38 707.188 Q183.38 715.915 180.301 720.521 Q177.246 725.105 171.436 725.105 Q165.626 725.105 162.547 720.521 Q159.491 715.915 159.491 707.188 Q159.491 698.438 162.547 693.855 Q165.626 689.248 171.436 689.248 Z" fill="#000000" fill-rule="nonzero" fill-opacity="1" /><path clip-path="url(#clip220)" d="M118.01 377.018 L125.649 377.018 L125.649 350.652 L117.339 352.319 L117.339 348.06 L125.603 346.393 L130.279 346.393 L130.279 377.018 L137.917 377.018 L137.917 380.953 L118.01 380.953 L118.01 377.018 Z" fill="#000000" fill-rule="nonzero" fill-opacity="1" /><path clip-path="url(#clip220)" d="M147.362 375.074 L152.246 375.074 L152.246 380.953 L147.362 380.953 L147.362 375.074 Z" fill="#000000" fill-rule="nonzero" fill-opacity="1" /><path clip-path="url(#clip220)" d="M162.477 346.393 L180.834 346.393 L180.834 350.328 L166.76 350.328 L166.76 358.8 Q167.778 358.453 168.797 358.291 Q169.815 358.106 170.834 358.106 Q176.621 358.106 180.001 361.277 Q183.38 364.449 183.38 369.865 Q183.38 375.444 179.908 378.546 Q176.436 381.624 170.116 381.624 Q167.94 381.624 165.672 381.254 Q163.427 380.884 161.019 380.143 L161.019 375.444 Q163.102 376.578 165.325 377.134 Q167.547 377.689 170.024 377.689 Q174.028 377.689 176.366 375.583 Q178.704 373.476 178.704 369.865 Q178.704 366.254 176.366 364.148 Q174.028 362.041 170.024 362.041 Q168.149 362.041 166.274 362.458 Q164.422 362.875 162.477 363.754 L162.477 346.393 Z" fill="#000000" fill-rule="nonzero" fill-opacity="1" /><path clip-path="url(#clip220)" d="M82.5735 959.101 L16.6159 959.101 L16.6159 949.15 L18.1296 949.15 L18.1296 954.689 L81.0598 954.689 L81.0598 949.15 L82.5735 949.15 L82.5735 959.101 Z" fill="#000000" fill-rule="nonzero" fill-opacity="1" /><path clip-path="url(#clip220)" d="M21.7688 881.021 Q22.3485 881.021 22.6706 881.246 Q22.9604 881.471 22.9927 881.665 Q23.0249 881.826 23.0893 882.277 Q23.2181 883.758 23.669 884.918 Q24.1199 886.077 24.9894 886.946 Q25.8268 887.816 26.5997 888.364 Q27.3726 888.911 28.6931 889.652 L66.2773 911.294 Q66.6638 911.52 66.857 911.681 Q67.0825 911.809 67.3079 912.131 Q67.5334 912.454 67.5334 912.872 Q67.5334 913.452 67.2113 913.645 Q66.8892 913.838 65.8264 913.935 L32.5256 916.35 L66.1485 935.771 Q66.7604 936.125 66.9537 936.286 Q67.1791 936.415 67.3401 936.705 Q67.5334 936.962 67.5334 937.349 Q67.5334 937.8 67.3079 938.025 Q67.1147 938.25 66.8248 938.315 Q66.535 938.347 65.8264 938.379 L25.5047 941.374 Q23.991 941.471 23.5402 942.019 Q23.0893 942.534 23.0893 944.853 Q23.0893 945.497 23.0571 945.787 Q23.0249 946.044 22.8638 946.27 Q22.6706 946.495 22.2841 946.495 Q21.0281 946.495 21.0281 945.304 Q21.0281 944.176 21.1247 941.857 Q21.2213 939.539 21.2213 938.379 Q21.2213 937.027 21.1247 934.321 Q21.0281 931.616 21.0281 930.296 Q21.0281 929.362 21.7688 929.362 Q22.3807 929.362 22.7028 929.619 Q22.9927 929.845 23.0571 930.07 Q23.0893 930.296 23.0893 930.746 Q23.1215 932.518 23.3469 933.645 Q23.5724 934.74 24.0232 935.159 Q24.4419 935.577 24.7318 935.674 Q24.9894 935.771 25.4403 935.771 L58.9022 933.259 L29.8203 916.576 L24.7318 916.962 Q23.7334 917.059 23.4113 917.703 Q23.0893 918.347 23.0893 920.441 Q23.0893 921.02 23.0571 921.31 Q23.0249 921.568 22.8638 921.825 Q22.7028 922.051 22.3485 922.051 Q21.7366 922.051 21.4468 921.793 Q21.1247 921.536 21.0925 921.342 Q21.0281 921.117 21.0281 920.795 Q21.0281 920.054 21.1247 917.349 Q21.2213 914.644 21.2213 913.871 Q21.2213 912.55 21.1247 909.845 Q21.0281 907.14 21.0281 905.819 Q21.0281 904.821 21.7688 904.821 Q22.6706 904.821 22.896 905.207 Q23.0893 905.594 23.0893 906.592 Q23.1215 908.299 23.3791 909.362 Q23.6368 910.392 24.2165 910.779 Q24.764 911.133 25.1182 911.198 Q25.4725 911.262 26.181 911.23 L58.9022 908.782 L27.8235 890.972 Q27.6947 890.908 27.3404 890.715 Q26.954 890.489 26.8574 890.457 Q26.7607 890.393 26.5031 890.296 Q26.2454 890.167 26.0844 890.135 Q25.8912 890.103 25.6657 890.103 Q24.3453 890.103 23.7656 891.294 Q23.1537 892.486 23.0893 894 Q23.0893 894.998 22.2841 894.998 Q21.7044 894.998 21.4146 894.74 Q21.0925 894.483 21.0603 894.289 Q21.0281 894.064 21.0281 893.742 Q21.0281 892.647 21.1247 890.328 Q21.2213 888.009 21.2213 886.882 Q21.2213 886.045 21.1247 884.306 Q21.0281 882.566 21.0281 881.794 Q21.0281 881.439 21.2857 881.246 Q21.5434 881.021 21.7688 881.021 Z" fill="#000000" fill-rule="nonzero" fill-opacity="1" /><path clip-path="url(#clip220)" d="M20.2552 829.268 L37.0666 833.423 Q38.1294 833.712 38.2582 833.906 Q38.3871 834.067 38.3871 834.582 Q38.3871 835.58 37.7107 835.58 Q37.6463 835.58 36.809 835.484 Q35.9394 835.387 34.3613 835.387 Q28.5321 835.387 25.086 838.221 Q21.64 841.023 21.64 846.015 Q21.64 850.331 23.83 854.678 Q26.02 858.994 29.5949 862.086 Q32.3001 864.405 35.714 866.112 Q39.1278 867.786 42.2518 868.591 Q45.3757 869.364 47.7268 869.719 Q50.0778 870.073 51.7847 870.073 Q54.2645 870.073 56.3579 869.558 Q58.4513 869.01 59.9328 868.044 Q61.382 867.078 62.5092 865.854 Q63.6042 864.598 64.2484 863.149 Q64.8925 861.667 65.2145 860.186 Q65.5044 858.704 65.5044 857.158 Q65.5044 850.943 60.6735 845.017 Q56.7122 840.315 50.2388 838.35 Q49.5947 838.189 49.5947 837.513 Q49.5947 836.708 50.2388 836.708 Q50.3676 836.708 51.0118 836.869 Q51.6237 837.03 52.8797 837.513 Q54.1035 837.996 55.4884 838.737 Q56.8732 839.477 58.6123 840.862 Q60.3515 842.247 61.8651 843.954 Q64.3772 846.852 65.9553 850.524 Q67.5334 854.195 67.5334 858.221 Q67.5334 863.245 65.3112 867.303 Q63.0889 871.361 58.9344 873.744 Q54.7798 876.095 49.4659 876.095 Q43.8621 876.095 38.3548 873.519 Q32.8476 870.942 28.7575 866.852 Q24.6674 862.762 22.1231 857.352 Q19.5788 851.941 19.5788 846.53 Q19.5788 844.469 20.1263 842.633 Q20.6738 840.798 21.3502 839.703 Q22.0265 838.576 23.0249 837.577 Q23.991 836.579 24.4419 836.257 Q24.8928 835.902 25.4403 835.58 L20.384 830.975 Q19.5788 830.17 19.5788 829.977 Q19.5788 829.59 19.8043 829.429 Q20.0297 829.268 20.2552 829.268 Z" fill="#000000" fill-rule="nonzero" fill-opacity="1" /><path clip-path="url(#clip220)" d="M48.6607 767.551 Q49.0472 767.165 49.5947 767.165 Q50.1422 767.165 50.5287 767.551 Q50.9151 767.937 50.9151 768.485 L50.9151 809.773 Q50.9151 810.32 50.5287 810.707 Q50.1422 811.093 49.5947 811.093 Q49.0472 811.093 48.6607 810.707 Q48.2743 810.32 48.2743 809.773 L48.2743 768.485 Q48.2743 767.937 48.6607 767.551 Z" fill="#000000" fill-rule="nonzero" fill-opacity="1" /><path clip-path="url(#clip220)" d="M28.4354 741.976 L26.3743 741.976 Q26.3743 734.054 22.1553 729.964 Q22.1553 728.836 22.4129 728.643 Q22.6706 728.45 23.8622 728.45 L60.8667 728.45 Q62.8313 728.45 63.4432 727.484 Q64.0551 726.518 64.0551 722.299 L64.0551 720.205 L66.0841 720.205 Q65.8909 722.524 65.8909 730.898 Q65.8909 739.271 66.0841 741.558 L64.0551 741.558 L64.0551 739.464 Q64.0551 735.31 63.4754 734.311 Q62.8635 733.313 60.8667 733.313 L26.6963 733.313 Q28.4354 736.759 28.4354 741.976 Z" fill="#000000" fill-rule="nonzero" fill-opacity="1" /><path clip-path="url(#clip220)" d="M71.6062 688.35 Q71.7865 688.35 72.4854 688.553 Q73.1843 688.756 74.2664 689.252 Q75.3485 689.725 76.3404 690.379 Q77.3098 691.033 78.0312 692.115 Q78.7301 693.174 78.7301 694.392 Q78.7301 696.015 77.648 697.097 Q76.5659 698.179 74.9427 698.179 Q74.0409 698.179 72.801 697.706 Q64.7979 694.707 62.0475 694.707 Q58.8237 694.707 58.8237 697.21 Q58.8237 698.45 59.2971 699.622 Q59.748 700.772 60.3792 701.561 Q61.0104 702.35 61.8897 703.071 Q62.7463 703.77 63.3325 704.131 Q63.8961 704.469 64.4597 704.74 L66.7592 705.326 Q67.3904 705.461 69.8477 706.115 L74.0184 707.129 Q77.1295 707.851 77.4226 708.008 Q78.0538 708.234 78.3919 708.73 Q78.7301 709.226 78.7301 709.722 Q78.7301 710.285 78.3919 710.669 Q78.0538 711.052 77.4676 711.052 Q77.3775 711.052 77.0393 710.984 Q76.7011 710.917 76.2277 710.804 Q75.7543 710.691 75.4838 710.646 L64.8204 707.963 Q62.8816 707.467 62.2729 707.355 Q61.6417 707.219 60.9428 707.219 Q58.8237 707.219 58.8237 708.662 Q58.8237 709.834 60.2214 710.601 Q61.6191 711.367 64.3244 712.021 Q65.0684 712.224 65.2262 712.359 Q65.384 712.472 65.384 712.81 Q65.3615 713.374 64.9106 713.374 Q64.7979 713.374 64.0539 713.194 Q63.3099 713.013 62.2504 712.675 Q61.1683 712.314 60.4468 711.976 Q59.9058 711.683 59.6578 711.525 Q59.3873 711.345 58.8688 710.917 Q58.3277 710.466 58.0797 709.88 Q57.8092 709.271 57.8092 708.527 Q57.8092 706.859 58.8913 705.641 Q59.9509 704.424 61.822 704.266 Q57.8092 701.268 57.8092 697.075 Q57.8092 694.595 59.1167 693.174 Q60.4243 691.754 62.7463 691.754 Q63.2874 691.754 63.9863 691.867 Q64.6626 691.957 65.5193 692.182 Q66.3759 692.385 67.0297 692.566 Q67.6835 692.746 68.7431 693.107 Q69.7801 693.467 70.231 693.625 Q70.6819 693.783 71.7414 694.166 Q72.7785 694.527 72.8912 694.572 Q74.9878 695.406 76.1826 695.406 Q76.9717 695.406 77.3324 695.158 Q77.6931 694.888 77.6931 694.302 Q77.6931 692.724 76.1375 691.551 Q74.5595 690.356 71.9894 689.59 Q71.4258 689.41 71.2906 689.319 Q71.1553 689.207 71.1553 688.891 Q71.1553 688.35 71.6062 688.35 Z" fill="#000000" fill-rule="nonzero" fill-opacity="1" /><path clip-path="url(#clip220)" d="M81.0598 681.55 L81.0598 676.01 L18.1296 676.01 L18.1296 681.55 L16.6159 681.55 L16.6159 671.598 L82.5735 671.598 L82.5735 681.55 L81.0598 681.55 Z" fill="#000000" fill-rule="nonzero" fill-opacity="1" /><path clip-path="url(#clip220)" d="M57.9996 660.789 L57.9996 654.074 L63.4742 654.074 L73.6593 659.293 L73.6593 663.399 L63.4742 660.789 L57.9996 660.789 Z" fill="#000000" fill-rule="nonzero" fill-opacity="1" /><path clip-path="url(#clip220)" d="M48.1646 604.644 Q48.1646 611.742 49.7879 614.479 Q51.4111 617.216 55.3261 617.216 Q58.4452 617.216 60.2913 615.179 Q62.1055 613.11 62.1055 609.577 Q62.1055 604.707 58.668 601.779 Q55.1987 598.819 49.4696 598.819 L48.1646 598.819 L48.1646 604.644 M45.7457 592.963 L66.0841 592.963 L66.0841 598.819 L60.6732 598.819 Q63.9198 600.824 65.4794 603.816 Q67.0071 606.808 67.0071 611.137 Q67.0071 616.611 63.9516 619.858 Q60.8642 623.073 55.708 623.073 Q49.6924 623.073 46.6369 619.062 Q43.5813 615.02 43.5813 607.031 L43.5813 598.819 L43.0084 598.819 Q38.9662 598.819 36.77 601.493 Q34.542 604.135 34.542 608.941 Q34.542 611.996 35.2741 614.893 Q36.0061 617.789 37.4702 620.463 L32.0594 620.463 Q30.8181 617.248 30.2133 614.224 Q29.5768 611.201 29.5768 608.336 Q29.5768 600.602 33.5872 596.782 Q37.5976 592.963 45.7457 592.963 Z" fill="#000000" fill-rule="nonzero" fill-opacity="1" /><path clip-path="url(#clip220)" d="M57.9996 580.072 L57.9996 573.356 L66.0841 573.356 L66.0841 580.072 L57.9996 580.072 Z" fill="#000000" fill-rule="nonzero" fill-opacity="1" /><path clip-path="url(#clip220)" d="M52.0159 560.784 L30.4361 560.784 L30.4361 554.928 L51.7931 554.928 Q56.8538 554.928 59.4001 552.954 Q61.9146 550.981 61.9146 547.034 Q61.9146 542.292 58.8908 539.554 Q55.8671 536.785 50.6473 536.785 L30.4361 536.785 L30.4361 530.929 L66.0841 530.929 L66.0841 536.785 L60.6096 536.785 Q63.8561 538.918 65.4475 541.751 Q67.0071 544.552 67.0071 548.275 Q67.0071 554.418 63.1877 557.601 Q59.3683 560.784 52.0159 560.784 M29.5768 546.047 L29.5768 546.047 Z" fill="#000000" fill-rule="nonzero" fill-opacity="1" /><path clip-path="url(#clip220)" d="M57.9996 518.038 L57.9996 511.323 L66.0841 511.323 L66.0841 518.038 L57.9996 518.038 Z" fill="#000000" fill-rule="nonzero" fill-opacity="1" /><polyline clip-path="url(#clip222)" style="stroke:#009af9; stroke-linecap:round; stroke-linejoin:round; stroke-width:4; stroke-opacity:1; fill:none" points="332.479,899.744 331.167,903.201 329.92,906.712 328.743,910.277 327.639,913.909 326.614,917.601 325.673,921.354 324.821,925.176 324.063,929.058 323.402,933.006 322.844,937.02 322.393,941.094 322.052,945.231 321.823,949.424 321.708,953.674 321.709,953.615 321.825,949.366 322.056,945.172 322.399,941.038 322.851,936.962 323.411,932.952 324.072,929.004 324.833,925.12 325.686,921.305 326.628,917.546 327.654,913.857 328.759,910.23 329.938,906.658 331.186,903.149 332.498,899.701 333.871,896.296 335.301,892.95 336.783,889.661 338.315,886.409 339.892,883.202 341.512,880.045 343.172,876.936 344.869,873.854 346.601,870.808 348.366,867.803 350.16,864.838 351.984,861.911 353.833,858.992 355.708,856.108 357.606,853.257 359.525,850.437 361.465,847.648 363.425,844.88 365.402,842.118 367.397,839.382 369.407,836.672 371.432,833.986 373.471,831.323 375.524,828.682 377.588,826.064 379.665,823.447 381.752,820.841 383.85,818.254 385.958,815.685 388.074,813.135 390.2,810.602 392.333,808.086 394.473,805.586 396.621,803.103 398.774,800.635 400.934,798.183 403.099,795.745 405.27,793.305 407.444,790.875 409.622,788.459 411.804,786.058 413.989,783.67 416.175,781.298 418.364,778.939 420.553,776.594 422.743,774.264 424.932,771.948 427.119,769.647 429.305,767.36 431.488,765.088 433.668,762.832 435.842,760.592 438.011,758.368 440.174,756.16 442.33,753.97 444.477,751.797 446.616,749.642 448.745,747.505 450.864,745.388 452.973,743.29 455.07,741.211 457.157,739.152 459.232,737.112 461.297,735.092 463.35,733.092 465.394,731.095 467.427,729.096 469.451,727.112 471.467,725.145 473.475,723.193 475.475,721.256 477.469,719.334 479.458,717.426 481.442,715.532 483.421,713.651 485.398,711.783 487.371,709.928 489.343,708.084 491.313,706.253 493.283,704.432 495.252,702.61 497.221,700.758 499.192,698.916 501.164,697.082 503.137,695.258 505.113,693.442 507.092,691.634 509.073,689.834 511.058,688.041 513.046,686.257 515.038,684.479 517.034,682.709 519.035,680.945 521.041,679.188 523.052,677.438 525.067,675.667 527.089,673.878 529.116,672.095 531.148,670.317 533.187,668.545 535.232,666.779 537.283,665.017 539.341,663.261 541.406,661.51 543.477,659.765 545.555,658.023 547.641,656.287 549.733,654.556 551.833,652.829 553.941,651.106 556.055,649.388 558.178,647.674 560.308,645.935 562.446,644.184 564.593,642.436 566.747,640.692 568.909,638.953 571.08,637.217 573.258,635.485 575.446,633.757 577.641,632.032 579.845,630.312 582.058,628.594 584.28,626.881 586.51,625.171 588.749,623.464 590.996,621.76 593.253,620.06 595.519,618.363 597.793,616.67 600.077,614.979 602.37,613.292 604.672,611.608 606.983,609.887 609.303,608.169 611.633,606.454 613.972,604.742 616.321,603.034 618.678,601.328 621.046,599.625 623.422,597.925 625.809,596.229 628.204,594.535 630.61,592.843 633.024,591.155 635.449,589.47 637.883,587.787 640.327,586.107 642.78,584.43 645.243,582.755 647.716,581.083 650.199,579.414 652.691,577.747 655.193,576.084 657.705,574.422 660.227,572.764 662.758,571.108 665.3,569.454 667.851,567.803 670.412,566.133 672.982,564.455 675.563,562.779 678.153,561.105 680.754,559.435 683.364,557.767 685.984,556.101 688.614,554.438 691.253,552.778 693.903,551.121 696.562,549.466 699.231,547.813 701.91,546.163 704.599,544.516 707.298,542.871 710.006,541.229 712.725,539.59 715.453,537.953 718.19,536.318 720.938,534.687 723.695,533.057 726.462,531.431 729.239,529.807 732.025,528.185 734.821,526.566 737.627,524.95 740.443,523.336 743.268,521.725 746.102,520.116 748.947,518.51 751.801,516.907 754.664,515.306 757.537,513.707 760.419,512.111 763.311,510.518 766.212,508.917 769.123,507.304 772.043,505.693 774.973,504.085 777.912,502.479 780.86,500.877 783.817,499.277 786.784,497.679 789.76,496.085 792.745,494.493 795.739,492.904 798.743,491.318 801.755,489.734 804.777,488.154 807.807,486.576 810.847,485.001 813.896,483.429 816.953,481.859 820.02,480.292 823.095,478.729 826.179,477.168 829.272,475.609 832.374,474.054 835.484,472.501 838.603,470.952 841.731,469.405 844.867,467.861 848.012,466.32 851.165,464.782 854.327,463.246 857.498,461.714 860.676,460.184 863.863,458.658 867.059,457.134 870.263,455.613 873.475,454.095 876.695,452.58 879.923,451.068 883.16,449.559 886.404,448.053 889.657,446.55 892.917,445.05 896.186,443.552 899.462,442.058 902.747,440.567 906.039,439.078 909.339,437.593 912.647,436.111 915.962,434.631 919.285,433.155 922.616,431.676 925.954,430.187 929.3,428.701 932.653,427.218 936.014,425.739 939.382,424.263 942.758,422.789 946.14,421.319 949.53,419.853 952.928,418.389 956.332,416.928 959.744,415.471 963.162,414.016 966.588,412.565 970.021,411.117 973.46,409.673 976.907,408.231 980.361,406.793 983.821,405.357 987.288,403.925 990.762,402.496 994.242,401.071 997.73,399.648 1001.22,398.229 1004.72,396.813 1008.23,395.4 1011.74,393.99 1015.26,392.584 1018.79,391.181 1022.32,389.781 1025.86,388.384 1029.41,386.99 1032.96,385.6 1036.52,384.213 1040.08,382.829 1043.65,381.448 1047.22,380.071 1050.81,378.697 1054.39,377.326 1057.99,375.958 1061.59,374.593 1065.19,373.232 1068.8,371.874 1072.42,370.519 1076.04,369.167 1079.67,367.819 1083.31,366.474 1086.95,365.132 1090.59,363.793 1094.24,362.458 1097.9,361.125 1101.56,359.796 1105.23,358.471 1108.9,357.148 1112.58,355.829 1116.26,354.513 1119.95,353.2 1123.64,351.89 1127.34,350.583 1131.05,349.28 1134.75,347.98 1138.47,346.683 1142.19,345.39 1145.91,344.099 1149.64,342.812 1153.37,341.528 1157.11,340.247 1160.86,338.97 1164.6,337.695 1168.36,336.424 1172.12,335.156 1175.88,333.891 1179.65,332.63 1183.42,331.371 1187.19,330.116 1190.97,328.864 1194.76,327.615 1198.55,326.369 1202.34,325.127 1206.14,323.877 1209.95,322.629 1213.75,321.384 1217.56,320.143 1221.38,318.905 1225.2,317.67 1229.02,316.438 1232.85,315.21 1236.69,313.985 1240.52,312.762 1244.36,311.543 1248.21,310.328 1252.06,309.115 1255.91,307.906 1259.77,306.699 1263.63,305.496 1267.49,304.296 1271.36,303.099 1275.23,301.906 1279.11,300.715 1282.99,299.528 1286.87,298.343 1290.76,297.162 1294.65,295.984 1298.55,294.809 1302.44,293.637 1306.35,292.469 1310.25,291.303 1314.16,290.14 1318.07,288.981 1321.99,287.824 1325.91,286.671 1329.83,285.521 1333.76,284.374 1337.69,283.229 1341.62,282.088 1345.56,280.95 1349.5,279.815 1353.44,278.683 1357.38,277.554 1361.33,276.428 1365.29,275.305 1369.24,274.185 1373.2,273.068 1377.16,271.954 1381.13,270.843 1385.09,269.735 1389.07,268.629 1393.04,267.527 1397.02,266.428 1401,265.332 1404.98,264.238 1408.96,263.148 1412.95,262.06 1416.95,260.976 1420.94,259.894 1424.94,258.815 1428.94,257.74 1432.94,256.667 1436.94,255.597 1440.95,254.529 1444.96,253.465 1448.98,252.403 1452.99,251.345 1457.01,250.289 1461.03,249.236 1465.06,248.186 1469.09,247.139 1473.11,246.094 1477.15,245.052 1481.18,244.013 1485.22,242.977 1489.26,241.944 1493.3,240.913 1497.34,239.886 1501.39,238.861 1505.44,237.838 1509.49,236.819 1513.54,235.802 1517.6,234.788 1521.66,233.777 1525.72,232.768 1529.78,231.762 1533.85,230.759 1537.91,229.759 1541.98,228.761 1546.06,227.766 1550.13,226.774 1554.21,225.784 1558.29,224.797 1562.37,223.812 1566.45,222.831 1570.53,221.851 1574.62,220.875 1578.71,219.901 1582.8,218.93 1586.89,217.961 1590.99,216.995 1595.09,216.031 1599.19,215.07 1603.29,214.112 1607.39,213.156 1611.5,212.203 1615.6,211.253 1619.71,210.304 1623.82,209.359 1627.94,208.416 1632.05,207.475 1636.17,206.537 1640.29,205.602 1644.41,204.669 1648.53,203.738 1652.65,202.81 1656.78,201.885 1660.9,200.962 1665.03,200.041 1669.16,199.123 1673.3,198.207 1677.43,197.294 1681.57,196.383 1685.71,195.475 1689.84,194.569 1693.99,193.665 1698.13,192.764 1702.27,191.865 1706.42,190.969 1710.57,190.075 1714.72,189.183 1718.87,188.294 1723.02,187.407 1727.17,186.522 1731.33,185.64 1735.48,184.76 1739.64,183.883 1743.8,183.008 1747.96,182.135 1752.13,181.264 1756.29,180.396 1760.46,179.53 1764.63,178.666 1768.79,177.805 1772.96,176.945 1777.14,176.088 1781.31,175.234 1785.48,174.381 1789.66,173.531 1793.84,172.683 1798.02,171.837 1802.2,170.989 1806.38,170.143 1810.56,169.298 1814.74,168.456 1818.93,167.616 1823.12,166.778 1827.3,165.942 1831.49,165.109 1835.68,164.277 1839.88,163.448 1844.07,162.621 1848.26,161.796 1852.46,160.974 1856.66,160.153 1860.85,159.335 1865.05,158.519 1869.25,157.705 1873.46,156.893 1877.66,156.083 1881.86,155.275 1886.07,154.47 1890.27,153.666 1894.48,152.865 1898.69,152.065 1902.9,151.268 1907.11,150.473 1911.32,149.68 1915.54,148.888 1919.75,148.099 1923.96,147.312 1928.18,146.527 1932.4,145.744 1936.62,144.964 1940.84,144.185 1945.06,143.408 1949.28,142.633 1953.5,141.86 1957.72,141.089 1961.95,140.32 1966.18,139.553 1970.4,138.788 1974.63,138.025 1978.86,137.264 1983.09,136.505 1987.32,135.748 1991.55,134.992 1995.78,134.239 2000.02,133.487 2004.25,132.738 2008.49,131.99 2012.72,131.245 2016.96,130.501 2021.2,129.759 2025.44,129.019 2029.68,128.281 2033.92,127.545 2038.16,126.81 2042.4,126.078 2046.65,125.347 2050.89,124.618 2055.14,123.891 2059.38,123.166 2063.63,122.442 2067.88,121.721 2072.13,121.001 2076.38,120.283 2080.63,119.567 2084.88,118.853 2089.13,118.14 2093.38,117.43 2097.64,116.721 2101.89,116.013 2106.15,115.308 2110.4,114.604 2114.66,113.903 2118.92,113.202 2123.17,112.504 2127.43,111.807 2131.69,111.112 2135.95,110.419 2140.22,109.728 2144.48,109.038 2148.74,108.35 2153,107.664 2157.27,106.979 2161.53,106.296 2165.8,105.615 2170.07,104.935 2174.33,104.257 2178.6,103.581 2182.87,102.906 2187.14,102.233 2191.41,101.562 2195.68,100.893 2199.95,100.225 2204.22,99.5582 2208.5,98.8935 2212.77,98.2304 2217.04,97.569 2221.32,96.9091 2225.59,96.2509 2229.87,95.5942 2234.15,94.9392 2238.42,94.2857 2242.7,93.6339 2246.98,92.9836 2251.26,92.3349 2255.54,91.6878 2259.82,91.0423 2264.1,90.3983 2268.38,89.7558 2272.66,89.1149 2276.95,88.4756 2281.23,87.8378 2285.51,87.2016 2289.8,86.5668 2292.38,86.1857 "/>
<polyline clip-path="url(#clip222)" style="stroke:#e26f46; stroke-linecap:round; stroke-linejoin:round; stroke-width:4; stroke-opacity:1; fill:none" points="332.479,1021.75 331.167,1017.04 329.92,1012.34 328.743,1007.66 327.639,1003.01 326.614,998.374 325.673,993.759 324.821,989.173 324.063,984.607 323.402,980.072 322.844,975.567 322.393,971.094 322.052,966.66 321.823,962.265 321.708,957.916 321.709,957.976 321.825,962.326 322.056,966.72 322.399,971.157 322.851,975.629 323.411,980.135 324.072,984.673 324.833,989.233 325.686,993.827 326.628,998.439 327.654,1003.07 328.759,1007.73 329.938,1012.41 331.186,1017.11 332.498,1021.83 333.871,1026.57 335.301,1031.33 336.783,1036.12 338.315,1040.93 339.892,1045.75 341.512,1050.62 343.172,1055.51 344.869,1060.42 346.601,1065.35 348.366,1070.34 350.16,1075.34 351.984,1080.37 353.833,1085.43 355.708,1090.54 357.606,1095.68 359.525,1100.85 361.465,1106.04 363.425,1111.28 365.402,1116.56 367.397,1121.87 369.407,1127.2 371.432,1132.57 373.471,1137.96 375.524,1143.41 377.588,1148.88 379.665,1154.38 381.752,1159.89 383.85,1165.43 385.958,1170.99 388.074,1176.58 390.2,1182.2 392.333,1187.82 394.473,1193.45 396.621,1199.09 398.774,1204.73 400.934,1210.36 403.099,1215.99 405.27,1221.63 407.444,1227.25 409.622,1232.84 411.804,1238.41 413.989,1243.94 416.175,1249.43 418.364,1254.86 420.553,1260.24 422.743,1265.55 424.932,1270.79 427.119,1275.94 429.305,1281.01 431.488,1285.98 433.668,1290.83 435.842,1295.56 438.011,1300.15 440.174,1304.6 442.33,1308.89 444.477,1313.03 446.616,1316.99 448.745,1320.78 450.864,1324.39 452.973,1327.82 455.07,1331.06 457.157,1334.12 459.232,1337 461.297,1339.71 463.35,1342.24 465.394,1344.62 467.427,1346.84 469.451,1348.92 471.467,1350.85 473.475,1352.64 475.475,1354.32 477.469,1355.87 479.458,1357.32 481.442,1358.67 483.421,1359.93 485.398,1361.1 487.371,1362.19 489.343,1363.22 491.313,1364.18 493.283,1365.08 495.252,1365.93 497.221,1366.72 499.192,1367.47 501.164,1368.17 503.137,1368.83 505.113,1369.45 507.092,1370.04 509.073,1370.59 511.058,1371.12 513.046,1371.61 515.038,1372.08 517.034,1372.53 519.035,1372.96 521.041,1373.36 523.052,1373.75 525.067,1374.12 527.089,1374.47 529.116,1374.81 531.148,1375.13 533.187,1375.44 535.232,1375.73 537.283,1376.01 539.341,1376.28 541.406,1376.54 543.477,1376.79 545.555,1377.03 547.641,1377.26 549.733,1377.48 551.833,1377.69 553.941,1377.89 556.055,1378.09 558.178,1378.28 560.308,1378.46 562.446,1378.63 564.593,1378.8 566.747,1378.97 568.909,1379.12 571.08,1379.28 573.258,1379.43 575.446,1379.57 577.641,1379.71 579.845,1379.84 582.058,1379.97 584.28,1380.09 586.51,1380.21 588.749,1380.33 590.996,1380.45 593.253,1380.56 595.519,1380.66 597.793,1380.77 600.077,1380.87 602.37,1380.97 604.672,1381.06 606.983,1381.15 609.303,1381.24 611.633,1381.33 613.972,1381.41 616.321,1381.5 618.678,1381.58 621.046,1381.65 623.422,1381.73 625.809,1381.8 628.204,1381.87 630.61,1381.94 633.024,1382.01 635.449,1382.08 637.883,1382.14 640.327,1382.2 642.78,1382.26 645.243,1382.32 647.716,1382.38 650.199,1382.43 652.691,1382.49 655.193,1382.54 657.705,1382.59 660.227,1382.64 662.758,1382.69 665.3,1382.74 667.851,1382.79 670.412,1382.83 672.982,1382.87 675.563,1382.92 678.153,1382.96 680.754,1383 683.364,1383.04 685.984,1383.08 688.614,1383.11 691.253,1383.15 693.903,1383.19 696.562,1383.22 699.231,1383.25 701.91,1383.29 704.599,1383.32 707.298,1383.35 710.006,1383.38 712.725,1383.41 715.453,1383.44 718.19,1383.47 720.938,1383.49 723.695,1383.52 726.462,1383.54 729.239,1383.57 732.025,1383.59 734.821,1383.62 737.627,1383.64 740.443,1383.66 743.268,1383.69 746.102,1383.71 748.947,1383.73 751.801,1383.75 754.664,1383.77 757.537,1383.79 760.419,1383.8 763.311,1383.82 766.212,1383.84 769.123,1383.86 772.043,1383.87 774.973,1383.89 777.912,1383.9 780.86,1383.92 783.817,1383.93 786.784,1383.95 789.76,1383.96 792.745,1383.97 795.739,1383.99 798.743,1384 801.755,1384.01 804.777,1384.02 807.807,1384.04 810.847,1384.05 813.896,1384.06 816.953,1384.07 820.02,1384.08 823.095,1384.09 826.179,1384.09 829.272,1384.1 832.374,1384.11 835.484,1384.12 838.603,1384.13 841.731,1384.14 844.867,1384.14 848.012,1384.15 851.165,1384.16 854.327,1384.16 857.498,1384.17 860.676,1384.17 863.863,1384.18 867.059,1384.18 870.263,1384.19 873.475,1384.19 876.695,1384.2 879.923,1384.2 883.16,1384.21 886.404,1384.21 889.657,1384.21 892.917,1384.22 896.186,1384.22 899.462,1384.22 902.747,1384.22 906.039,1384.23 909.339,1384.23 912.647,1384.23 915.962,1384.23 919.285,1384.23 922.616,1384.23 925.954,1384.24 929.3,1384.24 932.653,1384.24 936.014,1384.24 939.382,1384.24 942.758,1384.24 946.14,1384.24 949.53,1384.24 952.928,1384.24 956.332,1384.24 959.744,1384.24 963.162,1384.24 966.588,1384.23 970.021,1384.23 973.46,1384.23 976.907,1384.23 980.361,1384.23 983.821,1384.23 987.288,1384.22 990.762,1384.22 994.242,1384.22 997.73,1384.22 1001.22,1384.22 1004.72,1384.21 1008.23,1384.21 1011.74,1384.21 1015.26,1384.2 1018.79,1384.2 1022.32,1384.2 1025.86,1384.2 1029.41,1384.19 1032.96,1384.19 1036.52,1384.19 1040.08,1384.18 1043.65,1384.18 1047.22,1384.17 1050.81,1384.17 1054.39,1384.17 1057.99,1384.16 1061.59,1384.16 1065.19,1384.15 1068.8,1384.15 1072.42,1384.14 1076.04,1384.14 1079.67,1384.14 1083.31,1384.13 1086.95,1384.13 1090.59,1384.12 1094.24,1384.12 1097.9,1384.11 1101.56,1384.11 1105.23,1384.1 1108.9,1384.09 1112.58,1384.09 1116.26,1384.08 1119.95,1384.08 1123.64,1384.07 1127.34,1384.07 1131.05,1384.06 1134.75,1384.06 1138.47,1384.05 1142.19,1384.04 1145.91,1384.04 1149.64,1384.03 1153.37,1384.02 1157.11,1384.02 1160.86,1384.01 1164.6,1384.01 1168.36,1384 1172.12,1383.99 1175.88,1383.99 1179.65,1383.98 1183.42,1383.97 1187.19,1383.97 1190.97,1383.96 1194.76,1383.95 1198.55,1383.95 1202.34,1383.94 1206.14,1383.93 1209.95,1383.92 1213.75,1383.92 1217.56,1383.91 1221.38,1383.9 1225.2,1383.9 1229.02,1383.89 1232.85,1383.88 1236.69,1383.87 1240.52,1383.87 1244.36,1383.86 1248.21,1383.85 1252.06,1383.84 1255.91,1383.84 1259.77,1383.83 1263.63,1383.82 1267.49,1383.81 1271.36,1383.81 1275.23,1383.8 1279.11,1383.79 1282.99,1383.78 1286.87,1383.78 1290.76,1383.77 1294.65,1383.76 1298.55,1383.75 1302.44,1383.74 1306.35,1383.74 1310.25,1383.73 1314.16,1383.72 1318.07,1383.71 1321.99,1383.71 1325.91,1383.7 1329.83,1383.69 1333.76,1383.68 1337.69,1383.67 1341.62,1383.67 1345.56,1383.66 1349.5,1383.65 1353.44,1383.64 1357.38,1383.63 1361.33,1383.62 1365.29,1383.62 1369.24,1383.61 1373.2,1383.6 1377.16,1383.59 1381.13,1383.58 1385.09,1383.58 1389.07,1383.57 1393.04,1383.56 1397.02,1383.55 1401,1383.54 1404.98,1383.53 1408.96,1383.52 1412.95,1383.52 1416.95,1383.51 1420.94,1383.5 1424.94,1383.49 1428.94,1383.48 1432.94,1383.47 1436.94,1383.47 1440.95,1383.46 1444.96,1383.45 1448.98,1383.44 1452.99,1383.43 1457.01,1383.42 1461.03,1383.41 1465.06,1383.41 1469.09,1383.4 1473.11,1383.39 1477.15,1383.38 1481.18,1383.37 1485.22,1383.36 1489.26,1383.35 1493.3,1383.34 1497.34,1383.34 1501.39,1383.33 1505.44,1383.32 1509.49,1383.31 1513.54,1383.3 1517.6,1383.29 1521.66,1383.28 1525.72,1383.28 1529.78,1383.27 1533.85,1383.26 1537.91,1383.25 1541.98,1383.24 1546.06,1383.23 1550.13,1383.22 1554.21,1383.21 1558.29,1383.2 1562.37,1383.2 1566.45,1383.19 1570.53,1383.18 1574.62,1383.17 1578.71,1383.16 1582.8,1383.15 1586.89,1383.14 1590.99,1383.14 1595.09,1383.13 1599.19,1383.12 1603.29,1383.11 1607.39,1383.1 1611.5,1383.09 1615.6,1383.08 1619.71,1383.07 1623.82,1383.07 1627.94,1383.06 1632.05,1383.05 1636.17,1383.04 1640.29,1383.03 1644.41,1383.02 1648.53,1383.01 1652.65,1383 1656.78,1383 1660.9,1382.99 1665.03,1382.98 1669.16,1382.97 1673.3,1382.96 1677.43,1382.95 1681.57,1382.94 1685.71,1382.94 1689.84,1382.93 1693.99,1382.92 1698.13,1382.91 1702.27,1382.9 1706.42,1382.89 1710.57,1382.88 1714.72,1382.87 1718.87,1382.87 1723.02,1382.86 1727.17,1382.85 1731.33,1382.84 1735.48,1382.83 1739.64,1382.82 1743.8,1382.81 1747.96,1382.81 1752.13,1382.8 1756.29,1382.79 1760.46,1382.78 1764.63,1382.77 1768.79,1382.76 1772.96,1382.75 1777.14,1382.74 1781.31,1382.74 1785.48,1382.73 1789.66,1382.72 1793.84,1382.71 1798.02,1382.7 1802.2,1382.69 1806.38,1382.68 1810.56,1382.68 1814.74,1382.67 1818.93,1382.66 1823.12,1382.65 1827.3,1382.64 1831.49,1382.63 1835.68,1382.62 1839.88,1382.62 1844.07,1382.61 1848.26,1382.6 1852.46,1382.59 1856.66,1382.58 1860.85,1382.57 1865.05,1382.56 1869.25,1382.56 1873.46,1382.55 1877.66,1382.54 1881.86,1382.53 1886.07,1382.52 1890.27,1382.51 1894.48,1382.5 1898.69,1382.5 1902.9,1382.49 1907.11,1382.48 1911.32,1382.47 1915.54,1382.46 1919.75,1382.45 1923.96,1382.45 1928.18,1382.44 1932.4,1382.43 1936.62,1382.42 1940.84,1382.41 1945.06,1382.4 1949.28,1382.39 1953.5,1382.39 1957.72,1382.38 1961.95,1382.37 1966.18,1382.36 1970.4,1382.35 1974.63,1382.34 1978.86,1382.34 1983.09,1382.33 1987.32,1382.32 1991.55,1382.31 1995.78,1382.3 2000.02,1382.3 2004.25,1382.29 2008.49,1382.28 2012.72,1382.27 2016.96,1382.26 2021.2,1382.25 2025.44,1382.25 2029.68,1382.24 2033.92,1382.23 2038.16,1382.22 2042.4,1382.21 2046.65,1382.21 2050.89,1382.2 2055.14,1382.19 2059.38,1382.18 2063.63,1382.17 2067.88,1382.17 2072.13,1382.16 2076.38,1382.15 2080.63,1382.14 2084.88,1382.13 2089.13,1382.13 2093.38,1382.12 2097.64,1382.11 2101.89,1382.1 2106.15,1382.09 2110.4,1382.09 2114.66,1382.08 2118.92,1382.07 2123.17,1382.06 2127.43,1382.05 2131.69,1382.05 2135.95,1382.04 2140.22,1382.03 2144.48,1382.02 2148.74,1382.01 2153,1382.01 2157.27,1382 2161.53,1381.99 2165.8,1381.98 2170.07,1381.97 2174.33,1381.97 2178.6,1381.96 2182.87,1381.95 2187.14,1381.94 2191.41,1381.94 2195.68,1381.93 2199.95,1381.92 2204.22,1381.91 2208.5,1381.9 2212.77,1381.9 2217.04,1381.89 2221.32,1381.88 2225.59,1381.87 2229.87,1381.86 2234.15,1381.86 2238.42,1381.85 2242.7,1381.84 2246.98,1381.83 2251.26,1381.83 2255.54,1381.82 2259.82,1381.81 2264.1,1381.8 2268.38,1381.8 2272.66,1381.79 2276.95,1381.78 2281.23,1381.77 2285.51,1381.76 2289.8,1381.76 2292.38,1381.75 "/>
<polyline clip-path="url(#clip222)" style="stroke:#000000; stroke-linecap:round; stroke-linejoin:round; stroke-width:4; stroke-opacity:1; fill:none" stroke-dasharray="16, 10" points="2292.38,777.648 2288.09,777.748 2283.8,777.848 2279.51,777.948 2275.23,778.049 2270.94,778.149 2266.66,778.25 2262.37,778.352 2258.09,778.453 2253.8,778.555 2249.52,778.657 2245.24,778.76 2240.95,778.862 2236.67,778.965 2232.39,779.069 2228.11,779.172 2223.83,779.276 2219.55,779.38 2215.27,779.485 2210.99,779.59 2206.71,779.695 2202.44,779.8 2198.16,779.906 2193.88,780.012 2189.61,780.118 2185.33,780.225 2181.06,780.332 2176.79,780.439 2172.51,780.546 2168.24,780.654 2163.97,780.762 2159.7,780.871 2155.43,780.98 2151.16,781.089 2146.89,781.198 2142.62,781.308 2138.35,781.418 2134.08,781.528 2129.82,781.639 2125.55,781.75 2121.28,781.861 2117.02,781.973 2112.75,782.085 2108.49,782.197 2104.23,782.31 2099.97,782.423 2095.7,782.536 2091.44,782.65 2087.18,782.764 2082.92,782.878 2078.67,782.992 2074.41,783.107 2070.15,783.223 2065.89,783.338 2061.64,783.454 2057.38,783.571 2053.13,783.687 2048.87,783.804 2044.62,783.922 2040.37,784.04 2036.12,784.158 2031.87,784.276 2027.62,784.395 2023.37,784.514 2019.12,784.634 2014.87,784.754 2010.62,784.874 2006.38,784.994 2002.13,785.115 1997.89,785.237 1993.64,785.359 1989.4,785.481 1985.16,785.603 1980.92,785.726 1976.68,785.849 1972.44,785.973 1968.2,786.097 1963.96,786.221 1959.72,786.346 1955.49,786.471 1951.25,786.596 1947.02,786.722 1942.78,786.849 1938.55,786.975 1934.32,787.102 1930.09,787.23 1925.85,787.358 1921.63,787.486 1917.4,787.614 1913.17,787.743 1908.94,787.873 1904.72,788.003 1900.49,788.133 1896.27,788.264 1892.04,788.395 1887.82,788.526 1883.6,788.658 1879.38,788.79 1875.16,788.923 1870.94,789.056 1866.72,789.19 1862.51,789.324 1858.29,789.458 1854.08,789.593 1849.86,789.729 1845.65,789.864 1841.44,790 1837.23,790.137 1833.02,790.274 1828.81,790.411 1824.61,790.549 1820.4,790.688 1816.19,790.827 1811.99,790.966 1807.79,791.105 1803.58,791.246 1799.38,791.386 1795.18,791.527 1790.98,791.669 1786.79,791.811 1782.59,791.953 1778.39,792.096 1774.2,792.239 1770.01,792.383 1765.81,792.527 1761.62,792.672 1757.43,792.818 1753.24,792.963 1749.06,793.109 1744.87,793.256 1740.68,793.403 1736.5,793.551 1732.32,793.699 1728.14,793.848 1723.96,793.997 1719.78,794.146 1715.6,794.297 1711.42,794.447 1707.25,794.598 1703.07,794.75 1698.9,794.902 1694.73,795.055 1690.56,795.208 1686.39,795.361 1682.22,795.516 1678.05,795.67 1673.89,795.826 1669.72,795.981 1665.56,796.138 1661.4,796.294 1657.24,796.452 1653.08,796.61 1648.92,796.768 1644.77,796.927 1640.61,797.086 1636.46,797.246 1632.31,797.407 1628.16,797.568 1624.01,797.73 1619.86,797.892 1615.72,798.055 1611.57,798.218 1607.43,798.382 1603.29,798.547 1599.15,798.712 1595.01,798.877 1590.87,799.043 1586.74,799.21 1582.6,799.378 1578.47,799.546 1574.34,799.714 1570.21,799.883 1566.08,800.053 1561.96,800.223 1557.83,800.394 1553.71,800.565 1549.59,800.738 1545.47,800.91 1541.35,801.084 1537.23,801.257 1533.12,801.432 1529,801.607 1524.89,801.783 1520.78,801.959 1516.68,802.136 1512.57,802.314 1508.46,802.492 1504.36,802.671 1500.26,802.851 1496.16,803.031 1492.06,803.212 1487.97,803.393 1483.87,803.575 1479.78,803.758 1475.69,803.942 1471.6,804.126 1467.51,804.311 1463.43,804.496 1459.35,804.682 1455.26,804.869 1451.19,805.056 1447.11,805.245 1443.03,805.433 1438.96,805.623 1434.89,805.813 1430.82,806.004 1426.75,806.196 1422.68,806.388 1418.62,806.581 1414.56,806.775 1410.5,806.969 1406.44,807.164 1402.39,807.36 1398.33,807.557 1394.28,807.754 1390.23,807.952 1386.18,808.151 1382.14,808.351 1378.1,808.551 1374.05,808.752 1370.02,808.954 1365.98,809.156 1361.94,809.36 1357.91,809.564 1353.88,809.769 1349.86,809.974 1345.83,810.181 1341.81,810.388 1337.79,810.596 1333.77,810.804 1329.75,811.014 1325.74,811.224 1321.73,811.435 1317.72,811.647 1313.71,811.86 1309.7,812.073 1305.7,812.288 1301.7,812.503 1297.71,812.719 1293.71,812.936 1289.72,813.153 1285.73,813.372 1281.74,813.591 1277.76,813.811 1273.77,814.032 1269.79,814.254 1265.82,814.477 1261.84,814.701 1257.87,814.925 1253.9,815.15 1249.93,815.377 1245.97,815.604 1242.01,815.832 1238.05,816.06 1234.09,816.29 1230.14,816.521 1226.19,816.753 1222.24,816.985 1218.3,817.218 1214.36,817.453 1210.42,817.688 1206.48,817.924 1202.55,818.161 1198.62,818.399 1194.69,818.638 1190.76,818.878 1186.84,819.119 1182.92,819.361 1179.01,819.604 1175.09,819.848 1171.18,820.092 1167.27,820.338 1163.37,820.585 1159.47,820.833 1155.57,821.081 1151.68,821.331 1147.78,821.582 1143.9,821.834 1140.01,822.086 1136.13,822.34 1132.25,822.595 1128.37,822.851 1124.5,823.108 1120.63,823.366 1116.76,823.625 1112.9,823.885 1109.04,824.146 1105.19,824.408 1101.33,824.672 1097.48,824.936 1093.64,825.201 1089.79,825.468 1085.95,825.736 1082.12,826.004 1078.29,826.274 1074.46,826.545 1070.63,826.817 1066.81,827.091 1062.99,827.365 1059.18,827.641 1055.37,827.917 1051.56,828.195 1047.76,828.474 1043.96,828.754 1040.16,829.036 1036.37,829.318 1032.58,829.602 1028.79,829.887 1025.01,830.173 1021.23,830.461 1017.46,830.749 1013.69,831.039 1009.92,831.33 1006.16,831.623 1002.4,831.916 998.649,832.211 994.899,832.507 991.152,832.804 987.41,833.103 983.672,833.403 979.938,833.704 976.207,834.007 972.481,834.311 968.759,834.616 965.042,834.922 961.328,835.23 957.619,835.539 953.913,835.85 950.212,836.162 946.516,836.475 942.823,836.789 939.135,837.105 935.451,837.423 931.772,837.741 928.097,838.062 924.426,838.383 920.76,838.706 917.098,839.031 913.441,839.357 909.788,839.684 906.14,840.013 902.497,840.343 898.857,840.675 895.223,841.008 891.593,841.343 887.968,841.679 884.347,842.017 880.731,842.356 877.12,842.697 873.514,843.04 869.912,843.384 866.315,843.729 862.723,844.076 859.136,844.425 855.554,844.775 851.976,845.127 848.404,845.481 844.836,845.836 841.273,846.193 837.716,846.551 834.163,846.911 830.615,847.273 827.073,847.637 823.535,848.002 820.003,848.369 816.476,848.737 812.954,849.108 809.437,849.48 805.925,849.854 802.419,850.229 798.918,850.607 795.422,850.986 791.931,851.367 788.446,851.75 784.966,852.135 781.492,852.521 778.023,852.909 774.559,853.3 771.101,853.692 767.648,854.086 764.201,854.482 760.759,854.88 757.323,855.279 753.893,855.681 750.468,856.085 747.049,856.491 743.635,856.898 740.227,857.308 736.825,857.72 733.428,858.134 730.038,858.55 726.653,858.968 723.273,859.388 719.9,859.81 716.533,860.234 713.171,860.661 709.815,861.089 706.466,861.52 703.122,861.953 699.784,862.388 696.452,862.826 693.126,863.265 689.807,863.707 686.493,864.151 683.185,864.598 679.884,865.047 676.589,865.498 673.3,865.952 670.017,866.408 666.74,866.866 663.47,867.327 660.206,867.79 656.948,868.256 653.696,868.724 650.451,869.195 647.212,869.668 643.98,870.144 640.754,870.622 637.534,871.103 634.321,871.587 631.115,872.073 627.915,872.562 624.721,873.054 621.534,873.548 618.354,874.045 615.181,874.545 612.014,875.048 608.853,875.554 605.7,876.062 602.553,876.574 599.413,877.088 596.279,877.605 593.153,878.125 590.033,878.649 586.92,879.175 583.814,879.704 580.715,880.237 577.623,880.772 574.538,881.311 571.459,881.853 568.388,882.398 565.324,882.947 562.267,883.499 559.217,884.054 556.174,884.612 553.139,885.174 550.11,885.74 547.089,886.309 544.075,886.881 541.068,887.457 538.069,888.037 535.076,888.62 532.092,889.207 529.114,889.798 526.144,890.393 523.182,890.992 520.227,891.594 517.279,892.2 514.339,892.811 511.407,893.425 508.482,894.044 505.565,894.666 502.655,895.293 499.754,895.924 496.86,896.56 493.973,897.2 491.095,897.844 488.225,898.493 485.362,899.146 482.507,899.804 479.661,900.467 476.822,901.135 473.992,901.807 471.169,902.484 468.355,903.166 465.549,903.854 462.751,904.546 459.961,905.244 457.18,905.947 454.408,906.655 451.643,907.369 448.888,908.088 446.14,908.813 443.402,909.544 440.672,910.28 437.951,911.023 435.239,911.772 432.535,912.526 429.841,913.287 427.156,914.054 424.48,914.828 421.812,915.608 419.155,916.396 416.506,917.189 413.867,917.99 411.238,918.798 408.618,919.613 406.008,920.436 403.408,921.266 400.818,922.104 398.237,922.95 395.667,923.803 393.108,924.665 390.559,925.535 388.02,926.414 385.492,927.301 382.975,928.198 380.469,929.103 377.974,930.018 375.491,930.942 373.019,931.876 370.559,932.82 368.111,933.775 365.675,934.74 363.252,935.716 360.842,936.702 358.444,937.7 356.06,938.71 353.689,939.732 351.332,940.766 348.99,941.813 346.662,942.873 344.349,943.946 342.051,945.033 339.769,946.135 337.504,947.251 335.256,948.382 333.024,949.529 330.811,950.693 328.617,951.873 326.442,953.07 324.287,954.285 322.154,955.519 "/>
<polyline clip-path="url(#clip222)" style="stroke:#000000; stroke-linecap:round; stroke-linejoin:round; stroke-width:4; stroke-opacity:1; fill:none" points="321.69,955.792 319.583,957.049 317.499,958.327 315.439,959.626 313.404,960.947 311.396,962.291 309.417,963.658 307.467,965.05 305.548,966.469 303.663,967.914 301.813,969.388 300.001,970.891 298.229,972.426 296.501,973.994 294.82,975.597 293.19,977.236 291.615,978.914 290.099,980.633 288.649,982.395 287.271,984.202 285.972,986.058 284.76,987.966 283.646,989.928 282.641,991.948 281.757,994.029 281.011,996.175 280.419,998.388 280.003,1000.67 279.785,1003.02 "/>
<polyline clip-path="url(#clip222)" style="stroke:#000000; stroke-linecap:round; stroke-linejoin:round; stroke-width:4; stroke-opacity:1; fill:none" stroke-dasharray="16, 10" points="279.759,1004.19 279.885,1006.65 280.278,1009.18 280.969,1011.76 281.984,1014.39 283.345,1017.05 285.063,1019.71 287.137,1022.35 289.55,1024.94 292.273,1027.45 295.27,1029.86 298.5,1032.16 301.926,1034.35 305.514,1036.43 309.233,1038.4 313.059,1040.25 316.972,1042.01 320.957,1043.68 325,1045.26 329.092,1046.76 333.223,1048.18 337.387,1049.54 341.58,1050.84 345.796,1052.08 350.032,1053.26 354.286,1054.4 358.554,1055.49 362.834,1056.53 367.126,1057.54 371.427,1058.51 375.737,1059.44 380.054,1060.35 384.377,1061.22 388.706,1062.06 393.04,1062.87 397.379,1063.66 401.722,1064.43 406.068,1065.17 410.418,1065.89 414.771,1066.59 419.126,1067.27 423.484,1067.93 427.843,1068.57 432.205,1069.2 436.569,1069.81 440.934,1070.41 445.301,1070.99 449.669,1071.55 454.039,1072.1 458.409,1072.64 462.781,1073.17 467.154,1073.68 471.527,1074.19 475.902,1074.68 480.277,1075.16 484.653,1075.63 489.029,1076.09 493.407,1076.54 497.785,1076.99 502.163,1077.42 506.542,1077.85 510.921,1078.26 515.301,1078.67 519.681,1079.07 524.062,1079.46 528.443,1079.85 532.825,1080.23 537.206,1080.6 541.588,1080.97 545.971,1081.33 550.353,1081.68 554.736,1082.03 559.119,1082.37 563.502,1082.7 567.886,1083.03 572.27,1083.36 576.653,1083.67 581.038,1083.99 585.422,1084.3 589.806,1084.6 594.191,1084.9 598.576,1085.19 602.96,1085.48 607.345,1085.77 611.731,1086.05 616.116,1086.33 620.501,1086.6 624.887,1086.87 629.272,1087.13 633.658,1087.4 638.044,1087.65 642.43,1087.91 646.816,1088.16 651.202,1088.41 655.588,1088.65 659.974,1088.89 664.36,1089.13 668.746,1089.36 673.133,1089.59 677.519,1089.82 681.906,1090.05 686.292,1090.27 690.679,1090.49 695.066,1090.7 699.453,1090.92 703.839,1091.13 708.226,1091.34 712.613,1091.54 717,1091.75 721.387,1091.95 725.774,1092.15 730.161,1092.34 734.548,1092.54 738.935,1092.73 743.323,1092.92 747.71,1093.11 752.097,1093.29 756.484,1093.48 760.872,1093.66 765.259,1093.84 769.646,1094.01 774.034,1094.19 778.421,1094.36 782.809,1094.53 787.196,1094.7 791.584,1094.87 795.971,1095.03 800.359,1095.2 804.746,1095.36 809.134,1095.52 813.521,1095.68 817.909,1095.84 822.297,1095.99 826.684,1096.15 831.072,1096.3 835.46,1096.45 839.847,1096.6 844.235,1096.75 848.623,1096.89 853.011,1097.04 857.398,1097.18 861.786,1097.33 866.174,1097.47 870.562,1097.61 874.949,1097.74 879.337,1097.88 883.725,1098.02 888.113,1098.15 892.501,1098.28 896.889,1098.42 901.277,1098.55 905.665,1098.68 910.052,1098.8 914.44,1098.93 918.828,1099.06 923.216,1099.18 927.604,1099.3 931.992,1099.43 936.38,1099.55 940.768,1099.67 945.156,1099.79 949.544,1099.91 953.932,1100.02 958.32,1100.14 962.708,1100.25 967.096,1100.37 971.484,1100.48 975.872,1100.59 980.26,1100.71 984.648,1100.82 989.036,1100.93 993.424,1101.03 997.813,1101.14 1002.2,1101.25 1006.59,1101.35 1010.98,1101.46 1015.36,1101.56 1019.75,1101.67 1024.14,1101.77 1028.53,1101.87 1032.92,1101.97 1037.31,1102.07 1041.69,1102.17 1046.08,1102.27 1050.47,1102.37 1054.86,1102.46 1059.25,1102.56 1063.63,1102.66 1068.02,1102.75 1072.41,1102.84 1076.8,1102.94 1081.19,1103.03 1085.58,1103.12 1089.96,1103.21 1094.35,1103.3 1098.74,1103.39 1103.13,1103.48 1107.52,1103.57 1111.9,1103.66 1116.29,1103.75 1120.68,1103.83 1125.07,1103.92 1129.46,1104 1133.85,1104.09 1138.23,1104.17 1142.62,1104.26 1147.01,1104.34 1151.4,1104.42 1155.79,1104.5 1160.17,1104.58 1164.56,1104.66 1168.95,1104.74 1173.34,1104.82 1177.73,1104.9 1182.12,1104.98 1186.5,1105.06 1190.89,1105.14 1195.28,1105.21 1199.67,1105.29 1204.06,1105.37 1208.44,1105.44 1212.83,1105.52 1217.22,1105.59 1221.61,1105.66 1226,1105.74 1230.39,1105.81 1234.77,1105.88 1239.16,1105.95 1243.55,1106.02 1247.94,1106.1 1252.33,1106.17 1256.72,1106.24 1261.1,1106.3 1265.49,1106.37 1269.88,1106.44 1274.27,1106.51 1278.66,1106.58 1283.05,1106.65 1287.43,1106.71 1291.82,1106.78 1296.21,1106.84 1300.6,1106.91 1304.99,1106.98 1309.37,1107.04 1313.76,1107.1 1318.15,1107.17 1322.54,1107.23 1326.93,1107.3 1331.32,1107.36 1335.7,1107.42 1340.09,1107.48 1344.48,1107.54 1348.87,1107.61 1353.26,1107.67 1357.65,1107.73 1362.03,1107.79 1366.42,1107.85 1370.81,1107.91 1375.2,1107.97 1379.59,1108.02 1383.98,1108.08 1388.36,1108.14 1392.75,1108.2 1397.14,1108.26 1401.53,1108.31 1405.92,1108.37 1410.31,1108.43 1414.69,1108.48 1419.08,1108.54 1423.47,1108.59 1427.86,1108.65 1432.25,1108.7 1436.64,1108.76 1441.02,1108.81 1445.41,1108.87 1449.8,1108.92 1454.19,1108.97 1458.58,1109.03 1462.97,1109.08 1467.35,1109.13 1471.74,1109.18 1476.13,1109.24 1480.52,1109.29 1484.91,1109.34 1489.3,1109.39 1493.68,1109.44 1498.07,1109.49 1502.46,1109.54 1506.85,1109.59 1511.24,1109.64 1515.63,1109.69 1520.01,1109.74 1524.4,1109.79 1528.79,1109.84 1533.18,1109.89 1537.57,1109.93 1541.96,1109.98 1546.34,1110.03 1550.73,1110.08 1555.12,1110.12 1559.51,1110.17 1563.9,1110.22 1568.29,1110.26 1572.67,1110.31 1577.06,1110.36 1581.45,1110.4 1585.84,1110.45 1590.23,1110.49 1594.61,1110.54 1599,1110.58 1603.39,1110.63 1607.78,1110.67 1612.17,1110.71 1616.56,1110.76 1620.94,1110.8 1625.33,1110.84 1629.72,1110.89 1634.11,1110.93 1638.5,1110.97 1642.89,1111.02 1647.27,1111.06 1651.66,1111.1 1656.05,1111.14 1660.44,1111.18 1664.83,1111.23 1669.22,1111.27 1673.61,1111.31 1677.99,1111.35 1682.38,1111.39 1686.77,1111.43 1691.16,1111.47 1695.55,1111.51 1699.94,1111.55 1704.32,1111.59 1708.71,1111.63 1713.1,1111.67 1717.49,1111.71 1721.88,1111.75 1726.27,1111.79 1730.65,1111.83 1735.04,1111.86 1739.43,1111.9 1743.82,1111.94 1748.21,1111.98 1752.6,1112.02 1756.98,1112.05 1761.37,1112.09 1765.76,1112.13 1770.15,1112.16 1774.54,1112.2 1778.93,1112.24 1783.31,1112.27 1787.7,1112.31 1792.09,1112.35 1796.48,1112.38 1800.87,1112.42 1805.26,1112.46 1809.64,1112.49 1814.03,1112.53 1818.42,1112.56 1822.81,1112.6 1827.2,1112.63 1831.59,1112.67 1835.97,1112.7 1840.36,1112.74 1844.75,1112.77 1849.14,1112.8 1853.53,1112.84 1857.92,1112.87 1862.3,1112.91 1866.69,1112.94 1871.08,1112.97 1875.47,1113.01 1879.86,1113.04 1884.25,1113.07 1888.63,1113.1 1893.02,1113.14 1897.41,1113.17 1901.8,1113.2 1906.19,1113.23 1910.58,1113.27 1914.96,1113.3 1919.35,1113.33 1923.74,1113.36 1928.13,1113.39 1932.52,1113.43 1936.91,1113.46 1941.29,1113.49 1945.68,1113.52 1950.07,1113.55 1954.46,1113.58 1958.85,1113.61 1963.24,1113.64 1967.62,1113.67 1972.01,1113.7 1976.4,1113.73 1980.79,1113.76 1985.18,1113.79 1989.57,1113.82 1993.95,1113.85 1998.34,1113.88 2002.73,1113.91 2007.12,1113.94 2011.51,1113.97 2015.9,1114 2020.28,1114.03 2024.67,1114.06 2029.06,1114.09 2033.45,1114.11 2037.84,1114.14 2042.23,1114.17 2046.61,1114.2 2051,1114.23 2055.39,1114.26 2059.78,1114.28 2064.17,1114.31 2068.56,1114.34 2072.94,1114.37 2077.33,1114.39 2081.72,1114.42 2086.11,1114.45 2090.5,1114.48 2094.89,1114.5 2099.27,1114.53 2103.66,1114.56 2108.05,1114.58 2112.44,1114.61 2116.83,1114.64 2121.22,1114.66 2125.61,1114.69 2129.99,1114.72 2134.38,1114.74 2138.77,1114.77 2143.16,1114.79 2147.55,1114.82 2151.94,1114.85 2156.32,1114.87 2160.71,1114.9 2165.1,1114.92 2169.49,1114.95 2173.88,1114.97 2178.27,1115 2182.65,1115.02 2187.04,1115.05 2191.43,1115.07 2195.82,1115.1 2200.21,1115.12 2204.6,1115.15 2208.98,1115.17 2213.37,1115.2 2217.76,1115.22 2222.15,1115.25 2226.54,1115.27 2230.93,1115.29 2235.31,1115.32 2239.7,1115.34 2244.09,1115.37 2248.48,1115.39 2252.87,1115.41 2257.26,1115.44 2261.64,1115.46 2266.03,1115.48 2270.42,1115.51 2274.81,1115.53 2279.2,1115.55 2283.59,1115.58 2287.97,1115.6 2292.36,1115.62 2292.38,1115.62 "/>
<circle clip-path="url(#clip222)" cx="321.69" cy="955.792" r="14.4" fill="#ff0000" fill-rule="evenodd" fill-opacity="1" stroke="#000000" stroke-opacity="1" stroke-width="3.2"/>
<path clip-path="url(#clip220)" d="M290.493 404.149 L745.449 404.149 L745.449 93.1086 L290.493 93.1086  Z" fill="#ffffff" fill-rule="evenodd" fill-opacity="1"/>
<polyline clip-path="url(#clip220)" style="stroke:#000000; stroke-linecap:round; stroke-linejoin:round; stroke-width:4; stroke-opacity:1; fill:none" points="290.493,404.149 745.449,404.149 745.449,93.1086 290.493,93.1086 290.493,404.149 "/>
<polyline clip-path="url(#clip220)" style="stroke:#009af9; stroke-linecap:round; stroke-linejoin:round; stroke-width:4; stroke-opacity:1; fill:none" points="314.197,144.949 456.422,144.949 "/>
<path clip-path="url(#clip220)" d="M500.473 141.28 Q502.07 138.409 504.293 137.044 Q506.515 135.678 509.524 135.678 Q513.575 135.678 515.774 138.525 Q517.973 141.349 517.973 146.581 L517.973 162.229 L513.691 162.229 L513.691 146.719 Q513.691 142.993 512.371 141.187 Q511.052 139.382 508.344 139.382 Q505.033 139.382 503.112 141.581 Q501.191 143.78 501.191 147.576 L501.191 162.229 L496.908 162.229 L496.908 146.719 Q496.908 142.969 495.589 141.187 Q494.27 139.382 491.515 139.382 Q488.251 139.382 486.33 141.604 Q484.408 143.803 484.408 147.576 L484.408 162.229 L480.126 162.229 L480.126 136.303 L484.408 136.303 L484.408 140.331 Q485.867 137.946 487.904 136.812 Q489.941 135.678 492.742 135.678 Q495.566 135.678 497.533 137.113 Q499.524 138.548 500.473 141.28 Z" fill="#000000" fill-rule="nonzero" fill-opacity="1" /><path clip-path="url(#clip220)" d="M538.251 149.196 Q533.089 149.196 531.098 150.377 Q529.107 151.557 529.107 154.405 Q529.107 156.673 530.589 158.016 Q532.093 159.335 534.663 159.335 Q538.204 159.335 540.334 156.835 Q542.487 154.312 542.487 150.145 L542.487 149.196 L538.251 149.196 M546.746 147.437 L546.746 162.229 L542.487 162.229 L542.487 158.293 Q541.029 160.655 538.853 161.789 Q536.677 162.9 533.529 162.9 Q529.547 162.9 527.186 160.678 Q524.848 158.432 524.848 154.682 Q524.848 150.307 527.765 148.085 Q530.705 145.863 536.515 145.863 L542.487 145.863 L542.487 145.446 Q542.487 142.507 540.542 140.909 Q538.621 139.289 535.126 139.289 Q532.904 139.289 530.797 139.821 Q528.691 140.354 526.746 141.419 L526.746 137.483 Q529.084 136.581 531.283 136.141 Q533.482 135.678 535.566 135.678 Q541.191 135.678 543.968 138.594 Q546.746 141.511 546.746 147.437 Z" fill="#000000" fill-rule="nonzero" fill-opacity="1" /><path clip-path="url(#clip220)" d="M577.07 136.303 L567.695 148.919 L577.556 162.229 L572.533 162.229 L564.987 152.043 L557.44 162.229 L552.417 162.229 L562.487 148.664 L553.274 136.303 L558.297 136.303 L565.172 145.539 L572.047 136.303 L577.07 136.303 Z" fill="#000000" fill-rule="nonzero" fill-opacity="1" /><polyline clip-path="url(#clip220)" style="stroke:#e26f46; stroke-linecap:round; stroke-linejoin:round; stroke-width:4; stroke-opacity:1; fill:none" points="314.197,196.789 456.422,196.789 "/>
<path clip-path="url(#clip220)" d="M500.473 193.12 Q502.07 190.249 504.293 188.884 Q506.515 187.518 509.524 187.518 Q513.575 187.518 515.774 190.365 Q517.973 193.189 517.973 198.421 L517.973 214.069 L513.691 214.069 L513.691 198.559 Q513.691 194.833 512.371 193.027 Q511.052 191.222 508.344 191.222 Q505.033 191.222 503.112 193.421 Q501.191 195.62 501.191 199.416 L501.191 214.069 L496.908 214.069 L496.908 198.559 Q496.908 194.809 495.589 193.027 Q494.27 191.222 491.515 191.222 Q488.251 191.222 486.33 193.444 Q484.408 195.643 484.408 199.416 L484.408 214.069 L480.126 214.069 L480.126 188.143 L484.408 188.143 L484.408 192.171 Q485.867 189.786 487.904 188.652 Q489.941 187.518 492.742 187.518 Q495.566 187.518 497.533 188.953 Q499.524 190.388 500.473 193.12 Z" fill="#000000" fill-rule="nonzero" fill-opacity="1" /><path clip-path="url(#clip220)" d="M526.468 188.143 L530.728 188.143 L530.728 214.069 L526.468 214.069 L526.468 188.143 M526.468 178.05 L530.728 178.05 L530.728 183.444 L526.468 183.444 L526.468 178.05 Z" fill="#000000" fill-rule="nonzero" fill-opacity="1" /><path clip-path="url(#clip220)" d="M561.19 198.421 L561.19 214.069 L556.931 214.069 L556.931 198.559 Q556.931 194.879 555.496 193.05 Q554.061 191.222 551.191 191.222 Q547.741 191.222 545.751 193.421 Q543.76 195.62 543.76 199.416 L543.76 214.069 L539.478 214.069 L539.478 188.143 L543.76 188.143 L543.76 192.171 Q545.288 189.833 547.348 188.675 Q549.431 187.518 552.14 187.518 Q556.607 187.518 558.899 190.296 Q561.19 193.05 561.19 198.421 Z" fill="#000000" fill-rule="nonzero" fill-opacity="1" /><polyline clip-path="url(#clip220)" style="stroke:#000000; stroke-linecap:round; stroke-linejoin:round; stroke-width:4; stroke-opacity:1; fill:none" stroke-dasharray="16, 10" points="314.197,248.629 456.422,248.629 "/>
<path clip-path="url(#clip220)" d="M480.126 255.677 L480.126 239.983 L484.385 239.983 L484.385 255.515 Q484.385 259.196 485.82 261.048 Q487.256 262.876 490.126 262.876 Q493.575 262.876 495.566 260.677 Q497.58 258.478 497.58 254.682 L497.58 239.983 L501.839 239.983 L501.839 265.909 L497.58 265.909 L497.58 261.927 Q496.029 264.288 493.969 265.446 Q491.932 266.58 489.223 266.58 Q484.756 266.58 482.441 263.802 Q480.126 261.024 480.126 255.677 M490.844 239.358 L490.844 239.358 Z" fill="#000000" fill-rule="nonzero" fill-opacity="1" /><path clip-path="url(#clip220)" d="M532.163 250.261 L532.163 265.909 L527.904 265.909 L527.904 250.399 Q527.904 246.719 526.468 244.89 Q525.033 243.062 522.163 243.062 Q518.714 243.062 516.723 245.261 Q514.732 247.46 514.732 251.256 L514.732 265.909 L510.45 265.909 L510.45 239.983 L514.732 239.983 L514.732 244.011 Q516.26 241.673 518.32 240.515 Q520.404 239.358 523.112 239.358 Q527.58 239.358 529.871 242.136 Q532.163 244.89 532.163 250.261 Z" fill="#000000" fill-rule="nonzero" fill-opacity="1" /><path clip-path="url(#clip220)" d="M557.186 240.747 L557.186 244.774 Q555.38 243.849 553.436 243.386 Q551.491 242.923 549.408 242.923 Q546.237 242.923 544.64 243.895 Q543.066 244.867 543.066 246.811 Q543.066 248.293 544.2 249.149 Q545.334 249.983 548.76 250.747 L550.218 251.071 Q554.755 252.043 556.653 253.825 Q558.575 255.585 558.575 258.756 Q558.575 262.367 555.704 264.473 Q552.857 266.58 547.857 266.58 Q545.774 266.58 543.505 266.163 Q541.26 265.77 538.76 264.96 L538.76 260.561 Q541.121 261.788 543.413 262.413 Q545.704 263.015 547.95 263.015 Q550.959 263.015 552.579 261.997 Q554.2 260.955 554.2 259.08 Q554.2 257.344 553.019 256.418 Q551.862 255.492 547.903 254.636 L546.422 254.288 Q542.464 253.455 540.704 251.742 Q538.945 250.006 538.945 246.997 Q538.945 243.339 541.538 241.349 Q544.13 239.358 548.899 239.358 Q551.26 239.358 553.343 239.705 Q555.427 240.052 557.186 240.747 Z" fill="#000000" fill-rule="nonzero" fill-opacity="1" /><path clip-path="url(#clip220)" d="M569.57 232.622 L569.57 239.983 L578.343 239.983 L578.343 243.293 L569.57 243.293 L569.57 257.367 Q569.57 260.538 570.427 261.441 Q571.306 262.344 573.968 262.344 L578.343 262.344 L578.343 265.909 L573.968 265.909 Q569.038 265.909 567.163 264.08 Q565.288 262.228 565.288 257.367 L565.288 243.293 L562.163 243.293 L562.163 239.983 L565.288 239.983 L565.288 232.622 L569.57 232.622 Z" fill="#000000" fill-rule="nonzero" fill-opacity="1" /><path clip-path="url(#clip220)" d="M595.727 252.876 Q590.565 252.876 588.575 254.057 Q586.584 255.237 586.584 258.085 Q586.584 260.353 588.065 261.696 Q589.57 263.015 592.139 263.015 Q595.681 263.015 597.811 260.515 Q599.963 257.992 599.963 253.825 L599.963 252.876 L595.727 252.876 M604.223 251.117 L604.223 265.909 L599.963 265.909 L599.963 261.973 Q598.505 264.335 596.329 265.469 Q594.153 266.58 591.005 266.58 Q587.024 266.58 584.663 264.358 Q582.325 262.112 582.325 258.362 Q582.325 253.987 585.241 251.765 Q588.181 249.543 593.991 249.543 L599.963 249.543 L599.963 249.126 Q599.963 246.187 598.019 244.589 Q596.098 242.969 592.602 242.969 Q590.38 242.969 588.274 243.501 Q586.167 244.034 584.223 245.099 L584.223 241.163 Q586.561 240.261 588.76 239.821 Q590.959 239.358 593.042 239.358 Q598.667 239.358 601.445 242.274 Q604.223 245.191 604.223 251.117 Z" fill="#000000" fill-rule="nonzero" fill-opacity="1" /><path clip-path="url(#clip220)" d="M631.607 252.969 Q631.607 248.27 629.662 245.608 Q627.741 242.923 624.361 242.923 Q620.982 242.923 619.037 245.608 Q617.116 248.27 617.116 252.969 Q617.116 257.668 619.037 260.353 Q620.982 263.015 624.361 263.015 Q627.741 263.015 629.662 260.353 Q631.607 257.668 631.607 252.969 M617.116 243.918 Q618.459 241.603 620.496 240.492 Q622.556 239.358 625.403 239.358 Q630.125 239.358 633.065 243.108 Q636.028 246.858 636.028 252.969 Q636.028 259.08 633.065 262.83 Q630.125 266.58 625.403 266.58 Q622.556 266.58 620.496 265.469 Q618.459 264.335 617.116 262.02 L617.116 265.909 L612.834 265.909 L612.834 229.89 L617.116 229.89 L617.116 243.918 Z" fill="#000000" fill-rule="nonzero" fill-opacity="1" /><path clip-path="url(#clip220)" d="M643.088 229.89 L647.347 229.89 L647.347 265.909 L643.088 265.909 L643.088 229.89 Z" fill="#000000" fill-rule="nonzero" fill-opacity="1" /><path clip-path="url(#clip220)" d="M678.435 251.881 L678.435 253.964 L658.852 253.964 Q659.13 258.362 661.491 260.677 Q663.875 262.969 668.111 262.969 Q670.565 262.969 672.857 262.367 Q675.171 261.765 677.44 260.561 L677.44 264.589 Q675.148 265.561 672.741 266.071 Q670.333 266.58 667.857 266.58 Q661.653 266.58 658.019 262.969 Q654.408 259.358 654.408 253.2 Q654.408 246.835 657.833 243.108 Q661.283 239.358 667.116 239.358 Q672.347 239.358 675.38 242.737 Q678.435 246.094 678.435 251.881 M674.176 250.631 Q674.13 247.136 672.208 245.052 Q670.31 242.969 667.162 242.969 Q663.597 242.969 661.445 244.983 Q659.315 246.997 658.991 250.654 L674.176 250.631 Z" fill="#000000" fill-rule="nonzero" fill-opacity="1" /><polyline clip-path="url(#clip220)" style="stroke:#000000; stroke-linecap:round; stroke-linejoin:round; stroke-width:4; stroke-opacity:1; fill:none" points="314.197,300.469 456.422,300.469 "/>
<path clip-path="url(#clip220)" d="M498.552 292.587 L498.552 296.614 Q496.746 295.689 494.802 295.226 Q492.857 294.763 490.774 294.763 Q487.603 294.763 486.006 295.735 Q484.432 296.707 484.432 298.651 Q484.432 300.133 485.566 300.989 Q486.7 301.823 490.126 302.587 L491.584 302.911 Q496.121 303.883 498.02 305.665 Q499.941 307.425 499.941 310.596 Q499.941 314.207 497.07 316.313 Q494.223 318.42 489.223 318.42 Q487.14 318.42 484.871 318.003 Q482.626 317.61 480.126 316.8 L480.126 312.401 Q482.487 313.628 484.779 314.253 Q487.07 314.855 489.316 314.855 Q492.325 314.855 493.945 313.837 Q495.566 312.795 495.566 310.92 Q495.566 309.184 494.385 308.258 Q493.228 307.332 489.27 306.476 L487.788 306.128 Q483.83 305.295 482.071 303.582 Q480.311 301.846 480.311 298.837 Q480.311 295.179 482.904 293.189 Q485.496 291.198 490.265 291.198 Q492.626 291.198 494.709 291.545 Q496.793 291.892 498.552 292.587 Z" fill="#000000" fill-rule="nonzero" fill-opacity="1" /><path clip-path="url(#clip220)" d="M510.936 284.462 L510.936 291.823 L519.709 291.823 L519.709 295.133 L510.936 295.133 L510.936 309.207 Q510.936 312.378 511.793 313.281 Q512.672 314.184 515.334 314.184 L519.709 314.184 L519.709 317.749 L515.334 317.749 Q510.404 317.749 508.529 315.92 Q506.654 314.068 506.654 309.207 L506.654 295.133 L503.529 295.133 L503.529 291.823 L506.654 291.823 L506.654 284.462 L510.936 284.462 Z" fill="#000000" fill-rule="nonzero" fill-opacity="1" /><path clip-path="url(#clip220)" d="M537.093 304.716 Q531.931 304.716 529.941 305.897 Q527.95 307.077 527.95 309.925 Q527.95 312.193 529.431 313.536 Q530.936 314.855 533.505 314.855 Q537.047 314.855 539.177 312.355 Q541.329 309.832 541.329 305.665 L541.329 304.716 L537.093 304.716 M545.589 302.957 L545.589 317.749 L541.329 317.749 L541.329 313.813 Q539.871 316.175 537.695 317.309 Q535.519 318.42 532.371 318.42 Q528.39 318.42 526.029 316.198 Q523.691 313.952 523.691 310.202 Q523.691 305.827 526.607 303.605 Q529.547 301.383 535.357 301.383 L541.329 301.383 L541.329 300.966 Q541.329 298.027 539.385 296.429 Q537.464 294.809 533.968 294.809 Q531.746 294.809 529.64 295.341 Q527.533 295.874 525.589 296.939 L525.589 293.003 Q527.927 292.101 530.126 291.661 Q532.325 291.198 534.408 291.198 Q540.033 291.198 542.811 294.114 Q545.589 297.031 545.589 302.957 Z" fill="#000000" fill-rule="nonzero" fill-opacity="1" /><path clip-path="url(#clip220)" d="M572.973 304.809 Q572.973 300.11 571.028 297.448 Q569.107 294.763 565.727 294.763 Q562.348 294.763 560.403 297.448 Q558.482 300.11 558.482 304.809 Q558.482 309.508 560.403 312.193 Q562.348 314.855 565.727 314.855 Q569.107 314.855 571.028 312.193 Q572.973 309.508 572.973 304.809 M558.482 295.758 Q559.825 293.443 561.862 292.332 Q563.922 291.198 566.769 291.198 Q571.491 291.198 574.431 294.948 Q577.394 298.698 577.394 304.809 Q577.394 310.92 574.431 314.67 Q571.491 318.42 566.769 318.42 Q563.922 318.42 561.862 317.309 Q559.825 316.175 558.482 313.86 L558.482 317.749 L554.2 317.749 L554.2 281.73 L558.482 281.73 L558.482 295.758 Z" fill="#000000" fill-rule="nonzero" fill-opacity="1" /><path clip-path="url(#clip220)" d="M584.454 281.73 L588.713 281.73 L588.713 317.749 L584.454 317.749 L584.454 281.73 Z" fill="#000000" fill-rule="nonzero" fill-opacity="1" /><path clip-path="url(#clip220)" d="M619.801 303.721 L619.801 305.804 L600.218 305.804 Q600.496 310.202 602.857 312.517 Q605.241 314.809 609.477 314.809 Q611.931 314.809 614.223 314.207 Q616.537 313.605 618.806 312.401 L618.806 316.429 Q616.514 317.401 614.107 317.911 Q611.699 318.42 609.223 318.42 Q603.019 318.42 599.385 314.809 Q595.774 311.198 595.774 305.04 Q595.774 298.675 599.2 294.948 Q602.649 291.198 608.482 291.198 Q613.713 291.198 616.746 294.577 Q619.801 297.934 619.801 303.721 M615.542 302.471 Q615.496 298.976 613.574 296.892 Q611.676 294.809 608.528 294.809 Q604.963 294.809 602.811 296.823 Q600.681 298.837 600.357 302.494 L615.542 302.471 Z" fill="#000000" fill-rule="nonzero" fill-opacity="1" /><circle clip-path="url(#clip220)" cx="385.309" cy="352.309" r="20.48" fill="#ff0000" fill-rule="evenodd" fill-opacity="1" stroke="#000000" stroke-opacity="1" stroke-width="4.55111"/>
<path clip-path="url(#clip220)" d="M480.126 335.029 L484.802 335.029 L484.802 349.195 L501.793 349.195 L501.793 335.029 L506.469 335.029 L506.469 369.589 L501.793 369.589 L501.793 353.13 L484.802 353.13 L484.802 369.589 L480.126 369.589 L480.126 335.029 Z" fill="#000000" fill-rule="nonzero" fill-opacity="1" /><path clip-path="url(#clip220)" d="M525.635 346.649 Q522.209 346.649 520.218 349.334 Q518.228 351.996 518.228 356.649 Q518.228 361.302 520.195 363.987 Q522.186 366.649 525.635 366.649 Q529.038 366.649 531.029 363.964 Q533.019 361.278 533.019 356.649 Q533.019 352.042 531.029 349.357 Q529.038 346.649 525.635 346.649 M525.635 343.038 Q531.191 343.038 534.362 346.649 Q537.533 350.26 537.533 356.649 Q537.533 363.015 534.362 366.649 Q531.191 370.26 525.635 370.26 Q520.056 370.26 516.885 366.649 Q513.737 363.015 513.737 356.649 Q513.737 350.26 516.885 346.649 Q520.056 343.038 525.635 343.038 Z" fill="#000000" fill-rule="nonzero" fill-opacity="1" /><path clip-path="url(#clip220)" d="M548.714 365.7 L548.714 379.45 L544.431 379.45 L544.431 343.663 L548.714 343.663 L548.714 347.598 Q550.056 345.283 552.093 344.172 Q554.153 343.038 557.001 343.038 Q561.723 343.038 564.663 346.788 Q567.626 350.538 567.626 356.649 Q567.626 362.76 564.663 366.51 Q561.723 370.26 557.001 370.26 Q554.153 370.26 552.093 369.149 Q550.056 368.015 548.714 365.7 M563.204 356.649 Q563.204 351.95 561.26 349.288 Q559.339 346.603 555.959 346.603 Q552.579 346.603 550.635 349.288 Q548.714 351.95 548.714 356.649 Q548.714 361.348 550.635 364.033 Q552.579 366.695 555.959 366.695 Q559.339 366.695 561.26 364.033 Q563.204 361.348 563.204 356.649 Z" fill="#000000" fill-rule="nonzero" fill-opacity="1" /><path clip-path="url(#clip220)" d="M587.811 333.57 L587.811 337.112 L583.737 337.112 Q581.445 337.112 580.542 338.038 Q579.663 338.964 579.663 341.371 L579.663 343.663 L586.676 343.663 L586.676 346.973 L579.663 346.973 L579.663 369.589 L575.38 369.589 L575.38 346.973 L571.306 346.973 L571.306 343.663 L575.38 343.663 L575.38 341.857 Q575.38 337.529 577.394 335.561 Q579.408 333.57 583.783 333.57 L587.811 333.57 Z" fill="#000000" fill-rule="nonzero" fill-opacity="1" /><path clip-path="url(#clip220)" d="M610.565 365.7 L610.565 379.45 L606.283 379.45 L606.283 343.663 L610.565 343.663 L610.565 347.598 Q611.908 345.283 613.945 344.172 Q616.005 343.038 618.852 343.038 Q623.574 343.038 626.514 346.788 Q629.477 350.538 629.477 356.649 Q629.477 362.76 626.514 366.51 Q623.574 370.26 618.852 370.26 Q616.005 370.26 613.945 369.149 Q611.908 368.015 610.565 365.7 M625.056 356.649 Q625.056 351.95 623.111 349.288 Q621.19 346.603 617.811 346.603 Q614.431 346.603 612.486 349.288 Q610.565 351.95 610.565 356.649 Q610.565 361.348 612.486 364.033 Q614.431 366.695 617.811 366.695 Q621.19 366.695 623.111 364.033 Q625.056 361.348 625.056 356.649 Z" fill="#000000" fill-rule="nonzero" fill-opacity="1" /><path clip-path="url(#clip220)" d="M646.584 346.649 Q643.158 346.649 641.167 349.334 Q639.176 351.996 639.176 356.649 Q639.176 361.302 641.144 363.987 Q643.134 366.649 646.584 366.649 Q649.986 366.649 651.977 363.964 Q653.968 361.278 653.968 356.649 Q653.968 352.042 651.977 349.357 Q649.986 346.649 646.584 346.649 M646.584 343.038 Q652.139 343.038 655.31 346.649 Q658.482 350.26 658.482 356.649 Q658.482 363.015 655.31 366.649 Q652.139 370.26 646.584 370.26 Q641.005 370.26 637.834 366.649 Q634.685 363.015 634.685 356.649 Q634.685 350.26 637.834 346.649 Q641.005 343.038 646.584 343.038 Z" fill="#000000" fill-rule="nonzero" fill-opacity="1" /><path clip-path="url(#clip220)" d="M665.542 343.663 L669.801 343.663 L669.801 369.589 L665.542 369.589 L665.542 343.663 M665.542 333.57 L669.801 333.57 L669.801 338.964 L665.542 338.964 L665.542 333.57 Z" fill="#000000" fill-rule="nonzero" fill-opacity="1" /><path clip-path="url(#clip220)" d="M700.264 353.941 L700.264 369.589 L696.005 369.589 L696.005 354.079 Q696.005 350.399 694.569 348.57 Q693.134 346.742 690.264 346.742 Q686.815 346.742 684.824 348.941 Q682.833 351.14 682.833 354.936 L682.833 369.589 L678.551 369.589 L678.551 343.663 L682.833 343.663 L682.833 347.691 Q684.361 345.353 686.421 344.195 Q688.505 343.038 691.213 343.038 Q695.68 343.038 697.972 345.816 Q700.264 348.57 700.264 353.941 Z" fill="#000000" fill-rule="nonzero" fill-opacity="1" /><path clip-path="url(#clip220)" d="M712.972 336.302 L712.972 343.663 L721.745 343.663 L721.745 346.973 L712.972 346.973 L712.972 361.047 Q712.972 364.218 713.829 365.121 Q714.708 366.024 717.37 366.024 L721.745 366.024 L721.745 369.589 L717.37 369.589 Q712.44 369.589 710.565 367.76 Q708.69 365.908 708.69 361.047 L708.69 346.973 L705.565 346.973 L705.565 343.663 L708.69 343.663 L708.69 336.302 L712.972 336.302 Z" fill="#000000" fill-rule="nonzero" fill-opacity="1" /></svg>
