<?xml version="1.0" encoding="utf-8"?>
<svg xmlns="http://www.w3.org/2000/svg" xmlns:xlink="http://www.w3.org/1999/xlink" width="600" height="400" viewBox="0 0 2400 1600">
<defs>
  <clipPath id="clip210">
    <rect x="0" y="0" width="2400" height="1600"/>
  </clipPath>
</defs>
<path clip-path="url(#clip210)" d="M0 1600 L2400 1600 L2400 0 L0 0  Z" fill="#ffffff" fill-rule="evenodd" fill-opacity="1"/>
<defs>
  <clipPath id="clip211">
    <rect x="480" y="0" width="1681" height="1600"/>
  </clipPath>
</defs>
<path clip-path="url(#clip210)" d="M156.112 1486.45 L2352.76 1486.45 L2352.76 47.2441 L156.112 47.2441  Z" fill="#ffffff" fill-rule="evenodd" fill-opacity="1"/>
<defs>
  <clipPath id="clip212">
    <rect x="156" y="47" width="2198" height="1440"/>
  </clipPath>
</defs>
<polyline clip-path="url(#clip212)" style="stroke:#000000; stroke-linecap:round; stroke-linejoin:round; stroke-width:2; stroke-opacity:0.1; fill:none" points="622.711,1486.45 622.711,47.2441 "/>
<polyline clip-path="url(#clip212)" style="stroke:#000000; stroke-linecap:round; stroke-linejoin:round; stroke-width:2; stroke-opacity:0.1; fill:none" points="1178.67,1486.45 1178.67,47.2441 "/>
<polyline clip-path="url(#clip212)" style="stroke:#000000; stroke-linecap:round; stroke-linejoin:round; stroke-width:2; stroke-opacity:0.1; fill:none" points="1734.63,1486.45 1734.63,47.2441 "/>
<polyline clip-path="url(#clip212)" style="stroke:#000000; stroke-linecap:round; stroke-linejoin:round; stroke-width:2; stroke-opacity:0.1; fill:none" points="2290.59,1486.45 2290.59,47.2441 "/>
<polyline clip-path="url(#clip212)" style="stroke:#000000; stroke-linecap:round; stroke-linejoin:round; stroke-width:2; stroke-opacity:0.1; fill:none" points="156.112,1456.05 2352.76,1456.05 "/>
<polyline clip-path="url(#clip212)" style="stroke:#000000; stroke-linecap:round; stroke-linejoin:round; stroke-width:2; stroke-opacity:0.1; fill:none" points="156.112,1096.77 2352.76,1096.77 "/>
<polyline clip-path="url(#clip212)" style="stroke:#000000; stroke-linecap:round; stroke-linejoin:round; stroke-width:2; stroke-opacity:0.1; fill:none" points="156.112,737.497 2352.76,737.497 "/>
<polyline clip-path="url(#clip212)" style="stroke:#000000; stroke-linecap:round; stroke-linejoin:round; stroke-width:2; stroke-opacity:0.1; fill:none" points="156.112,378.223 2352.76,378.223 "/>
<polyline clip-path="url(#clip210)" style="stroke:#000000; stroke-linecap:round; stroke-linejoin:round; stroke-width:4; stroke-opacity:1; fill:none" points="156.112,1486.45 2352.76,1486.45 "/>
<polyline clip-path="url(#clip210)" style="stroke:#000000; stroke-linecap:round; stroke-linejoin:round; stroke-width:4; stroke-opacity:1; fill:none" points="622.711,1486.45 622.711,1467.55 "/>
<polyline clip-path="url(#clip210)" style="stroke:#000000; stroke-linecap:round; stroke-linejoin:round; stroke-width:4; stroke-opacity:1; fill:none" points="1178.67,1486.45 1178.67,1467.55 "/>
<polyline clip-path="url(#clip210)" style="stroke:#000000; stroke-linecap:round; stroke-linejoin:round; stroke-width:4; stroke-opacity:1; fill:none" points="1734.63,1486.45 1734.63,1467.55 "/>
<polyline clip-path="url(#clip210)" style="stroke:#000000; stroke-linecap:round; stroke-linejoin:round; stroke-width:4; stroke-opacity:1; fill:none" points="2290.59,1486.45 2290.59,1467.55 "/>
<path clip-path="url(#clip210)" d="M600.593 1517.37 Q596.982 1517.37 595.153 1520.93 Q593.348 1524.47 593.348 1531.6 Q593.348 1538.71 595.153 1542.27 Q596.982 1545.82 600.593 1545.82 Q604.227 1545.82 606.033 1542.27 Q607.861 1538.71 607.861 1531.6 Q607.861 1524.47 606.033 1520.93 Q604.227 1517.37 600.593 1517.37 M600.593 1513.66 Q606.403 1513.66 609.459 1518.27 Q612.537 1522.85 612.537 1531.6 Q612.537 1540.33 609.459 1544.94 Q606.403 1549.52 600.593 1549.52 Q594.783 1549.52 591.704 1544.94 Q588.648 1540.33 588.648 1531.6 Q588.648 1522.85 591.704 1518.27 Q594.783 1513.66 600.593 1513.66 Z" fill="#000000" fill-rule="nonzero" fill-opacity="1" /><path clip-path="url(#clip210)" d="M620.755 1542.97 L625.639 1542.97 L625.639 1548.85 L620.755 1548.85 L620.755 1542.97 Z" fill="#000000" fill-rule="nonzero" fill-opacity="1" /><path clip-path="url(#clip210)" d="M635.87 1514.29 L654.227 1514.29 L654.227 1518.22 L640.153 1518.22 L640.153 1526.7 Q641.171 1526.35 642.19 1526.19 Q643.208 1526 644.227 1526 Q650.014 1526 653.394 1529.17 Q656.773 1532.34 656.773 1537.76 Q656.773 1543.34 653.301 1546.44 Q649.829 1549.52 643.509 1549.52 Q641.333 1549.52 639.065 1549.15 Q636.82 1548.78 634.412 1548.04 L634.412 1543.34 Q636.495 1544.47 638.718 1545.03 Q640.94 1545.58 643.417 1545.58 Q647.421 1545.58 649.759 1543.48 Q652.097 1541.37 652.097 1537.76 Q652.097 1534.15 649.759 1532.04 Q647.421 1529.94 643.417 1529.94 Q641.542 1529.94 639.667 1530.35 Q637.815 1530.77 635.87 1531.65 L635.87 1514.29 Z" fill="#000000" fill-rule="nonzero" fill-opacity="1" /><path clip-path="url(#clip210)" d="M1145.82 1544.91 L1153.46 1544.91 L1153.46 1518.55 L1145.15 1520.21 L1145.15 1515.95 L1153.41 1514.29 L1158.09 1514.29 L1158.09 1544.91 L1165.73 1544.91 L1165.73 1548.85 L1145.82 1548.85 L1145.82 1544.91 Z" fill="#000000" fill-rule="nonzero" fill-opacity="1" /><path clip-path="url(#clip210)" d="M1175.17 1542.97 L1180.06 1542.97 L1180.06 1548.85 L1175.17 1548.85 L1175.17 1542.97 Z" fill="#000000" fill-rule="nonzero" fill-opacity="1" /><path clip-path="url(#clip210)" d="M1200.24 1517.37 Q1196.63 1517.37 1194.8 1520.93 Q1193 1524.47 1193 1531.6 Q1193 1538.71 1194.8 1542.27 Q1196.63 1545.82 1200.24 1545.82 Q1203.88 1545.82 1205.68 1542.27 Q1207.51 1538.71 1207.51 1531.6 Q1207.51 1524.47 1205.68 1520.93 Q1203.88 1517.37 1200.24 1517.37 M1200.24 1513.66 Q1206.05 1513.66 1209.11 1518.27 Q1212.19 1522.85 1212.19 1531.6 Q1212.19 1540.33 1209.11 1544.94 Q1206.05 1549.52 1200.24 1549.52 Q1194.43 1549.52 1191.35 1544.94 Q1188.3 1540.33 1188.3 1531.6 Q1188.3 1522.85 1191.35 1518.27 Q1194.43 1513.66 1200.24 1513.66 Z" fill="#000000" fill-rule="nonzero" fill-opacity="1" /><path clip-path="url(#clip210)" d="M1702.28 1544.91 L1709.92 1544.91 L1709.92 1518.55 L1701.61 1520.21 L1701.61 1515.95 L1709.87 1514.29 L1714.55 1514.29 L1714.55 1544.91 L1722.19 1544.91 L1722.19 1548.85 L1702.28 1548.85 L1702.28 1544.91 Z" fill="#000000" fill-rule="nonzero" fill-opacity="1" /><path clip-path="url(#clip210)" d="M1731.63 1542.97 L1736.51 1542.97 L1736.51 1548.85 L1731.63 1548.85 L1731.63 1542.97 Z" fill="#000000" fill-rule="nonzero" fill-opacity="1" /><path clip-path="url(#clip210)" d="M1746.75 1514.29 L1765.1 1514.29 L1765.1 1518.22 L1751.03 1518.22 L1751.03 1526.7 Q1752.05 1526.35 1753.07 1526.19 Q1754.08 1526 1755.1 1526 Q1760.89 1526 1764.27 1529.17 Q1767.65 1532.34 1767.65 1537.76 Q1767.65 1543.34 1764.18 1546.44 Q1760.7 1549.52 1754.38 1549.52 Q1752.21 1549.52 1749.94 1549.15 Q1747.7 1548.78 1745.29 1548.04 L1745.29 1543.34 Q1747.37 1544.47 1749.59 1545.03 Q1751.82 1545.58 1754.29 1545.58 Q1758.3 1545.58 1760.63 1543.48 Q1762.97 1541.37 1762.97 1537.76 Q1762.97 1534.15 1760.63 1532.04 Q1758.3 1529.94 1754.29 1529.94 Q1752.42 1529.94 1750.54 1530.35 Q1748.69 1530.77 1746.75 1531.65 L1746.75 1514.29 Z" fill="#000000" fill-rule="nonzero" fill-opacity="1" /><path clip-path="url(#clip210)" d="M2261.83 1544.91 L2278.14 1544.91 L2278.14 1548.85 L2256.2 1548.85 L2256.2 1544.91 Q2258.86 1542.16 2263.45 1537.53 Q2268.05 1532.88 2269.23 1531.53 Q2271.48 1529.01 2272.36 1527.27 Q2273.26 1525.51 2273.26 1523.82 Q2273.26 1521.07 2271.32 1519.33 Q2269.39 1517.6 2266.29 1517.6 Q2264.09 1517.6 2261.64 1518.36 Q2259.21 1519.13 2256.43 1520.68 L2256.43 1515.95 Q2259.26 1514.82 2261.71 1514.24 Q2264.16 1513.66 2266.2 1513.66 Q2271.57 1513.66 2274.77 1516.35 Q2277.96 1519.03 2277.96 1523.52 Q2277.96 1525.65 2277.15 1527.57 Q2276.36 1529.47 2274.26 1532.07 Q2273.68 1532.74 2270.58 1535.95 Q2267.47 1539.15 2261.83 1544.91 Z" fill="#000000" fill-rule="nonzero" fill-opacity="1" /><path clip-path="url(#clip210)" d="M2287.96 1542.97 L2292.84 1542.97 L2292.84 1548.85 L2287.96 1548.85 L2287.96 1542.97 Z" fill="#000000" fill-rule="nonzero" fill-opacity="1" /><path clip-path="url(#clip210)" d="M2313.03 1517.37 Q2309.42 1517.37 2307.59 1520.93 Q2305.78 1524.47 2305.78 1531.6 Q2305.78 1538.71 2307.59 1542.27 Q2309.42 1545.82 2313.03 1545.82 Q2316.66 1545.82 2318.47 1542.27 Q2320.3 1538.71 2320.3 1531.6 Q2320.3 1524.47 2318.47 1520.93 Q2316.66 1517.37 2313.03 1517.37 M2313.03 1513.66 Q2318.84 1513.66 2321.89 1518.27 Q2324.97 1522.85 2324.97 1531.6 Q2324.97 1540.33 2321.89 1544.94 Q2318.84 1549.52 2313.03 1549.52 Q2307.22 1549.52 2304.14 1544.94 Q2301.08 1540.33 2301.08 1531.6 Q2301.08 1522.85 2304.14 1518.27 Q2307.22 1513.66 2313.03 1513.66 Z" fill="#000000" fill-rule="nonzero" fill-opacity="1" /><polyline clip-path="url(#clip210)" style="stroke:#000000; stroke-linecap:round; stroke-linejoin:round; stroke-width:4; stroke-opacity:1; fill:none" points="156.112,1486.45 156.112,47.2441 "/>
<polyline clip-path="url(#clip210)" style="stroke:#000000; stroke-linecap:round; stroke-linejoin:round; stroke-width:4; stroke-opacity:1; fill:none" points="156.112,1456.05 175.01,1456.05 "/>
<polyline clip-path="url(#clip210)" style="stroke:#000000; stroke-linecap:round; stroke-linejoin:round; stroke-width:4; stroke-opacity:1; fill:none" points="156.112,1096.77 175.01,1096.77 "/>
<polyline clip-path="url(#clip210)" style="stroke:#000000; stroke-linecap:round; stroke-linejoin:round; stroke-width:4; stroke-opacity:1; fill:none" points="156.112,737.497 175.01,737.497 "/>
<polyline clip-path="url(#clip210)" style="stroke:#000000; stroke-linecap:round; stroke-linejoin:round; stroke-width:4; stroke-opacity:1; fill:none" points="156.112,378.223 175.01,378.223 "/>
<path clip-path="url(#clip210)" d="M62.9365 1441.84 Q59.3254 1441.84 57.4967 1445.41 Q55.6912 1448.95 55.6912 1456.08 Q55.6912 1463.19 57.4967 1466.75 Q59.3254 1470.29 62.9365 1470.29 Q66.5707 1470.29 68.3763 1466.75 Q70.205 1463.19 70.205 1456.08 Q70.205 1448.95 68.3763 1445.41 Q66.5707 1441.84 62.9365 1441.84 M62.9365 1438.14 Q68.7467 1438.14 71.8022 1442.75 Q74.8809 1447.33 74.8809 1456.08 Q74.8809 1464.81 71.8022 1469.41 Q68.7467 1474 62.9365 1474 Q57.1264 1474 54.0477 1469.41 Q50.9921 1464.81 50.9921 1456.08 Q50.9921 1447.33 54.0477 1442.75 Q57.1264 1438.14 62.9365 1438.14 Z" fill="#000000" fill-rule="nonzero" fill-opacity="1" /><path clip-path="url(#clip210)" d="M83.0984 1467.45 L87.9827 1467.45 L87.9827 1473.33 L83.0984 1473.33 L83.0984 1467.45 Z" fill="#000000" fill-rule="nonzero" fill-opacity="1" /><path clip-path="url(#clip210)" d="M108.168 1441.84 Q104.557 1441.84 102.728 1445.41 Q100.922 1448.95 100.922 1456.08 Q100.922 1463.19 102.728 1466.75 Q104.557 1470.29 108.168 1470.29 Q111.802 1470.29 113.608 1466.75 Q115.436 1463.19 115.436 1456.08 Q115.436 1448.95 113.608 1445.41 Q111.802 1441.84 108.168 1441.84 M108.168 1438.14 Q113.978 1438.14 117.033 1442.75 Q120.112 1447.33 120.112 1456.08 Q120.112 1464.81 117.033 1469.41 Q113.978 1474 108.168 1474 Q102.358 1474 99.2789 1469.41 Q96.2234 1464.81 96.2234 1456.08 Q96.2234 1447.33 99.2789 1442.75 Q102.358 1438.14 108.168 1438.14 Z" fill="#000000" fill-rule="nonzero" fill-opacity="1" /><path clip-path="url(#clip210)" d="M63.9319 1082.57 Q60.3208 1082.57 58.4921 1086.13 Q56.6865 1089.68 56.6865 1096.81 Q56.6865 1103.91 58.4921 1107.48 Q60.3208 1111.02 63.9319 1111.02 Q67.5661 1111.02 69.3717 1107.48 Q71.2004 1103.91 71.2004 1096.81 Q71.2004 1089.68 69.3717 1086.13 Q67.5661 1082.57 63.9319 1082.57 M63.9319 1078.87 Q69.742 1078.87 72.7976 1083.47 Q75.8763 1088.06 75.8763 1096.81 Q75.8763 1105.53 72.7976 1110.14 Q69.742 1114.72 63.9319 1114.72 Q58.1217 1114.72 55.043 1110.14 Q51.9875 1105.53 51.9875 1096.81 Q51.9875 1088.06 55.043 1083.47 Q58.1217 1078.87 63.9319 1078.87 Z" fill="#000000" fill-rule="nonzero" fill-opacity="1" /><path clip-path="url(#clip210)" d="M84.0938 1108.17 L88.978 1108.17 L88.978 1114.05 L84.0938 1114.05 L84.0938 1108.17 Z" fill="#000000" fill-rule="nonzero" fill-opacity="1" /><path clip-path="url(#clip210)" d="M99.2095 1079.49 L117.566 1079.49 L117.566 1083.43 L103.492 1083.43 L103.492 1091.9 Q104.51 1091.55 105.529 1091.39 Q106.547 1091.2 107.566 1091.2 Q113.353 1091.2 116.733 1094.38 Q120.112 1097.55 120.112 1102.96 Q120.112 1108.54 116.64 1111.64 Q113.168 1114.72 106.848 1114.72 Q104.672 1114.72 102.404 1114.35 Q100.159 1113.98 97.7511 1113.24 L97.7511 1108.54 Q99.8345 1109.68 102.057 1110.23 Q104.279 1110.79 106.756 1110.79 Q110.76 1110.79 113.098 1108.68 Q115.436 1106.57 115.436 1102.96 Q115.436 1099.35 113.098 1097.25 Q110.76 1095.14 106.756 1095.14 Q104.881 1095.14 103.006 1095.56 Q101.154 1095.97 99.2095 1096.85 L99.2095 1079.49 Z" fill="#000000" fill-rule="nonzero" fill-opacity="1" /><path clip-path="url(#clip210)" d="M53.7467 750.842 L61.3856 750.842 L61.3856 724.476 L53.0754 726.143 L53.0754 721.884 L61.3393 720.217 L66.0152 720.217 L66.0152 750.842 L73.654 750.842 L73.654 754.777 L53.7467 754.777 L53.7467 750.842 Z" fill="#000000" fill-rule="nonzero" fill-opacity="1" /><path clip-path="url(#clip210)" d="M83.0984 748.898 L87.9827 748.898 L87.9827 754.777 L83.0984 754.777 L83.0984 748.898 Z" fill="#000000" fill-rule="nonzero" fill-opacity="1" /><path clip-path="url(#clip210)" d="M108.168 723.296 Q104.557 723.296 102.728 726.861 Q100.922 730.402 100.922 737.532 Q100.922 744.638 102.728 748.203 Q104.557 751.745 108.168 751.745 Q111.802 751.745 113.608 748.203 Q115.436 744.638 115.436 737.532 Q115.436 730.402 113.608 726.861 Q111.802 723.296 108.168 723.296 M108.168 719.592 Q113.978 719.592 117.033 724.199 Q120.112 728.782 120.112 737.532 Q120.112 746.259 117.033 750.865 Q113.978 755.448 108.168 755.448 Q102.358 755.448 99.2789 750.865 Q96.2234 746.259 96.2234 737.532 Q96.2234 728.782 99.2789 724.199 Q102.358 719.592 108.168 719.592 Z" fill="#000000" fill-rule="nonzero" fill-opacity="1" /><path clip-path="url(#clip210)" d="M54.7421 391.568 L62.381 391.568 L62.381 365.202 L54.0708 366.869 L54.0708 362.61 L62.3347 360.943 L67.0106 360.943 L67.0106 391.568 L74.6494 391.568 L74.6494 395.503 L54.7421 395.503 L54.7421 391.568 Z" fill="#000000" fill-rule="nonzero" fill-opacity="1" /><path clip-path="url(#clip210)" d="M84.0938 389.623 L88.978 389.623 L88.978 395.503 L84.0938 395.503 L84.0938 389.623 Z" fill="#000000" fill-rule="nonzero" fill-opacity="1" /><path clip-path="url(#clip210)" d="M99.2095 360.943 L117.566 360.943 L117.566 364.878 L103.492 364.878 L103.492 373.35 Q104.51 373.003 105.529 372.841 Q106.547 372.656 107.566 372.656 Q113.353 372.656 116.733 375.827 Q120.112 378.998 120.112 384.415 Q120.112 389.994 116.64 393.096 Q113.168 396.174 106.848 396.174 Q104.672 396.174 102.404 395.804 Q100.159 395.434 97.7511 394.693 L97.7511 389.994 Q99.8345 391.128 102.057 391.684 Q104.279 392.239 106.756 392.239 Q110.76 392.239 113.098 390.133 Q115.436 388.026 115.436 384.415 Q115.436 380.804 113.098 378.697 Q110.76 376.591 106.756 376.591 Q104.881 376.591 103.006 377.008 Q101.154 377.424 99.2095 378.304 L99.2095 360.943 Z" fill="#000000" fill-rule="nonzero" fill-opacity="1" /><polyline clip-path="url(#clip212)" style="stroke:#009af9; stroke-linecap:round; stroke-linejoin:round; stroke-width:4; stroke-opacity:1; fill:none" points="272.548,938.988 271.198,942.604 269.915,946.277 268.703,950.007 267.568,953.808 266.514,957.67 265.546,961.596 264.67,965.595 263.89,969.656 263.211,973.787 262.638,977.986 262.175,982.247 261.825,986.575 261.591,990.963 261.474,995.408 261.477,995.236 261.598,990.793 261.836,986.407 262.191,982.084 262.658,977.821 263.236,973.627 263.918,969.498 264.702,965.436 265.582,961.447 266.553,957.516 267.611,953.658 268.749,949.866 269.964,946.129 271.249,942.461 272.602,938.854 274.017,935.293 275.489,931.794 277.016,928.355 278.594,924.953 280.218,921.6 281.887,918.298 283.597,915.047 285.345,911.823 287.128,908.637 288.946,905.495 290.794,902.395 292.671,899.332 294.576,896.28 296.507,893.264 298.461,890.282 300.438,887.333 302.436,884.416 304.454,881.521 306.49,878.632 308.544,875.771 310.614,872.936 312.699,870.127 314.799,867.342 316.912,864.581 319.039,861.842 321.177,859.104 323.326,856.379 325.487,853.673 327.657,850.986 329.836,848.319 332.024,845.67 334.221,843.038 336.425,840.424 338.636,837.827 340.854,835.246 343.078,832.681 345.307,830.132 347.542,827.578 349.781,825.036 352.024,822.51 354.27,819.998 356.52,817.502 358.771,815.02 361.025,812.553 363.279,810.101 365.533,807.663 367.787,805.241 370.04,802.834 372.291,800.443 374.538,798.067 376.782,795.707 379.021,793.364 381.255,791.038 383.482,788.729 385.701,786.438 387.912,784.165 390.114,781.911 392.306,779.677 394.488,777.462 396.659,775.268 398.819,773.094 400.967,770.94 403.104,768.807 405.229,766.694 407.344,764.602 409.447,762.515 411.541,760.423 413.625,758.349 415.7,756.291 417.767,754.249 419.827,752.223 421.881,750.213 423.928,748.217 425.971,746.236 428.009,744.269 430.044,742.316 432.076,740.375 434.106,738.447 436.135,736.531 438.162,734.626 440.19,732.721 442.218,730.785 444.247,728.857 446.277,726.94 448.31,725.031 450.344,723.132 452.381,721.241 454.421,719.358 456.465,717.483 458.512,715.616 460.563,713.757 462.619,711.905 464.679,710.06 466.745,708.223 468.815,706.392 470.891,704.541 472.972,702.669 475.059,700.804 477.152,698.945 479.251,697.091 481.357,695.243 483.469,693.401 485.588,691.564 487.714,689.733 489.847,687.907 491.987,686.085 494.134,684.269 496.289,682.458 498.451,680.652 500.621,678.85 502.799,677.053 504.984,675.26 507.178,673.442 509.38,671.61 511.59,669.782 513.808,667.958 516.034,666.139 518.269,664.323 520.513,662.511 522.765,660.704 525.026,658.9 527.296,657.1 529.574,655.304 531.861,653.511 534.158,651.722 536.463,649.937 538.778,648.155 541.102,646.377 543.434,644.602 545.777,642.83 548.128,641.062 550.489,639.297 552.86,637.536 555.239,635.737 557.629,633.94 560.028,632.146 562.436,630.356 564.854,628.568 567.282,626.784 569.72,625.003 572.167,623.225 574.624,621.45 577.091,619.678 579.568,617.909 582.054,616.143 584.551,614.38 587.057,612.62 589.574,610.863 592.1,609.108 594.636,607.357 597.183,605.608 599.739,603.862 602.305,602.119 604.882,600.378 607.468,598.641 610.065,596.906 612.671,595.173 615.288,593.444 617.915,591.717 620.552,589.972 623.199,588.216 625.857,586.463 628.524,584.713 631.201,582.965 633.889,581.22 636.587,579.478 639.295,577.739 642.013,576.002 644.741,574.269 647.48,572.537 650.228,570.809 652.987,569.083 655.755,567.36 658.534,565.64 661.323,563.922 664.122,562.207 666.931,560.495 669.75,558.786 672.579,557.079 675.418,555.375 678.268,553.673 681.127,551.974 683.996,550.278 686.875,548.585 689.764,546.894 692.663,545.206 695.572,543.521 698.491,541.838 701.42,540.158 704.358,538.481 707.307,536.806 710.265,535.134 713.233,533.465 716.211,531.799 719.198,530.126 722.195,528.438 725.202,526.753 728.219,525.071 731.245,523.392 734.281,521.715 737.326,520.042 740.381,518.371 743.445,516.703 746.519,515.038 749.602,513.376 752.695,511.717 755.797,510.061 758.908,508.408 762.029,506.757 765.158,505.11 768.298,503.465 771.446,501.823 774.603,500.185 777.77,498.549 780.946,496.916 784.13,495.286 787.324,493.659 790.527,492.035 793.739,490.414 796.959,488.797 800.189,487.182 803.427,485.57 806.674,483.961 809.93,482.355 813.194,480.752 816.467,479.152 819.749,477.555 823.039,475.961 826.338,474.371 829.646,472.783 832.961,471.198 836.286,469.617 839.618,468.038 842.959,466.463 846.308,464.89 849.666,463.321 853.031,461.755 856.405,460.192 859.787,458.632 863.177,457.075 866.575,455.522 869.981,453.971 873.394,452.424 876.816,450.88 880.246,449.334 883.683,447.777 887.128,446.223 890.581,444.672 894.041,443.125 897.51,441.58 900.985,440.039 904.468,438.502 907.959,436.967 911.457,435.436 914.963,433.909 918.476,432.384 921.996,430.863 925.523,429.345 929.058,427.831 932.6,426.319 936.148,424.812 939.704,423.307 943.267,421.806 946.837,420.308 950.414,418.813 953.998,417.322 957.589,415.834 961.186,414.35 964.791,412.869 968.402,411.391 972.019,409.916 975.644,408.445 979.274,406.978 982.912,405.513 986.556,404.052 990.206,402.595 993.863,401.14 997.526,399.689 1001.2,398.242 1004.87,396.798 1008.55,395.357 1012.24,393.92 1015.94,392.485 1019.64,391.055 1023.34,389.628 1027.05,388.204 1030.77,386.783 1034.5,385.366 1038.23,383.952 1041.96,382.542 1045.71,381.135 1049.45,379.731 1053.21,378.331 1056.97,376.934 1060.73,375.541 1064.5,374.15 1068.28,372.764 1072.06,371.38 1075.85,370 1079.64,368.624 1083.44,367.25 1087.24,365.88 1091.05,364.514 1094.86,363.151 1098.68,361.791 1102.5,360.434 1106.33,359.081 1110.17,357.732 1114.01,356.385 1117.85,355.042 1121.7,353.703 1125.56,352.366 1129.42,351.033 1133.28,349.704 1137.15,348.377 1141.02,347.055 1144.9,345.735 1148.79,344.419 1152.68,343.106 1156.57,341.796 1160.47,340.49 1164.37,339.187 1168.27,337.887 1172.19,336.582 1176.1,335.277 1180.02,333.975 1183.95,332.676 1187.88,331.381 1191.81,330.09 1195.75,328.801 1199.69,327.516 1203.64,326.235 1207.59,324.956 1211.54,323.681 1215.5,322.41 1219.46,321.141 1223.43,319.876 1227.4,318.615 1231.38,317.356 1235.36,316.101 1239.34,314.849 1243.33,313.601 1247.32,312.355 1251.31,311.113 1255.31,309.875 1259.32,308.639 1263.32,307.407 1267.33,306.178 1271.35,304.952 1275.36,303.73 1279.38,302.511 1283.41,301.295 1287.44,300.082 1291.47,298.872 1295.51,297.666 1299.55,296.463 1303.59,295.263 1307.63,294.066 1311.68,292.872 1315.74,291.682 1319.79,290.495 1323.85,289.311 1327.92,288.13 1331.98,286.952 1336.05,285.777 1340.12,284.606 1344.2,283.437 1348.28,282.272 1352.36,281.11 1356.45,279.951 1360.54,278.795 1364.63,277.642 1368.72,276.492 1372.82,275.346 1376.92,274.202 1381.03,273.062 1385.13,271.924 1389.24,270.79 1393.36,269.658 1397.47,268.53 1401.59,267.405 1405.71,266.282 1409.84,265.163 1413.96,264.047 1418.09,262.933 1422.23,261.823 1426.36,260.716 1430.5,259.611 1434.64,258.51 1438.78,257.412 1442.93,256.316 1447.08,255.224 1451.23,254.134 1455.38,253.047 1459.54,251.964 1463.7,250.883 1467.86,249.805 1472.03,248.73 1476.19,247.658 1480.36,246.589 1484.53,245.522 1488.71,244.459 1492.88,243.398 1497.06,242.34 1501.24,241.286 1505.43,240.233 1509.61,239.184 1513.8,238.138 1517.99,237.094 1522.18,236.053 1526.38,235.015 1530.58,233.98 1534.78,232.948 1538.98,231.918 1543.18,230.891 1547.39,229.867 1551.6,228.845 1555.81,227.827 1560.02,226.811 1564.23,225.798 1568.45,224.787 1572.67,223.779 1576.89,222.774 1581.11,221.772 1585.34,220.772 1589.57,219.775 1593.79,218.781 1598.03,217.789 1602.26,216.8 1606.49,215.814 1610.73,214.83 1614.97,213.849 1619.21,212.87 1623.45,211.895 1627.7,210.921 1631.94,209.951 1636.19,208.982 1640.44,208.017 1644.69,207.054 1648.94,206.094 1653.2,205.136 1657.46,204.181 1661.72,203.228 1665.98,202.278 1670.24,201.33 1674.5,200.385 1678.77,199.443 1683.03,198.502 1687.3,197.565 1691.57,196.63 1695.85,195.697 1700.12,194.767 1704.4,193.839 1708.67,192.914 1712.95,191.991 1717.23,191.071 1721.51,190.153 1725.8,189.238 1730.08,188.325 1734.37,187.414 1738.66,186.506 1742.95,185.6 1747.24,184.697 1751.53,183.795 1755.82,182.897 1760.12,182.001 1764.42,181.107 1768.71,180.215 1773.01,179.326 1777.32,178.439 1781.62,177.554 1785.92,176.669 1790.23,175.784 1794.53,174.9 1798.84,174.019 1803.15,173.141 1807.46,172.264 1811.77,171.39 1816.09,170.518 1820.4,169.649 1824.72,168.782 1829.04,167.917 1833.36,167.054 1837.68,166.193 1842,165.335 1846.32,164.479 1850.64,163.626 1854.97,162.774 1859.29,161.925 1863.62,161.078 1867.95,160.233 1872.28,159.39 1876.61,158.55 1880.94,157.712 1885.28,156.876 1889.61,156.042 1893.95,155.21 1898.28,154.38 1902.62,153.553 1906.96,152.727 1911.3,151.904 1915.64,151.083 1919.99,150.264 1924.33,149.447 1928.67,148.633 1933.02,147.82 1937.37,147.01 1941.71,146.201 1946.06,145.395 1950.41,144.59 1954.76,143.788 1959.12,142.988 1963.47,142.19 1967.82,141.394 1972.18,140.6 1976.54,139.808 1980.89,139.018 1985.25,138.23 1989.61,137.444 1993.97,136.66 1998.33,135.878 2002.69,135.098 2007.06,134.32 2011.42,133.544 2015.78,132.77 2020.15,131.998 2024.52,131.228 2028.88,130.46 2033.25,129.693 2037.62,128.929 2041.99,128.167 2046.36,127.406 2050.74,126.648 2055.11,125.891 2059.48,125.137 2063.86,124.384 2068.23,123.633 2072.61,122.884 2076.99,122.137 2081.37,121.391 2085.74,120.648 2090.12,119.907 2094.5,119.167 2098.89,118.429 2103.27,117.693 2107.65,116.959 2112.04,116.227 2116.42,115.496 2120.81,114.767 2125.19,114.041 2129.58,113.315 2133.97,112.592 2138.36,111.871 2142.74,111.151 2147.13,110.433 2151.53,109.717 2155.92,109.003 2160.31,108.29 2164.7,107.579 2169.1,106.87 2173.49,106.163 2177.89,105.457 2182.28,104.753 2186.68,104.051 2191.08,103.351 2195.47,102.652 2199.87,101.955 2204.27,101.26 2208.67,100.566 2213.07,99.8746 2217.47,99.1844 2221.88,98.4959 2226.28,97.8091 2230.68,97.1239 2235.09,96.4405 2239.49,95.7586 2243.9,95.0785 2248.3,94.4 2252.71,93.7231 2257.12,93.0479 2261.53,92.3743 2265.93,91.7023 2270.34,91.032 2274.75,90.3633 2279.16,89.6962 2283.57,89.0307 2287.99,88.3668 2290.59,87.9763 "/>
<polyline clip-path="url(#clip212)" style="stroke:#e26f46; stroke-linecap:round; stroke-linejoin:round; stroke-width:4; stroke-opacity:1; fill:none" points="272.548,1066.5 271.198,1061.57 269.915,1056.66 268.703,1051.76 267.568,1046.9 266.514,1042.05 265.546,1037.22 264.67,1032.43 263.89,1027.65 263.211,1022.91 262.638,1018.2 262.175,1013.52 261.825,1008.88 261.591,1004.28 261.474,999.735 261.477,999.909 261.598,1004.46 261.836,1009.06 262.191,1013.7 262.658,1018.38 263.236,1023.09 263.918,1027.84 264.702,1032.61 265.582,1037.41 266.553,1042.24 267.611,1047.08 268.749,1051.96 269.964,1056.85 271.249,1061.76 272.602,1066.7 274.017,1071.66 275.489,1076.64 277.016,1081.65 278.594,1086.68 280.218,1091.73 281.887,1096.82 283.597,1101.93 285.345,1107.07 287.128,1112.23 288.946,1117.44 290.794,1122.68 292.671,1127.94 294.576,1133.23 296.507,1138.58 298.461,1143.96 300.438,1149.36 302.436,1154.8 304.454,1160.27 306.49,1165.8 308.544,1171.35 310.614,1176.93 312.699,1182.54 314.799,1188.19 316.912,1193.88 319.039,1199.61 321.177,1205.36 323.326,1211.13 325.487,1216.92 327.657,1222.73 329.836,1228.58 332.024,1234.46 334.221,1240.34 336.425,1246.23 338.636,1252.13 340.854,1258.02 343.078,1263.91 345.307,1269.8 347.542,1275.7 349.781,1281.58 352.024,1287.43 354.27,1293.25 356.52,1299.04 358.771,1304.78 361.025,1310.46 363.279,1316.09 365.533,1321.64 367.787,1327.12 370.04,1332.5 372.291,1337.8 374.538,1343 376.782,1348.07 379.021,1353.02 381.255,1357.82 383.482,1362.47 385.701,1366.96 387.912,1371.28 390.114,1375.43 392.306,1379.39 394.488,1383.16 396.659,1386.74 398.819,1390.13 400.967,1393.33 403.104,1396.34 405.229,1399.17 407.344,1401.82 409.447,1404.31 411.541,1406.63 413.625,1408.8 415.7,1410.81 417.767,1412.69 419.827,1414.44 421.881,1416.06 423.928,1417.58 425.971,1418.99 428.009,1420.3 430.044,1421.53 432.076,1422.67 434.106,1423.74 436.135,1424.75 438.162,1425.69 440.19,1426.57 442.218,1427.4 444.247,1428.18 446.277,1428.91 448.31,1429.6 450.344,1430.25 452.381,1430.87 454.421,1431.45 456.465,1432 458.512,1432.52 460.563,1433.01 462.619,1433.48 464.679,1433.92 466.745,1434.35 468.815,1434.75 470.891,1435.14 472.972,1435.51 475.059,1435.86 477.152,1436.19 479.251,1436.51 481.357,1436.82 483.469,1437.12 485.588,1437.4 487.714,1437.67 489.847,1437.93 491.987,1438.18 494.134,1438.42 496.289,1438.65 498.451,1438.87 500.621,1439.08 502.799,1439.28 504.984,1439.48 507.178,1439.67 509.38,1439.86 511.59,1440.03 513.808,1440.2 516.034,1440.37 518.269,1440.53 520.513,1440.68 522.765,1440.83 525.026,1440.98 527.296,1441.12 529.574,1441.25 531.861,1441.38 534.158,1441.51 536.463,1441.63 538.778,1441.75 541.102,1441.87 543.434,1441.98 545.777,1442.09 548.128,1442.19 550.489,1442.29 552.86,1442.39 555.239,1442.49 557.629,1442.58 560.028,1442.68 562.436,1442.76 564.854,1442.85 567.282,1442.93 569.72,1443.01 572.167,1443.09 574.624,1443.17 577.091,1443.24 579.568,1443.32 582.054,1443.39 584.551,1443.46 587.057,1443.52 589.574,1443.59 592.1,1443.65 594.636,1443.71 597.183,1443.77 599.739,1443.83 602.305,1443.89 604.882,1443.94 607.468,1444 610.065,1444.05 612.671,1444.1 615.288,1444.15 617.915,1444.2 620.552,1444.24 623.199,1444.29 625.857,1444.33 628.524,1444.38 631.201,1444.42 633.889,1444.46 636.587,1444.5 639.295,1444.54 642.013,1444.58 644.741,1444.61 647.48,1444.65 650.228,1444.69 652.987,1444.72 655.755,1444.75 658.534,1444.79 661.323,1444.82 664.122,1444.85 666.931,1444.88 669.75,1444.91 672.579,1444.94 675.418,1444.96 678.268,1444.99 681.127,1445.02 683.996,1445.04 686.875,1445.07 689.764,1445.09 692.663,1445.11 695.572,1445.14 698.491,1445.16 701.42,1445.18 704.358,1445.2 707.307,1445.22 710.265,1445.24 713.233,1445.26 716.211,1445.28 719.198,1445.3 722.195,1445.32 725.202,1445.33 728.219,1445.35 731.245,1445.37 734.281,1445.38 737.326,1445.4 740.381,1445.41 743.445,1445.43 746.519,1445.44 749.602,1445.45 752.695,1445.47 755.797,1445.48 758.908,1445.49 762.029,1445.5 765.158,1445.51 768.298,1445.53 771.446,1445.54 774.603,1445.55 777.77,1445.56 780.946,1445.57 784.13,1445.57 787.324,1445.58 790.527,1445.59 793.739,1445.6 796.959,1445.61 800.189,1445.62 803.427,1445.62 806.674,1445.63 809.93,1445.64 813.194,1445.64 816.467,1445.65 819.749,1445.65 823.039,1445.66 826.338,1445.66 829.646,1445.67 832.961,1445.67 836.286,1445.68 839.618,1445.68 842.959,1445.69 846.308,1445.69 849.666,1445.69 853.031,1445.7 856.405,1445.7 859.787,1445.7 863.177,1445.7 866.575,1445.71 869.981,1445.71 873.394,1445.71 876.816,1445.71 880.246,1445.71 883.683,1445.71 887.128,1445.71 890.581,1445.71 894.041,1445.72 897.51,1445.72 900.985,1445.72 904.468,1445.72 907.959,1445.72 911.457,1445.71 914.963,1445.71 918.476,1445.71 921.996,1445.71 925.523,1445.71 929.058,1445.71 932.6,1445.71 936.148,1445.71 939.704,1445.71 943.267,1445.7 946.837,1445.7 950.414,1445.7 953.998,1445.7 957.589,1445.69 961.186,1445.69 964.791,1445.69 968.402,1445.69 972.019,1445.68 975.644,1445.68 979.274,1445.68 982.912,1445.67 986.556,1445.67 990.206,1445.67 993.863,1445.66 997.526,1445.66 1001.2,1445.66 1004.87,1445.65 1008.55,1445.65 1012.24,1445.64 1015.94,1445.64 1019.64,1445.64 1023.34,1445.63 1027.05,1445.63 1030.77,1445.62 1034.5,1445.62 1038.23,1445.61 1041.96,1445.61 1045.71,1445.6 1049.45,1445.6 1053.21,1445.59 1056.97,1445.59 1060.73,1445.58 1064.5,1445.58 1068.28,1445.57 1072.06,1445.57 1075.85,1445.56 1079.64,1445.55 1083.44,1445.55 1087.24,1445.54 1091.05,1445.54 1094.86,1445.53 1098.68,1445.52 1102.5,1445.52 1106.33,1445.51 1110.17,1445.51 1114.01,1445.5 1117.85,1445.49 1121.7,1445.49 1125.56,1445.48 1129.42,1445.47 1133.28,1445.47 1137.15,1445.46 1141.02,1445.45 1144.9,1445.45 1148.79,1445.44 1152.68,1445.43 1156.57,1445.42 1160.47,1445.42 1164.37,1445.41 1168.27,1445.4 1172.19,1445.39 1176.1,1445.39 1180.02,1445.38 1183.95,1445.37 1187.88,1445.37 1191.81,1445.36 1195.75,1445.35 1199.69,1445.34 1203.64,1445.33 1207.59,1445.33 1211.54,1445.32 1215.5,1445.31 1219.46,1445.3 1223.43,1445.3 1227.4,1445.29 1231.38,1445.28 1235.36,1445.27 1239.34,1445.26 1243.33,1445.26 1247.32,1445.25 1251.31,1445.24 1255.31,1445.23 1259.32,1445.22 1263.32,1445.22 1267.33,1445.21 1271.35,1445.2 1275.36,1445.19 1279.38,1445.18 1283.41,1445.17 1287.44,1445.17 1291.47,1445.16 1295.51,1445.15 1299.55,1445.14 1303.59,1445.13 1307.63,1445.12 1311.68,1445.12 1315.74,1445.11 1319.79,1445.1 1323.85,1445.09 1327.92,1445.08 1331.98,1445.07 1336.05,1445.07 1340.12,1445.06 1344.2,1445.05 1348.28,1445.04 1352.36,1445.03 1356.45,1445.02 1360.54,1445.01 1364.63,1445 1368.72,1445 1372.82,1444.99 1376.92,1444.98 1381.03,1444.97 1385.13,1444.96 1389.24,1444.95 1393.36,1444.94 1397.47,1444.93 1401.59,1444.93 1405.71,1444.92 1409.84,1444.91 1413.96,1444.9 1418.09,1444.89 1422.23,1444.88 1426.36,1444.87 1430.5,1444.86 1434.64,1444.85 1438.78,1444.84 1442.93,1444.84 1447.08,1444.83 1451.23,1444.82 1455.38,1444.81 1459.54,1444.8 1463.7,1444.79 1467.86,1444.78 1472.03,1444.77 1476.19,1444.76 1480.36,1444.75 1484.53,1444.74 1488.71,1444.74 1492.88,1444.73 1497.06,1444.72 1501.24,1444.71 1505.43,1444.7 1509.61,1444.69 1513.8,1444.68 1517.99,1444.67 1522.18,1444.66 1526.38,1444.65 1530.58,1444.64 1534.78,1444.63 1538.98,1444.63 1543.18,1444.62 1547.39,1444.61 1551.6,1444.6 1555.81,1444.59 1560.02,1444.58 1564.23,1444.57 1568.45,1444.56 1572.67,1444.55 1576.89,1444.54 1581.11,1444.53 1585.34,1444.53 1589.57,1444.52 1593.79,1444.51 1598.03,1444.5 1602.26,1444.49 1606.49,1444.48 1610.73,1444.47 1614.97,1444.46 1619.21,1444.45 1623.45,1444.44 1627.7,1444.43 1631.94,1444.43 1636.19,1444.42 1640.44,1444.41 1644.69,1444.4 1648.94,1444.39 1653.2,1444.38 1657.46,1444.37 1661.72,1444.36 1665.98,1444.35 1670.24,1444.34 1674.5,1444.33 1678.77,1444.33 1683.03,1444.32 1687.3,1444.31 1691.57,1444.3 1695.85,1444.29 1700.12,1444.28 1704.4,1444.27 1708.67,1444.26 1712.95,1444.25 1717.23,1444.24 1721.51,1444.23 1725.8,1444.23 1730.08,1444.22 1734.37,1444.21 1738.66,1444.2 1742.95,1444.19 1747.24,1444.18 1751.53,1444.17 1755.82,1444.16 1760.12,1444.15 1764.42,1444.14 1768.71,1444.14 1773.01,1444.13 1777.32,1444.12 1781.62,1444.11 1785.92,1444.1 1790.23,1444.09 1794.53,1444.08 1798.84,1444.07 1803.15,1444.06 1807.46,1444.05 1811.77,1444.05 1816.09,1444.04 1820.4,1444.03 1824.72,1444.02 1829.04,1444.01 1833.36,1444 1837.68,1443.99 1842,1443.98 1846.32,1443.97 1850.64,1443.96 1854.97,1443.96 1859.29,1443.95 1863.62,1443.94 1867.95,1443.93 1872.28,1443.92 1876.61,1443.91 1880.94,1443.9 1885.28,1443.89 1889.61,1443.88 1893.95,1443.88 1898.28,1443.87 1902.62,1443.86 1906.96,1443.85 1911.3,1443.84 1915.64,1443.83 1919.99,1443.82 1924.33,1443.81 1928.67,1443.8 1933.02,1443.8 1937.37,1443.79 1941.71,1443.78 1946.06,1443.77 1950.41,1443.76 1954.76,1443.75 1959.12,1443.74 1963.47,1443.74 1967.82,1443.73 1972.18,1443.72 1976.54,1443.71 1980.89,1443.7 1985.25,1443.69 1989.61,1443.68 1993.97,1443.67 1998.33,1443.67 2002.69,1443.66 2007.06,1443.65 2011.42,1443.64 2015.78,1443.63 2020.15,1443.62 2024.52,1443.62 2028.88,1443.61 2033.25,1443.6 2037.62,1443.59 2041.99,1443.58 2046.36,1443.57 2050.74,1443.56 2055.11,1443.56 2059.48,1443.55 2063.86,1443.54 2068.23,1443.53 2072.61,1443.52 2076.99,1443.51 2081.37,1443.51 2085.74,1443.5 2090.12,1443.49 2094.5,1443.48 2098.89,1443.47 2103.27,1443.46 2107.65,1443.46 2112.04,1443.45 2116.42,1443.44 2120.81,1443.43 2125.19,1443.42 2129.58,1443.41 2133.97,1443.41 2138.36,1443.4 2142.74,1443.39 2147.13,1443.38 2151.53,1443.37 2155.92,1443.36 2160.31,1443.36 2164.7,1443.35 2169.1,1443.34 2173.49,1443.33 2177.89,1443.32 2182.28,1443.31 2186.68,1443.31 2191.08,1443.3 2195.47,1443.29 2199.87,1443.28 2204.27,1443.27 2208.67,1443.27 2213.07,1443.26 2217.47,1443.25 2221.88,1443.24 2226.28,1443.23 2230.68,1443.23 2235.09,1443.22 2239.49,1443.21 2243.9,1443.2 2248.3,1443.19 2252.71,1443.18 2257.12,1443.18 2261.53,1443.17 2265.93,1443.16 2270.34,1443.15 2274.75,1443.14 2279.16,1443.14 2283.57,1443.13 2287.99,1443.12 2290.59,1443.12 "/>
<polyline clip-path="url(#clip212)" style="stroke:#3da44d; stroke-linecap:round; stroke-linejoin:round; stroke-width:4; stroke-opacity:1; fill:none" points="2290.59,811.234 2286.17,811.338 2281.76,811.442 2277.34,811.547 2272.93,811.652 2268.52,811.758 2264.1,811.863 2259.69,811.969 2255.28,812.075 2250.87,812.182 2246.46,812.289 2242.05,812.396 2237.64,812.504 2233.23,812.611 2228.82,812.719 2224.41,812.828 2220.01,812.936 2215.6,813.045 2211.19,813.155 2206.79,813.264 2202.38,813.374 2197.98,813.484 2193.58,813.595 2189.17,813.706 2184.77,813.817 2180.37,813.928 2175.97,814.04 2171.57,814.152 2167.17,814.265 2162.77,814.378 2158.37,814.491 2153.97,814.604 2149.57,814.718 2145.18,814.832 2140.78,814.947 2136.39,815.061 2131.99,815.176 2127.6,815.292 2123.2,815.408 2118.81,815.524 2114.42,815.64 2110.03,815.757 2105.64,815.874 2101.25,815.991 2096.86,816.109 2092.47,816.227 2088.08,816.346 2083.69,816.465 2079.31,816.584 2074.92,816.703 2070.54,816.823 2066.15,816.944 2061.77,817.064 2057.39,817.185 2053,817.307 2048.62,817.428 2044.24,817.55 2039.86,817.673 2035.48,817.796 2031.1,817.919 2026.73,818.042 2022.35,818.166 2017.97,818.29 2013.6,818.415 2009.22,818.54 2004.85,818.666 2000.48,818.791 1996.11,818.917 1991.73,819.044 1987.36,819.171 1982.99,819.298 1978.62,819.426 1974.26,819.554 1969.89,819.683 1965.52,819.811 1961.16,819.941 1956.79,820.07 1952.43,820.2 1948.07,820.331 1943.7,820.462 1939.34,820.593 1934.98,820.725 1930.62,820.857 1926.26,820.989 1921.91,821.122 1917.55,821.255 1913.19,821.389 1908.84,821.523 1904.49,821.658 1900.13,821.793 1895.78,821.928 1891.43,822.064 1887.08,822.2 1882.73,822.337 1878.38,822.474 1874.03,822.612 1869.69,822.75 1865.34,822.888 1861,823.027 1856.65,823.166 1852.31,823.306 1847.97,823.446 1843.63,823.587 1839.29,823.728 1834.95,823.869 1830.61,824.011 1826.28,824.154 1821.94,824.296 1817.61,824.44 1813.27,824.584 1808.94,824.728 1804.61,824.873 1800.28,825.018 1795.95,825.163 1791.62,825.309 1787.3,825.456 1782.97,825.603 1778.65,825.751 1774.32,825.899 1770,826.047 1765.68,826.196 1761.36,826.346 1757.04,826.496 1752.72,826.646 1748.41,826.797 1744.09,826.948 1739.78,827.1 1735.46,827.253 1731.15,827.406 1726.84,827.559 1722.53,827.713 1718.22,827.867 1713.92,828.022 1709.61,828.178 1705.31,828.334 1701,828.49 1696.7,828.647 1692.4,828.805 1688.1,828.963 1683.8,829.121 1679.51,829.281 1675.21,829.44 1670.92,829.6 1666.63,829.761 1662.33,829.922 1658.04,830.084 1653.76,830.247 1649.47,830.41 1645.18,830.573 1640.9,830.737 1636.61,830.902 1632.33,831.067 1628.05,831.232 1623.77,831.399 1619.49,831.565 1615.22,831.733 1610.94,831.901 1606.67,832.069 1602.4,832.238 1598.13,832.408 1593.86,832.578 1589.59,832.749 1585.33,832.921 1581.06,833.093 1576.8,833.265 1572.54,833.439 1568.28,833.612 1564.02,833.787 1559.76,833.962 1555.51,834.138 1551.25,834.314 1547,834.491 1542.75,834.668 1538.5,834.846 1534.26,835.025 1530.01,835.204 1525.77,835.384 1521.53,835.565 1517.29,835.746 1513.05,835.928 1508.81,836.111 1504.58,836.294 1500.34,836.478 1496.11,836.662 1491.88,836.848 1487.65,837.033 1483.43,837.22 1479.2,837.407 1474.98,837.595 1470.76,837.783 1466.54,837.972 1462.32,838.162 1458.1,838.353 1453.89,838.544 1449.68,838.736 1445.47,838.928 1441.26,839.122 1437.06,839.316 1432.85,839.51 1428.65,839.706 1424.45,839.902 1420.25,840.099 1416.05,840.296 1411.86,840.494 1407.67,840.693 1403.48,840.893 1399.29,841.094 1395.1,841.295 1390.92,841.497 1386.73,841.699 1382.55,841.903 1378.38,842.107 1374.2,842.312 1370.03,842.517 1365.86,842.724 1361.69,842.931 1357.52,843.139 1353.35,843.348 1349.19,843.557 1345.03,843.767 1340.87,843.979 1336.72,844.19 1332.56,844.403 1328.41,844.616 1324.26,844.831 1320.11,845.046 1315.97,845.262 1311.83,845.478 1307.69,845.696 1303.55,845.914 1299.41,846.133 1295.28,846.353 1291.15,846.574 1287.02,846.796 1282.89,847.018 1278.77,847.242 1274.65,847.466 1270.53,847.691 1266.42,847.917 1262.3,848.144 1258.19,848.371 1254.08,848.6 1249.98,848.829 1245.88,849.059 1241.78,849.291 1237.68,849.523 1233.58,849.756 1229.49,849.99 1225.4,850.224 1221.31,850.46 1217.23,850.697 1213.15,850.934 1209.07,851.173 1204.99,851.412 1200.92,851.652 1196.85,851.894 1192.78,852.136 1188.72,852.379 1184.65,852.623 1180.6,852.868 1176.54,853.114 1172.49,853.361 1168.44,853.609 1164.39,853.858 1160.34,854.108 1156.3,854.359 1152.26,854.611 1148.23,854.864 1144.2,855.118 1140.17,855.373 1136.14,855.629 1132.12,855.886 1128.1,856.144 1124.08,856.404 1120.07,856.664 1116.06,856.925 1112.05,857.187 1108.05,857.451 1104.04,857.715 1100.05,857.98 1096.05,858.247 1092.06,858.515 1088.07,858.783 1084.09,859.053 1080.11,859.324 1076.13,859.596 1072.16,859.869 1068.19,860.144 1064.22,860.419 1060.26,860.696 1056.3,860.973 1052.34,861.252 1048.39,861.532 1044.44,861.813 1040.49,862.095 1036.55,862.379 1032.61,862.664 1028.67,862.949 1024.74,863.236 1020.81,863.525 1016.89,863.814 1012.97,864.105 1009.05,864.397 1005.14,864.69 1001.23,864.984 997.327,865.28 993.426,865.576 989.528,865.874 985.635,866.174 981.745,866.474 977.86,866.776 973.978,867.079 970.1,867.384 966.227,867.69 962.357,867.997 958.491,868.305 954.63,868.615 950.772,868.926 946.919,869.238 943.07,869.552 939.225,869.867 935.384,870.183 931.548,870.501 927.715,870.82 923.887,871.141 920.063,871.463 916.244,871.786 912.429,872.111 908.618,872.437 904.812,872.765 901.01,873.094 897.212,873.425 893.419,873.756 889.631,874.09 885.847,874.425 882.067,874.761 878.293,875.099 874.522,875.439 870.756,875.779 866.995,876.122 863.239,876.466 859.487,876.811 855.74,877.158 851.998,877.507 848.26,877.857 844.528,878.209 840.8,878.562 837.076,878.917 833.358,879.274 829.645,879.632 825.936,879.992 822.233,880.353 818.534,880.716 814.841,881.081 811.152,881.447 807.468,881.815 803.79,882.185 800.117,882.557 796.448,882.93 792.785,883.305 789.127,883.682 785.474,884.06 781.827,884.44 778.184,884.822 774.547,885.206 770.915,885.591 767.289,885.979 763.668,886.368 760.052,886.759 756.442,887.152 752.837,887.547 749.237,887.943 745.643,888.342 742.054,888.742 738.471,889.145 734.894,889.549 731.322,889.955 727.756,890.363 724.195,890.774 720.64,891.186 717.09,891.6 713.547,892.016 710.009,892.434 706.476,892.855 702.95,893.277 699.429,893.701 695.914,894.128 692.405,894.556 688.902,894.987 685.405,895.42 681.914,895.855 678.428,896.292 674.949,896.731 671.476,897.173 668.008,897.617 664.547,898.063 661.092,898.511 657.643,898.962 654.2,899.415 650.763,899.87 647.332,900.327 643.908,900.787 640.49,901.25 637.078,901.714 633.672,902.181 630.273,902.651 626.88,903.123 623.493,903.597 620.113,904.074 616.739,904.554 613.372,905.036 610.011,905.52 606.656,906.007 603.308,906.497 599.967,906.989 596.632,907.484 593.304,907.982 589.982,908.483 586.667,908.986 583.359,909.492 580.057,910 576.762,910.512 573.474,911.026 570.193,911.543 566.918,912.063 563.651,912.586 560.39,913.112 557.136,913.641 553.888,914.173 550.648,914.708 547.415,915.246 544.189,915.787 540.969,916.331 537.757,916.878 534.552,917.429 531.354,917.982 528.163,918.539 524.979,919.099 521.802,919.663 518.633,920.23 515.471,920.8 512.316,921.374 509.168,921.951 506.027,922.532 502.894,923.116 499.769,923.704 496.65,924.295 493.539,924.89 490.436,925.489 487.34,926.092 484.252,926.698 481.171,927.308 478.097,927.922 475.032,928.54 471.974,929.162 468.923,929.788 465.881,930.419 462.846,931.053 459.819,931.691 456.799,932.334 453.788,932.981 450.784,933.632 447.788,934.288 444.8,934.948 441.821,935.613 438.849,936.282 435.885,936.956 432.929,937.635 429.982,938.318 427.043,939.007 424.112,939.7 421.189,940.398 418.274,941.101 415.368,941.81 412.47,942.523 409.581,943.242 406.7,943.966 403.828,944.696 400.965,945.431 398.11,946.172 395.263,946.919 392.426,947.671 389.597,948.43 386.778,949.194 383.967,949.964 381.165,950.741 378.372,951.524 375.589,952.313 372.815,953.109 370.05,953.912 367.294,954.721 364.548,955.537 361.811,956.361 359.084,957.191 356.367,958.029 353.66,958.874 350.962,959.727 348.275,960.587 345.597,961.455 342.93,962.332 340.274,963.216 337.627,964.109 334.992,965.01 332.367,965.921 329.753,966.84 327.15,967.768 324.559,968.705 321.978,969.653 319.41,970.609 316.853,971.576 314.307,972.553 311.775,973.541 309.254,974.539 306.746,975.548 304.251,976.569 301.769,977.601 299.3,978.645 296.845,979.701 294.404,980.77 291.977,981.852 289.565,982.947 287.168,984.056 284.787,985.178 282.421,986.315 280.072,987.467 277.739,988.635 275.424,989.818 273.127,991.018 270.848,992.235 268.589,993.469 266.349,994.721 264.131,995.993 261.933,997.283 261.456,997.568 259.286,998.884 257.14,1000.22 255.019,1001.58 252.925,1002.96 250.857,1004.37 248.819,1005.8 246.811,1007.25 244.835,1008.74 242.894,1010.25 240.989,1011.79 239.124,1013.36 237.3,1014.97 235.52,1016.61 233.79,1018.28 232.111,1020 230.489,1021.75 228.928,1023.55 227.435,1025.39 226.016,1027.29 224.679,1029.23 223.431,1031.22 222.284,1033.27 221.249,1035.39 220.339,1037.56 219.571,1039.81 218.961,1042.12 218.533,1044.51 218.308,1046.97 218.281,1048.19 218.411,1050.77 218.816,1053.41 219.527,1056.11 220.572,1058.86 221.974,1061.65 223.743,1064.43 225.879,1067.19 228.363,1069.89 231.167,1072.52 234.252,1075.04 237.579,1077.45 241.106,1079.74 244.8,1081.92 248.629,1083.97 252.569,1085.91 256.599,1087.75 260.701,1089.5 264.864,1091.15 269.077,1092.72 273.331,1094.21 277.619,1095.63 281.936,1096.98 286.277,1098.28 290.639,1099.52 295.018,1100.71 299.413,1101.85 303.821,1102.94 308.239,1103.99 312.668,1105.01 317.106,1105.99 321.551,1106.93 326.002,1107.84 330.46,1108.72 334.922,1109.57 339.39,1110.4 343.861,1111.2 348.337,1111.98 352.815,1112.73 357.297,1113.46 361.782,1114.17 366.268,1114.86 370.758,1115.54 375.249,1116.19 379.742,1116.83 384.237,1117.45 388.733,1118.06 393.231,1118.65 397.73,1119.23 402.23,1119.79 406.731,1120.34 411.234,1120.88 415.737,1121.41 420.241,1121.92 424.746,1122.43 429.252,1122.92 433.758,1123.4 438.265,1123.87 442.773,1124.34 447.281,1124.79 451.79,1125.23 456.299,1125.67 460.809,1126.1 465.319,1126.52 469.83,1126.93 474.341,1127.33 478.852,1127.73 483.364,1128.12 487.876,1128.5 492.388,1128.88 496.901,1129.24 501.413,1129.61 505.926,1129.96 510.44,1130.31 514.953,1130.66 519.467,1131 523.981,1131.33 528.495,1131.66 533.009,1131.98 537.524,1132.3 542.038,1132.61 546.553,1132.92 551.068,1133.22 555.583,1133.52 560.098,1133.82 564.613,1134.11 569.129,1134.39 573.644,1134.67 578.16,1134.95 582.676,1135.22 587.192,1135.49 591.708,1135.76 596.224,1136.02 600.74,1136.28 605.256,1136.54 609.772,1136.79 614.289,1137.04 618.805,1137.28 623.321,1137.52 627.838,1137.76 632.355,1138 636.871,1138.23 641.388,1138.46 645.905,1138.68 650.422,1138.91 654.939,1139.13 659.456,1139.35 663.973,1139.56 668.49,1139.78 673.007,1139.99 677.524,1140.19 682.041,1140.4 686.558,1140.6 691.075,1140.8 695.593,1141 700.11,1141.2 704.627,1141.39 709.145,1141.58 713.662,1141.77 718.18,1141.96 722.697,1142.14 727.215,1142.33 731.732,1142.51 736.25,1142.69 740.767,1142.87 745.285,1143.04 749.803,1143.21 754.32,1143.39 758.838,1143.56 763.356,1143.72 767.873,1143.89 772.391,1144.05 776.909,1144.22 781.427,1144.38 785.944,1144.54 790.462,1144.7 794.98,1144.85 799.498,1145.01 804.016,1145.16 808.534,1145.31 813.052,1145.46 817.569,1145.61 822.087,1145.76 826.605,1145.9 831.123,1146.05 835.641,1146.19 840.159,1146.33 844.677,1146.47 849.195,1146.61 853.713,1146.75 858.231,1146.89 862.749,1147.02 867.267,1147.16 871.785,1147.29 876.303,1147.42 880.821,1147.55 885.34,1147.68 889.858,1147.81 894.376,1147.94 898.894,1148.06 903.412,1148.19 907.93,1148.31 912.448,1148.43 916.966,1148.55 921.484,1148.67 926.003,1148.79 930.521,1148.91 935.039,1149.03 939.557,1149.15 944.075,1149.26 948.594,1149.38 953.112,1149.49 957.63,1149.6 962.148,1149.71 966.666,1149.82 971.185,1149.93 975.703,1150.04 980.221,1150.15 984.739,1150.26 989.258,1150.36 993.776,1150.47 998.294,1150.57 1002.81,1150.68 1007.33,1150.78 1011.85,1150.88 1016.37,1150.98 1020.89,1151.09 1025.4,1151.19 1029.92,1151.28 1034.44,1151.38 1038.96,1151.48 1043.48,1151.58 1048,1151.67 1052.51,1151.77 1057.03,1151.86 1061.55,1151.96 1066.07,1152.05 1070.59,1152.14 1075.1,1152.23 1079.62,1152.33 1084.14,1152.42 1088.66,1152.51 1093.18,1152.6 1097.7,1152.68 1102.21,1152.77 1106.73,1152.86 1111.25,1152.95 1115.77,1153.03 1120.29,1153.12 1124.81,1153.2 1129.33,1153.29 1133.84,1153.37 1138.36,1153.45 1142.88,1153.54 1147.4,1153.62 1151.92,1153.7 1156.44,1153.78 1160.95,1153.86 1165.47,1153.94 1169.99,1154.02 1174.51,1154.1 1179.03,1154.18 1183.55,1154.25 1188.06,1154.33 1192.58,1154.41 1197.1,1154.48 1201.62,1154.56 1206.14,1154.63 1210.66,1154.71 1215.17,1154.78 1219.69,1154.86 1224.21,1154.93 1228.73,1155 1233.25,1155.07 1237.77,1155.15 1242.28,1155.22 1246.8,1155.29 1251.32,1155.36 1255.84,1155.43 1260.36,1155.5 1264.88,1155.57 1269.4,1155.64 1273.91,1155.7 1278.43,1155.77 1282.95,1155.84 1287.47,1155.91 1291.99,1155.97 1296.51,1156.04 1301.02,1156.1 1305.54,1156.17 1310.06,1156.23 1314.58,1156.3 1319.1,1156.36 1323.62,1156.43 1328.13,1156.49 1332.65,1156.55 1337.17,1156.62 1341.69,1156.68 1346.21,1156.74 1350.73,1156.8 1355.25,1156.86 1359.76,1156.92 1364.28,1156.98 1368.8,1157.04 1373.32,1157.1 1377.84,1157.16 1382.36,1157.22 1386.87,1157.28 1391.39,1157.34 1395.91,1157.4 1400.43,1157.45 1404.95,1157.51 1409.47,1157.57 1413.99,1157.63 1418.5,1157.68 1423.02,1157.74 1427.54,1157.79 1432.06,1157.85 1436.58,1157.9 1441.1,1157.96 1445.61,1158.01 1450.13,1158.07 1454.65,1158.12 1459.17,1158.18 1463.69,1158.23 1468.21,1158.28 1472.73,1158.34 1477.24,1158.39 1481.76,1158.44 1486.28,1158.49 1490.8,1158.54 1495.32,1158.6 1499.84,1158.65 1504.35,1158.7 1508.87,1158.75 1513.39,1158.8 1517.91,1158.85 1522.43,1158.9 1526.95,1158.95 1531.47,1159 1535.98,1159.05 1540.5,1159.09 1545.02,1159.14 1549.54,1159.19 1554.06,1159.24 1558.58,1159.29 1563.09,1159.33 1567.61,1159.38 1572.13,1159.43 1576.65,1159.48 1581.17,1159.52 1585.69,1159.57 1590.21,1159.61 1594.72,1159.66 1599.24,1159.71 1603.76,1159.75 1608.28,1159.8 1612.8,1159.84 1617.32,1159.89 1621.83,1159.93 1626.35,1159.97 1630.87,1160.02 1635.39,1160.06 1639.91,1160.11 1644.43,1160.15 1648.95,1160.19 1653.46,1160.24 1657.98,1160.28 1662.5,1160.32 1667.02,1160.36 1671.54,1160.41 1676.06,1160.45 1680.57,1160.49 1685.09,1160.53 1689.61,1160.57 1694.13,1160.61 1698.65,1160.65 1703.17,1160.7 1707.69,1160.74 1712.2,1160.78 1716.72,1160.82 1721.24,1160.86 1725.76,1160.9 1730.28,1160.94 1734.8,1160.98 1739.32,1161.01 1743.83,1161.05 1748.35,1161.09 1752.87,1161.13 1757.39,1161.17 1761.91,1161.21 1766.43,1161.25 1770.94,1161.28 1775.46,1161.32 1779.98,1161.36 1784.5,1161.4 1789.02,1161.44 1793.54,1161.47 1798.06,1161.51 1802.57,1161.55 1807.09,1161.58 1811.61,1161.62 1816.13,1161.66 1820.65,1161.69 1825.17,1161.73 1829.68,1161.76 1834.2,1161.8 1838.72,1161.84 1843.24,1161.87 1847.76,1161.91 1852.28,1161.94 1856.8,1161.98 1861.31,1162.01 1865.83,1162.05 1870.35,1162.08 1874.87,1162.11 1879.39,1162.15 1883.91,1162.18 1888.43,1162.22 1892.94,1162.25 1897.46,1162.28 1901.98,1162.32 1906.5,1162.35 1911.02,1162.38 1915.54,1162.42 1920.05,1162.45 1924.57,1162.48 1929.09,1162.52 1933.61,1162.55 1938.13,1162.58 1942.65,1162.61 1947.17,1162.64 1951.68,1162.68 1956.2,1162.71 1960.72,1162.74 1965.24,1162.77 1969.76,1162.8 1974.28,1162.83 1978.8,1162.87 1983.31,1162.9 1987.83,1162.93 1992.35,1162.96 1996.87,1162.99 2001.39,1163.02 2005.91,1163.05 2010.42,1163.08 2014.94,1163.11 2019.46,1163.14 2023.98,1163.17 2028.5,1163.2 2033.02,1163.23 2037.54,1163.26 2042.05,1163.29 2046.57,1163.32 2051.09,1163.35 2055.61,1163.38 2060.13,1163.41 2064.65,1163.44 2069.17,1163.46 2073.68,1163.49 2078.2,1163.52 2082.72,1163.55 2087.24,1163.58 2091.76,1163.61 2096.28,1163.63 2100.79,1163.66 2105.31,1163.69 2109.83,1163.72 2114.35,1163.75 2118.87,1163.77 2123.39,1163.8 2127.91,1163.83 2132.42,1163.86 2136.94,1163.88 2141.46,1163.91 2145.98,1163.94 2150.5,1163.96 2155.02,1163.99 2159.54,1164.02 2164.05,1164.04 2168.57,1164.07 2173.09,1164.1 2177.61,1164.12 2182.13,1164.15 2186.65,1164.17 2191.16,1164.2 2195.68,1164.23 2200.2,1164.25 2204.72,1164.28 2209.24,1164.3 2213.76,1164.33 2218.28,1164.35 2222.79,1164.38 2227.31,1164.41 2231.83,1164.43 2236.35,1164.46 2240.87,1164.48 2245.39,1164.51 2249.91,1164.53 2254.42,1164.55 2258.94,1164.58 2263.46,1164.6 2267.98,1164.63 2272.5,1164.65 2277.02,1164.68 2281.53,1164.7 2286.05,1164.72 2290.57,1164.75 2290.59,1164.75 "/>
<path clip-path="url(#clip210)" d="M229.334 302.578 L647.307 302.578 L647.307 95.2176 L229.334 95.2176  Z" fill="#ffffff" fill-rule="evenodd" fill-opacity="1"/>
<polyline clip-path="url(#clip210)" style="stroke:#000000; stroke-linecap:round; stroke-linejoin:round; stroke-width:4; stroke-opacity:1; fill:none" points="229.334,302.578 647.307,302.578 647.307,95.2176 229.334,95.2176 229.334,302.578 "/>
<polyline clip-path="url(#clip210)" style="stroke:#009af9; stroke-linecap:round; stroke-linejoin:round; stroke-width:4; stroke-opacity:1; fill:none" points="253.741,147.058 400.184,147.058 "/>
<path clip-path="url(#clip210)" d="M444.938 143.389 Q446.535 140.518 448.757 139.153 Q450.98 137.787 453.989 137.787 Q458.04 137.787 460.239 140.634 Q462.438 143.458 462.438 148.689 L462.438 164.338 L458.155 164.338 L458.155 148.828 Q458.155 145.102 456.836 143.296 Q455.517 141.49 452.808 141.49 Q449.498 141.49 447.577 143.69 Q445.656 145.889 445.656 149.685 L445.656 164.338 L441.373 164.338 L441.373 148.828 Q441.373 145.078 440.054 143.296 Q438.734 141.49 435.98 141.49 Q432.716 141.49 430.794 143.713 Q428.873 145.912 428.873 149.685 L428.873 164.338 L424.591 164.338 L424.591 138.412 L428.873 138.412 L428.873 142.44 Q430.332 140.055 432.369 138.921 Q434.406 137.787 437.206 137.787 Q440.031 137.787 441.998 139.222 Q443.989 140.657 444.938 143.389 Z" fill="#000000" fill-rule="nonzero" fill-opacity="1" /><path clip-path="url(#clip210)" d="M482.715 151.305 Q477.553 151.305 475.563 152.486 Q473.572 153.666 473.572 156.514 Q473.572 158.782 475.054 160.125 Q476.558 161.444 479.128 161.444 Q482.669 161.444 484.799 158.944 Q486.952 156.421 486.952 152.254 L486.952 151.305 L482.715 151.305 M491.211 149.546 L491.211 164.338 L486.952 164.338 L486.952 160.402 Q485.493 162.763 483.317 163.898 Q481.141 165.009 477.993 165.009 Q474.012 165.009 471.651 162.787 Q469.313 160.541 469.313 156.791 Q469.313 152.416 472.229 150.194 Q475.169 147.972 480.979 147.972 L486.952 147.972 L486.952 147.555 Q486.952 144.615 485.007 143.018 Q483.086 141.398 479.591 141.398 Q477.368 141.398 475.262 141.93 Q473.155 142.463 471.211 143.527 L471.211 139.592 Q473.549 138.69 475.748 138.25 Q477.947 137.787 480.03 137.787 Q485.655 137.787 488.433 140.703 Q491.211 143.62 491.211 149.546 Z" fill="#000000" fill-rule="nonzero" fill-opacity="1" /><path clip-path="url(#clip210)" d="M521.535 138.412 L512.16 151.027 L522.021 164.338 L516.998 164.338 L509.451 154.152 L501.905 164.338 L496.882 164.338 L506.951 150.773 L497.739 138.412 L502.762 138.412 L509.637 147.648 L516.512 138.412 L521.535 138.412 Z" fill="#000000" fill-rule="nonzero" fill-opacity="1" /><polyline clip-path="url(#clip210)" style="stroke:#e26f46; stroke-linecap:round; stroke-linejoin:round; stroke-width:4; stroke-opacity:1; fill:none" points="253.741,198.898 400.184,198.898 "/>
<path clip-path="url(#clip210)" d="M444.938 195.229 Q446.535 192.358 448.757 190.993 Q450.98 189.627 453.989 189.627 Q458.04 189.627 460.239 192.474 Q462.438 195.298 462.438 200.529 L462.438 216.178 L458.155 216.178 L458.155 200.668 Q458.155 196.942 456.836 195.136 Q455.517 193.33 452.808 193.33 Q449.498 193.33 447.577 195.53 Q445.656 197.729 445.656 201.525 L445.656 216.178 L441.373 216.178 L441.373 200.668 Q441.373 196.918 440.054 195.136 Q438.734 193.33 435.98 193.33 Q432.716 193.33 430.794 195.553 Q428.873 197.752 428.873 201.525 L428.873 216.178 L424.591 216.178 L424.591 190.252 L428.873 190.252 L428.873 194.28 Q430.332 191.895 432.369 190.761 Q434.406 189.627 437.206 189.627 Q440.031 189.627 441.998 191.062 Q443.989 192.497 444.938 195.229 Z" fill="#000000" fill-rule="nonzero" fill-opacity="1" /><path clip-path="url(#clip210)" d="M470.933 190.252 L475.192 190.252 L475.192 216.178 L470.933 216.178 L470.933 190.252 M470.933 180.159 L475.192 180.159 L475.192 185.553 L470.933 185.553 L470.933 180.159 Z" fill="#000000" fill-rule="nonzero" fill-opacity="1" /><path clip-path="url(#clip210)" d="M505.655 200.529 L505.655 216.178 L501.396 216.178 L501.396 200.668 Q501.396 196.988 499.961 195.159 Q498.526 193.33 495.655 193.33 Q492.206 193.33 490.215 195.53 Q488.225 197.729 488.225 201.525 L488.225 216.178 L483.942 216.178 L483.942 190.252 L488.225 190.252 L488.225 194.28 Q489.752 191.942 491.813 190.784 Q493.896 189.627 496.604 189.627 Q501.072 189.627 503.364 192.405 Q505.655 195.159 505.655 200.529 Z" fill="#000000" fill-rule="nonzero" fill-opacity="1" /><polyline clip-path="url(#clip210)" style="stroke:#3da44d; stroke-linecap:round; stroke-linejoin:round; stroke-width:4; stroke-opacity:1; fill:none" points="253.741,250.738 400.184,250.738 "/>
<path clip-path="url(#clip210)" d="M424.591 257.786 L424.591 242.092 L428.85 242.092 L428.85 257.624 Q428.85 261.305 430.285 263.156 Q431.72 264.985 434.591 264.985 Q438.04 264.985 440.031 262.786 Q442.044 260.587 442.044 256.791 L442.044 242.092 L446.304 242.092 L446.304 268.018 L442.044 268.018 L442.044 264.036 Q440.494 266.397 438.433 267.555 Q436.396 268.689 433.688 268.689 Q429.22 268.689 426.906 265.911 Q424.591 263.133 424.591 257.786 M435.308 241.467 L435.308 241.467 Z" fill="#000000" fill-rule="nonzero" fill-opacity="1" /><path clip-path="url(#clip210)" d="M476.628 252.369 L476.628 268.018 L472.368 268.018 L472.368 252.508 Q472.368 248.828 470.933 246.999 Q469.498 245.17 466.628 245.17 Q463.179 245.17 461.188 247.37 Q459.197 249.569 459.197 253.365 L459.197 268.018 L454.915 268.018 L454.915 242.092 L459.197 242.092 L459.197 246.12 Q460.725 243.782 462.785 242.624 Q464.868 241.467 467.577 241.467 Q472.044 241.467 474.336 244.245 Q476.628 246.999 476.628 252.369 Z" fill="#000000" fill-rule="nonzero" fill-opacity="1" /><path clip-path="url(#clip210)" d="M501.651 242.856 L501.651 246.883 Q499.845 245.957 497.901 245.495 Q495.956 245.032 493.873 245.032 Q490.702 245.032 489.104 246.004 Q487.53 246.976 487.53 248.92 Q487.53 250.402 488.665 251.258 Q489.799 252.092 493.225 252.856 L494.683 253.18 Q499.22 254.152 501.118 255.934 Q503.039 257.694 503.039 260.865 Q503.039 264.476 500.169 266.582 Q497.322 268.689 492.322 268.689 Q490.239 268.689 487.97 268.272 Q485.725 267.879 483.225 267.068 L483.225 262.67 Q485.586 263.897 487.878 264.522 Q490.169 265.124 492.415 265.124 Q495.424 265.124 497.044 264.106 Q498.664 263.064 498.664 261.189 Q498.664 259.453 497.484 258.527 Q496.327 257.601 492.368 256.744 L490.887 256.397 Q486.928 255.564 485.169 253.851 Q483.41 252.115 483.41 249.106 Q483.41 245.448 486.003 243.458 Q488.595 241.467 493.364 241.467 Q495.725 241.467 497.808 241.814 Q499.891 242.161 501.651 242.856 Z" fill="#000000" fill-rule="nonzero" fill-opacity="1" /><path clip-path="url(#clip210)" d="M514.035 234.731 L514.035 242.092 L522.808 242.092 L522.808 245.402 L514.035 245.402 L514.035 259.476 Q514.035 262.647 514.891 263.55 Q515.771 264.453 518.433 264.453 L522.808 264.453 L522.808 268.018 L518.433 268.018 Q513.502 268.018 511.627 266.189 Q509.752 264.337 509.752 259.476 L509.752 245.402 L506.627 245.402 L506.627 242.092 L509.752 242.092 L509.752 234.731 L514.035 234.731 Z" fill="#000000" fill-rule="nonzero" fill-opacity="1" /><path clip-path="url(#clip210)" d="M540.192 254.985 Q535.03 254.985 533.039 256.166 Q531.049 257.346 531.049 260.194 Q531.049 262.462 532.53 263.805 Q534.035 265.124 536.604 265.124 Q540.146 265.124 542.275 262.624 Q544.428 260.101 544.428 255.934 L544.428 254.985 L540.192 254.985 M548.687 253.226 L548.687 268.018 L544.428 268.018 L544.428 264.082 Q542.97 266.443 540.794 267.578 Q538.618 268.689 535.47 268.689 Q531.488 268.689 529.127 266.467 Q526.789 264.221 526.789 260.471 Q526.789 256.096 529.706 253.874 Q532.646 251.652 538.456 251.652 L544.428 251.652 L544.428 251.235 Q544.428 248.295 542.484 246.698 Q540.562 245.078 537.067 245.078 Q534.845 245.078 532.738 245.61 Q530.632 246.143 528.687 247.207 L528.687 243.272 Q531.025 242.37 533.224 241.93 Q535.424 241.467 537.507 241.467 Q543.132 241.467 545.91 244.383 Q548.687 247.3 548.687 253.226 Z" fill="#000000" fill-rule="nonzero" fill-opacity="1" /><path clip-path="url(#clip210)" d="M576.071 255.078 Q576.071 250.379 574.127 247.717 Q572.206 245.032 568.826 245.032 Q565.447 245.032 563.502 247.717 Q561.581 250.379 561.581 255.078 Q561.581 259.777 563.502 262.462 Q565.447 265.124 568.826 265.124 Q572.206 265.124 574.127 262.462 Q576.071 259.777 576.071 255.078 M561.581 246.027 Q562.923 243.712 564.96 242.601 Q567.021 241.467 569.868 241.467 Q574.59 241.467 577.53 245.217 Q580.493 248.967 580.493 255.078 Q580.493 261.189 577.53 264.939 Q574.59 268.689 569.868 268.689 Q567.021 268.689 564.96 267.578 Q562.923 266.443 561.581 264.129 L561.581 268.018 L557.298 268.018 L557.298 231.999 L561.581 231.999 L561.581 246.027 Z" fill="#000000" fill-rule="nonzero" fill-opacity="1" /><path clip-path="url(#clip210)" d="M587.553 231.999 L591.812 231.999 L591.812 268.018 L587.553 268.018 L587.553 231.999 Z" fill="#000000" fill-rule="nonzero" fill-opacity="1" /><path clip-path="url(#clip210)" d="M622.9 253.99 L622.9 256.073 L603.317 256.073 Q603.594 260.471 605.956 262.786 Q608.34 265.078 612.576 265.078 Q615.03 265.078 617.321 264.476 Q619.636 263.874 621.905 262.67 L621.905 266.698 Q619.613 267.67 617.206 268.18 Q614.798 268.689 612.321 268.689 Q606.118 268.689 602.483 265.078 Q598.872 261.467 598.872 255.309 Q598.872 248.944 602.298 245.217 Q605.747 241.467 611.581 241.467 Q616.812 241.467 619.844 244.846 Q622.9 248.203 622.9 253.99 M618.641 252.74 Q618.594 249.245 616.673 247.161 Q614.775 245.078 611.627 245.078 Q608.062 245.078 605.909 247.092 Q603.78 249.106 603.456 252.763 L618.641 252.74 Z" fill="#000000" fill-rule="nonzero" fill-opacity="1" /></svg>
