<?xml version="1.0" encoding="utf-8"?>
<svg xmlns="http://www.w3.org/2000/svg" xmlns:xlink="http://www.w3.org/1999/xlink" width="600" height="400" viewBox="0 0 2400 1600">
<defs>
  <clipPath id="clip620">
    <rect x="0" y="0" width="2400" height="1600"/>
  </clipPath>
</defs>
<path clip-path="url(#clip620)" d="M0 1600 L2400 1600 L2400 0 L0 0  Z" fill="#ffffff" fill-rule="evenodd" fill-opacity="1"/>
<defs>
  <clipPath id="clip621">
    <rect x="480" y="0" width="1681" height="1600"/>
  </clipPath>
</defs>
<path clip-path="url(#clip620)" d="M204.45 1423.18 L2352.76 1423.18 L2352.76 47.2441 L204.45 47.2441  Z" fill="#ffffff" fill-rule="evenodd" fill-opacity="1"/>
<defs>
  <clipPath id="clip622">
    <rect x="204" y="47" width="2149" height="1377"/>
  </clipPath>
</defs>
<polyline clip-path="url(#clip622)" style="stroke:#000000; stroke-linecap:round; stroke-linejoin:round; stroke-width:2; stroke-opacity:0.1; fill:none" points="204.45,1423.18 204.45,47.2441 "/>
<polyline clip-path="url(#clip622)" style="stroke:#000000; stroke-linecap:round; stroke-linejoin:round; stroke-width:2; stroke-opacity:0.1; fill:none" points="715.951,1423.18 715.951,47.2441 "/>
<polyline clip-path="url(#clip622)" style="stroke:#000000; stroke-linecap:round; stroke-linejoin:round; stroke-width:2; stroke-opacity:0.1; fill:none" points="1227.45,1423.18 1227.45,47.2441 "/>
<polyline clip-path="url(#clip622)" style="stroke:#000000; stroke-linecap:round; stroke-linejoin:round; stroke-width:2; stroke-opacity:0.1; fill:none" points="1738.95,1423.18 1738.95,47.2441 "/>
<polyline clip-path="url(#clip622)" style="stroke:#000000; stroke-linecap:round; stroke-linejoin:round; stroke-width:2; stroke-opacity:0.1; fill:none" points="2250.46,1423.18 2250.46,47.2441 "/>
<polyline clip-path="url(#clip622)" style="stroke:#000000; stroke-linecap:round; stroke-linejoin:round; stroke-width:2; stroke-opacity:0.1; fill:none" points="204.45,1423.18 2352.76,1423.18 "/>
<polyline clip-path="url(#clip622)" style="stroke:#000000; stroke-linecap:round; stroke-linejoin:round; stroke-width:2; stroke-opacity:0.1; fill:none" points="204.45,1193.86 2352.76,1193.86 "/>
<polyline clip-path="url(#clip622)" style="stroke:#000000; stroke-linecap:round; stroke-linejoin:round; stroke-width:2; stroke-opacity:0.1; fill:none" points="204.45,964.535 2352.76,964.535 "/>
<polyline clip-path="url(#clip622)" style="stroke:#000000; stroke-linecap:round; stroke-linejoin:round; stroke-width:2; stroke-opacity:0.1; fill:none" points="204.45,735.212 2352.76,735.212 "/>
<polyline clip-path="url(#clip622)" style="stroke:#000000; stroke-linecap:round; stroke-linejoin:round; stroke-width:2; stroke-opacity:0.1; fill:none" points="204.45,505.889 2352.76,505.889 "/>
<polyline clip-path="url(#clip622)" style="stroke:#000000; stroke-linecap:round; stroke-linejoin:round; stroke-width:2; stroke-opacity:0.1; fill:none" points="204.45,276.567 2352.76,276.567 "/>
<polyline clip-path="url(#clip622)" style="stroke:#000000; stroke-linecap:round; stroke-linejoin:round; stroke-width:2; stroke-opacity:0.1; fill:none" points="204.45,47.2441 2352.76,47.2441 "/>
<polyline clip-path="url(#clip620)" style="stroke:#000000; stroke-linecap:round; stroke-linejoin:round; stroke-width:4; stroke-opacity:1; fill:none" points="204.45,1423.18 2352.76,1423.18 "/>
<polyline clip-path="url(#clip620)" style="stroke:#000000; stroke-linecap:round; stroke-linejoin:round; stroke-width:4; stroke-opacity:1; fill:none" points="204.45,1423.18 204.45,1404.28 "/>
<polyline clip-path="url(#clip620)" style="stroke:#000000; stroke-linecap:round; stroke-linejoin:round; stroke-width:4; stroke-opacity:1; fill:none" points="715.951,1423.18 715.951,1404.28 "/>
<polyline clip-path="url(#clip620)" style="stroke:#000000; stroke-linecap:round; stroke-linejoin:round; stroke-width:4; stroke-opacity:1; fill:none" points="1227.45,1423.18 1227.45,1404.28 "/>
<polyline clip-path="url(#clip620)" style="stroke:#000000; stroke-linecap:round; stroke-linejoin:round; stroke-width:4; stroke-opacity:1; fill:none" points="1738.95,1423.18 1738.95,1404.28 "/>
<polyline clip-path="url(#clip620)" style="stroke:#000000; stroke-linecap:round; stroke-linejoin:round; stroke-width:4; stroke-opacity:1; fill:none" points="2250.46,1423.18 2250.46,1404.28 "/>
<path clip-path="url(#clip620)" d="M166.753 1454.1 Q163.142 1454.1 161.313 1457.66 Q159.508 1461.2 159.508 1468.33 Q159.508 1475.44 161.313 1479.01 Q163.142 1482.55 166.753 1482.55 Q170.387 1482.55 172.193 1479.01 Q174.022 1475.44 174.022 1468.33 Q174.022 1461.2 172.193 1457.66 Q170.387 1454.1 166.753 1454.1 M166.753 1450.39 Q172.563 1450.39 175.619 1455 Q178.698 1459.58 178.698 1468.33 Q178.698 1477.06 175.619 1481.67 Q172.563 1486.25 166.753 1486.25 Q160.943 1486.25 157.864 1481.67 Q154.809 1477.06 154.809 1468.33 Q154.809 1459.58 157.864 1455 Q160.943 1450.39 166.753 1450.39 Z" fill="#000000" fill-rule="nonzero" fill-opacity="1" /><path clip-path="url(#clip620)" d="M186.915 1479.7 L191.799 1479.7 L191.799 1485.58 L186.915 1485.58 L186.915 1479.7 Z" fill="#000000" fill-rule="nonzero" fill-opacity="1" /><path clip-path="url(#clip620)" d="M211.984 1454.1 Q208.373 1454.1 206.545 1457.66 Q204.739 1461.2 204.739 1468.33 Q204.739 1475.44 206.545 1479.01 Q208.373 1482.55 211.984 1482.55 Q215.619 1482.55 217.424 1479.01 Q219.253 1475.44 219.253 1468.33 Q219.253 1461.2 217.424 1457.66 Q215.619 1454.1 211.984 1454.1 M211.984 1450.39 Q217.795 1450.39 220.85 1455 Q223.929 1459.58 223.929 1468.33 Q223.929 1477.06 220.85 1481.67 Q217.795 1486.25 211.984 1486.25 Q206.174 1486.25 203.096 1481.67 Q200.04 1477.06 200.04 1468.33 Q200.04 1459.58 203.096 1455 Q206.174 1450.39 211.984 1450.39 Z" fill="#000000" fill-rule="nonzero" fill-opacity="1" /><path clip-path="url(#clip620)" d="M242.146 1454.1 Q238.535 1454.1 236.706 1457.66 Q234.901 1461.2 234.901 1468.33 Q234.901 1475.44 236.706 1479.01 Q238.535 1482.55 242.146 1482.55 Q245.78 1482.55 247.586 1479.01 Q249.415 1475.44 249.415 1468.33 Q249.415 1461.2 247.586 1457.66 Q245.78 1454.1 242.146 1454.1 M242.146 1450.39 Q247.956 1450.39 251.012 1455 Q254.091 1459.58 254.091 1468.33 Q254.091 1477.06 251.012 1481.67 Q247.956 1486.25 242.146 1486.25 Q236.336 1486.25 233.257 1481.67 Q230.202 1477.06 230.202 1468.33 Q230.202 1459.58 233.257 1455 Q236.336 1450.39 242.146 1450.39 Z" fill="#000000" fill-rule="nonzero" fill-opacity="1" /><path clip-path="url(#clip620)" d="M678.752 1454.1 Q675.141 1454.1 673.313 1457.66 Q671.507 1461.2 671.507 1468.33 Q671.507 1475.44 673.313 1479.01 Q675.141 1482.55 678.752 1482.55 Q682.387 1482.55 684.192 1479.01 Q686.021 1475.44 686.021 1468.33 Q686.021 1461.2 684.192 1457.66 Q682.387 1454.1 678.752 1454.1 M678.752 1450.39 Q684.562 1450.39 687.618 1455 Q690.697 1459.58 690.697 1468.33 Q690.697 1477.06 687.618 1481.67 Q684.562 1486.25 678.752 1486.25 Q672.942 1486.25 669.863 1481.67 Q666.808 1477.06 666.808 1468.33 Q666.808 1459.58 669.863 1455 Q672.942 1450.39 678.752 1450.39 Z" fill="#000000" fill-rule="nonzero" fill-opacity="1" /><path clip-path="url(#clip620)" d="M698.914 1479.7 L703.798 1479.7 L703.798 1485.58 L698.914 1485.58 L698.914 1479.7 Z" fill="#000000" fill-rule="nonzero" fill-opacity="1" /><path clip-path="url(#clip620)" d="M723.984 1454.1 Q720.372 1454.1 718.544 1457.66 Q716.738 1461.2 716.738 1468.33 Q716.738 1475.44 718.544 1479.01 Q720.372 1482.55 723.984 1482.55 Q727.618 1482.55 729.423 1479.01 Q731.252 1475.44 731.252 1468.33 Q731.252 1461.2 729.423 1457.66 Q727.618 1454.1 723.984 1454.1 M723.984 1450.39 Q729.794 1450.39 732.849 1455 Q735.928 1459.58 735.928 1468.33 Q735.928 1477.06 732.849 1481.67 Q729.794 1486.25 723.984 1486.25 Q718.173 1486.25 715.095 1481.67 Q712.039 1477.06 712.039 1468.33 Q712.039 1459.58 715.095 1455 Q718.173 1450.39 723.984 1450.39 Z" fill="#000000" fill-rule="nonzero" fill-opacity="1" /><path clip-path="url(#clip620)" d="M744.192 1451.02 L762.548 1451.02 L762.548 1454.96 L748.474 1454.96 L748.474 1463.43 Q749.493 1463.08 750.511 1462.92 Q751.53 1462.73 752.548 1462.73 Q758.335 1462.73 761.715 1465.9 Q765.094 1469.08 765.094 1474.49 Q765.094 1480.07 761.622 1483.17 Q758.15 1486.25 751.831 1486.25 Q749.655 1486.25 747.386 1485.88 Q745.141 1485.51 742.733 1484.77 L742.733 1480.07 Q744.817 1481.2 747.039 1481.76 Q749.261 1482.32 751.738 1482.32 Q755.743 1482.32 758.081 1480.21 Q760.419 1478.1 760.419 1474.49 Q760.419 1470.88 758.081 1468.77 Q755.743 1466.67 751.738 1466.67 Q749.863 1466.67 747.988 1467.08 Q746.136 1467.5 744.192 1468.38 L744.192 1451.02 Z" fill="#000000" fill-rule="nonzero" fill-opacity="1" /><path clip-path="url(#clip620)" d="M1189.76 1454.1 Q1186.14 1454.1 1184.32 1457.66 Q1182.51 1461.2 1182.51 1468.33 Q1182.51 1475.44 1184.32 1479.01 Q1186.14 1482.55 1189.76 1482.55 Q1193.39 1482.55 1195.2 1479.01 Q1197.02 1475.44 1197.02 1468.33 Q1197.02 1461.2 1195.2 1457.66 Q1193.39 1454.1 1189.76 1454.1 M1189.76 1450.39 Q1195.57 1450.39 1198.62 1455 Q1201.7 1459.58 1201.7 1468.33 Q1201.7 1477.06 1198.62 1481.67 Q1195.57 1486.25 1189.76 1486.25 Q1183.95 1486.25 1180.87 1481.67 Q1177.81 1477.06 1177.81 1468.33 Q1177.81 1459.58 1180.87 1455 Q1183.95 1450.39 1189.76 1450.39 Z" fill="#000000" fill-rule="nonzero" fill-opacity="1" /><path clip-path="url(#clip620)" d="M1209.92 1479.7 L1214.8 1479.7 L1214.8 1485.58 L1209.92 1485.58 L1209.92 1479.7 Z" fill="#000000" fill-rule="nonzero" fill-opacity="1" /><path clip-path="url(#clip620)" d="M1225.8 1481.64 L1233.44 1481.64 L1233.44 1455.28 L1225.13 1456.95 L1225.13 1452.69 L1233.39 1451.02 L1238.07 1451.02 L1238.07 1481.64 L1245.7 1481.64 L1245.7 1485.58 L1225.8 1485.58 L1225.8 1481.64 Z" fill="#000000" fill-rule="nonzero" fill-opacity="1" /><path clip-path="url(#clip620)" d="M1265.15 1454.1 Q1261.54 1454.1 1259.71 1457.66 Q1257.9 1461.2 1257.9 1468.33 Q1257.9 1475.44 1259.71 1479.01 Q1261.54 1482.55 1265.15 1482.55 Q1268.78 1482.55 1270.59 1479.01 Q1272.42 1475.44 1272.42 1468.33 Q1272.42 1461.2 1270.59 1457.66 Q1268.78 1454.1 1265.15 1454.1 M1265.15 1450.39 Q1270.96 1450.39 1274.01 1455 Q1277.09 1459.58 1277.09 1468.33 Q1277.09 1477.06 1274.01 1481.67 Q1270.96 1486.25 1265.15 1486.25 Q1259.34 1486.25 1256.26 1481.67 Q1253.2 1477.06 1253.2 1468.33 Q1253.2 1459.58 1256.26 1455 Q1259.34 1450.39 1265.15 1450.39 Z" fill="#000000" fill-rule="nonzero" fill-opacity="1" /><path clip-path="url(#clip620)" d="M1701.76 1454.1 Q1698.14 1454.1 1696.32 1457.66 Q1694.51 1461.2 1694.51 1468.33 Q1694.51 1475.44 1696.32 1479.01 Q1698.14 1482.55 1701.76 1482.55 Q1705.39 1482.55 1707.2 1479.01 Q1709.02 1475.44 1709.02 1468.33 Q1709.02 1461.2 1707.2 1457.66 Q1705.39 1454.1 1701.76 1454.1 M1701.76 1450.39 Q1707.57 1450.39 1710.62 1455 Q1713.7 1459.58 1713.7 1468.33 Q1713.7 1477.06 1710.62 1481.67 Q1707.57 1486.25 1701.76 1486.25 Q1695.95 1486.25 1692.87 1481.67 Q1689.81 1477.06 1689.81 1468.33 Q1689.81 1459.58 1692.87 1455 Q1695.95 1450.39 1701.76 1450.39 Z" fill="#000000" fill-rule="nonzero" fill-opacity="1" /><path clip-path="url(#clip620)" d="M1721.92 1479.7 L1726.8 1479.7 L1726.8 1485.58 L1721.92 1485.58 L1721.92 1479.7 Z" fill="#000000" fill-rule="nonzero" fill-opacity="1" /><path clip-path="url(#clip620)" d="M1737.8 1481.64 L1745.44 1481.64 L1745.44 1455.28 L1737.13 1456.95 L1737.13 1452.69 L1745.39 1451.02 L1750.07 1451.02 L1750.07 1481.64 L1757.7 1481.64 L1757.7 1485.58 L1737.8 1485.58 L1737.8 1481.64 Z" fill="#000000" fill-rule="nonzero" fill-opacity="1" /><path clip-path="url(#clip620)" d="M1767.19 1451.02 L1785.55 1451.02 L1785.55 1454.96 L1771.48 1454.96 L1771.48 1463.43 Q1772.5 1463.08 1773.51 1462.92 Q1774.53 1462.73 1775.55 1462.73 Q1781.34 1462.73 1784.72 1465.9 Q1788.1 1469.08 1788.1 1474.49 Q1788.1 1480.07 1784.63 1483.17 Q1781.15 1486.25 1774.83 1486.25 Q1772.66 1486.25 1770.39 1485.88 Q1768.14 1485.51 1765.74 1484.77 L1765.74 1480.07 Q1767.82 1481.2 1770.04 1481.76 Q1772.26 1482.32 1774.74 1482.32 Q1778.75 1482.32 1781.08 1480.21 Q1783.42 1478.1 1783.42 1474.49 Q1783.42 1470.88 1781.08 1468.77 Q1778.75 1466.67 1774.74 1466.67 Q1772.87 1466.67 1770.99 1467.08 Q1769.14 1467.5 1767.19 1468.38 L1767.19 1451.02 Z" fill="#000000" fill-rule="nonzero" fill-opacity="1" /><path clip-path="url(#clip620)" d="M2212.76 1454.1 Q2209.15 1454.1 2207.32 1457.66 Q2205.51 1461.2 2205.51 1468.33 Q2205.51 1475.44 2207.32 1479.01 Q2209.15 1482.55 2212.76 1482.55 Q2216.39 1482.55 2218.2 1479.01 Q2220.03 1475.44 2220.03 1468.33 Q2220.03 1461.2 2218.2 1457.66 Q2216.39 1454.1 2212.76 1454.1 M2212.76 1450.39 Q2218.57 1450.39 2221.62 1455 Q2224.7 1459.58 2224.7 1468.33 Q2224.7 1477.06 2221.62 1481.67 Q2218.57 1486.25 2212.76 1486.25 Q2206.95 1486.25 2203.87 1481.67 Q2200.81 1477.06 2200.81 1468.33 Q2200.81 1459.58 2203.87 1455 Q2206.95 1450.39 2212.76 1450.39 Z" fill="#000000" fill-rule="nonzero" fill-opacity="1" /><path clip-path="url(#clip620)" d="M2232.92 1479.7 L2237.81 1479.7 L2237.81 1485.58 L2232.92 1485.58 L2232.92 1479.7 Z" fill="#000000" fill-rule="nonzero" fill-opacity="1" /><path clip-path="url(#clip620)" d="M2252.02 1481.64 L2268.34 1481.64 L2268.34 1485.58 L2246.39 1485.58 L2246.39 1481.64 Q2249.06 1478.89 2253.64 1474.26 Q2258.24 1469.61 2259.43 1468.27 Q2261.67 1465.74 2262.55 1464.01 Q2263.45 1462.25 2263.45 1460.56 Q2263.45 1457.8 2261.51 1456.07 Q2259.59 1454.33 2256.49 1454.33 Q2254.29 1454.33 2251.83 1455.09 Q2249.4 1455.86 2246.62 1457.41 L2246.62 1452.69 Q2249.45 1451.55 2251.9 1450.97 Q2254.36 1450.39 2256.39 1450.39 Q2261.76 1450.39 2264.96 1453.08 Q2268.15 1455.77 2268.15 1460.26 Q2268.15 1462.39 2267.34 1464.31 Q2266.56 1466.2 2264.45 1468.8 Q2263.87 1469.47 2260.77 1472.69 Q2257.67 1475.88 2252.02 1481.64 Z" fill="#000000" fill-rule="nonzero" fill-opacity="1" /><path clip-path="url(#clip620)" d="M2288.15 1454.1 Q2284.54 1454.1 2282.71 1457.66 Q2280.91 1461.2 2280.91 1468.33 Q2280.91 1475.44 2282.71 1479.01 Q2284.54 1482.55 2288.15 1482.55 Q2291.79 1482.55 2293.59 1479.01 Q2295.42 1475.44 2295.42 1468.33 Q2295.42 1461.2 2293.59 1457.66 Q2291.79 1454.1 2288.15 1454.1 M2288.15 1450.39 Q2293.96 1450.39 2297.02 1455 Q2300.1 1459.58 2300.1 1468.33 Q2300.1 1477.06 2297.02 1481.67 Q2293.96 1486.25 2288.15 1486.25 Q2282.34 1486.25 2279.26 1481.67 Q2276.21 1477.06 2276.21 1468.33 Q2276.21 1459.58 2279.26 1455 Q2282.34 1450.39 2288.15 1450.39 Z" fill="#000000" fill-rule="nonzero" fill-opacity="1" /><path clip-path="url(#clip620)" d="M772.211 1530.75 Q771.225 1530.18 770.047 1529.92 Q768.901 1529.64 767.501 1529.64 Q762.535 1529.64 759.862 1532.88 Q757.22 1536.1 757.22 1542.14 L757.22 1560.92 L751.332 1560.92 L751.332 1525.27 L757.22 1525.27 L757.22 1530.81 Q759.066 1527.57 762.026 1526.01 Q764.986 1524.42 769.219 1524.42 Q769.824 1524.42 770.556 1524.51 Q771.288 1524.57 772.18 1524.73 L772.211 1530.75 Z" fill="#000000" fill-rule="nonzero" fill-opacity="1" /><path clip-path="url(#clip620)" d="M794.555 1543 Q787.457 1543 784.72 1544.63 Q781.983 1546.25 781.983 1550.16 Q781.983 1553.28 784.02 1555.13 Q786.089 1556.94 789.622 1556.94 Q794.491 1556.94 797.42 1553.51 Q800.38 1550.04 800.38 1544.31 L800.38 1543 L794.555 1543 M806.236 1540.58 L806.236 1560.92 L800.38 1560.92 L800.38 1555.51 Q798.374 1558.76 795.383 1560.32 Q792.391 1561.85 788.062 1561.85 Q782.587 1561.85 779.341 1558.79 Q776.126 1555.7 776.126 1550.55 Q776.126 1544.53 780.137 1541.48 Q784.179 1538.42 792.168 1538.42 L800.38 1538.42 L800.38 1537.85 Q800.38 1533.8 797.706 1531.61 Q795.064 1529.38 790.258 1529.38 Q787.203 1529.38 784.306 1530.11 Q781.41 1530.84 778.736 1532.31 L778.736 1526.9 Q781.951 1525.66 784.975 1525.05 Q787.998 1524.42 790.863 1524.42 Q798.597 1524.42 802.417 1528.43 Q806.236 1532.44 806.236 1540.58 Z" fill="#000000" fill-rule="nonzero" fill-opacity="1" /><path clip-path="url(#clip620)" d="M824.092 1515.15 L824.092 1525.27 L836.155 1525.27 L836.155 1529.83 L824.092 1529.83 L824.092 1549.18 Q824.092 1553.54 825.27 1554.78 Q826.479 1556.02 830.139 1556.02 L836.155 1556.02 L836.155 1560.92 L830.139 1560.92 Q823.36 1560.92 820.782 1558.41 Q818.204 1555.86 818.204 1549.18 L818.204 1529.83 L813.907 1529.83 L813.907 1525.27 L818.204 1525.27 L818.204 1515.15 L824.092 1515.15 Z" fill="#000000" fill-rule="nonzero" fill-opacity="1" /><path clip-path="url(#clip620)" d="M874.349 1541.63 L874.349 1544.5 L847.422 1544.5 Q847.804 1550.55 851.051 1553.73 Q854.329 1556.88 860.154 1556.88 Q863.527 1556.88 866.678 1556.05 Q869.861 1555.23 872.98 1553.57 L872.98 1559.11 Q869.829 1560.45 866.519 1561.15 Q863.209 1561.85 859.803 1561.85 Q851.273 1561.85 846.276 1556.88 Q841.311 1551.91 841.311 1543.45 Q841.311 1534.7 846.022 1529.57 Q850.764 1524.42 858.785 1524.42 Q865.978 1524.42 870.148 1529.06 Q874.349 1533.68 874.349 1541.63 M868.493 1539.92 Q868.429 1535.11 865.787 1532.24 Q863.177 1529.38 858.849 1529.38 Q853.947 1529.38 850.987 1532.15 Q848.059 1534.92 847.613 1539.95 L868.493 1539.92 Z" fill="#000000" fill-rule="nonzero" fill-opacity="1" /><path clip-path="url(#clip620)" d="M918.495 1529.38 Q913.785 1529.38 911.047 1533.07 Q908.31 1536.73 908.31 1543.13 Q908.31 1549.53 911.016 1553.22 Q913.753 1556.88 918.495 1556.88 Q923.174 1556.88 925.911 1553.19 Q928.649 1549.5 928.649 1543.13 Q928.649 1536.8 925.911 1533.1 Q923.174 1529.38 918.495 1529.38 M918.495 1524.42 Q926.134 1524.42 930.495 1529.38 Q934.855 1534.35 934.855 1543.13 Q934.855 1551.88 930.495 1556.88 Q926.134 1561.85 918.495 1561.85 Q910.825 1561.85 906.464 1556.88 Q902.135 1551.88 902.135 1543.13 Q902.135 1534.35 906.464 1529.38 Q910.825 1524.42 918.495 1524.42 Z" fill="#000000" fill-rule="nonzero" fill-opacity="1" /><path clip-path="url(#clip620)" d="M962.61 1511.4 L962.61 1516.27 L957.008 1516.27 Q953.857 1516.27 952.615 1517.54 Q951.406 1518.81 951.406 1522.12 L951.406 1525.27 L961.05 1525.27 L961.05 1529.83 L951.406 1529.83 L951.406 1560.92 L945.518 1560.92 L945.518 1529.83 L939.916 1529.83 L939.916 1525.27 L945.518 1525.27 L945.518 1522.79 Q945.518 1516.84 948.287 1514.13 Q951.056 1511.4 957.071 1511.4 L962.61 1511.4 Z" fill="#000000" fill-rule="nonzero" fill-opacity="1" /><path clip-path="url(#clip620)" d="M1025.76 1536.38 Q1025.76 1538.86 1024.41 1544.34 Q1023.05 1549.81 1021.41 1553.55 Q1017.9 1561.66 1011.85 1561.66 Q1011.11 1561.66 1010.37 1561.6 Q1009.66 1561.53 1008.59 1561.24 Q1007.53 1560.95 1006.66 1560.5 Q1005.79 1560.02 1004.92 1559.12 Q1004.09 1558.22 1003.6 1557.03 Q1000.93 1561.66 996.742 1561.66 Q992.684 1561.66 990.011 1559.6 Q987.37 1557.54 987.37 1553.32 Q987.37 1551.42 988.143 1548.62 Q988.916 1545.82 991.074 1540.02 Q992.266 1537.03 992.266 1535.38 Q992.266 1534.64 992.105 1534.16 Q991.944 1533.68 991.622 1533.52 Q991.332 1533.32 991.139 1533.29 Q990.945 1533.23 990.623 1533.23 Q988.691 1533.23 986.952 1535.19 Q985.213 1537.12 983.957 1541.41 Q983.699 1542.21 983.538 1542.4 Q983.377 1542.6 982.894 1542.6 Q982.089 1542.57 982.089 1541.92 Q982.089 1541.66 982.379 1540.66 Q982.668 1539.63 983.345 1538.12 Q984.053 1536.57 985.019 1535.19 Q985.986 1533.77 987.499 1532.77 Q989.045 1531.78 990.816 1531.78 Q993.2 1531.78 994.713 1533.35 Q996.227 1534.93 996.227 1537.19 Q996.227 1537.83 996.066 1538.54 Q995.905 1539.22 995.744 1539.67 Q995.615 1540.09 995.1 1541.41 Q992.974 1546.98 992.298 1549.65 Q991.654 1552.32 991.654 1554.19 Q991.654 1554.8 991.686 1555.29 Q991.718 1555.77 991.976 1556.77 Q992.266 1557.77 992.781 1558.44 Q993.296 1559.09 994.359 1559.63 Q995.454 1560.18 996.936 1560.18 Q1000.64 1560.18 1003.02 1554.64 Q1002.96 1554.32 1002.96 1553.48 Q1002.96 1551.61 1003.54 1549.1 Q1003.7 1548.52 1004.63 1544.82 Q1005.57 1541.08 1006.37 1537.83 Q1007.21 1534.55 1007.31 1534.35 Q1007.63 1533.45 1008.34 1532.97 Q1009.05 1532.48 1009.75 1532.48 Q1010.56 1532.48 1011.11 1532.97 Q1011.65 1533.45 1011.65 1534.29 Q1011.65 1534.45 1011.46 1535.19 Q1011.3 1535.9 1011.04 1536.96 Q1010.78 1538.02 1010.66 1538.57 L1007.89 1549.65 Q1007.18 1552.23 1007.18 1554.45 Q1007.18 1557.25 1008.43 1558.73 Q1009.69 1560.18 1012.04 1560.18 Q1016.45 1560.18 1019.29 1554.38 Q1020.57 1551.87 1021.73 1547.94 Q1022.93 1544.01 1022.93 1542.31 Q1022.93 1539.09 1020.54 1536.7 Q1020.03 1536.25 1019.8 1535.9 Q1019.58 1535.51 1019.58 1534.93 Q1019.58 1533.84 1020.61 1532.81 Q1021.64 1531.78 1022.86 1531.78 Q1023.96 1531.78 1024.86 1532.87 Q1025.76 1533.93 1025.76 1536.38 Z" fill="#000000" fill-rule="nonzero" fill-opacity="1" /><path clip-path="url(#clip620)" d="M1056.4 1553.29 Q1056.66 1553.58 1056.66 1553.87 Q1056.66 1554.16 1056.02 1555 Q1055.4 1555.83 1054.08 1556.96 Q1052.76 1558.09 1051.06 1559.15 Q1049.35 1560.21 1046.84 1560.92 Q1044.33 1561.66 1041.68 1561.66 Q1036.76 1561.66 1033.86 1558.41 Q1030.99 1555.16 1030.99 1550.49 Q1030.99 1545.95 1033.54 1541.6 Q1036.08 1537.22 1040.2 1534.51 Q1044.33 1531.78 1048.67 1531.78 Q1052.12 1531.78 1054.28 1533.39 Q1056.43 1535 1056.43 1537.44 Q1056.43 1539.34 1055.34 1540.5 Q1054.24 1541.66 1052.76 1541.66 Q1051.73 1541.66 1051.02 1541.08 Q1050.32 1540.47 1050.32 1539.34 Q1050.32 1537.9 1051.51 1536.77 Q1051.96 1536.32 1052.47 1536.12 Q1053.02 1535.9 1053.34 1535.9 Q1053.66 1535.87 1054.41 1535.87 Q1053.73 1534.61 1052.12 1533.93 Q1050.54 1533.23 1048.74 1533.23 Q1046.06 1533.23 1043.52 1535.09 Q1040.98 1536.93 1039.43 1539.83 Q1037.88 1542.66 1036.89 1546.69 Q1035.89 1550.68 1035.89 1553 Q1035.89 1556.19 1037.37 1558.18 Q1038.85 1560.18 1041.81 1560.18 Q1042.39 1560.18 1043 1560.15 Q1043.65 1560.12 1045.26 1559.76 Q1046.9 1559.41 1048.35 1558.8 Q1049.8 1558.18 1051.64 1556.86 Q1053.5 1555.51 1054.99 1553.68 Q1055.5 1553 1055.85 1553 Q1056.14 1553 1056.4 1553.29 Z" fill="#000000" fill-rule="nonzero" fill-opacity="1" /><path clip-path="url(#clip620)" d="M1121.1 1543.5 Q1121.49 1543.89 1121.49 1544.43 Q1121.49 1544.98 1121.1 1545.37 Q1120.71 1545.75 1120.16 1545.75 L1078.88 1545.75 Q1078.33 1545.75 1077.94 1545.37 Q1077.56 1544.98 1077.56 1544.43 Q1077.56 1543.89 1077.94 1543.5 Q1078.33 1543.11 1078.88 1543.11 L1120.16 1543.11 Q1120.71 1543.11 1121.1 1543.5 Z" fill="#000000" fill-rule="nonzero" fill-opacity="1" /><path clip-path="url(#clip620)" d="M1146.67 1523.27 L1146.67 1521.21 Q1154.6 1521.21 1158.69 1516.99 Q1159.81 1516.99 1160.01 1517.25 Q1160.2 1517.51 1160.2 1518.7 L1160.2 1555.71 Q1160.2 1557.67 1161.17 1558.28 Q1162.13 1558.89 1166.35 1558.89 L1168.44 1558.89 L1168.44 1560.92 Q1166.13 1560.73 1157.75 1560.73 Q1149.38 1560.73 1147.09 1560.92 L1147.09 1558.89 L1149.19 1558.89 Q1153.34 1558.89 1154.34 1558.31 Q1155.34 1557.7 1155.34 1555.71 L1155.34 1521.53 Q1151.89 1523.27 1146.67 1523.27 Z" fill="#000000" fill-rule="nonzero" fill-opacity="1" /><path clip-path="url(#clip620)" d="M1220.01 1529.38 Q1215.3 1529.38 1212.57 1533.07 Q1209.83 1536.73 1209.83 1543.13 Q1209.83 1549.53 1212.53 1553.22 Q1215.27 1556.88 1220.01 1556.88 Q1224.69 1556.88 1227.43 1553.19 Q1230.17 1549.5 1230.17 1543.13 Q1230.17 1536.8 1227.43 1533.1 Q1224.69 1529.38 1220.01 1529.38 M1220.01 1524.42 Q1227.65 1524.42 1232.01 1529.38 Q1236.37 1534.35 1236.37 1543.13 Q1236.37 1551.88 1232.01 1556.88 Q1227.65 1561.85 1220.01 1561.85 Q1212.34 1561.85 1207.98 1556.88 Q1203.65 1551.88 1203.65 1543.13 Q1203.65 1534.35 1207.98 1529.38 Q1212.34 1524.42 1220.01 1524.42 Z" fill="#000000" fill-rule="nonzero" fill-opacity="1" /><path clip-path="url(#clip620)" d="M1241.88 1525.27 L1248.09 1525.27 L1259.23 1555.19 L1270.37 1525.27 L1276.57 1525.27 L1263.21 1560.92 L1255.25 1560.92 L1241.88 1525.27 Z" fill="#000000" fill-rule="nonzero" fill-opacity="1" /><path clip-path="url(#clip620)" d="M1315.15 1541.63 L1315.15 1544.5 L1288.22 1544.5 Q1288.6 1550.55 1291.85 1553.73 Q1295.13 1556.88 1300.95 1556.88 Q1304.33 1556.88 1307.48 1556.05 Q1310.66 1555.23 1313.78 1553.57 L1313.78 1559.11 Q1310.63 1560.45 1307.32 1561.15 Q1304.01 1561.85 1300.6 1561.85 Q1292.07 1561.85 1287.08 1556.88 Q1282.11 1551.91 1282.11 1543.45 Q1282.11 1534.7 1286.82 1529.57 Q1291.56 1524.42 1299.59 1524.42 Q1306.78 1524.42 1310.95 1529.06 Q1315.15 1533.68 1315.15 1541.63 M1309.29 1539.92 Q1309.23 1535.11 1306.59 1532.24 Q1303.98 1529.38 1299.65 1529.38 Q1294.75 1529.38 1291.79 1532.15 Q1288.86 1534.92 1288.41 1539.95 L1309.29 1539.92 Z" fill="#000000" fill-rule="nonzero" fill-opacity="1" /><path clip-path="url(#clip620)" d="M1345.42 1530.75 Q1344.43 1530.18 1343.25 1529.92 Q1342.11 1529.64 1340.71 1529.64 Q1335.74 1529.64 1333.07 1532.88 Q1330.43 1536.1 1330.43 1542.14 L1330.43 1560.92 L1324.54 1560.92 L1324.54 1525.27 L1330.43 1525.27 L1330.43 1530.81 Q1332.27 1527.57 1335.23 1526.01 Q1338.19 1524.42 1342.43 1524.42 Q1343.03 1524.42 1343.76 1524.51 Q1344.5 1524.57 1345.39 1524.73 L1345.42 1530.75 Z" fill="#000000" fill-rule="nonzero" fill-opacity="1" /><path clip-path="url(#clip620)" d="M1380.62 1541.63 L1380.62 1544.5 L1353.69 1544.5 Q1354.08 1550.55 1357.32 1553.73 Q1360.6 1556.88 1366.43 1556.88 Q1369.8 1556.88 1372.95 1556.05 Q1376.13 1555.23 1379.25 1553.57 L1379.25 1559.11 Q1376.1 1560.45 1372.79 1561.15 Q1369.48 1561.85 1366.08 1561.85 Q1357.55 1561.85 1352.55 1556.88 Q1347.58 1551.91 1347.58 1543.45 Q1347.58 1534.7 1352.29 1529.57 Q1357.04 1524.42 1365.06 1524.42 Q1372.25 1524.42 1376.42 1529.06 Q1380.62 1533.68 1380.62 1541.63 M1374.76 1539.92 Q1374.7 1535.11 1372.06 1532.24 Q1369.45 1529.38 1365.12 1529.38 Q1360.22 1529.38 1357.26 1532.15 Q1354.33 1534.92 1353.89 1539.95 L1374.76 1539.92 Z" fill="#000000" fill-rule="nonzero" fill-opacity="1" /><path clip-path="url(#clip620)" d="M1418.72 1525.27 L1405.83 1542.62 L1419.39 1560.92 L1412.48 1560.92 L1402.11 1546.92 L1391.73 1560.92 L1384.82 1560.92 L1398.67 1542.27 L1386 1525.27 L1392.91 1525.27 L1402.36 1537.97 L1411.81 1525.27 L1418.72 1525.27 Z" fill="#000000" fill-rule="nonzero" fill-opacity="1" /><path clip-path="url(#clip620)" d="M1433.33 1555.58 L1433.33 1574.48 L1427.44 1574.48 L1427.44 1525.27 L1433.33 1525.27 L1433.33 1530.69 Q1435.18 1527.5 1437.98 1525.97 Q1440.81 1524.42 1444.72 1524.42 Q1451.22 1524.42 1455.26 1529.57 Q1459.33 1534.73 1459.33 1543.13 Q1459.33 1551.53 1455.26 1556.69 Q1451.22 1561.85 1444.72 1561.85 Q1440.81 1561.85 1437.98 1560.32 Q1435.18 1558.76 1433.33 1555.58 M1453.25 1543.13 Q1453.25 1536.67 1450.58 1533.01 Q1447.94 1529.32 1443.29 1529.32 Q1438.64 1529.32 1435.97 1533.01 Q1433.33 1536.67 1433.33 1543.13 Q1433.33 1549.59 1435.97 1553.28 Q1438.64 1556.94 1443.29 1556.94 Q1447.94 1556.94 1450.58 1553.28 Q1453.25 1549.59 1453.25 1543.13 Z" fill="#000000" fill-rule="nonzero" fill-opacity="1" /><path clip-path="url(#clip620)" d="M1489.7 1530.75 Q1488.71 1530.18 1487.53 1529.92 Q1486.39 1529.64 1484.99 1529.64 Q1480.02 1529.64 1477.35 1532.88 Q1474.71 1536.1 1474.71 1542.14 L1474.71 1560.92 L1468.82 1560.92 L1468.82 1525.27 L1474.71 1525.27 L1474.71 1530.81 Q1476.55 1527.57 1479.51 1526.01 Q1482.47 1524.42 1486.71 1524.42 Q1487.31 1524.42 1488.04 1524.51 Q1488.77 1524.57 1489.67 1524.73 L1489.7 1530.75 Z" fill="#000000" fill-rule="nonzero" fill-opacity="1" /><path clip-path="url(#clip620)" d="M1524.9 1541.63 L1524.9 1544.5 L1497.97 1544.5 Q1498.35 1550.55 1501.6 1553.73 Q1504.88 1556.88 1510.7 1556.88 Q1514.08 1556.88 1517.23 1556.05 Q1520.41 1555.23 1523.53 1553.57 L1523.53 1559.11 Q1520.38 1560.45 1517.07 1561.15 Q1513.76 1561.85 1510.35 1561.85 Q1501.82 1561.85 1496.83 1556.88 Q1491.86 1551.91 1491.86 1543.45 Q1491.86 1534.7 1496.57 1529.57 Q1501.32 1524.42 1509.34 1524.42 Q1516.53 1524.42 1520.7 1529.06 Q1524.9 1533.68 1524.9 1541.63 M1519.04 1539.92 Q1518.98 1535.11 1516.34 1532.24 Q1513.73 1529.38 1509.4 1529.38 Q1504.5 1529.38 1501.54 1532.15 Q1498.61 1534.92 1498.16 1539.95 L1519.04 1539.92 Z" fill="#000000" fill-rule="nonzero" fill-opacity="1" /><path clip-path="url(#clip620)" d="M1557.24 1526.32 L1557.24 1531.86 Q1554.76 1530.59 1552.08 1529.95 Q1549.41 1529.32 1546.54 1529.32 Q1542.18 1529.32 1539.99 1530.65 Q1537.82 1531.99 1537.82 1534.66 Q1537.82 1536.7 1539.38 1537.88 Q1540.94 1539.02 1545.65 1540.07 L1547.66 1540.52 Q1553.9 1541.86 1556.51 1544.31 Q1559.15 1546.73 1559.15 1551.09 Q1559.15 1556.05 1555.2 1558.95 Q1551.29 1561.85 1544.41 1561.85 Q1541.55 1561.85 1538.43 1561.27 Q1535.34 1560.73 1531.9 1559.62 L1531.9 1553.57 Q1535.15 1555.26 1538.3 1556.12 Q1541.45 1556.94 1544.54 1556.94 Q1548.68 1556.94 1550.9 1555.54 Q1553.13 1554.11 1553.13 1551.53 Q1553.13 1549.15 1551.51 1547.87 Q1549.92 1546.6 1544.47 1545.42 L1542.44 1544.94 Q1536.99 1543.8 1534.58 1541.44 Q1532.16 1539.06 1532.16 1534.92 Q1532.16 1529.89 1535.72 1527.15 Q1539.29 1524.42 1545.84 1524.42 Q1549.09 1524.42 1551.95 1524.89 Q1554.82 1525.37 1557.24 1526.32 Z" fill="#000000" fill-rule="nonzero" fill-opacity="1" /><path clip-path="url(#clip620)" d="M1591.2 1526.32 L1591.2 1531.86 Q1588.72 1530.59 1586.04 1529.95 Q1583.37 1529.32 1580.5 1529.32 Q1576.14 1529.32 1573.95 1530.65 Q1571.78 1531.99 1571.78 1534.66 Q1571.78 1536.7 1573.34 1537.88 Q1574.9 1539.02 1579.61 1540.07 L1581.62 1540.52 Q1587.86 1541.86 1590.47 1544.31 Q1593.11 1546.73 1593.11 1551.09 Q1593.11 1556.05 1589.16 1558.95 Q1585.25 1561.85 1578.37 1561.85 Q1575.51 1561.85 1572.39 1561.27 Q1569.3 1560.73 1565.86 1559.62 L1565.86 1553.57 Q1569.11 1555.26 1572.26 1556.12 Q1575.41 1556.94 1578.5 1556.94 Q1582.64 1556.94 1584.86 1555.54 Q1587.09 1554.11 1587.09 1551.53 Q1587.09 1549.15 1585.47 1547.87 Q1583.88 1546.6 1578.44 1545.42 L1576.4 1544.94 Q1570.96 1543.8 1568.54 1541.44 Q1566.12 1539.06 1566.12 1534.92 Q1566.12 1529.89 1569.68 1527.15 Q1573.25 1524.42 1579.8 1524.42 Q1583.05 1524.42 1585.92 1524.89 Q1588.78 1525.37 1591.2 1526.32 Z" fill="#000000" fill-rule="nonzero" fill-opacity="1" /><path clip-path="url(#clip620)" d="M1602.43 1525.27 L1608.29 1525.27 L1608.29 1560.92 L1602.43 1560.92 L1602.43 1525.27 M1602.43 1511.4 L1608.29 1511.4 L1608.29 1518.81 L1602.43 1518.81 L1602.43 1511.4 Z" fill="#000000" fill-rule="nonzero" fill-opacity="1" /><path clip-path="url(#clip620)" d="M1634.36 1529.38 Q1629.65 1529.38 1626.91 1533.07 Q1624.17 1536.73 1624.17 1543.13 Q1624.17 1549.53 1626.88 1553.22 Q1629.62 1556.88 1634.36 1556.88 Q1639.04 1556.88 1641.77 1553.19 Q1644.51 1549.5 1644.51 1543.13 Q1644.51 1536.8 1641.77 1533.1 Q1639.04 1529.38 1634.36 1529.38 M1634.36 1524.42 Q1642 1524.42 1646.36 1529.38 Q1650.72 1534.35 1650.72 1543.13 Q1650.72 1551.88 1646.36 1556.88 Q1642 1561.85 1634.36 1561.85 Q1626.69 1561.85 1622.33 1556.88 Q1618 1551.88 1618 1543.13 Q1618 1534.35 1622.33 1529.38 Q1626.69 1524.42 1634.36 1524.42 Z" fill="#000000" fill-rule="nonzero" fill-opacity="1" /><path clip-path="url(#clip620)" d="M1690.06 1539.41 L1690.06 1560.92 L1684.2 1560.92 L1684.2 1539.6 Q1684.2 1534.54 1682.23 1532.02 Q1680.26 1529.51 1676.31 1529.51 Q1671.57 1529.51 1668.83 1532.53 Q1666.09 1535.56 1666.09 1540.78 L1666.09 1560.92 L1660.2 1560.92 L1660.2 1525.27 L1666.09 1525.27 L1666.09 1530.81 Q1668.19 1527.6 1671.02 1526.01 Q1673.89 1524.42 1677.61 1524.42 Q1683.76 1524.42 1686.91 1528.23 Q1690.06 1532.02 1690.06 1539.41 Z" fill="#000000" fill-rule="nonzero" fill-opacity="1" /><path clip-path="url(#clip620)" d="M1746.17 1527.2 Q1746.17 1529.03 1745.04 1530.13 Q1743.95 1531.22 1742.56 1531.22 Q1741.34 1531.22 1740.7 1530.51 Q1740.05 1529.8 1740.05 1528.9 Q1740.05 1528.52 1740.21 1528.03 Q1740.37 1527.52 1740.73 1526.91 Q1741.12 1526.29 1741.92 1525.84 Q1742.73 1525.39 1743.82 1525.33 Q1743.6 1525.1 1743.53 1525.07 Q1743.05 1524.68 1742.15 1524.55 Q1742.02 1524.49 1741.57 1524.49 Q1739.34 1524.49 1737.09 1526.13 Q1734.87 1527.74 1732.13 1530.8 Q1728.68 1534.38 1726.46 1535.7 Q1736.22 1536.99 1736.22 1542.62 Q1736.22 1543.56 1735.96 1544.68 Q1735.45 1546.81 1735.45 1548.35 Q1735.45 1551.45 1737.54 1551.45 Q1739.57 1551.45 1740.86 1549.39 Q1742.18 1547.32 1743.27 1543.3 Q1743.43 1542.56 1743.6 1542.33 Q1743.76 1542.11 1744.21 1542.11 Q1745.01 1542.11 1745.01 1542.75 Q1744.27 1546.52 1742.63 1549.42 Q1740.54 1552.93 1737.41 1552.93 Q1734.8 1552.93 1733.06 1551.12 Q1731.36 1549.29 1731.36 1546.39 Q1731.36 1545.68 1731.61 1544.07 Q1731.81 1543.43 1731.81 1542.69 Q1731.81 1541.17 1730.97 1540.05 Q1730.13 1538.89 1728.78 1538.31 Q1727.43 1537.73 1726.3 1537.47 Q1725.21 1537.18 1724.14 1537.08 Q1720.92 1550.71 1720.47 1551.54 Q1720.18 1552.12 1719.54 1552.51 Q1718.89 1552.93 1718.22 1552.93 Q1717.57 1552.93 1716.93 1552.48 Q1716.32 1552.06 1716.32 1551.06 Q1716.32 1550.54 1716.57 1549.61 L1726.14 1511.61 L1726.33 1510.32 Q1726.33 1509.93 1726.17 1509.74 Q1726.04 1509.51 1725.27 1509.35 Q1724.53 1509.19 1723.05 1509.19 Q1722.44 1509.19 1722.15 1509.16 Q1721.89 1509.13 1721.66 1508.97 Q1721.44 1508.77 1721.44 1508.39 Q1721.44 1507.84 1721.66 1507.55 Q1721.92 1507.23 1722.11 1507.16 Q1722.31 1507.1 1722.69 1507.07 Q1723.24 1507.03 1725.08 1506.87 Q1726.91 1506.68 1728.49 1506.55 Q1730.07 1506.42 1730.74 1506.42 Q1731.13 1506.42 1731.32 1506.62 Q1731.55 1506.78 1731.58 1506.97 L1731.61 1507.13 L1724.75 1534.96 Q1727.59 1533.83 1732.07 1528.84 Q1737.25 1523.04 1741.69 1523.04 Q1743.79 1523.04 1744.98 1524.33 Q1746.17 1525.59 1746.17 1527.2 Z" fill="#000000" fill-rule="nonzero" fill-opacity="1" /><path clip-path="url(#clip620)" d="M1752.92 1556.43 Q1752.92 1549.65 1754.63 1545.95 Q1757.02 1540.45 1762.66 1540.45 Q1763.85 1540.45 1765.09 1540.79 Q1766.36 1541.1 1767.93 1542.34 Q1769.53 1543.58 1770.5 1545.61 Q1772.35 1549.53 1772.35 1556.43 Q1772.35 1563.17 1770.64 1566.85 Q1768.14 1572.21 1762.61 1572.21 Q1760.54 1572.21 1758.42 1571.15 Q1756.32 1570.09 1754.99 1567.55 Q1752.92 1563.74 1752.92 1556.43 M1756.75 1555.87 Q1756.75 1562.83 1757.25 1565.61 Q1757.81 1568.61 1759.34 1569.91 Q1760.9 1571.2 1762.61 1571.2 Q1764.46 1571.2 1765.99 1569.82 Q1767.55 1568.43 1768.02 1565.43 Q1768.54 1562.47 1768.52 1555.87 Q1768.52 1549.44 1768.07 1546.87 Q1767.46 1543.87 1765.84 1542.68 Q1764.24 1541.46 1762.61 1541.46 Q1762 1541.46 1761.35 1541.64 Q1760.72 1541.82 1759.8 1542.34 Q1758.87 1542.86 1758.15 1544.15 Q1757.45 1545.43 1757.11 1547.37 Q1756.75 1549.87 1756.75 1555.87 Z" fill="#000000" fill-rule="nonzero" fill-opacity="1" /><path clip-path="url(#clip620)" d="M1775.97 1564.98 Q1775.97 1563.6 1776.76 1562.95 Q1777.55 1562.29 1778.56 1562.29 Q1779.62 1562.29 1780.36 1562.99 Q1781.13 1563.67 1781.13 1564.86 Q1781.13 1566.15 1780.23 1566.87 Q1779.35 1567.59 1778.09 1567.41 Q1779.19 1569.26 1781.22 1570.09 Q1783.27 1570.93 1785.17 1570.93 Q1787.15 1570.93 1788.75 1569.21 Q1790.37 1567.5 1790.37 1563.31 Q1790.37 1559.75 1788.98 1557.69 Q1787.6 1555.64 1784.87 1555.64 L1782.84 1555.64 Q1782.15 1555.64 1781.94 1555.58 Q1781.74 1555.51 1781.74 1555.12 Q1781.74 1554.67 1782.44 1554.58 Q1783.14 1554.58 1784.24 1554.45 Q1786.93 1554.36 1788.35 1552.04 Q1789.63 1549.87 1789.63 1546.78 Q1789.63 1543.96 1788.28 1542.79 Q1786.95 1541.6 1785.21 1541.6 Q1783.59 1541.6 1781.81 1542.27 Q1780.03 1542.95 1779.06 1544.46 Q1781.92 1544.46 1781.92 1546.78 Q1781.92 1547.8 1781.27 1548.47 Q1780.64 1549.13 1779.58 1549.13 Q1778.56 1549.13 1777.89 1548.5 Q1777.21 1547.84 1777.21 1546.74 Q1777.21 1544.1 1779.55 1542.27 Q1781.92 1540.45 1785.39 1540.45 Q1788.82 1540.45 1791.34 1542.25 Q1793.89 1544.06 1793.89 1546.83 Q1793.89 1549.56 1792.09 1551.79 Q1790.28 1554.02 1787.42 1554.94 Q1790.94 1555.64 1793.03 1558.03 Q1795.13 1560.4 1795.13 1563.31 Q1795.13 1566.91 1792.29 1569.58 Q1789.45 1572.21 1785.3 1572.21 Q1781.47 1572.21 1778.72 1570.14 Q1775.97 1568.06 1775.97 1564.98 Z" fill="#000000" fill-rule="nonzero" fill-opacity="1" /><polyline clip-path="url(#clip620)" style="stroke:#000000; stroke-linecap:round; stroke-linejoin:round; stroke-width:4; stroke-opacity:1; fill:none" points="204.45,1423.18 204.45,47.2441 "/>
<polyline clip-path="url(#clip620)" style="stroke:#000000; stroke-linecap:round; stroke-linejoin:round; stroke-width:4; stroke-opacity:1; fill:none" points="204.45,1423.18 223.347,1423.18 "/>
<polyline clip-path="url(#clip620)" style="stroke:#000000; stroke-linecap:round; stroke-linejoin:round; stroke-width:4; stroke-opacity:1; fill:none" points="204.45,1193.86 223.347,1193.86 "/>
<polyline clip-path="url(#clip620)" style="stroke:#000000; stroke-linecap:round; stroke-linejoin:round; stroke-width:4; stroke-opacity:1; fill:none" points="204.45,964.535 223.347,964.535 "/>
<polyline clip-path="url(#clip620)" style="stroke:#000000; stroke-linecap:round; stroke-linejoin:round; stroke-width:4; stroke-opacity:1; fill:none" points="204.45,735.212 223.347,735.212 "/>
<polyline clip-path="url(#clip620)" style="stroke:#000000; stroke-linecap:round; stroke-linejoin:round; stroke-width:4; stroke-opacity:1; fill:none" points="204.45,505.889 223.347,505.889 "/>
<polyline clip-path="url(#clip620)" style="stroke:#000000; stroke-linecap:round; stroke-linejoin:round; stroke-width:4; stroke-opacity:1; fill:none" points="204.45,276.567 223.347,276.567 "/>
<polyline clip-path="url(#clip620)" style="stroke:#000000; stroke-linecap:round; stroke-linejoin:round; stroke-width:4; stroke-opacity:1; fill:none" points="204.45,47.2441 223.347,47.2441 "/>
<path clip-path="url(#clip620)" d="M116.992 1436.52 L124.63 1436.52 L124.63 1410.16 L116.32 1411.83 L116.32 1407.57 L124.584 1405.9 L129.26 1405.9 L129.26 1436.52 L136.899 1436.52 L136.899 1440.46 L116.992 1440.46 L116.992 1436.52 Z" fill="#000000" fill-rule="nonzero" fill-opacity="1" /><path clip-path="url(#clip620)" d="M156.922 1421.32 Q153.774 1421.32 151.922 1423.47 Q150.093 1425.62 150.093 1429.37 Q150.093 1433.1 151.922 1435.27 Q153.774 1437.43 156.922 1437.43 Q160.07 1437.43 161.899 1435.27 Q163.751 1433.1 163.751 1429.37 Q163.751 1425.62 161.899 1423.47 Q160.07 1421.32 156.922 1421.32 M166.204 1406.66 L166.204 1410.92 Q164.445 1410.09 162.64 1409.65 Q160.857 1409.21 159.098 1409.21 Q154.468 1409.21 152.015 1412.33 Q149.584 1415.46 149.237 1421.78 Q150.603 1419.77 152.663 1418.7 Q154.723 1417.61 157.2 1417.61 Q162.408 1417.61 165.417 1420.78 Q168.45 1423.93 168.45 1429.37 Q168.45 1434.7 165.302 1437.91 Q162.153 1441.13 156.922 1441.13 Q150.927 1441.13 147.755 1436.55 Q144.584 1431.94 144.584 1423.21 Q144.584 1415.02 148.473 1410.16 Q152.362 1405.27 158.913 1405.27 Q160.672 1405.27 162.454 1405.62 Q164.26 1405.97 166.204 1406.66 Z" fill="#000000" fill-rule="nonzero" fill-opacity="1" /><path clip-path="url(#clip620)" d="M117.246 1207.2 L124.885 1207.2 L124.885 1180.84 L116.575 1182.5 L116.575 1178.24 L124.839 1176.58 L129.515 1176.58 L129.515 1207.2 L137.154 1207.2 L137.154 1211.14 L117.246 1211.14 L117.246 1207.2 Z" fill="#000000" fill-rule="nonzero" fill-opacity="1" /><path clip-path="url(#clip620)" d="M156.598 1194.73 Q153.265 1194.73 151.343 1196.51 Q149.445 1198.29 149.445 1201.42 Q149.445 1204.54 151.343 1206.32 Q153.265 1208.1 156.598 1208.1 Q159.931 1208.1 161.852 1206.32 Q163.774 1204.52 163.774 1201.42 Q163.774 1198.29 161.852 1196.51 Q159.954 1194.73 156.598 1194.73 M151.922 1192.73 Q148.913 1191.99 147.223 1189.93 Q145.556 1187.87 145.556 1184.91 Q145.556 1180.77 148.496 1178.36 Q151.459 1175.95 156.598 1175.95 Q161.76 1175.95 164.7 1178.36 Q167.64 1180.77 167.64 1184.91 Q167.64 1187.87 165.95 1189.93 Q164.283 1191.99 161.297 1192.73 Q164.677 1193.52 166.552 1195.81 Q168.45 1198.1 168.45 1201.42 Q168.45 1206.44 165.371 1209.12 Q162.315 1211.81 156.598 1211.81 Q150.88 1211.81 147.802 1209.12 Q144.746 1206.44 144.746 1201.42 Q144.746 1198.1 146.644 1195.81 Q148.542 1193.52 151.922 1192.73 M150.209 1185.35 Q150.209 1188.04 151.876 1189.54 Q153.566 1191.04 156.598 1191.04 Q159.607 1191.04 161.297 1189.54 Q163.01 1188.04 163.01 1185.35 Q163.01 1182.67 161.297 1181.16 Q159.607 1179.66 156.598 1179.66 Q153.566 1179.66 151.876 1181.16 Q150.209 1182.67 150.209 1185.35 Z" fill="#000000" fill-rule="nonzero" fill-opacity="1" /><path clip-path="url(#clip620)" d="M120.371 977.879 L136.691 977.879 L136.691 981.815 L114.746 981.815 L114.746 977.879 Q117.408 975.125 121.992 970.495 Q126.598 965.842 127.779 964.5 Q130.024 961.977 130.904 960.241 Q131.806 958.481 131.806 956.792 Q131.806 954.037 129.862 952.301 Q127.941 950.565 124.839 950.565 Q122.64 950.565 120.186 951.329 Q117.756 952.093 114.978 953.643 L114.978 948.921 Q117.802 947.787 120.255 947.208 Q122.709 946.63 124.746 946.63 Q130.117 946.63 133.311 949.315 Q136.505 952 136.505 956.491 Q136.505 958.62 135.695 960.542 Q134.908 962.44 132.802 965.032 Q132.223 965.704 129.121 968.921 Q126.019 972.116 120.371 977.879 Z" fill="#000000" fill-rule="nonzero" fill-opacity="1" /><path clip-path="url(#clip620)" d="M156.505 950.333 Q152.894 950.333 151.066 953.898 Q149.26 957.44 149.26 964.569 Q149.26 971.676 151.066 975.241 Q152.894 978.782 156.505 978.782 Q160.14 978.782 161.945 975.241 Q163.774 971.676 163.774 964.569 Q163.774 957.44 161.945 953.898 Q160.14 950.333 156.505 950.333 M156.505 946.63 Q162.315 946.63 165.371 951.236 Q168.45 955.819 168.45 964.569 Q168.45 973.296 165.371 977.903 Q162.315 982.486 156.505 982.486 Q150.695 982.486 147.616 977.903 Q144.561 973.296 144.561 964.569 Q144.561 955.819 147.616 951.236 Q150.695 946.63 156.505 946.63 Z" fill="#000000" fill-rule="nonzero" fill-opacity="1" /><path clip-path="url(#clip620)" d="M121.968 748.557 L138.288 748.557 L138.288 752.492 L116.343 752.492 L116.343 748.557 Q119.006 745.802 123.589 741.173 Q128.195 736.52 129.376 735.177 Q131.621 732.654 132.501 730.918 Q133.404 729.159 133.404 727.469 Q133.404 724.714 131.459 722.978 Q129.538 721.242 126.436 721.242 Q124.237 721.242 121.783 722.006 Q119.353 722.77 116.575 724.321 L116.575 719.599 Q119.399 718.464 121.853 717.886 Q124.306 717.307 126.343 717.307 Q131.714 717.307 134.908 719.992 Q138.103 722.677 138.103 727.168 Q138.103 729.298 137.292 731.219 Q136.505 733.117 134.399 735.71 Q133.82 736.381 130.718 739.599 Q127.617 742.793 121.968 748.557 Z" fill="#000000" fill-rule="nonzero" fill-opacity="1" /><path clip-path="url(#clip620)" d="M152.13 748.557 L168.45 748.557 L168.45 752.492 L146.505 752.492 L146.505 748.557 Q149.167 745.802 153.751 741.173 Q158.357 736.52 159.538 735.177 Q161.783 732.654 162.663 730.918 Q163.565 729.159 163.565 727.469 Q163.565 724.714 161.621 722.978 Q159.7 721.242 156.598 721.242 Q154.399 721.242 151.945 722.006 Q149.515 722.77 146.737 724.321 L146.737 719.599 Q149.561 718.464 152.015 717.886 Q154.468 717.307 156.505 717.307 Q161.876 717.307 165.07 719.992 Q168.264 722.677 168.264 727.168 Q168.264 729.298 167.454 731.219 Q166.667 733.117 164.561 735.71 Q163.982 736.381 160.88 739.599 Q157.778 742.793 152.13 748.557 Z" fill="#000000" fill-rule="nonzero" fill-opacity="1" /><path clip-path="url(#clip620)" d="M119.885 519.234 L136.204 519.234 L136.204 523.169 L114.26 523.169 L114.26 519.234 Q116.922 516.48 121.505 511.85 Q126.112 507.197 127.292 505.855 Q129.538 503.331 130.417 501.595 Q131.32 499.836 131.32 498.146 Q131.32 495.392 129.376 493.656 Q127.455 491.92 124.353 491.92 Q122.154 491.92 119.7 492.683 Q117.269 493.447 114.492 494.998 L114.492 490.276 Q117.316 489.142 119.769 488.563 Q122.223 487.984 124.26 487.984 Q129.63 487.984 132.825 490.67 Q136.019 493.355 136.019 497.845 Q136.019 499.975 135.209 501.896 Q134.422 503.794 132.316 506.387 Q131.737 507.058 128.635 510.276 Q125.533 513.47 119.885 519.234 Z" fill="#000000" fill-rule="nonzero" fill-opacity="1" /><path clip-path="url(#clip620)" d="M158.866 492.683 L147.061 511.132 L158.866 511.132 L158.866 492.683 M157.64 488.609 L163.519 488.609 L163.519 511.132 L168.45 511.132 L168.45 515.021 L163.519 515.021 L163.519 523.169 L158.866 523.169 L158.866 515.021 L143.265 515.021 L143.265 510.507 L157.64 488.609 Z" fill="#000000" fill-rule="nonzero" fill-opacity="1" /><path clip-path="url(#clip620)" d="M120.209 289.912 L136.529 289.912 L136.529 293.847 L114.584 293.847 L114.584 289.912 Q117.246 287.157 121.83 282.527 Q126.436 277.875 127.617 276.532 Q129.862 274.009 130.742 272.273 Q131.644 270.514 131.644 268.824 Q131.644 266.069 129.7 264.333 Q127.779 262.597 124.677 262.597 Q122.478 262.597 120.024 263.361 Q117.593 264.125 114.816 265.676 L114.816 260.953 Q117.64 259.819 120.093 259.24 Q122.547 258.662 124.584 258.662 Q129.955 258.662 133.149 261.347 Q136.343 264.032 136.343 268.523 Q136.343 270.652 135.533 272.574 Q134.746 274.472 132.64 277.064 Q132.061 277.736 128.959 280.953 Q125.857 284.148 120.209 289.912 Z" fill="#000000" fill-rule="nonzero" fill-opacity="1" /><path clip-path="url(#clip620)" d="M156.922 274.703 Q153.774 274.703 151.922 276.856 Q150.093 279.009 150.093 282.759 Q150.093 286.486 151.922 288.662 Q153.774 290.814 156.922 290.814 Q160.07 290.814 161.899 288.662 Q163.751 286.486 163.751 282.759 Q163.751 279.009 161.899 276.856 Q160.07 274.703 156.922 274.703 M166.204 260.051 L166.204 264.31 Q164.445 263.477 162.64 263.037 Q160.857 262.597 159.098 262.597 Q154.468 262.597 152.015 265.722 Q149.584 268.847 149.237 275.166 Q150.603 273.152 152.663 272.088 Q154.723 271 157.2 271 Q162.408 271 165.417 274.171 Q168.45 277.319 168.45 282.759 Q168.45 288.083 165.302 291.3 Q162.153 294.518 156.922 294.518 Q150.927 294.518 147.755 289.935 Q144.584 285.328 144.584 276.601 Q144.584 268.407 148.473 263.546 Q152.362 258.662 158.913 258.662 Q160.672 258.662 162.454 259.009 Q164.26 259.356 166.204 260.051 Z" fill="#000000" fill-rule="nonzero" fill-opacity="1" /><path clip-path="url(#clip620)" d="M120.464 60.5889 L136.783 60.5889 L136.783 64.5241 L114.839 64.5241 L114.839 60.5889 Q117.501 57.8343 122.084 53.2047 Q126.691 48.552 127.871 47.2094 Q130.117 44.6862 130.996 42.9501 Q131.899 41.1909 131.899 39.5011 Q131.899 36.7465 129.955 35.0104 Q128.033 33.2743 124.931 33.2743 Q122.732 33.2743 120.279 34.0381 Q117.848 34.802 115.07 36.3529 L115.07 31.6308 Q117.894 30.4965 120.348 29.9178 Q122.802 29.3391 124.839 29.3391 Q130.209 29.3391 133.404 32.0243 Q136.598 34.7094 136.598 39.2002 Q136.598 41.3298 135.788 43.2511 Q135.001 45.1492 132.894 47.7418 Q132.316 48.4131 129.214 51.6306 Q126.112 54.8251 120.464 60.5889 Z" fill="#000000" fill-rule="nonzero" fill-opacity="1" /><path clip-path="url(#clip620)" d="M156.598 48.1121 Q153.265 48.1121 151.343 49.8945 Q149.445 51.6769 149.445 54.8019 Q149.445 57.9269 151.343 59.7093 Q153.265 61.4917 156.598 61.4917 Q159.931 61.4917 161.852 59.7093 Q163.774 57.9038 163.774 54.8019 Q163.774 51.6769 161.852 49.8945 Q159.954 48.1121 156.598 48.1121 M151.922 46.1214 Q148.913 45.3807 147.223 43.3205 Q145.556 41.2603 145.556 38.2974 Q145.556 34.1539 148.496 31.7465 Q151.459 29.3391 156.598 29.3391 Q161.76 29.3391 164.7 31.7465 Q167.64 34.1539 167.64 38.2974 Q167.64 41.2603 165.95 43.3205 Q164.283 45.3807 161.297 46.1214 Q164.677 46.9084 166.552 49.2001 Q168.45 51.4918 168.45 54.8019 Q168.45 59.825 165.371 62.5102 Q162.315 65.1954 156.598 65.1954 Q150.88 65.1954 147.802 62.5102 Q144.746 59.825 144.746 54.8019 Q144.746 51.4918 146.644 49.2001 Q148.542 46.9084 151.922 46.1214 M150.209 38.7372 Q150.209 41.4224 151.876 42.927 Q153.566 44.4316 156.598 44.4316 Q159.607 44.4316 161.297 42.927 Q163.01 41.4224 163.01 38.7372 Q163.01 36.052 161.297 34.5474 Q159.607 33.0428 156.598 33.0428 Q153.566 33.0428 151.876 34.5474 Q150.209 36.052 150.209 38.7372 Z" fill="#000000" fill-rule="nonzero" fill-opacity="1" /><path clip-path="url(#clip620)" d="M58.657 868.796 L77.5631 868.796 L77.5631 874.685 L28.3562 874.685 L28.3562 868.796 L33.7671 868.796 Q30.5842 866.95 29.0564 864.149 Q27.4968 861.317 27.4968 857.402 Q27.4968 850.909 32.6531 846.866 Q37.8093 842.792 46.212 842.792 Q54.6147 842.792 59.771 846.866 Q64.9272 850.909 64.9272 857.402 Q64.9272 861.317 63.3994 864.149 Q61.8398 866.95 58.657 868.796 M46.212 848.872 Q39.7508 848.872 36.0905 851.545 Q32.3984 854.187 32.3984 858.834 Q32.3984 863.481 36.0905 866.155 Q39.7508 868.796 46.212 868.796 Q52.6732 868.796 56.3653 866.155 Q60.0256 863.481 60.0256 858.834 Q60.0256 854.187 56.3653 851.545 Q52.6732 848.872 46.212 848.872 Z" fill="#000000" fill-rule="nonzero" fill-opacity="1" /><path clip-path="url(#clip620)" d="M44.7161 802.593 L47.5806 802.593 L47.5806 829.52 Q53.6281 829.138 56.8109 825.891 Q59.9619 822.613 59.9619 816.788 Q59.9619 813.415 59.1344 810.264 Q58.3069 807.081 56.6518 803.962 L62.1899 803.962 Q63.5267 807.113 64.227 810.423 Q64.9272 813.733 64.9272 817.139 Q64.9272 825.669 59.9619 830.666 Q54.9967 835.631 46.5303 835.631 Q37.7774 835.631 32.6531 830.92 Q27.4968 826.178 27.4968 818.157 Q27.4968 810.964 32.1438 806.794 Q36.7589 802.593 44.7161 802.593 M42.9973 808.449 Q38.1912 808.513 35.3266 811.155 Q32.4621 813.765 32.4621 818.093 Q32.4621 822.995 35.2312 825.955 Q38.0002 828.883 43.0292 829.329 L42.9973 808.449 Z" fill="#000000" fill-rule="nonzero" fill-opacity="1" /><path clip-path="url(#clip620)" d="M33.8307 772.324 Q33.2578 773.311 33.0032 774.488 Q32.7167 775.634 32.7167 777.035 Q32.7167 782 35.9632 784.674 Q39.1779 787.315 45.2253 787.315 L64.0042 787.315 L64.0042 793.204 L28.3562 793.204 L28.3562 787.315 L33.8944 787.315 Q30.6479 785.469 29.0883 782.509 Q27.4968 779.549 27.4968 775.316 Q27.4968 774.711 27.5923 773.979 Q27.656 773.247 27.8151 772.356 L33.8307 772.324 Z" fill="#000000" fill-rule="nonzero" fill-opacity="1" /><path clip-path="url(#clip620)" d="M28.3562 766.181 L28.3562 760.325 L64.0042 760.325 L64.0042 766.181 L28.3562 766.181 M14.479 766.181 L14.479 760.325 L21.895 760.325 L21.895 766.181 L14.479 766.181 Z" fill="#000000" fill-rule="nonzero" fill-opacity="1" /><path clip-path="url(#clip620)" d="M32.4621 734.257 Q32.4621 738.968 36.1542 741.705 Q39.8145 744.442 46.212 744.442 Q52.6095 744.442 56.3017 741.737 Q59.9619 739 59.9619 734.257 Q59.9619 729.578 56.2698 726.841 Q52.5777 724.104 46.212 724.104 Q39.8781 724.104 36.186 726.841 Q32.4621 729.578 32.4621 734.257 M27.4968 734.257 Q27.4968 726.618 32.4621 722.258 Q37.4273 717.897 46.212 717.897 Q54.9649 717.897 59.9619 722.258 Q64.9272 726.618 64.9272 734.257 Q64.9272 741.928 59.9619 746.288 Q54.9649 750.617 46.212 750.617 Q37.4273 750.617 32.4621 746.288 Q27.4968 741.928 27.4968 734.257 Z" fill="#000000" fill-rule="nonzero" fill-opacity="1" /><path clip-path="url(#clip620)" d="M33.7671 684.732 L14.479 684.732 L14.479 678.875 L64.0042 678.875 L64.0042 684.732 L58.657 684.732 Q61.8398 686.578 63.3994 689.411 Q64.9272 692.212 64.9272 696.158 Q64.9272 702.62 59.771 706.694 Q54.6147 710.736 46.212 710.736 Q37.8093 710.736 32.6531 706.694 Q27.4968 702.62 27.4968 696.158 Q27.4968 692.212 29.0564 689.411 Q30.5842 686.578 33.7671 684.732 M46.212 704.688 Q52.6732 704.688 56.3653 702.047 Q60.0256 699.373 60.0256 694.726 Q60.0256 690.079 56.3653 687.406 Q52.6732 684.732 46.212 684.732 Q39.7508 684.732 36.0905 687.406 Q32.3984 690.079 32.3984 694.726 Q32.3984 699.373 36.0905 702.047 Q39.7508 704.688 46.212 704.688 Z" fill="#000000" fill-rule="nonzero" fill-opacity="1" /><path clip-path="url(#clip620)" d="M55.9197 665.317 L55.9197 658.601 L61.3942 658.601 L71.5793 663.821 L71.5793 667.926 L61.3942 665.317 L55.9197 665.317 Z" fill="#000000" fill-rule="nonzero" fill-opacity="1" /><path clip-path="url(#clip620)" d="M42.4881 595.739 L64.0042 595.739 L64.0042 601.596 L42.679 601.596 Q37.6183 601.596 35.1038 603.569 Q32.5894 605.543 32.5894 609.489 Q32.5894 614.232 35.6131 616.969 Q38.6368 619.706 43.8567 619.706 L64.0042 619.706 L64.0042 625.595 L14.479 625.595 L14.479 619.706 L33.8944 619.706 Q30.6797 617.606 29.0883 614.773 Q27.4968 611.908 27.4968 608.184 Q27.4968 602.041 31.3163 598.89 Q35.1038 595.739 42.4881 595.739 Z" fill="#000000" fill-rule="nonzero" fill-opacity="1" /><polyline clip-path="url(#clip622)" style="stroke:#009af9; stroke-linecap:round; stroke-linejoin:round; stroke-width:8; stroke-opacity:1; fill:none" points="1555.12,727.056 1564.18,732.735 "/>
<polyline clip-path="url(#clip622)" style="stroke:#009af9; stroke-linecap:round; stroke-linejoin:round; stroke-width:8; stroke-opacity:1; fill:none" points="1564.18,732.735 1572.96,738.276 "/>
<polyline clip-path="url(#clip622)" style="stroke:#009af9; stroke-linecap:round; stroke-linejoin:round; stroke-width:8; stroke-opacity:1; fill:none" points="1572.96,738.276 1581.41,743.645 "/>
<polyline clip-path="url(#clip622)" style="stroke:#009af9; stroke-linecap:round; stroke-linejoin:round; stroke-width:8; stroke-opacity:1; fill:none" points="1581.41,743.645 1589.52,748.813 "/>
<polyline clip-path="url(#clip622)" style="stroke:#009af9; stroke-linecap:round; stroke-linejoin:round; stroke-width:8; stroke-opacity:1; fill:none" points="1589.52,748.813 1597.23,753.756 "/>
<polyline clip-path="url(#clip622)" style="stroke:#009af9; stroke-linecap:round; stroke-linejoin:round; stroke-width:8; stroke-opacity:1; fill:none" points="1597.23,753.756 1604.54,758.447 "/>
<polyline clip-path="url(#clip622)" style="stroke:#009af9; stroke-linecap:round; stroke-linejoin:round; stroke-width:8; stroke-opacity:1; fill:none" points="1604.54,758.447 1611.39,762.861 "/>
<polyline clip-path="url(#clip622)" style="stroke:#009af9; stroke-linecap:round; stroke-linejoin:round; stroke-width:8; stroke-opacity:1; fill:none" points="1611.39,762.861 1617.78,766.978 "/>
<polyline clip-path="url(#clip622)" style="stroke:#009af9; stroke-linecap:round; stroke-linejoin:round; stroke-width:8; stroke-opacity:1; fill:none" points="1617.78,766.978 1623.66,770.775 "/>
<polyline clip-path="url(#clip622)" style="stroke:#009af9; stroke-linecap:round; stroke-linejoin:round; stroke-width:8; stroke-opacity:1; fill:none" points="1623.66,770.775 1629.01,774.233 "/>
<polyline clip-path="url(#clip622)" style="stroke:#009af9; stroke-linecap:round; stroke-linejoin:round; stroke-width:8; stroke-opacity:1; fill:none" points="1629.01,774.233 1633.81,777.336 "/>
<polyline clip-path="url(#clip622)" style="stroke:#009af9; stroke-linecap:round; stroke-linejoin:round; stroke-width:8; stroke-opacity:1; fill:none" points="1633.81,777.336 1638.04,780.068 "/>
<polyline clip-path="url(#clip622)" style="stroke:#009af9; stroke-linecap:round; stroke-linejoin:round; stroke-width:8; stroke-opacity:1; fill:none" points="1638.04,780.068 1641.67,782.415 "/>
<polyline clip-path="url(#clip622)" style="stroke:#009af9; stroke-linecap:round; stroke-linejoin:round; stroke-width:8; stroke-opacity:1; fill:none" points="1641.67,782.415 1644.68,784.366 "/>
<polyline clip-path="url(#clip622)" style="stroke:#009af9; stroke-linecap:round; stroke-linejoin:round; stroke-width:8; stroke-opacity:1; fill:none" points="1644.68,784.366 1647.08,785.912 "/>
<polyline clip-path="url(#clip622)" style="stroke:#009af9; stroke-linecap:round; stroke-linejoin:round; stroke-width:8; stroke-opacity:1; fill:none" points="1647.08,785.912 1648.83,787.045 "/>
<polyline clip-path="url(#clip622)" style="stroke:#009af9; stroke-linecap:round; stroke-linejoin:round; stroke-width:8; stroke-opacity:1; fill:none" points="1648.83,787.045 1649.93,787.76 "/>
<polyline clip-path="url(#clip622)" style="stroke:#009af9; stroke-linecap:round; stroke-linejoin:round; stroke-width:8; stroke-opacity:1; fill:none" points="1649.93,787.76 1650.39,788.052 "/>
<polyline clip-path="url(#clip622)" style="stroke:#009af9; stroke-linecap:round; stroke-linejoin:round; stroke-width:8; stroke-opacity:1; fill:none" points="1650.39,788.052 1650.18,787.922 "/>
<polyline clip-path="url(#clip622)" style="stroke:#009af9; stroke-linecap:round; stroke-linejoin:round; stroke-width:8; stroke-opacity:1; fill:none" points="1650.18,787.922 1649.33,787.37 "/>
<polyline clip-path="url(#clip622)" style="stroke:#009af9; stroke-linecap:round; stroke-linejoin:round; stroke-width:8; stroke-opacity:1; fill:none" points="1649.33,787.37 1647.83,786.397 "/>
<polyline clip-path="url(#clip622)" style="stroke:#009af9; stroke-linecap:round; stroke-linejoin:round; stroke-width:8; stroke-opacity:1; fill:none" points="1647.83,786.397 1645.68,785.009 "/>
<polyline clip-path="url(#clip622)" style="stroke:#009af9; stroke-linecap:round; stroke-linejoin:round; stroke-width:8; stroke-opacity:1; fill:none" points="1645.68,785.009 1642.9,783.213 "/>
<polyline clip-path="url(#clip622)" style="stroke:#009af9; stroke-linecap:round; stroke-linejoin:round; stroke-width:8; stroke-opacity:1; fill:none" points="1642.9,783.213 1639.5,781.016 "/>
<polyline clip-path="url(#clip622)" style="stroke:#009af9; stroke-linecap:round; stroke-linejoin:round; stroke-width:8; stroke-opacity:1; fill:none" points="1639.5,781.016 1635.5,778.43 "/>
<polyline clip-path="url(#clip622)" style="stroke:#009af9; stroke-linecap:round; stroke-linejoin:round; stroke-width:8; stroke-opacity:1; fill:none" points="1635.5,778.43 1630.92,775.468 "/>
<polyline clip-path="url(#clip622)" style="stroke:#009af9; stroke-linecap:round; stroke-linejoin:round; stroke-width:8; stroke-opacity:1; fill:none" points="1630.92,775.468 1625.78,772.143 "/>
<polyline clip-path="url(#clip622)" style="stroke:#009af9; stroke-linecap:round; stroke-linejoin:round; stroke-width:8; stroke-opacity:1; fill:none" points="1625.78,772.143 1620.09,768.473 "/>
<polyline clip-path="url(#clip622)" style="stroke:#009af9; stroke-linecap:round; stroke-linejoin:round; stroke-width:8; stroke-opacity:1; fill:none" points="1620.09,768.473 1613.9,764.476 "/>
<polyline clip-path="url(#clip622)" style="stroke:#009af9; stroke-linecap:round; stroke-linejoin:round; stroke-width:8; stroke-opacity:1; fill:none" points="1613.9,764.476 1607.22,760.171 "/>
<polyline clip-path="url(#clip622)" style="stroke:#009af9; stroke-linecap:round; stroke-linejoin:round; stroke-width:8; stroke-opacity:1; fill:none" points="1607.22,760.171 1600.08,755.582 "/>
<polyline clip-path="url(#clip622)" style="stroke:#009af9; stroke-linecap:round; stroke-linejoin:round; stroke-width:8; stroke-opacity:1; fill:none" points="1600.08,755.582 1592.51,750.731 "/>
<polyline clip-path="url(#clip622)" style="stroke:#009af9; stroke-linecap:round; stroke-linejoin:round; stroke-width:8; stroke-opacity:1; fill:none" points="1592.51,750.731 1584.55,745.643 "/>
<polyline clip-path="url(#clip622)" style="stroke:#009af9; stroke-linecap:round; stroke-linejoin:round; stroke-width:8; stroke-opacity:1; fill:none" points="1584.55,745.643 1576.23,740.346 "/>
<polyline clip-path="url(#clip622)" style="stroke:#009af9; stroke-linecap:round; stroke-linejoin:round; stroke-width:8; stroke-opacity:1; fill:none" points="1576.23,740.346 1567.57,734.866 "/>
<polyline clip-path="url(#clip622)" style="stroke:#009af9; stroke-linecap:round; stroke-linejoin:round; stroke-width:8; stroke-opacity:1; fill:none" points="1567.57,734.866 1558.6,729.232 "/>
<polyline clip-path="url(#clip622)" style="stroke:#009af9; stroke-linecap:round; stroke-linejoin:round; stroke-width:8; stroke-opacity:1; fill:none" points="1558.6,729.232 1549.37,723.474 "/>
<polyline clip-path="url(#clip622)" style="stroke:#009af9; stroke-linecap:round; stroke-linejoin:round; stroke-width:8; stroke-opacity:1; fill:none" points="1549.37,723.474 1539.89,717.62 "/>
<polyline clip-path="url(#clip622)" style="stroke:#009af9; stroke-linecap:round; stroke-linejoin:round; stroke-width:8; stroke-opacity:1; fill:none" points="1539.89,717.62 1530.2,711.702 "/>
<polyline clip-path="url(#clip622)" style="stroke:#009af9; stroke-linecap:round; stroke-linejoin:round; stroke-width:8; stroke-opacity:1; fill:none" points="1530.2,711.702 1520.33,705.748 "/>
<polyline clip-path="url(#clip622)" style="stroke:#009af9; stroke-linecap:round; stroke-linejoin:round; stroke-width:8; stroke-opacity:1; fill:none" points="1520.33,705.748 1510.29,699.79 "/>
<polyline clip-path="url(#clip622)" style="stroke:#009af9; stroke-linecap:round; stroke-linejoin:round; stroke-width:8; stroke-opacity:1; fill:none" points="1510.29,699.79 1500.11,693.857 "/>
<polyline clip-path="url(#clip622)" style="stroke:#009af9; stroke-linecap:round; stroke-linejoin:round; stroke-width:8; stroke-opacity:1; fill:none" points="1500.11,693.857 1489.82,687.977 "/>
<polyline clip-path="url(#clip622)" style="stroke:#009af9; stroke-linecap:round; stroke-linejoin:round; stroke-width:8; stroke-opacity:1; fill:none" points="1489.82,687.977 1479.43,682.178 "/>
<polyline clip-path="url(#clip622)" style="stroke:#009af9; stroke-linecap:round; stroke-linejoin:round; stroke-width:8; stroke-opacity:1; fill:none" points="1479.43,682.178 1468.95,676.488 "/>
<polyline clip-path="url(#clip622)" style="stroke:#009af9; stroke-linecap:round; stroke-linejoin:round; stroke-width:8; stroke-opacity:1; fill:none" points="1468.95,676.488 1458.41,670.933 "/>
<polyline clip-path="url(#clip622)" style="stroke:#009af9; stroke-linecap:round; stroke-linejoin:round; stroke-width:8; stroke-opacity:1; fill:none" points="1458.41,670.933 1447.8,665.536 "/>
<polyline clip-path="url(#clip622)" style="stroke:#009af9; stroke-linecap:round; stroke-linejoin:round; stroke-width:8; stroke-opacity:1; fill:none" points="1447.8,665.536 1437.14,660.323 "/>
<polyline clip-path="url(#clip622)" style="stroke:#009af9; stroke-linecap:round; stroke-linejoin:round; stroke-width:8; stroke-opacity:1; fill:none" points="1437.14,660.323 1426.43,655.315 "/>
<polyline clip-path="url(#clip622)" style="stroke:#009af9; stroke-linecap:round; stroke-linejoin:round; stroke-width:8; stroke-opacity:1; fill:none" points="1426.43,655.315 1415.66,650.532 "/>
<polyline clip-path="url(#clip622)" style="stroke:#009af9; stroke-linecap:round; stroke-linejoin:round; stroke-width:8; stroke-opacity:1; fill:none" points="1415.66,650.532 1404.84,645.995 "/>
<polyline clip-path="url(#clip622)" style="stroke:#009af9; stroke-linecap:round; stroke-linejoin:round; stroke-width:8; stroke-opacity:1; fill:none" points="1404.84,645.995 1393.96,641.722 "/>
<polyline clip-path="url(#clip622)" style="stroke:#009af9; stroke-linecap:round; stroke-linejoin:round; stroke-width:8; stroke-opacity:1; fill:none" points="1393.96,641.722 1383.01,637.73 "/>
<polyline clip-path="url(#clip622)" style="stroke:#009af9; stroke-linecap:round; stroke-linejoin:round; stroke-width:8; stroke-opacity:1; fill:none" points="1383.01,637.73 1371.96,634.034 "/>
<polyline clip-path="url(#clip622)" style="stroke:#009af9; stroke-linecap:round; stroke-linejoin:round; stroke-width:8; stroke-opacity:1; fill:none" points="1371.96,634.034 1360.81,630.649 "/>
<polyline clip-path="url(#clip622)" style="stroke:#009af9; stroke-linecap:round; stroke-linejoin:round; stroke-width:8; stroke-opacity:1; fill:none" points="1360.81,630.649 1349.52,627.589 "/>
<polyline clip-path="url(#clip622)" style="stroke:#009af9; stroke-linecap:round; stroke-linejoin:round; stroke-width:8; stroke-opacity:1; fill:none" points="1349.52,627.589 1338.08,624.866 "/>
<polyline clip-path="url(#clip622)" style="stroke:#009af9; stroke-linecap:round; stroke-linejoin:round; stroke-width:8; stroke-opacity:1; fill:none" points="1338.08,624.866 1326.44,622.489 "/>
<polyline clip-path="url(#clip622)" style="stroke:#009af9; stroke-linecap:round; stroke-linejoin:round; stroke-width:8; stroke-opacity:1; fill:none" points="1326.44,622.489 1314.59,620.467 "/>
<polyline clip-path="url(#clip622)" style="stroke:#009af9; stroke-linecap:round; stroke-linejoin:round; stroke-width:8; stroke-opacity:1; fill:none" points="1314.59,620.467 1302.47,618.807 "/>
<polyline clip-path="url(#clip622)" style="stroke:#009af9; stroke-linecap:round; stroke-linejoin:round; stroke-width:8; stroke-opacity:1; fill:none" points="1302.47,618.807 1290.06,617.513 "/>
<polyline clip-path="url(#clip622)" style="stroke:#009af9; stroke-linecap:round; stroke-linejoin:round; stroke-width:8; stroke-opacity:1; fill:none" points="1290.06,617.513 1277.32,616.585 "/>
<polyline clip-path="url(#clip622)" style="stroke:#009af9; stroke-linecap:round; stroke-linejoin:round; stroke-width:8; stroke-opacity:1; fill:none" points="1277.32,616.585 1264.22,616.021 "/>
<polyline clip-path="url(#clip622)" style="stroke:#009af9; stroke-linecap:round; stroke-linejoin:round; stroke-width:8; stroke-opacity:1; fill:none" points="1264.22,616.021 1250.71,615.814 "/>
<polyline clip-path="url(#clip622)" style="stroke:#009af9; stroke-linecap:round; stroke-linejoin:round; stroke-width:8; stroke-opacity:1; fill:none" points="1250.71,615.814 1236.77,615.952 "/>
<polyline clip-path="url(#clip622)" style="stroke:#009af9; stroke-linecap:round; stroke-linejoin:round; stroke-width:8; stroke-opacity:1; fill:none" points="1236.77,615.952 1222.38,616.421 "/>
<polyline clip-path="url(#clip622)" style="stroke:#009af9; stroke-linecap:round; stroke-linejoin:round; stroke-width:8; stroke-opacity:1; fill:none" points="1222.38,616.421 1207.51,617.203 "/>
<polyline clip-path="url(#clip622)" style="stroke:#009af9; stroke-linecap:round; stroke-linejoin:round; stroke-width:8; stroke-opacity:1; fill:none" points="1207.51,617.203 1192.17,618.275 "/>
<polyline clip-path="url(#clip622)" style="stroke:#009af9; stroke-linecap:round; stroke-linejoin:round; stroke-width:8; stroke-opacity:1; fill:none" points="1192.17,618.275 1176.33,619.612 "/>
<polyline clip-path="url(#clip622)" style="stroke:#009af9; stroke-linecap:round; stroke-linejoin:round; stroke-width:8; stroke-opacity:1; fill:none" points="1176.33,619.612 1159.99,621.188 "/>
<polyline clip-path="url(#clip622)" style="stroke:#009af9; stroke-linecap:round; stroke-linejoin:round; stroke-width:8; stroke-opacity:1; fill:none" points="1159.99,621.188 1143.17,622.976 "/>
<polyline clip-path="url(#clip622)" style="stroke:#009af9; stroke-linecap:round; stroke-linejoin:round; stroke-width:8; stroke-opacity:1; fill:none" points="1143.17,622.976 1125.87,624.95 "/>
<polyline clip-path="url(#clip622)" style="stroke:#009af9; stroke-linecap:round; stroke-linejoin:round; stroke-width:8; stroke-opacity:1; fill:none" points="1125.87,624.95 1108.09,627.083 "/>
<polyline clip-path="url(#clip622)" style="stroke:#009af9; stroke-linecap:round; stroke-linejoin:round; stroke-width:8; stroke-opacity:1; fill:none" points="1108.09,627.083 1089.85,629.352 "/>
<polyline clip-path="url(#clip622)" style="stroke:#009af9; stroke-linecap:round; stroke-linejoin:round; stroke-width:8; stroke-opacity:1; fill:none" points="1089.85,629.352 1071.15,631.733 "/>
<polyline clip-path="url(#clip622)" style="stroke:#009af9; stroke-linecap:round; stroke-linejoin:round; stroke-width:8; stroke-opacity:1; fill:none" points="1071.15,631.733 1052.01,634.206 "/>
<polyline clip-path="url(#clip622)" style="stroke:#009af9; stroke-linecap:round; stroke-linejoin:round; stroke-width:8; stroke-opacity:1; fill:none" points="1052.01,634.206 1032.42,636.753 "/>
<polyline clip-path="url(#clip622)" style="stroke:#009af9; stroke-linecap:round; stroke-linejoin:round; stroke-width:8; stroke-opacity:1; fill:none" points="1032.42,636.753 1012.41,639.357 "/>
<polyline clip-path="url(#clip622)" style="stroke:#009af9; stroke-linecap:round; stroke-linejoin:round; stroke-width:8; stroke-opacity:1; fill:none" points="1012.41,639.357 991.963,642.004 "/>
<polyline clip-path="url(#clip622)" style="stroke:#009af9; stroke-linecap:round; stroke-linejoin:round; stroke-width:8; stroke-opacity:1; fill:none" points="991.963,642.004 971.089,644.679 "/>
<polyline clip-path="url(#clip622)" style="stroke:#009af9; stroke-linecap:round; stroke-linejoin:round; stroke-width:8; stroke-opacity:1; fill:none" points="971.089,644.679 949.785,647.372 "/>
<polyline clip-path="url(#clip622)" style="stroke:#009af9; stroke-linecap:round; stroke-linejoin:round; stroke-width:8; stroke-opacity:1; fill:none" points="949.785,647.372 928.047,650.072 "/>
<polyline clip-path="url(#clip622)" style="stroke:#009af9; stroke-linecap:round; stroke-linejoin:round; stroke-width:8; stroke-opacity:1; fill:none" points="928.047,650.072 905.87,652.77 "/>
<polyline clip-path="url(#clip622)" style="stroke:#009af9; stroke-linecap:round; stroke-linejoin:round; stroke-width:8; stroke-opacity:1; fill:none" points="905.87,652.77 883.244,655.455 "/>
<polyline clip-path="url(#clip622)" style="stroke:#009af9; stroke-linecap:round; stroke-linejoin:round; stroke-width:8; stroke-opacity:1; fill:none" points="883.244,655.455 860.157,658.121 "/>
<polyline clip-path="url(#clip622)" style="stroke:#009af9; stroke-linecap:round; stroke-linejoin:round; stroke-width:8; stroke-opacity:1; fill:none" points="860.157,658.121 836.596,660.759 "/>
<polyline clip-path="url(#clip622)" style="stroke:#009af9; stroke-linecap:round; stroke-linejoin:round; stroke-width:8; stroke-opacity:1; fill:none" points="836.596,660.759 812.543,663.361 "/>
<polyline clip-path="url(#clip622)" style="stroke:#009af9; stroke-linecap:round; stroke-linejoin:round; stroke-width:8; stroke-opacity:1; fill:none" points="812.543,663.361 787.978,665.919 "/>
<polyline clip-path="url(#clip622)" style="stroke:#009af9; stroke-linecap:round; stroke-linejoin:round; stroke-width:8; stroke-opacity:1; fill:none" points="787.978,665.919 762.877,668.424 "/>
<polyline clip-path="url(#clip622)" style="stroke:#009af9; stroke-linecap:round; stroke-linejoin:round; stroke-width:8; stroke-opacity:1; fill:none" points="762.877,668.424 737.212,670.866 "/>
<polyline clip-path="url(#clip622)" style="stroke:#009af9; stroke-linecap:round; stroke-linejoin:round; stroke-width:8; stroke-opacity:1; fill:none" points="737.212,670.866 710.955,673.236 "/>
<polyline clip-path="url(#clip622)" style="stroke:#009af9; stroke-linecap:round; stroke-linejoin:round; stroke-width:8; stroke-opacity:1; fill:none" points="710.955,673.236 684.072,675.521 "/>
<polyline clip-path="url(#clip622)" style="stroke:#009af9; stroke-linecap:round; stroke-linejoin:round; stroke-width:8; stroke-opacity:1; fill:none" points="684.072,675.521 656.526,677.706 "/>
<polyline clip-path="url(#clip622)" style="stroke:#009af9; stroke-linecap:round; stroke-linejoin:round; stroke-width:8; stroke-opacity:1; fill:none" points="656.526,677.706 628.28,679.774 "/>
<polyline clip-path="url(#clip622)" style="stroke:#009af9; stroke-linecap:round; stroke-linejoin:round; stroke-width:8; stroke-opacity:1; fill:none" points="628.28,679.774 599.294,681.705 "/>
<polyline clip-path="url(#clip622)" style="stroke:#009af9; stroke-linecap:round; stroke-linejoin:round; stroke-width:8; stroke-opacity:1; fill:none" points="599.294,681.705 569.534,683.473 "/>
<polyline clip-path="url(#clip622)" style="stroke:#009af9; stroke-linecap:round; stroke-linejoin:round; stroke-width:8; stroke-opacity:1; fill:none" points="569.534,683.473 538.968,685.047 "/>
<polyline clip-path="url(#clip622)" style="stroke:#009af9; stroke-linecap:round; stroke-linejoin:round; stroke-width:8; stroke-opacity:1; fill:none" points="538.968,685.047 507.583,686.387 "/>
<polyline clip-path="url(#clip622)" style="stroke:#009af9; stroke-linecap:round; stroke-linejoin:round; stroke-width:8; stroke-opacity:1; fill:none" points="507.583,686.387 475.39,687.447 "/>
<polyline clip-path="url(#clip622)" style="stroke:#009af9; stroke-linecap:round; stroke-linejoin:round; stroke-width:8; stroke-opacity:1; fill:none" points="475.39,687.447 442.446,688.168 "/>
<polyline clip-path="url(#clip622)" style="stroke:#009af9; stroke-linecap:round; stroke-linejoin:round; stroke-width:8; stroke-opacity:1; fill:none" points="442.446,688.168 408.878,688.483 "/>
<polyline clip-path="url(#clip622)" style="stroke:#009af9; stroke-linecap:round; stroke-linejoin:round; stroke-width:8; stroke-opacity:1; fill:none" points="408.878,688.483 374.904,688.317 "/>
<polyline clip-path="url(#clip622)" style="stroke:#009af9; stroke-linecap:round; stroke-linejoin:round; stroke-width:8; stroke-opacity:1; fill:none" points="374.904,688.317 340.861,687.596 "/>
<polyline clip-path="url(#clip622)" style="stroke:#009af9; stroke-linecap:round; stroke-linejoin:round; stroke-width:8; stroke-opacity:1; fill:none" points="340.861,687.596 307.189,686.257 "/>
<polyline clip-path="url(#clip622)" style="stroke:#009af9; stroke-linecap:round; stroke-linejoin:round; stroke-width:8; stroke-opacity:1; fill:none" points="307.189,686.257 274.385,684.258 "/>
<polyline clip-path="url(#clip622)" style="stroke:#009af9; stroke-linecap:round; stroke-linejoin:round; stroke-width:8; stroke-opacity:1; fill:none" points="274.385,684.258 242.916,681.591 "/>
<polyline clip-path="url(#clip622)" style="stroke:#009af9; stroke-linecap:round; stroke-linejoin:round; stroke-width:8; stroke-opacity:1; fill:none" points="242.916,681.591 213.133,678.276 "/>
<polyline clip-path="url(#clip622)" style="stroke:#009af9; stroke-linecap:round; stroke-linejoin:round; stroke-width:8; stroke-opacity:1; fill:none" points="213.133,678.276 204.45,677.146 "/>
</svg>
