<?xml version="1.0" encoding="utf-8"?>
<svg xmlns="http://www.w3.org/2000/svg" xmlns:xlink="http://www.w3.org/1999/xlink" width="600" height="400" viewBox="0 0 2400 1600">
<defs>
  <clipPath id="clip300">
    <rect x="0" y="0" width="2400" height="1600"/>
  </clipPath>
</defs>
<path clip-path="url(#clip300)" d="M0 1600 L2400 1600 L2400 0 L0 0  Z" fill="#ffffff" fill-rule="evenodd" fill-opacity="1"/>
<defs>
  <clipPath id="clip301">
    <rect x="480" y="0" width="1681" height="1600"/>
  </clipPath>
</defs>
<path clip-path="url(#clip300)" d="M219.866 1423.18 L2352.76 1423.18 L2352.76 47.2441 L219.866 47.2441  Z" fill="#ffffff" fill-rule="evenodd" fill-opacity="1"/>
<defs>
  <clipPath id="clip302">
    <rect x="219" y="47" width="2134" height="1377"/>
  </clipPath>
</defs>
<polyline clip-path="url(#clip302)" style="stroke:#000000; stroke-linecap:round; stroke-linejoin:round; stroke-width:2; stroke-opacity:0.1; fill:none" points="672.923,1423.18 672.923,47.2441 "/>
<polyline clip-path="url(#clip302)" style="stroke:#000000; stroke-linecap:round; stroke-linejoin:round; stroke-width:2; stroke-opacity:0.1; fill:none" points="1212.75,1423.18 1212.75,47.2441 "/>
<polyline clip-path="url(#clip302)" style="stroke:#000000; stroke-linecap:round; stroke-linejoin:round; stroke-width:2; stroke-opacity:0.1; fill:none" points="1752.57,1423.18 1752.57,47.2441 "/>
<polyline clip-path="url(#clip302)" style="stroke:#000000; stroke-linecap:round; stroke-linejoin:round; stroke-width:2; stroke-opacity:0.1; fill:none" points="2292.39,1423.18 2292.39,47.2441 "/>
<polyline clip-path="url(#clip302)" style="stroke:#000000; stroke-linecap:round; stroke-linejoin:round; stroke-width:2; stroke-opacity:0.1; fill:none" points="219.866,1384.9 2352.76,1384.9 "/>
<polyline clip-path="url(#clip302)" style="stroke:#000000; stroke-linecap:round; stroke-linejoin:round; stroke-width:2; stroke-opacity:0.1; fill:none" points="219.866,1091.44 2352.76,1091.44 "/>
<polyline clip-path="url(#clip302)" style="stroke:#000000; stroke-linecap:round; stroke-linejoin:round; stroke-width:2; stroke-opacity:0.1; fill:none" points="219.866,797.966 2352.76,797.966 "/>
<polyline clip-path="url(#clip302)" style="stroke:#000000; stroke-linecap:round; stroke-linejoin:round; stroke-width:2; stroke-opacity:0.1; fill:none" points="219.866,504.498 2352.76,504.498 "/>
<polyline clip-path="url(#clip302)" style="stroke:#000000; stroke-linecap:round; stroke-linejoin:round; stroke-width:2; stroke-opacity:0.1; fill:none" points="219.866,211.029 2352.76,211.029 "/>
<polyline clip-path="url(#clip300)" style="stroke:#000000; stroke-linecap:round; stroke-linejoin:round; stroke-width:4; stroke-opacity:1; fill:none" points="219.866,1423.18 2352.76,1423.18 "/>
<polyline clip-path="url(#clip300)" style="stroke:#000000; stroke-linecap:round; stroke-linejoin:round; stroke-width:4; stroke-opacity:1; fill:none" points="672.923,1423.18 672.923,1404.28 "/>
<polyline clip-path="url(#clip300)" style="stroke:#000000; stroke-linecap:round; stroke-linejoin:round; stroke-width:4; stroke-opacity:1; fill:none" points="1212.75,1423.18 1212.75,1404.28 "/>
<polyline clip-path="url(#clip300)" style="stroke:#000000; stroke-linecap:round; stroke-linejoin:round; stroke-width:4; stroke-opacity:1; fill:none" points="1752.57,1423.18 1752.57,1404.28 "/>
<polyline clip-path="url(#clip300)" style="stroke:#000000; stroke-linecap:round; stroke-linejoin:round; stroke-width:4; stroke-opacity:1; fill:none" points="2292.39,1423.18 2292.39,1404.28 "/>
<path clip-path="url(#clip300)" d="M650.805 1454.1 Q647.194 1454.1 645.365 1457.66 Q643.559 1461.2 643.559 1468.33 Q643.559 1475.44 645.365 1479.01 Q647.194 1482.55 650.805 1482.55 Q654.439 1482.55 656.245 1479.01 Q658.073 1475.44 658.073 1468.33 Q658.073 1461.2 656.245 1457.66 Q654.439 1454.1 650.805 1454.1 M650.805 1450.39 Q656.615 1450.39 659.67 1455 Q662.749 1459.58 662.749 1468.33 Q662.749 1477.06 659.67 1481.67 Q656.615 1486.25 650.805 1486.25 Q644.995 1486.25 641.916 1481.67 Q638.86 1477.06 638.86 1468.33 Q638.86 1459.58 641.916 1455 Q644.995 1450.39 650.805 1450.39 Z" fill="#000000" fill-rule="nonzero" fill-opacity="1" /><path clip-path="url(#clip300)" d="M670.967 1479.7 L675.851 1479.7 L675.851 1485.58 L670.967 1485.58 L670.967 1479.7 Z" fill="#000000" fill-rule="nonzero" fill-opacity="1" /><path clip-path="url(#clip300)" d="M686.082 1451.02 L704.439 1451.02 L704.439 1454.96 L690.365 1454.96 L690.365 1463.43 Q691.383 1463.08 692.402 1462.92 Q693.42 1462.73 694.439 1462.73 Q700.226 1462.73 703.605 1465.9 Q706.985 1469.08 706.985 1474.49 Q706.985 1480.07 703.513 1483.17 Q700.041 1486.25 693.721 1486.25 Q691.545 1486.25 689.277 1485.88 Q687.031 1485.51 684.624 1484.77 L684.624 1480.07 Q686.707 1481.2 688.93 1481.76 Q691.152 1482.32 693.629 1482.32 Q697.633 1482.32 699.971 1480.21 Q702.309 1478.1 702.309 1474.49 Q702.309 1470.88 699.971 1468.77 Q697.633 1466.67 693.629 1466.67 Q691.754 1466.67 689.879 1467.08 Q688.027 1467.5 686.082 1468.38 L686.082 1451.02 Z" fill="#000000" fill-rule="nonzero" fill-opacity="1" /><path clip-path="url(#clip300)" d="M1179.9 1481.64 L1187.54 1481.64 L1187.54 1455.28 L1179.23 1456.95 L1179.23 1452.69 L1187.49 1451.02 L1192.17 1451.02 L1192.17 1481.64 L1199.81 1481.64 L1199.81 1485.58 L1179.9 1485.58 L1179.9 1481.64 Z" fill="#000000" fill-rule="nonzero" fill-opacity="1" /><path clip-path="url(#clip300)" d="M1209.25 1479.7 L1214.13 1479.7 L1214.13 1485.58 L1209.25 1485.58 L1209.25 1479.7 Z" fill="#000000" fill-rule="nonzero" fill-opacity="1" /><path clip-path="url(#clip300)" d="M1234.32 1454.1 Q1230.71 1454.1 1228.88 1457.66 Q1227.07 1461.2 1227.07 1468.33 Q1227.07 1475.44 1228.88 1479.01 Q1230.71 1482.55 1234.32 1482.55 Q1237.95 1482.55 1239.76 1479.01 Q1241.59 1475.44 1241.59 1468.33 Q1241.59 1461.2 1239.76 1457.66 Q1237.95 1454.1 1234.32 1454.1 M1234.32 1450.39 Q1240.13 1450.39 1243.19 1455 Q1246.26 1459.58 1246.26 1468.33 Q1246.26 1477.06 1243.19 1481.67 Q1240.13 1486.25 1234.32 1486.25 Q1228.51 1486.25 1225.43 1481.67 Q1222.38 1477.06 1222.38 1468.33 Q1222.38 1459.58 1225.43 1455 Q1228.51 1450.39 1234.32 1450.39 Z" fill="#000000" fill-rule="nonzero" fill-opacity="1" /><path clip-path="url(#clip300)" d="M1720.22 1481.64 L1727.86 1481.64 L1727.86 1455.28 L1719.55 1456.95 L1719.55 1452.69 L1727.81 1451.02 L1732.49 1451.02 L1732.49 1481.64 L1740.13 1481.64 L1740.13 1485.58 L1720.22 1485.58 L1720.22 1481.64 Z" fill="#000000" fill-rule="nonzero" fill-opacity="1" /><path clip-path="url(#clip300)" d="M1749.57 1479.7 L1754.45 1479.7 L1754.45 1485.58 L1749.57 1485.58 L1749.57 1479.7 Z" fill="#000000" fill-rule="nonzero" fill-opacity="1" /><path clip-path="url(#clip300)" d="M1764.69 1451.02 L1783.04 1451.02 L1783.04 1454.96 L1768.97 1454.96 L1768.97 1463.43 Q1769.99 1463.08 1771.01 1462.92 Q1772.02 1462.73 1773.04 1462.73 Q1778.83 1462.73 1782.21 1465.9 Q1785.59 1469.08 1785.59 1474.49 Q1785.59 1480.07 1782.12 1483.17 Q1778.64 1486.25 1772.33 1486.25 Q1770.15 1486.25 1767.88 1485.88 Q1765.64 1485.51 1763.23 1484.77 L1763.23 1480.07 Q1765.31 1481.2 1767.53 1481.76 Q1769.76 1482.32 1772.23 1482.32 Q1776.24 1482.32 1778.58 1480.21 Q1780.91 1478.1 1780.91 1474.49 Q1780.91 1470.88 1778.58 1468.77 Q1776.24 1466.67 1772.23 1466.67 Q1770.36 1466.67 1768.48 1467.08 Q1766.63 1467.5 1764.69 1468.38 L1764.69 1451.02 Z" fill="#000000" fill-rule="nonzero" fill-opacity="1" /><path clip-path="url(#clip300)" d="M2263.63 1481.64 L2279.95 1481.64 L2279.95 1485.58 L2258 1485.58 L2258 1481.64 Q2260.67 1478.89 2265.25 1474.26 Q2269.86 1469.61 2271.04 1468.27 Q2273.28 1465.74 2274.16 1464.01 Q2275.06 1462.25 2275.06 1460.56 Q2275.06 1457.8 2273.12 1456.07 Q2271.2 1454.33 2268.1 1454.33 Q2265.9 1454.33 2263.44 1455.09 Q2261.01 1455.86 2258.24 1457.41 L2258.24 1452.69 Q2261.06 1451.55 2263.51 1450.97 Q2265.97 1450.39 2268 1450.39 Q2273.38 1450.39 2276.57 1453.08 Q2279.76 1455.77 2279.76 1460.26 Q2279.76 1462.39 2278.95 1464.31 Q2278.17 1466.2 2276.06 1468.8 Q2275.48 1469.47 2272.38 1472.69 Q2269.28 1475.88 2263.63 1481.64 Z" fill="#000000" fill-rule="nonzero" fill-opacity="1" /><path clip-path="url(#clip300)" d="M2289.76 1479.7 L2294.65 1479.7 L2294.65 1485.58 L2289.76 1485.58 L2289.76 1479.7 Z" fill="#000000" fill-rule="nonzero" fill-opacity="1" /><path clip-path="url(#clip300)" d="M2314.83 1454.1 Q2311.22 1454.1 2309.39 1457.66 Q2307.59 1461.2 2307.59 1468.33 Q2307.59 1475.44 2309.39 1479.01 Q2311.22 1482.55 2314.83 1482.55 Q2318.47 1482.55 2320.27 1479.01 Q2322.1 1475.44 2322.1 1468.33 Q2322.1 1461.2 2320.27 1457.66 Q2318.47 1454.1 2314.83 1454.1 M2314.83 1450.39 Q2320.64 1450.39 2323.7 1455 Q2326.78 1459.58 2326.78 1468.33 Q2326.78 1477.06 2323.7 1481.67 Q2320.64 1486.25 2314.83 1486.25 Q2309.02 1486.25 2305.94 1481.67 Q2302.89 1477.06 2302.89 1468.33 Q2302.89 1459.58 2305.94 1455 Q2309.02 1450.39 2314.83 1450.39 Z" fill="#000000" fill-rule="nonzero" fill-opacity="1" /><path clip-path="url(#clip300)" d="M1250.19 1520.52 L1256.62 1520.52 L1256.62 1540.61 L1277.94 1520.52 L1286.22 1520.52 L1262.63 1542.68 L1287.9 1568.04 L1279.44 1568.04 L1256.62 1545.16 L1256.62 1568.04 L1250.19 1568.04 L1250.19 1520.52 Z" fill="#000000" fill-rule="nonzero" fill-opacity="1" /><path clip-path="url(#clip300)" d="M1291.88 1520.52 L1322.44 1520.52 L1322.44 1523.26 L1305.19 1568.04 L1298.47 1568.04 L1314.7 1525.93 L1291.88 1525.93 L1291.88 1520.52 Z" fill="#000000" fill-rule="nonzero" fill-opacity="1" /><polyline clip-path="url(#clip300)" style="stroke:#000000; stroke-linecap:round; stroke-linejoin:round; stroke-width:4; stroke-opacity:1; fill:none" points="219.866,1423.18 219.866,47.2441 "/>
<polyline clip-path="url(#clip300)" style="stroke:#000000; stroke-linecap:round; stroke-linejoin:round; stroke-width:4; stroke-opacity:1; fill:none" points="219.866,1384.9 238.764,1384.9 "/>
<polyline clip-path="url(#clip300)" style="stroke:#000000; stroke-linecap:round; stroke-linejoin:round; stroke-width:4; stroke-opacity:1; fill:none" points="219.866,1091.44 238.764,1091.44 "/>
<polyline clip-path="url(#clip300)" style="stroke:#000000; stroke-linecap:round; stroke-linejoin:round; stroke-width:4; stroke-opacity:1; fill:none" points="219.866,797.966 238.764,797.966 "/>
<polyline clip-path="url(#clip300)" style="stroke:#000000; stroke-linecap:round; stroke-linejoin:round; stroke-width:4; stroke-opacity:1; fill:none" points="219.866,504.498 238.764,504.498 "/>
<polyline clip-path="url(#clip300)" style="stroke:#000000; stroke-linecap:round; stroke-linejoin:round; stroke-width:4; stroke-opacity:1; fill:none" points="219.866,211.029 238.764,211.029 "/>
<path clip-path="url(#clip300)" d="M126.691 1370.7 Q123.08 1370.7 121.251 1374.27 Q119.445 1377.81 119.445 1384.94 Q119.445 1392.05 121.251 1395.61 Q123.08 1399.15 126.691 1399.15 Q130.325 1399.15 132.13 1395.61 Q133.959 1392.05 133.959 1384.94 Q133.959 1377.81 132.13 1374.27 Q130.325 1370.7 126.691 1370.7 M126.691 1367 Q132.501 1367 135.556 1371.61 Q138.635 1376.19 138.635 1384.94 Q138.635 1393.67 135.556 1398.27 Q132.501 1402.86 126.691 1402.86 Q120.88 1402.86 117.802 1398.27 Q114.746 1393.67 114.746 1384.94 Q114.746 1376.19 117.802 1371.61 Q120.88 1367 126.691 1367 Z" fill="#000000" fill-rule="nonzero" fill-opacity="1" /><path clip-path="url(#clip300)" d="M146.853 1396.3 L151.737 1396.3 L151.737 1402.18 L146.853 1402.18 L146.853 1396.3 Z" fill="#000000" fill-rule="nonzero" fill-opacity="1" /><path clip-path="url(#clip300)" d="M171.922 1370.7 Q168.311 1370.7 166.482 1374.27 Q164.677 1377.81 164.677 1384.94 Q164.677 1392.05 166.482 1395.61 Q168.311 1399.15 171.922 1399.15 Q175.556 1399.15 177.362 1395.61 Q179.19 1392.05 179.19 1384.94 Q179.19 1377.81 177.362 1374.27 Q175.556 1370.7 171.922 1370.7 M171.922 1367 Q177.732 1367 180.788 1371.61 Q183.866 1376.19 183.866 1384.94 Q183.866 1393.67 180.788 1398.27 Q177.732 1402.86 171.922 1402.86 Q166.112 1402.86 163.033 1398.27 Q159.978 1393.67 159.978 1384.94 Q159.978 1376.19 163.033 1371.61 Q166.112 1367 171.922 1367 Z" fill="#000000" fill-rule="nonzero" fill-opacity="1" /><path clip-path="url(#clip300)" d="M128.288 1077.23 Q124.677 1077.23 122.848 1080.8 Q121.043 1084.34 121.043 1091.47 Q121.043 1098.58 122.848 1102.14 Q124.677 1105.68 128.288 1105.68 Q131.922 1105.68 133.728 1102.14 Q135.556 1098.58 135.556 1091.47 Q135.556 1084.34 133.728 1080.8 Q131.922 1077.23 128.288 1077.23 M128.288 1073.53 Q134.098 1073.53 137.154 1078.14 Q140.232 1082.72 140.232 1091.47 Q140.232 1100.2 137.154 1104.8 Q134.098 1109.39 128.288 1109.39 Q122.478 1109.39 119.399 1104.8 Q116.343 1100.2 116.343 1091.47 Q116.343 1082.72 119.399 1078.14 Q122.478 1073.53 128.288 1073.53 Z" fill="#000000" fill-rule="nonzero" fill-opacity="1" /><path clip-path="url(#clip300)" d="M148.45 1102.84 L153.334 1102.84 L153.334 1108.72 L148.45 1108.72 L148.45 1102.84 Z" fill="#000000" fill-rule="nonzero" fill-opacity="1" /><path clip-path="url(#clip300)" d="M167.547 1104.78 L183.866 1104.78 L183.866 1108.72 L161.922 1108.72 L161.922 1104.78 Q164.584 1102.03 169.167 1097.4 Q173.774 1092.74 174.954 1091.4 Q177.2 1088.88 178.079 1087.14 Q178.982 1085.38 178.982 1083.69 Q178.982 1080.94 177.038 1079.2 Q175.116 1077.47 172.014 1077.47 Q169.815 1077.47 167.362 1078.23 Q164.931 1078.99 162.153 1080.54 L162.153 1075.82 Q164.977 1074.69 167.431 1074.11 Q169.885 1073.53 171.922 1073.53 Q177.292 1073.53 180.487 1076.22 Q183.681 1078.9 183.681 1083.39 Q183.681 1085.52 182.871 1087.44 Q182.084 1089.34 179.977 1091.93 Q179.399 1092.6 176.297 1095.82 Q173.195 1099.02 167.547 1104.78 Z" fill="#000000" fill-rule="nonzero" fill-opacity="1" /><path clip-path="url(#clip300)" d="M126.205 783.765 Q122.593 783.765 120.765 787.33 Q118.959 790.872 118.959 798.001 Q118.959 805.108 120.765 808.672 Q122.593 812.214 126.205 812.214 Q129.839 812.214 131.644 808.672 Q133.473 805.108 133.473 798.001 Q133.473 790.872 131.644 787.33 Q129.839 783.765 126.205 783.765 M126.205 780.061 Q132.015 780.061 135.07 784.668 Q138.149 789.251 138.149 798.001 Q138.149 806.728 135.07 811.334 Q132.015 815.918 126.205 815.918 Q120.394 815.918 117.316 811.334 Q114.26 806.728 114.26 798.001 Q114.26 789.251 117.316 784.668 Q120.394 780.061 126.205 780.061 Z" fill="#000000" fill-rule="nonzero" fill-opacity="1" /><path clip-path="url(#clip300)" d="M146.366 809.367 L151.251 809.367 L151.251 815.246 L146.366 815.246 L146.366 809.367 Z" fill="#000000" fill-rule="nonzero" fill-opacity="1" /><path clip-path="url(#clip300)" d="M174.283 784.761 L162.477 803.209 L174.283 803.209 L174.283 784.761 M173.056 780.686 L178.936 780.686 L178.936 803.209 L183.866 803.209 L183.866 807.098 L178.936 807.098 L178.936 815.246 L174.283 815.246 L174.283 807.098 L158.681 807.098 L158.681 802.585 L173.056 780.686 Z" fill="#000000" fill-rule="nonzero" fill-opacity="1" /><path clip-path="url(#clip300)" d="M126.529 490.296 Q122.918 490.296 121.089 493.861 Q119.283 497.403 119.283 504.532 Q119.283 511.639 121.089 515.204 Q122.918 518.745 126.529 518.745 Q130.163 518.745 131.968 515.204 Q133.797 511.639 133.797 504.532 Q133.797 497.403 131.968 493.861 Q130.163 490.296 126.529 490.296 M126.529 486.593 Q132.339 486.593 135.394 491.199 Q138.473 495.782 138.473 504.532 Q138.473 513.259 135.394 517.866 Q132.339 522.449 126.529 522.449 Q120.718 522.449 117.64 517.866 Q114.584 513.259 114.584 504.532 Q114.584 495.782 117.64 491.199 Q120.718 486.593 126.529 486.593 Z" fill="#000000" fill-rule="nonzero" fill-opacity="1" /><path clip-path="url(#clip300)" d="M146.691 515.898 L151.575 515.898 L151.575 521.778 L146.691 521.778 L146.691 515.898 Z" fill="#000000" fill-rule="nonzero" fill-opacity="1" /><path clip-path="url(#clip300)" d="M172.339 502.634 Q169.19 502.634 167.339 504.787 Q165.51 506.94 165.51 510.69 Q165.51 514.417 167.339 516.592 Q169.19 518.745 172.339 518.745 Q175.487 518.745 177.315 516.592 Q179.167 514.417 179.167 510.69 Q179.167 506.94 177.315 504.787 Q175.487 502.634 172.339 502.634 M181.621 487.981 L181.621 492.241 Q179.862 491.407 178.056 490.968 Q176.274 490.528 174.514 490.528 Q169.885 490.528 167.431 493.653 Q165.001 496.778 164.653 503.097 Q166.019 501.083 168.079 500.018 Q170.139 498.93 172.616 498.93 Q177.825 498.93 180.834 502.102 Q183.866 505.25 183.866 510.69 Q183.866 516.014 180.718 519.231 Q177.57 522.449 172.339 522.449 Q166.343 522.449 163.172 517.866 Q160.001 513.259 160.001 504.532 Q160.001 496.338 163.89 491.477 Q167.778 486.593 174.329 486.593 Q176.089 486.593 177.871 486.94 Q179.676 487.287 181.621 487.981 Z" fill="#000000" fill-rule="nonzero" fill-opacity="1" /><path clip-path="url(#clip300)" d="M126.783 196.827 Q123.172 196.827 121.343 200.392 Q119.538 203.934 119.538 211.063 Q119.538 218.17 121.343 221.735 Q123.172 225.276 126.783 225.276 Q130.417 225.276 132.223 221.735 Q134.052 218.17 134.052 211.063 Q134.052 203.934 132.223 200.392 Q130.417 196.827 126.783 196.827 M126.783 193.124 Q132.593 193.124 135.649 197.73 Q138.728 202.313 138.728 211.063 Q138.728 219.79 135.649 224.397 Q132.593 228.98 126.783 228.98 Q120.973 228.98 117.894 224.397 Q114.839 219.79 114.839 211.063 Q114.839 202.313 117.894 197.73 Q120.973 193.124 126.783 193.124 Z" fill="#000000" fill-rule="nonzero" fill-opacity="1" /><path clip-path="url(#clip300)" d="M146.945 222.429 L151.829 222.429 L151.829 228.309 L146.945 228.309 L146.945 222.429 Z" fill="#000000" fill-rule="nonzero" fill-opacity="1" /><path clip-path="url(#clip300)" d="M172.014 211.897 Q168.681 211.897 166.76 213.679 Q164.862 215.462 164.862 218.587 Q164.862 221.712 166.76 223.494 Q168.681 225.276 172.014 225.276 Q175.348 225.276 177.269 223.494 Q179.19 221.688 179.19 218.587 Q179.19 215.462 177.269 213.679 Q175.371 211.897 172.014 211.897 M167.339 209.906 Q164.329 209.165 162.64 207.105 Q160.973 205.045 160.973 202.082 Q160.973 197.939 163.913 195.531 Q166.876 193.124 172.014 193.124 Q177.176 193.124 180.116 195.531 Q183.056 197.939 183.056 202.082 Q183.056 205.045 181.366 207.105 Q179.7 209.165 176.714 209.906 Q180.093 210.693 181.968 212.985 Q183.866 215.276 183.866 218.587 Q183.866 223.61 180.788 226.295 Q177.732 228.98 172.014 228.98 Q166.297 228.98 163.218 226.295 Q160.163 223.61 160.163 218.587 Q160.163 215.276 162.061 212.985 Q163.959 210.693 167.339 209.906 M165.626 202.522 Q165.626 205.207 167.292 206.712 Q168.982 208.216 172.014 208.216 Q175.024 208.216 176.714 206.712 Q178.426 205.207 178.426 202.522 Q178.426 199.837 176.714 198.332 Q175.024 196.827 172.014 196.827 Q168.982 196.827 167.292 198.332 Q165.626 199.837 165.626 202.522 Z" fill="#000000" fill-rule="nonzero" fill-opacity="1" /><path clip-path="url(#clip300)" d="M16.4842 833.244 L16.4842 805.935 L21.895 805.935 L21.895 826.814 L35.8996 826.814 L35.8996 807.972 L41.3104 807.972 L41.3104 826.814 L64.0042 826.814 L64.0042 833.244 L16.4842 833.244 Z" fill="#000000" fill-rule="nonzero" fill-opacity="1" /><path clip-path="url(#clip300)" d="M41.7242 773.215 Q42.4244 771.146 44.7161 769.205 Q47.0077 767.231 51.0181 765.258 L64.0042 758.733 L64.0042 765.64 L51.8138 771.719 Q47.0395 774.075 45.48 776.303 Q43.9204 778.499 43.9204 782.318 L43.9204 789.32 L64.0042 789.32 L64.0042 795.75 L16.4842 795.75 L16.4842 781.236 Q16.4842 773.088 19.8898 769.078 Q23.2955 765.067 30.1704 765.067 Q34.6582 765.067 37.6183 767.168 Q40.5784 769.237 41.7242 773.215 M21.7677 789.32 L38.6368 789.32 L38.6368 781.236 Q38.6368 776.589 36.5043 774.234 Q34.34 771.847 30.1704 771.847 Q26.0009 771.847 23.9002 774.234 Q21.7677 776.589 21.7677 781.236 L21.7677 789.32 Z" fill="#000000" fill-rule="nonzero" fill-opacity="1" /><path clip-path="url(#clip300)" d="M20.8447 731.17 Q20.8447 738.172 26.0645 742.31 Q31.2844 746.416 40.2919 746.416 Q49.2675 746.416 54.4874 742.31 Q59.7073 738.172 59.7073 731.17 Q59.7073 724.167 54.4874 720.093 Q49.2675 715.988 40.2919 715.988 Q31.2844 715.988 26.0645 720.093 Q20.8447 724.167 20.8447 731.17 M63.1448 722.162 L72.4069 713.696 L72.4069 721.462 L64.7999 728.496 Q64.8635 729.546 64.8954 730.119 Q64.9272 730.66 64.9272 731.17 Q64.9272 741.196 58.2432 747.211 Q51.5274 753.195 40.2919 753.195 Q29.0246 753.195 22.3406 747.211 Q15.6248 741.196 15.6248 731.17 Q15.6248 721.176 22.3406 715.192 Q29.0246 709.208 40.2919 709.208 Q48.5673 709.208 54.4556 712.55 Q60.3439 715.86 63.1448 722.162 Z" fill="#000000" fill-rule="nonzero" fill-opacity="1" /><path clip-path="url(#clip300)" d="M74.8259 672.319 L79.3773 672.319 L79.3773 706.184 L74.8259 706.184 L74.8259 672.319 Z" fill="#000000" fill-rule="nonzero" fill-opacity="1" /><path clip-path="url(#clip300)" d="M42.4881 637.18 L64.0042 637.18 L64.0042 643.037 L42.679 643.037 Q37.6183 643.037 35.1038 645.01 Q32.5894 646.983 32.5894 650.93 Q32.5894 655.672 35.6131 658.41 Q38.6368 661.147 43.8567 661.147 L64.0042 661.147 L64.0042 667.035 L28.3562 667.035 L28.3562 661.147 L33.8944 661.147 Q30.6797 659.046 29.0883 656.214 Q27.4968 653.349 27.4968 649.625 Q27.4968 643.482 31.3163 640.331 Q35.1038 637.18 42.4881 637.18 Z" fill="#000000" fill-rule="nonzero" fill-opacity="1" /><polyline clip-path="url(#clip302)" style="stroke:#009af9; stroke-linecap:round; stroke-linejoin:round; stroke-width:4; stroke-opacity:1; fill:none" points="332.922,1375.61 331.612,1375.86 330.366,1376.11 329.19,1376.35 328.087,1376.59 327.064,1376.82 326.124,1377.05 325.273,1377.27 324.516,1377.49 323.857,1377.7 323.301,1377.9 322.851,1378.1 322.511,1378.29 322.284,1378.48 322.17,1378.66 322.173,1378.65 322.29,1378.47 322.522,1378.29 322.866,1378.09 323.32,1377.89 323.881,1377.69 324.544,1377.48 325.305,1377.26 326.159,1377.04 327.102,1376.81 328.129,1376.58 329.234,1376.34 330.413,1376.1 331.662,1375.85 332.975,1375.6 334.349,1375.34 335.779,1375.07 337.261,1374.8 338.793,1374.52 340.371,1374.23 341.991,1373.94 343.651,1373.64 345.348,1373.33 347.08,1373.02 348.844,1372.7 350.639,1372.37 352.462,1372.02 354.312,1371.67 356.186,1371.31 358.084,1370.94 360.003,1370.56 361.943,1370.16 363.902,1369.75 365.88,1369.32 367.874,1368.88 369.884,1368.43 371.908,1367.95 373.947,1367.46 375.999,1366.94 378.064,1366.41 380.14,1365.85 382.227,1365.26 384.325,1364.65 386.432,1364.01 388.548,1363.34 390.673,1362.63 392.806,1361.88 394.946,1361.1 397.093,1360.27 399.246,1359.4 401.406,1358.47 403.57,1357.49 405.74,1356.45 407.914,1355.35 410.092,1354.18 412.273,1352.92 414.457,1351.59 416.644,1350.17 418.832,1348.65 421.02,1347.02 423.209,1345.29 425.398,1343.42 427.585,1341.42 429.77,1339.29 431.953,1337 434.132,1334.54 436.306,1331.91 438.474,1329.11 440.637,1326.1 442.792,1322.88 444.939,1319.46 447.077,1315.82 449.205,1311.97 451.324,1307.88 453.432,1303.56 455.529,1299.01 457.614,1294.25 459.689,1289.27 461.753,1284.09 463.806,1278.72 465.849,1273.16 467.882,1267.42 469.905,1261.53 471.92,1255.48 473.927,1249.29 475.928,1242.97 477.921,1236.55 479.909,1230.02 481.892,1223.42 483.872,1216.73 485.847,1209.98 487.821,1203.18 489.792,1196.33 491.761,1189.44 493.731,1182.5 495.699,1175.53 497.669,1168.54 499.639,1161.53 501.61,1154.51 503.583,1147.48 505.559,1140.44 507.537,1133.4 509.517,1126.37 511.502,1119.33 513.49,1112.31 515.481,1105.29 517.477,1098.28 519.478,1091.28 521.483,1084.3 523.493,1077.33 525.509,1070.38 527.53,1063.45 529.556,1056.54 531.589,1049.64 533.627,1042.77 535.671,1035.92 537.722,1029.09 539.78,1022.28 541.844,1015.49 543.915,1008.73 545.993,1002 548.078,995.287 550.17,988.601 552.269,981.942 554.376,975.308 556.491,968.701 558.613,962.121 560.743,955.569 562.881,949.044 565.027,942.547 567.18,936.078 569.342,929.637 571.512,923.225 573.691,916.842 575.878,910.488 578.073,904.164 580.277,897.869 582.489,891.603 584.71,885.368 586.94,879.162 589.178,872.987 591.426,866.842 593.682,860.727 595.947,854.643 598.221,848.59 600.505,842.568 602.797,836.576 605.099,830.616 607.409,824.687 609.729,818.789 612.059,812.923 614.397,807.088 616.745,801.285 619.103,795.513 621.469,789.773 623.846,784.065 626.232,778.389 628.627,772.744 631.032,767.132 633.446,761.551 635.87,756.003 638.304,750.487 640.747,745.003 643.2,739.551 645.663,734.131 648.135,728.744 650.617,723.388 653.109,718.065 655.611,712.775 658.122,707.516 660.644,702.29 663.175,697.096 665.716,691.934 668.266,686.805 670.827,681.708 673.397,676.643 675.977,671.611 678.567,666.611 681.167,661.643 683.777,656.707 686.396,651.803 689.025,646.932 691.665,642.092 694.314,637.285 696.972,632.509 699.641,627.766 702.32,623.054 705.008,618.375 707.706,613.727 710.414,609.111 713.132,604.527 715.859,599.974 718.597,595.453 721.344,590.963 724.1,586.505 726.867,582.078 729.643,577.683 732.429,573.318 735.225,568.985 738.03,564.683 740.845,560.412 743.669,556.172 746.504,551.962 749.347,547.784 752.201,543.635 755.063,539.518 757.936,535.431 760.818,531.374 763.709,527.347 766.61,523.351 769.52,519.384 772.44,515.447 775.368,511.541 778.307,507.664 781.254,503.816 784.211,499.998 787.177,496.209 790.153,492.449 793.137,488.719 796.131,485.017 799.134,481.345 802.146,477.701 805.167,474.086 808.197,470.499 811.236,466.94 814.284,463.41 817.341,459.908 820.407,456.434 823.481,452.987 826.565,449.569 829.657,446.178 832.758,442.814 835.868,439.477 838.987,436.168 842.114,432.886 845.249,429.63 848.394,426.402 851.546,423.2 854.708,420.024 857.877,416.874 861.056,413.751 864.242,410.654 867.437,407.583 870.64,404.537 873.851,401.517 877.071,398.522 880.299,395.553 883.535,392.609 886.778,389.689 890.03,386.795 893.29,383.908 896.558,381.043 899.834,378.202 903.118,375.385 906.409,372.592 909.709,369.823 913.016,367.077 916.331,364.355 919.653,361.657 922.983,358.981 926.321,356.329 929.666,353.699 933.018,351.092 936.378,348.508 939.746,345.947 943.121,343.407 946.503,340.89 949.892,338.395 953.289,335.922 956.692,333.47 960.103,331.04 963.521,328.631 966.946,326.244 970.378,323.878 973.817,321.533 977.263,319.208 980.716,316.905 984.176,314.621 987.642,312.359 991.115,310.116 994.595,307.894 998.081,305.691 1001.57,303.508 1005.07,301.345 1008.58,299.202 1012.09,297.078 1015.61,294.973 1019.14,292.887 1022.67,290.82 1026.21,288.772 1029.75,286.743 1033.3,284.732 1036.86,282.739 1040.42,280.765 1043.99,278.808 1047.57,276.87 1051.15,274.95 1054.73,273.047 1058.33,271.162 1061.93,269.294 1065.53,267.443 1069.14,265.61 1072.76,263.794 1076.38,261.994 1080.01,260.211 1083.64,258.445 1087.28,256.695 1090.92,254.962 1094.57,253.245 1098.23,251.544 1101.89,249.859 1105.56,248.189 1109.23,246.536 1112.91,244.898 1116.59,243.26 1120.28,241.631 1123.97,240.016 1127.67,238.416 1131.37,236.831 1135.08,235.261 1138.79,233.706 1142.51,232.165 1146.23,230.639 1149.96,229.127 1153.69,227.629 1157.43,226.145 1161.17,224.675 1164.92,223.219 1168.67,221.777 1172.43,220.348 1176.19,218.933 1179.96,217.531 1183.73,216.142 1187.51,214.767 1191.29,213.404 1195.07,212.055 1198.86,210.718 1202.65,209.394 1206.45,208.083 1210.25,206.784 1214.06,205.498 1217.87,204.224 1221.69,202.962 1225.5,201.712 1229.33,200.474 1233.16,199.248 1236.99,198.034 1240.82,196.832 1244.66,195.641 1248.51,194.461 1252.36,193.293 1256.21,192.136 1260.06,190.991 1263.92,189.856 1267.79,188.733 1271.66,187.62 1275.53,186.518 1279.4,185.427 1283.28,184.347 1287.16,183.277 1291.05,182.217 1294.94,181.168 1298.83,180.129 1302.73,179.1 1306.63,178.081 1310.54,177.073 1314.45,176.074 1318.36,175.085 1322.27,174.105 1326.19,173.136 1330.11,172.176 1334.04,171.225 1337.97,170.284 1341.9,169.352 1345.83,168.429 1349.77,167.515 1353.71,166.611 1357.66,165.715 1361.61,164.829 1365.56,163.951 1369.51,163.082 1373.47,162.219 1377.43,161.346 1381.4,160.482 1385.36,159.625 1389.33,158.778 1393.31,157.938 1397.28,157.107 1401.26,156.284 1405.24,155.469 1409.23,154.662 1413.22,153.863 1417.21,153.072 1421.2,152.288 1425.2,151.513 1429.2,150.745 1433.2,149.984 1437.2,149.231 1441.21,148.486 1445.22,147.748 1449.23,147.018 1453.25,146.294 1457.27,145.578 1461.29,144.869 1465.31,144.167 1469.34,143.472 1473.36,142.785 1477.4,142.104 1481.43,141.429 1485.46,140.762 1489.5,140.101 1493.54,139.447 1497.59,138.8 1501.63,138.159 1505.68,137.525 1509.73,136.897 1513.78,136.275 1517.84,135.66 1521.9,135.051 1525.96,134.448 1530.02,133.852 1534.08,133.261 1538.15,132.677 1542.22,132.098 1546.29,131.526 1550.36,130.959 1554.44,130.398 1558.52,129.843 1562.6,129.294 1566.68,128.75 1570.76,128.212 1574.85,127.68 1578.94,127.153 1583.03,126.632 1587.12,126.116 1591.21,125.605 1595.31,125.1 1599.41,124.6 1603.51,124.105 1607.61,123.616 1611.72,123.132 1615.82,122.652 1619.93,122.178 1624.04,121.709 1628.15,121.245 1632.27,120.786 1636.38,120.331 1640.5,119.882 1644.62,119.437 1648.74,118.997 1652.86,118.562 1656.99,118.132 1661.11,117.706 1665.24,117.285 1669.37,116.868 1673.5,116.456 1677.64,116.048 1681.77,115.645 1685.91,115.246 1690.05,114.851 1694.19,114.46 1698.33,114.056 1702.47,113.655 1706.62,113.259 1710.76,112.868 1714.91,112.48 1719.06,112.097 1723.21,111.717 1727.37,111.342 1731.52,110.97 1735.68,110.603 1739.83,110.24 1743.99,109.88 1748.15,109.524 1752.32,109.173 1756.48,108.825 1760.64,108.481 1764.81,108.14 1768.98,107.803 1773.15,107.47 1777.32,107.141 1781.49,106.815 1785.67,106.493 1789.84,106.175 1794.02,105.86 1798.19,105.548 1802.37,105.24 1806.55,104.935 1810.74,104.634 1814.92,104.336 1819.1,104.042 1823.29,103.75 1827.48,103.463 1831.66,103.178 1835.85,102.897 1840.04,102.618 1844.24,102.343 1848.43,102.072 1852.62,101.803 1856.82,101.537 1861.02,101.275 1865.22,101.015 1869.42,100.759 1873.62,100.506 1877.82,100.255 1882.02,100.008 1886.23,99.7629 1890.43,99.5213 1894.64,99.2824 1898.84,99.0465 1903.05,98.8133 1907.26,98.583 1911.47,98.3554 1915.69,98.1306 1919.9,97.9085 1924.11,97.6891 1928.33,97.4724 1932.55,97.2584 1936.76,97.047 1940.98,96.8382 1945.2,96.6321 1949.42,96.4285 1953.64,96.2274 1957.87,96.0289 1962.09,95.8329 1966.32,95.6393 1970.54,95.4483 1974.77,95.2596 1979,95.0734 1983.22,94.8896 1987.45,94.7082 1991.69,94.5292 1995.92,94.3525 2000.15,94.1781 2004.38,94.006 2008.62,93.8362 2012.85,93.6687 2017.09,93.5034 2021.33,93.3404 2025.56,93.1796 2029.8,93.0209 2034.04,92.8644 2038.28,92.7101 2042.53,92.5579 2046.77,92.4079 2051.01,92.2599 2055.26,92.114 2059.5,91.9702 2063.75,91.8284 2067.99,91.6887 2072.24,91.551 2076.49,91.4152 2080.74,91.2815 2084.99,91.1497 2089.24,91.0199 2093.49,90.892 2097.75,90.766 2102,90.6419 2106.25,90.5197 2110.51,90.3993 2114.77,90.2657 2119.02,90.1339 2123.28,90.004 2127.54,89.8759 2131.8,89.7496 2136.06,89.6251 2140.32,89.5024 2144.58,89.3815 2148.84,89.2623 2153.1,89.1449 2157.37,89.0291 2161.63,88.9151 2165.89,88.8028 2170.16,88.6922 2174.43,88.5833 2178.69,88.476 2182.96,88.3703 2187.23,88.2663 2191.5,88.1639 2195.77,88.0631 2200.04,87.9639 2204.31,87.8662 2208.58,87.7702 2212.85,87.6756 2217.13,87.5826 2221.4,87.4912 2225.68,87.4012 2229.95,87.3128 2234.23,87.2258 2238.5,87.1404 2242.78,87.0564 2247.06,86.9738 2251.34,86.8927 2255.61,86.813 2259.89,86.7347 2264.17,86.6578 2268.45,86.5824 2272.74,86.5083 2277.02,86.4356 2281.3,86.3642 2285.58,86.2942 2289.87,86.2255 2292.39,86.1857 "/>
<polyline clip-path="url(#clip302)" style="stroke:#e26f46; stroke-linecap:round; stroke-linejoin:round; stroke-width:4; stroke-opacity:1; fill:none" points="332.922,1380.62 331.612,1380.53 330.366,1380.43 329.19,1380.33 328.087,1380.22 327.064,1380.11 326.124,1379.99 325.273,1379.87 324.516,1379.74 323.857,1379.6 323.301,1379.46 322.851,1379.31 322.511,1379.16 322.284,1378.99 322.17,1378.83 322.173,1378.83 322.29,1379 322.522,1379.16 322.866,1379.32 323.32,1379.46 323.881,1379.61 324.544,1379.74 325.305,1379.87 326.159,1379.99 327.102,1380.11 328.129,1380.22 329.234,1380.33 330.413,1380.43 331.662,1380.53 332.975,1380.62 334.349,1380.71 335.779,1380.8 337.261,1380.88 338.793,1380.95 340.371,1381.03 341.991,1381.1 343.651,1381.16 345.348,1381.23 347.08,1381.29 348.844,1381.35 350.639,1381.41 352.462,1381.46 354.312,1381.51 356.186,1381.56 358.084,1381.61 360.003,1381.65 361.943,1381.7 363.902,1381.74 365.88,1381.78 367.874,1381.82 369.884,1381.86 371.908,1381.89 373.947,1381.93 375.999,1381.96 378.064,1381.99 380.14,1382.02 382.227,1382.05 384.325,1382.08 386.432,1382.11 388.548,1382.13 390.673,1382.16 392.806,1382.18 394.946,1382.2 397.093,1382.22 399.246,1382.25 401.406,1382.27 403.57,1382.29 405.74,1382.3 407.914,1382.32 410.092,1382.34 412.273,1382.35 414.457,1382.37 416.644,1382.38 418.832,1382.4 421.02,1382.41 423.209,1382.42 425.398,1382.43 427.585,1382.45 429.77,1382.46 431.953,1382.46 434.132,1382.47 436.306,1382.48 438.474,1382.49 440.637,1382.49 442.792,1382.5 444.939,1382.5 447.077,1382.51 449.205,1382.51 451.324,1382.51 453.432,1382.51 455.529,1382.51 457.614,1382.51 459.689,1382.51 461.753,1382.51 463.806,1382.51 465.849,1382.51 467.882,1382.5 469.905,1382.5 471.92,1382.49 473.927,1382.49 475.928,1382.48 477.921,1382.48 479.909,1382.47 481.892,1382.47 483.872,1382.46 485.847,1382.45 487.821,1382.45 489.792,1382.44 491.761,1382.43 493.731,1382.42 495.699,1382.41 497.669,1382.41 499.639,1382.4 501.61,1382.39 503.583,1382.38 505.559,1382.37 507.537,1382.36 509.517,1382.35 511.502,1382.34 513.49,1382.33 515.481,1382.32 517.477,1382.31 519.478,1382.3 521.483,1382.29 523.493,1382.28 525.509,1382.27 527.53,1382.26 529.556,1382.25 531.589,1382.24 533.627,1382.23 535.671,1382.22 537.722,1382.21 539.78,1382.2 541.844,1382.19 543.915,1382.18 545.993,1382.17 548.078,1382.16 550.17,1382.15 552.269,1382.14 554.376,1382.12 556.491,1382.11 558.613,1382.1 560.743,1382.09 562.881,1382.08 565.027,1382.07 567.18,1382.06 569.342,1382.05 571.512,1382.04 573.691,1382.02 575.878,1382.01 578.073,1382 580.277,1381.99 582.489,1381.98 584.71,1381.97 586.94,1381.96 589.178,1381.94 591.426,1381.93 593.682,1381.92 595.947,1381.91 598.221,1381.9 600.505,1381.89 602.797,1381.88 605.099,1381.87 607.409,1381.85 609.729,1381.84 612.059,1381.83 614.397,1381.82 616.745,1381.81 619.103,1381.8 621.469,1381.78 623.846,1381.77 626.232,1381.76 628.627,1381.75 631.032,1381.74 633.446,1381.72 635.87,1381.71 638.304,1381.7 640.747,1381.69 643.2,1381.68 645.663,1381.67 648.135,1381.65 650.617,1381.64 653.109,1381.63 655.611,1381.62 658.122,1381.61 660.644,1381.6 663.175,1381.58 665.716,1381.57 668.266,1381.56 670.827,1381.55 673.397,1381.54 675.977,1381.53 678.567,1381.51 681.167,1381.5 683.777,1381.49 686.396,1381.48 689.025,1381.47 691.665,1381.45 694.314,1381.44 696.972,1381.43 699.641,1381.42 702.32,1381.41 705.008,1381.39 707.706,1381.38 710.414,1381.37 713.132,1381.36 715.859,1381.35 718.597,1381.33 721.344,1381.32 724.1,1381.31 726.867,1381.3 729.643,1381.29 732.429,1381.28 735.225,1381.26 738.03,1381.25 740.845,1381.24 743.669,1381.23 746.504,1381.22 749.347,1381.2 752.201,1381.19 755.063,1381.18 757.936,1381.17 760.818,1381.16 763.709,1381.15 766.61,1381.13 769.52,1381.12 772.44,1381.11 775.368,1381.1 778.307,1381.09 781.254,1381.08 784.211,1381.06 787.177,1381.05 790.153,1381.04 793.137,1381.03 796.131,1381.02 799.134,1381.01 802.146,1380.99 805.167,1380.98 808.197,1380.97 811.236,1380.96 814.284,1380.95 817.341,1380.94 820.407,1380.93 823.481,1380.91 826.565,1380.9 829.657,1380.89 832.758,1380.88 835.868,1380.87 838.987,1380.86 842.114,1380.84 845.249,1380.83 848.394,1380.82 851.546,1380.81 854.708,1380.8 857.877,1380.79 861.056,1380.78 864.242,1380.77 867.437,1380.75 870.64,1380.74 873.851,1380.73 877.071,1380.72 880.299,1380.71 883.535,1380.7 886.778,1380.69 890.03,1380.68 893.29,1380.66 896.558,1380.65 899.834,1380.64 903.118,1380.63 906.409,1380.62 909.709,1380.61 913.016,1380.6 916.331,1380.59 919.653,1380.58 922.983,1380.56 926.321,1380.55 929.666,1380.54 933.018,1380.53 936.378,1380.52 939.746,1380.51 943.121,1380.5 946.503,1380.49 949.892,1380.48 953.289,1380.47 956.692,1380.46 960.103,1380.44 963.521,1380.43 966.946,1380.42 970.378,1380.41 973.817,1380.4 977.263,1380.39 980.716,1380.38 984.176,1380.37 987.642,1380.36 991.115,1380.35 994.595,1380.34 998.081,1380.33 1001.57,1380.32 1005.07,1380.31 1008.58,1380.3 1012.09,1380.29 1015.61,1380.28 1019.14,1380.27 1022.67,1380.26 1026.21,1380.25 1029.75,1380.24 1033.3,1380.23 1036.86,1380.22 1040.42,1380.21 1043.99,1380.2 1047.57,1380.19 1051.15,1380.18 1054.73,1380.17 1058.33,1380.16 1061.93,1380.15 1065.53,1380.14 1069.14,1380.13 1072.76,1380.12 1076.38,1380.11 1080.01,1380.1 1083.64,1380.09 1087.28,1380.08 1090.92,1380.07 1094.57,1380.06 1098.23,1380.05 1101.89,1380.04 1105.56,1380.03 1109.23,1380.02 1112.91,1380.01 1116.59,1380 1120.28,1379.99 1123.97,1379.98 1127.67,1379.97 1131.37,1379.96 1135.08,1379.95 1138.79,1379.95 1142.51,1379.94 1146.23,1379.93 1149.96,1379.92 1153.69,1379.91 1157.43,1379.9 1161.17,1379.89 1164.92,1379.88 1168.67,1379.87 1172.43,1379.86 1176.19,1379.85 1179.96,1379.84 1183.73,1379.84 1187.51,1379.83 1191.29,1379.82 1195.07,1379.81 1198.86,1379.8 1202.65,1379.79 1206.45,1379.78 1210.25,1379.77 1214.06,1379.76 1217.87,1379.75 1221.69,1379.75 1225.5,1379.74 1229.33,1379.73 1233.16,1379.72 1236.99,1379.71 1240.82,1379.7 1244.66,1379.69 1248.51,1379.68 1252.36,1379.68 1256.21,1379.67 1260.06,1379.66 1263.92,1379.65 1267.79,1379.64 1271.66,1379.63 1275.53,1379.62 1279.4,1379.62 1283.28,1379.61 1287.16,1379.6 1291.05,1379.59 1294.94,1379.58 1298.83,1379.57 1302.73,1379.57 1306.63,1379.56 1310.54,1379.55 1314.45,1379.54 1318.36,1379.53 1322.27,1379.53 1326.19,1379.52 1330.11,1379.51 1334.04,1379.5 1337.97,1379.49 1341.9,1379.49 1345.83,1379.48 1349.77,1379.47 1353.71,1379.46 1357.66,1379.45 1361.61,1379.45 1365.56,1379.44 1369.51,1379.43 1373.47,1379.42 1377.43,1379.42 1381.4,1379.41 1385.36,1379.4 1389.33,1379.39 1393.31,1379.39 1397.28,1379.38 1401.26,1379.37 1405.24,1379.36 1409.23,1379.36 1413.22,1379.35 1417.21,1379.34 1421.2,1379.33 1425.2,1379.33 1429.2,1379.32 1433.2,1379.31 1437.2,1379.31 1441.21,1379.3 1445.22,1379.29 1449.23,1379.28 1453.25,1379.28 1457.27,1379.27 1461.29,1379.26 1465.31,1379.26 1469.34,1379.25 1473.36,1379.24 1477.4,1379.23 1481.43,1379.23 1485.46,1379.22 1489.5,1379.21 1493.54,1379.21 1497.59,1379.2 1501.63,1379.19 1505.68,1379.19 1509.73,1379.18 1513.78,1379.17 1517.84,1379.16 1521.9,1379.16 1525.96,1379.15 1530.02,1379.14 1534.08,1379.14 1538.15,1379.13 1542.22,1379.12 1546.29,1379.12 1550.36,1379.11 1554.44,1379.1 1558.52,1379.1 1562.6,1379.09 1566.68,1379.08 1570.76,1379.08 1574.85,1379.07 1578.94,1379.06 1583.03,1379.06 1587.12,1379.05 1591.21,1379.05 1595.31,1379.04 1599.41,1379.03 1603.51,1379.03 1607.61,1379.02 1611.72,1379.01 1615.82,1379.01 1619.93,1379 1624.04,1378.99 1628.15,1378.99 1632.27,1378.98 1636.38,1378.98 1640.5,1378.97 1644.62,1378.96 1648.74,1378.96 1652.86,1378.95 1656.99,1378.94 1661.11,1378.94 1665.24,1378.93 1669.37,1378.93 1673.5,1378.92 1677.64,1378.91 1681.77,1378.91 1685.91,1378.9 1690.05,1378.9 1694.19,1378.89 1698.33,1378.88 1702.47,1378.88 1706.62,1378.87 1710.76,1378.87 1714.91,1378.86 1719.06,1378.85 1723.21,1378.85 1727.37,1378.84 1731.52,1378.84 1735.68,1378.83 1739.83,1378.83 1743.99,1378.82 1748.15,1378.82 1752.32,1378.81 1756.48,1378.8 1760.64,1378.8 1764.81,1378.79 1768.98,1378.79 1773.15,1378.78 1777.32,1378.78 1781.49,1378.77 1785.67,1378.77 1789.84,1378.76 1794.02,1378.76 1798.19,1378.75 1802.37,1378.74 1806.55,1378.74 1810.74,1378.73 1814.92,1378.73 1819.1,1378.72 1823.29,1378.72 1827.48,1378.71 1831.66,1378.71 1835.85,1378.7 1840.04,1378.7 1844.24,1378.69 1848.43,1378.69 1852.62,1378.68 1856.82,1378.68 1861.02,1378.67 1865.22,1378.67 1869.42,1378.66 1873.62,1378.66 1877.82,1378.65 1882.02,1378.65 1886.23,1378.64 1890.43,1378.64 1894.64,1378.63 1898.84,1378.63 1903.05,1378.62 1907.26,1378.62 1911.47,1378.61 1915.69,1378.61 1919.9,1378.6 1924.11,1378.6 1928.33,1378.59 1932.55,1378.59 1936.76,1378.58 1940.98,1378.58 1945.2,1378.57 1949.42,1378.57 1953.64,1378.56 1957.87,1378.56 1962.09,1378.55 1966.32,1378.55 1970.54,1378.54 1974.77,1378.54 1979,1378.53 1983.22,1378.53 1987.45,1378.53 1991.69,1378.52 1995.92,1378.52 2000.15,1378.51 2004.38,1378.51 2008.62,1378.5 2012.85,1378.5 2017.09,1378.49 2021.33,1378.49 2025.56,1378.48 2029.8,1378.48 2034.04,1378.47 2038.28,1378.47 2042.53,1378.47 2046.77,1378.46 2051.01,1378.46 2055.26,1378.45 2059.5,1378.45 2063.75,1378.44 2067.99,1378.44 2072.24,1378.43 2076.49,1378.43 2080.74,1378.43 2084.99,1378.42 2089.24,1378.42 2093.49,1378.41 2097.75,1378.41 2102,1378.4 2106.25,1378.4 2110.51,1378.4 2114.77,1378.39 2119.02,1378.39 2123.28,1378.38 2127.54,1378.38 2131.8,1378.37 2136.06,1378.37 2140.32,1378.37 2144.58,1378.36 2148.84,1378.36 2153.1,1378.35 2157.37,1378.35 2161.63,1378.34 2165.89,1378.34 2170.16,1378.34 2174.43,1378.33 2178.69,1378.33 2182.96,1378.32 2187.23,1378.32 2191.5,1378.32 2195.77,1378.31 2200.04,1378.31 2204.31,1378.3 2208.58,1378.3 2212.85,1378.3 2217.13,1378.29 2221.4,1378.29 2225.68,1378.28 2229.95,1378.28 2234.23,1378.28 2238.5,1378.27 2242.78,1378.27 2247.06,1378.26 2251.34,1378.26 2255.61,1378.26 2259.89,1378.25 2264.17,1378.25 2268.45,1378.24 2272.74,1378.24 2277.02,1378.24 2281.3,1378.23 2285.58,1378.23 2289.87,1378.23 2292.39,1378.22 "/>
<polyline clip-path="url(#clip302)" style="stroke:#3da44d; stroke-linecap:round; stroke-linejoin:round; stroke-width:4; stroke-opacity:1; fill:none" points="2292.39,1359.63 2288.1,1359.65 2283.82,1359.66 2279.53,1359.67 2275.25,1359.69 2270.96,1359.7 2266.68,1359.71 2262.39,1359.73 2258.11,1359.74 2253.82,1359.75 2249.54,1359.77 2245.26,1359.78 2240.98,1359.79 2236.7,1359.81 2232.42,1359.82 2228.14,1359.84 2223.86,1359.85 2219.58,1359.86 2215.3,1359.88 2211.02,1359.89 2206.75,1359.91 2202.47,1359.92 2198.2,1359.93 2193.92,1359.95 2189.65,1359.96 2185.37,1359.98 2181.1,1359.99 2176.83,1360 2172.55,1360.02 2168.28,1360.03 2164.01,1360.05 2159.74,1360.06 2155.47,1360.08 2151.2,1360.09 2146.93,1360.1 2142.67,1360.12 2138.4,1360.13 2134.13,1360.15 2129.87,1360.16 2125.6,1360.18 2121.34,1360.19 2117.07,1360.21 2112.81,1360.22 2108.55,1360.24 2104.28,1360.25 2100.02,1360.27 2095.76,1360.28 2091.5,1360.3 2087.24,1360.31 2082.99,1360.33 2078.73,1360.34 2074.47,1360.36 2070.21,1360.37 2065.96,1360.39 2061.7,1360.4 2057.45,1360.42 2053.2,1360.44 2048.94,1360.45 2044.69,1360.47 2040.44,1360.48 2036.19,1360.5 2031.94,1360.51 2027.69,1360.53 2023.44,1360.54 2019.19,1360.56 2014.95,1360.58 2010.7,1360.59 2006.46,1360.61 2002.21,1360.62 1997.97,1360.64 1993.73,1360.66 1989.48,1360.67 1985.24,1360.69 1981,1360.71 1976.76,1360.72 1972.52,1360.74 1968.29,1360.76 1964.05,1360.77 1959.81,1360.79 1955.58,1360.8 1951.34,1360.82 1947.11,1360.84 1942.87,1360.85 1938.64,1360.87 1934.41,1360.89 1930.18,1360.91 1925.95,1360.92 1921.72,1360.94 1917.5,1360.96 1913.27,1360.97 1909.04,1360.99 1904.82,1361.01 1900.59,1361.03 1896.37,1361.04 1892.15,1361.06 1887.93,1361.08 1883.71,1361.09 1879.49,1361.11 1875.27,1361.13 1871.05,1361.15 1866.84,1361.17 1862.62,1361.18 1858.41,1361.2 1854.19,1361.22 1849.98,1361.24 1845.77,1361.25 1841.56,1361.27 1837.35,1361.29 1833.14,1361.31 1828.93,1361.33 1824.73,1361.35 1820.52,1361.36 1816.32,1361.38 1812.11,1361.4 1807.91,1361.42 1803.71,1361.44 1799.51,1361.46 1795.31,1361.47 1791.11,1361.49 1786.92,1361.51 1782.72,1361.53 1778.52,1361.55 1774.33,1361.57 1770.14,1361.59 1765.95,1361.61 1761.76,1361.63 1757.57,1361.65 1753.38,1361.66 1749.19,1361.68 1745.01,1361.7 1740.82,1361.72 1736.64,1361.74 1732.46,1361.76 1728.28,1361.78 1724.1,1361.8 1719.92,1361.82 1715.74,1361.84 1711.57,1361.86 1707.39,1361.88 1703.22,1361.9 1699.05,1361.92 1694.88,1361.94 1690.71,1361.96 1686.54,1361.98 1682.37,1362 1678.21,1362.02 1674.04,1362.04 1669.88,1362.06 1665.72,1362.08 1661.56,1362.1 1657.4,1362.13 1653.24,1362.15 1649.08,1362.17 1644.93,1362.19 1640.78,1362.21 1636.62,1362.23 1632.47,1362.25 1628.32,1362.27 1624.18,1362.29 1620.03,1362.32 1615.89,1362.34 1611.74,1362.36 1607.6,1362.38 1603.46,1362.4 1599.32,1362.42 1595.18,1362.45 1591.05,1362.47 1586.91,1362.49 1582.78,1362.51 1578.65,1362.53 1574.52,1362.56 1570.39,1362.58 1566.26,1362.6 1562.14,1362.62 1558.01,1362.65 1553.89,1362.67 1549.77,1362.69 1545.65,1362.71 1541.53,1362.74 1537.42,1362.76 1533.3,1362.78 1529.19,1362.8 1525.08,1362.83 1520.97,1362.85 1516.87,1362.87 1512.76,1362.9 1508.66,1362.92 1504.55,1362.94 1500.45,1362.97 1496.36,1362.99 1492.26,1363.01 1488.16,1363.04 1484.07,1363.06 1479.98,1363.09 1475.89,1363.11 1471.8,1363.13 1467.72,1363.16 1463.63,1363.18 1459.55,1363.21 1455.47,1363.23 1451.39,1363.26 1447.31,1363.28 1443.24,1363.31 1439.17,1363.33 1435.1,1363.36 1431.03,1363.38 1426.96,1363.41 1422.9,1363.43 1418.83,1363.46 1414.77,1363.48 1410.71,1363.51 1406.66,1363.53 1402.6,1363.56 1398.55,1363.58 1394.5,1363.61 1390.45,1363.63 1386.4,1363.66 1382.36,1363.69 1378.32,1363.71 1374.28,1363.74 1370.24,1363.77 1366.2,1363.79 1362.17,1363.82 1358.14,1363.84 1354.11,1363.87 1350.08,1363.9 1346.06,1363.92 1342.04,1363.95 1338.02,1363.98 1334,1364.01 1329.98,1364.03 1325.97,1364.06 1321.96,1364.09 1317.95,1364.12 1313.95,1364.14 1309.94,1364.17 1305.94,1364.2 1301.94,1364.23 1297.95,1364.25 1293.95,1364.28 1289.96,1364.31 1285.97,1364.34 1281.99,1364.37 1278,1364.4 1274.02,1364.42 1270.04,1364.45 1266.06,1364.48 1262.09,1364.51 1258.12,1364.54 1254.15,1364.57 1250.19,1364.6 1246.22,1364.63 1242.26,1364.66 1238.3,1364.69 1234.35,1364.71 1230.4,1364.74 1226.45,1364.77 1222.5,1364.8 1218.56,1364.83 1214.62,1364.86 1210.68,1364.89 1206.74,1364.92 1202.81,1364.96 1198.88,1364.99 1194.95,1365.02 1191.03,1365.05 1187.11,1365.08 1183.19,1365.11 1179.27,1365.14 1175.36,1365.17 1171.45,1365.2 1167.54,1365.23 1163.64,1365.27 1159.74,1365.3 1155.84,1365.33 1151.95,1365.36 1148.06,1365.39 1144.17,1365.42 1140.29,1365.46 1136.4,1365.49 1132.53,1365.52 1128.65,1365.55 1124.78,1365.59 1120.91,1365.62 1117.05,1365.65 1113.18,1365.69 1109.32,1365.72 1105.47,1365.75 1101.62,1365.79 1097.77,1365.82 1093.92,1365.85 1090.08,1365.89 1086.24,1365.92 1082.41,1365.95 1078.58,1365.99 1074.75,1366.02 1070.92,1366.06 1067.1,1366.09 1063.29,1366.13 1059.47,1366.16 1055.66,1366.19 1051.86,1366.23 1048.05,1366.26 1044.25,1366.3 1040.46,1366.34 1036.67,1366.37 1032.88,1366.41 1029.09,1366.44 1025.31,1366.48 1021.54,1366.51 1017.76,1366.55 1013.99,1366.59 1010.23,1366.62 1006.47,1366.66 1002.71,1366.7 998.958,1366.73 995.208,1366.77 991.463,1366.81 987.721,1366.84 983.984,1366.88 980.25,1366.92 976.521,1366.95 972.796,1366.99 969.075,1367.03 965.358,1367.07 961.645,1367.11 957.937,1367.14 954.232,1367.18 950.532,1367.22 946.836,1367.26 943.145,1367.3 939.457,1367.34 935.774,1367.38 932.096,1367.42 928.422,1367.45 924.752,1367.49 921.087,1367.53 917.426,1367.57 913.769,1367.61 910.117,1367.65 906.47,1367.69 902.827,1367.73 899.189,1367.77 895.555,1367.81 891.926,1367.85 888.301,1367.9 884.682,1367.94 881.067,1367.98 877.456,1368.02 873.851,1368.06 870.25,1368.1 866.654,1368.14 863.063,1368.19 859.476,1368.23 855.895,1368.27 852.318,1368.31 848.746,1368.35 845.18,1368.4 841.618,1368.44 838.061,1368.48 834.509,1368.53 830.962,1368.57 827.421,1368.61 823.884,1368.66 820.352,1368.7 816.826,1368.74 813.305,1368.79 809.789,1368.83 806.278,1368.88 802.772,1368.92 799.272,1368.96 795.777,1369.01 792.287,1369.05 788.803,1369.1 785.323,1369.14 781.85,1369.19 778.382,1369.23 774.919,1369.28 771.461,1369.33 768.009,1369.37 764.563,1369.42 761.122,1369.46 757.687,1369.51 754.257,1369.56 750.833,1369.6 747.414,1369.65 744.002,1369.7 740.594,1369.75 737.193,1369.79 733.797,1369.84 730.407,1369.89 727.023,1369.94 723.645,1369.99 720.272,1370.03 716.905,1370.08 713.545,1370.13 710.19,1370.18 706.841,1370.23 703.498,1370.28 700.161,1370.33 696.83,1370.38 693.505,1370.43 690.186,1370.48 686.873,1370.53 683.566,1370.58 680.265,1370.63 676.971,1370.68 673.682,1370.73 670.4,1370.78 667.124,1370.83 663.855,1370.88 660.591,1370.93 657.334,1370.98 654.083,1371.03 650.839,1371.09 647.601,1371.14 644.369,1371.19 641.144,1371.24 637.925,1371.3 634.713,1371.35 631.507,1371.4 628.308,1371.45 625.115,1371.51 621.929,1371.56 618.749,1371.62 615.576,1371.67 612.41,1371.72 609.251,1371.78 606.098,1371.83 602.952,1371.89 599.812,1371.94 596.679,1372 593.554,1372.05 590.435,1372.11 587.322,1372.16 584.217,1372.22 581.119,1372.27 578.027,1372.33 574.943,1372.39 571.865,1372.44 568.795,1372.5 565.731,1372.56 562.675,1372.61 559.626,1372.67 556.584,1372.73 553.549,1372.79 550.521,1372.84 547.5,1372.9 544.487,1372.96 541.481,1373.02 538.482,1373.08 535.491,1373.14 532.506,1373.2 529.53,1373.26 526.56,1373.32 523.599,1373.38 520.644,1373.44 517.697,1373.5 514.758,1373.56 511.826,1373.62 508.902,1373.68 505.986,1373.74 503.077,1373.8 500.176,1373.86 497.283,1373.92 494.397,1373.98 491.519,1374.05 488.649,1374.11 485.787,1374.17 482.933,1374.23 480.087,1374.3 477.25,1374.36 474.42,1374.42 471.598,1374.49 468.784,1374.55 465.979,1374.61 463.182,1374.68 460.393,1374.74 457.612,1374.81 454.84,1374.87 452.077,1374.94 449.321,1375 446.575,1375.07 443.837,1375.14 441.108,1375.2 438.387,1375.27 435.676,1375.34 432.973,1375.4 430.279,1375.47 427.595,1375.54 424.919,1375.61 422.252,1375.67 419.595,1375.74 416.947,1375.81 414.309,1375.88 411.68,1375.95 409.061,1376.02 406.452,1376.09 403.852,1376.16 401.262,1376.23 398.683,1376.3 396.113,1376.37 393.554,1376.44 391.006,1376.51 388.468,1376.58 385.94,1376.65 383.424,1376.73 380.918,1376.8 378.424,1376.87 375.941,1376.94 373.47,1377.02 371.011,1377.09 368.563,1377.17 366.128,1377.24 363.706,1377.32 361.296,1377.39 358.898,1377.47 356.515,1377.54 354.145,1377.62 351.788,1377.69 349.446,1377.77 347.119,1377.85 344.806,1377.93 342.509,1378 340.228,1378.08 337.963,1378.16 335.715,1378.24 333.485,1378.32 331.272,1378.4 329.078,1378.48 326.904,1378.56 324.75,1378.64 322.616,1378.73 322.152,1378.74 320.046,1378.83 317.962,1378.91 315.903,1378.99 313.869,1379.08 311.862,1379.16 309.882,1379.25 307.933,1379.34 306.014,1379.42 304.129,1379.51 302.28,1379.6 300.468,1379.69 298.697,1379.78 296.97,1379.87 295.289,1379.96 293.659,1380.05 292.084,1380.14 290.569,1380.24 289.12,1380.33 287.742,1380.43 286.443,1380.52 285.232,1380.62 284.118,1380.72 283.113,1380.82 282.229,1380.92 281.483,1381.02 280.891,1381.12 280.475,1381.23 280.257,1381.33 280.231,1381.39 280.357,1381.49 280.75,1381.6 281.441,1381.71 282.456,1381.81 283.816,1381.92 285.535,1382.02 287.608,1382.12 290.02,1382.21 292.742,1382.3 295.738,1382.38 298.968,1382.46 302.394,1382.53 305.98,1382.6 309.698,1382.66 313.524,1382.72 317.436,1382.77 321.42,1382.82 325.462,1382.86 329.553,1382.91 333.683,1382.95 337.847,1382.98 342.038,1383.02 346.253,1383.05 350.489,1383.09 354.741,1383.11 359.008,1383.14 363.288,1383.17 367.578,1383.2 371.879,1383.22 376.187,1383.24 380.503,1383.26 384.826,1383.29 389.154,1383.31 393.487,1383.33 397.825,1383.34 402.166,1383.36 406.512,1383.38 410.861,1383.4 415.212,1383.41 419.566,1383.43 423.923,1383.44 428.282,1383.46 432.643,1383.47 437.005,1383.48 441.37,1383.5 445.736,1383.51 450.103,1383.52 454.471,1383.53 458.841,1383.54 463.212,1383.55 467.583,1383.56 471.956,1383.58 476.329,1383.59 480.704,1383.6 485.078,1383.6 489.454,1383.61 493.83,1383.62 498.207,1383.63 502.585,1383.64 506.963,1383.65 511.341,1383.66 515.72,1383.67 520.099,1383.67 524.479,1383.68 528.859,1383.69 533.239,1383.7 537.62,1383.7 542.001,1383.71 546.382,1383.72 550.764,1383.72 555.146,1383.73 559.528,1383.74 563.91,1383.74 568.292,1383.75 572.675,1383.75 577.058,1383.76 581.441,1383.77 585.824,1383.77 590.208,1383.78 594.591,1383.78 598.975,1383.79 603.359,1383.79 607.743,1383.8 612.127,1383.8 616.511,1383.81 620.896,1383.81 625.28,1383.82 629.665,1383.82 634.05,1383.83 638.434,1383.83 642.819,1383.84 647.204,1383.84 651.589,1383.84 655.974,1383.85 660.36,1383.85 664.745,1383.86 669.13,1383.86 673.516,1383.86 677.901,1383.87 682.287,1383.87 686.672,1383.88 691.058,1383.88 695.444,1383.88 699.829,1383.89 704.215,1383.89 708.601,1383.89 712.987,1383.9 717.373,1383.9 721.759,1383.9 726.145,1383.91 730.531,1383.91 734.917,1383.91 739.303,1383.92 743.689,1383.92 748.076,1383.92 752.462,1383.93 756.848,1383.93 761.234,1383.93 765.621,1383.93 770.007,1383.94 774.393,1383.94 778.78,1383.94 783.166,1383.95 787.553,1383.95 791.939,1383.95 796.326,1383.95 800.712,1383.96 805.099,1383.96 809.485,1383.96 813.872,1383.96 818.259,1383.97 822.645,1383.97 827.032,1383.97 831.419,1383.97 835.805,1383.98 840.192,1383.98 844.579,1383.98 848.965,1383.98 853.352,1383.99 857.739,1383.99 862.126,1383.99 866.513,1383.99 870.899,1383.99 875.286,1384 879.673,1384 884.06,1384 888.447,1384 892.834,1384 897.221,1384.01 901.607,1384.01 905.994,1384.01 910.381,1384.01 914.768,1384.01 919.155,1384.02 923.542,1384.02 927.929,1384.02 932.316,1384.02 936.703,1384.02 941.09,1384.02 945.477,1384.03 949.864,1384.03 954.251,1384.03 958.638,1384.03 963.025,1384.03 967.412,1384.04 971.799,1384.04 976.186,1384.04 980.573,1384.04 984.96,1384.04 989.347,1384.04 993.734,1384.04 998.121,1384.05 1002.51,1384.05 1006.9,1384.05 1011.28,1384.05 1015.67,1384.05 1020.06,1384.05 1024.44,1384.06 1028.83,1384.06 1033.22,1384.06 1037.61,1384.06 1041.99,1384.06 1046.38,1384.06 1050.77,1384.06 1055.15,1384.07 1059.54,1384.07 1063.93,1384.07 1068.32,1384.07 1072.7,1384.07 1077.09,1384.07 1081.48,1384.07 1085.86,1384.08 1090.25,1384.08 1094.64,1384.08 1099.03,1384.08 1103.41,1384.08 1107.8,1384.08 1112.19,1384.08 1116.57,1384.08 1120.96,1384.09 1125.35,1384.09 1129.74,1384.09 1134.12,1384.09 1138.51,1384.09 1142.9,1384.09 1147.28,1384.09 1151.67,1384.09 1156.06,1384.09 1160.45,1384.1 1164.83,1384.1 1169.22,1384.1 1173.61,1384.1 1177.99,1384.1 1182.38,1384.1 1186.77,1384.1 1191.16,1384.1 1195.54,1384.1 1199.93,1384.11 1204.32,1384.11 1208.71,1384.11 1213.09,1384.11 1217.48,1384.11 1221.87,1384.11 1226.25,1384.11 1230.64,1384.11 1235.03,1384.11 1239.42,1384.11 1243.8,1384.12 1248.19,1384.12 1252.58,1384.12 1256.97,1384.12 1261.35,1384.12 1265.74,1384.12 1270.13,1384.12 1274.51,1384.12 1278.9,1384.12 1283.29,1384.12 1287.68,1384.12 1292.06,1384.13 1296.45,1384.13 1300.84,1384.13 1305.23,1384.13 1309.61,1384.13 1314,1384.13 1318.39,1384.13 1322.77,1384.13 1327.16,1384.13 1331.55,1384.13 1335.94,1384.13 1340.32,1384.14 1344.71,1384.14 1349.1,1384.14 1353.49,1384.14 1357.87,1384.14 1362.26,1384.14 1366.65,1384.14 1371.03,1384.14 1375.42,1384.14 1379.81,1384.14 1384.2,1384.14 1388.58,1384.14 1392.97,1384.14 1397.36,1384.15 1401.75,1384.15 1406.13,1384.15 1410.52,1384.15 1414.91,1384.15 1419.29,1384.15 1423.68,1384.15 1428.07,1384.15 1432.46,1384.15 1436.84,1384.15 1441.23,1384.15 1445.62,1384.15 1450.01,1384.15 1454.39,1384.16 1458.78,1384.16 1463.17,1384.16 1467.56,1384.16 1471.94,1384.16 1476.33,1384.16 1480.72,1384.16 1485.1,1384.16 1489.49,1384.16 1493.88,1384.16 1498.27,1384.16 1502.65,1384.16 1507.04,1384.16 1511.43,1384.16 1515.82,1384.16 1520.2,1384.16 1524.59,1384.17 1528.98,1384.17 1533.37,1384.17 1537.75,1384.17 1542.14,1384.17 1546.53,1384.17 1550.91,1384.17 1555.3,1384.17 1559.69,1384.17 1564.08,1384.17 1568.46,1384.17 1572.85,1384.17 1577.24,1384.17 1581.63,1384.17 1586.01,1384.17 1590.4,1384.17 1594.79,1384.18 1599.18,1384.18 1603.56,1384.18 1607.95,1384.18 1612.34,1384.18 1616.72,1384.18 1621.11,1384.18 1625.5,1384.18 1629.89,1384.18 1634.27,1384.18 1638.66,1384.18 1643.05,1384.18 1647.44,1384.18 1651.82,1384.18 1656.21,1384.18 1660.6,1384.18 1664.99,1384.18 1669.37,1384.18 1673.76,1384.19 1678.15,1384.19 1682.53,1384.19 1686.92,1384.19 1691.31,1384.19 1695.7,1384.19 1700.08,1384.19 1704.47,1384.19 1708.86,1384.19 1713.25,1384.19 1717.63,1384.19 1722.02,1384.19 1726.41,1384.19 1730.8,1384.19 1735.18,1384.19 1739.57,1384.19 1743.96,1384.19 1748.34,1384.19 1752.73,1384.19 1757.12,1384.19 1761.51,1384.2 1765.89,1384.2 1770.28,1384.2 1774.67,1384.2 1779.06,1384.2 1783.44,1384.2 1787.83,1384.2 1792.22,1384.2 1796.61,1384.2 1800.99,1384.2 1805.38,1384.2 1809.77,1384.2 1814.15,1384.2 1818.54,1384.2 1822.93,1384.2 1827.32,1384.2 1831.7,1384.2 1836.09,1384.2 1840.48,1384.2 1844.87,1384.2 1849.25,1384.2 1853.64,1384.2 1858.03,1384.2 1862.42,1384.21 1866.8,1384.21 1871.19,1384.21 1875.58,1384.21 1879.96,1384.21 1884.35,1384.21 1888.74,1384.21 1893.13,1384.21 1897.51,1384.21 1901.9,1384.21 1906.29,1384.21 1910.68,1384.21 1915.06,1384.21 1919.45,1384.21 1923.84,1384.21 1928.23,1384.21 1932.61,1384.21 1937,1384.21 1941.39,1384.21 1945.78,1384.21 1950.16,1384.21 1954.55,1384.21 1958.94,1384.21 1963.32,1384.21 1967.71,1384.21 1972.1,1384.22 1976.49,1384.22 1980.87,1384.22 1985.26,1384.22 1989.65,1384.22 1994.04,1384.22 1998.42,1384.22 2002.81,1384.22 2007.2,1384.22 2011.59,1384.22 2015.97,1384.22 2020.36,1384.22 2024.75,1384.22 2029.13,1384.22 2033.52,1384.22 2037.91,1384.22 2042.3,1384.22 2046.68,1384.22 2051.07,1384.22 2055.46,1384.22 2059.85,1384.22 2064.23,1384.22 2068.62,1384.22 2073.01,1384.22 2077.4,1384.22 2081.78,1384.22 2086.17,1384.22 2090.56,1384.22 2094.95,1384.22 2099.33,1384.23 2103.72,1384.23 2108.11,1384.23 2112.49,1384.23 2116.88,1384.23 2121.27,1384.23 2125.66,1384.23 2130.04,1384.23 2134.43,1384.23 2138.82,1384.23 2143.21,1384.23 2147.59,1384.23 2151.98,1384.23 2156.37,1384.23 2160.76,1384.23 2165.14,1384.23 2169.53,1384.23 2173.92,1384.23 2178.31,1384.23 2182.69,1384.23 2187.08,1384.23 2191.47,1384.23 2195.85,1384.23 2200.24,1384.23 2204.63,1384.23 2209.02,1384.23 2213.4,1384.23 2217.79,1384.23 2222.18,1384.23 2226.57,1384.23 2230.95,1384.23 2235.34,1384.23 2239.73,1384.23 2244.12,1384.24 2248.5,1384.24 2252.89,1384.24 2257.28,1384.24 2261.66,1384.24 2266.05,1384.24 2270.44,1384.24 2274.83,1384.24 2279.21,1384.24 2283.6,1384.24 2287.99,1384.24 2292.38,1384.24 2292.39,1384.24 "/>
<path clip-path="url(#clip300)" d="M290.963 300.469 L702.561 300.469 L702.561 93.1086 L290.963 93.1086  Z" fill="#ffffff" fill-rule="evenodd" fill-opacity="1"/>
<polyline clip-path="url(#clip300)" style="stroke:#000000; stroke-linecap:round; stroke-linejoin:round; stroke-width:4; stroke-opacity:1; fill:none" points="290.963,300.469 702.561,300.469 702.561,93.1086 290.963,93.1086 290.963,300.469 "/>
<polyline clip-path="url(#clip300)" style="stroke:#009af9; stroke-linecap:round; stroke-linejoin:round; stroke-width:4; stroke-opacity:1; fill:none" points="314.661,144.949 456.854,144.949 "/>
<path clip-path="url(#clip300)" d="M500.9 141.28 Q502.497 138.409 504.719 137.044 Q506.942 135.678 509.951 135.678 Q514.002 135.678 516.201 138.525 Q518.4 141.349 518.4 146.581 L518.4 162.229 L514.117 162.229 L514.117 146.719 Q514.117 142.993 512.798 141.187 Q511.479 139.382 508.77 139.382 Q505.46 139.382 503.539 141.581 Q501.617 143.78 501.617 147.576 L501.617 162.229 L497.335 162.229 L497.335 146.719 Q497.335 142.969 496.016 141.187 Q494.696 139.382 491.942 139.382 Q488.678 139.382 486.756 141.604 Q484.835 143.803 484.835 147.576 L484.835 162.229 L480.553 162.229 L480.553 136.303 L484.835 136.303 L484.835 140.331 Q486.293 137.946 488.331 136.812 Q490.368 135.678 493.168 135.678 Q495.993 135.678 497.96 137.113 Q499.951 138.548 500.9 141.28 Z" fill="#000000" fill-rule="nonzero" fill-opacity="1" /><path clip-path="url(#clip300)" d="M538.677 149.196 Q533.515 149.196 531.525 150.377 Q529.534 151.557 529.534 154.405 Q529.534 156.673 531.015 158.016 Q532.52 159.335 535.09 159.335 Q538.631 159.335 540.761 156.835 Q542.914 154.312 542.914 150.145 L542.914 149.196 L538.677 149.196 M547.173 147.437 L547.173 162.229 L542.914 162.229 L542.914 158.293 Q541.455 160.655 539.279 161.789 Q537.103 162.9 533.955 162.9 Q529.974 162.9 527.613 160.678 Q525.275 158.432 525.275 154.682 Q525.275 150.307 528.191 148.085 Q531.131 145.863 536.941 145.863 L542.914 145.863 L542.914 145.446 Q542.914 142.507 540.969 140.909 Q539.048 139.289 535.552 139.289 Q533.33 139.289 531.224 139.821 Q529.117 140.354 527.173 141.419 L527.173 137.483 Q529.511 136.581 531.71 136.141 Q533.909 135.678 535.992 135.678 Q541.617 135.678 544.395 138.594 Q547.173 141.511 547.173 147.437 Z" fill="#000000" fill-rule="nonzero" fill-opacity="1" /><path clip-path="url(#clip300)" d="M577.497 136.303 L568.122 148.919 L577.983 162.229 L572.96 162.229 L565.413 152.043 L557.867 162.229 L552.844 162.229 L562.913 148.664 L553.701 136.303 L558.724 136.303 L565.599 145.539 L572.474 136.303 L577.497 136.303 Z" fill="#000000" fill-rule="nonzero" fill-opacity="1" /><polyline clip-path="url(#clip300)" style="stroke:#e26f46; stroke-linecap:round; stroke-linejoin:round; stroke-width:4; stroke-opacity:1; fill:none" points="314.661,196.789 456.854,196.789 "/>
<path clip-path="url(#clip300)" d="M500.9 193.12 Q502.497 190.249 504.719 188.884 Q506.942 187.518 509.951 187.518 Q514.002 187.518 516.201 190.365 Q518.4 193.189 518.4 198.421 L518.4 214.069 L514.117 214.069 L514.117 198.559 Q514.117 194.833 512.798 193.027 Q511.479 191.222 508.77 191.222 Q505.46 191.222 503.539 193.421 Q501.617 195.62 501.617 199.416 L501.617 214.069 L497.335 214.069 L497.335 198.559 Q497.335 194.809 496.016 193.027 Q494.696 191.222 491.942 191.222 Q488.678 191.222 486.756 193.444 Q484.835 195.643 484.835 199.416 L484.835 214.069 L480.553 214.069 L480.553 188.143 L484.835 188.143 L484.835 192.171 Q486.293 189.786 488.331 188.652 Q490.368 187.518 493.168 187.518 Q495.993 187.518 497.96 188.953 Q499.951 190.388 500.9 193.12 Z" fill="#000000" fill-rule="nonzero" fill-opacity="1" /><path clip-path="url(#clip300)" d="M526.895 188.143 L531.154 188.143 L531.154 214.069 L526.895 214.069 L526.895 188.143 M526.895 178.05 L531.154 178.05 L531.154 183.444 L526.895 183.444 L526.895 178.05 Z" fill="#000000" fill-rule="nonzero" fill-opacity="1" /><path clip-path="url(#clip300)" d="M561.617 198.421 L561.617 214.069 L557.358 214.069 L557.358 198.559 Q557.358 194.879 555.923 193.05 Q554.488 191.222 551.617 191.222 Q548.168 191.222 546.177 193.421 Q544.187 195.62 544.187 199.416 L544.187 214.069 L539.904 214.069 L539.904 188.143 L544.187 188.143 L544.187 192.171 Q545.714 189.833 547.775 188.675 Q549.858 187.518 552.566 187.518 Q557.034 187.518 559.326 190.296 Q561.617 193.05 561.617 198.421 Z" fill="#000000" fill-rule="nonzero" fill-opacity="1" /><polyline clip-path="url(#clip300)" style="stroke:#3da44d; stroke-linecap:round; stroke-linejoin:round; stroke-width:4; stroke-opacity:1; fill:none" points="314.661,248.629 456.854,248.629 "/>
<path clip-path="url(#clip300)" d="M480.553 255.677 L480.553 239.983 L484.812 239.983 L484.812 255.515 Q484.812 259.196 486.247 261.048 Q487.682 262.876 490.553 262.876 Q494.002 262.876 495.993 260.677 Q498.006 258.478 498.006 254.682 L498.006 239.983 L502.266 239.983 L502.266 265.909 L498.006 265.909 L498.006 261.927 Q496.455 264.288 494.395 265.446 Q492.358 266.58 489.65 266.58 Q485.182 266.58 482.868 263.802 Q480.553 261.024 480.553 255.677 M491.27 239.358 L491.27 239.358 Z" fill="#000000" fill-rule="nonzero" fill-opacity="1" /><path clip-path="url(#clip300)" d="M532.59 250.261 L532.59 265.909 L528.33 265.909 L528.33 250.399 Q528.33 246.719 526.895 244.89 Q525.46 243.062 522.59 243.062 Q519.141 243.062 517.15 245.261 Q515.159 247.46 515.159 251.256 L515.159 265.909 L510.877 265.909 L510.877 239.983 L515.159 239.983 L515.159 244.011 Q516.687 241.673 518.747 240.515 Q520.83 239.358 523.539 239.358 Q528.006 239.358 530.298 242.136 Q532.59 244.89 532.59 250.261 Z" fill="#000000" fill-rule="nonzero" fill-opacity="1" /><path clip-path="url(#clip300)" d="M557.613 240.747 L557.613 244.774 Q555.807 243.849 553.863 243.386 Q551.918 242.923 549.835 242.923 Q546.664 242.923 545.066 243.895 Q543.492 244.867 543.492 246.811 Q543.492 248.293 544.627 249.149 Q545.761 249.983 549.187 250.747 L550.645 251.071 Q555.182 252.043 557.08 253.825 Q559.001 255.585 559.001 258.756 Q559.001 262.367 556.131 264.473 Q553.284 266.58 548.284 266.58 Q546.201 266.58 543.932 266.163 Q541.687 265.77 539.187 264.96 L539.187 260.561 Q541.548 261.788 543.839 262.413 Q546.131 263.015 548.376 263.015 Q551.386 263.015 553.006 261.997 Q554.626 260.955 554.626 259.08 Q554.626 257.344 553.446 256.418 Q552.289 255.492 548.33 254.636 L546.849 254.288 Q542.89 253.455 541.131 251.742 Q539.372 250.006 539.372 246.997 Q539.372 243.339 541.964 241.349 Q544.557 239.358 549.326 239.358 Q551.687 239.358 553.77 239.705 Q555.853 240.052 557.613 240.747 Z" fill="#000000" fill-rule="nonzero" fill-opacity="1" /><path clip-path="url(#clip300)" d="M569.997 232.622 L569.997 239.983 L578.77 239.983 L578.77 243.293 L569.997 243.293 L569.997 257.367 Q569.997 260.538 570.853 261.441 Q571.733 262.344 574.395 262.344 L578.77 262.344 L578.77 265.909 L574.395 265.909 Q569.464 265.909 567.589 264.08 Q565.714 262.228 565.714 257.367 L565.714 243.293 L562.589 243.293 L562.589 239.983 L565.714 239.983 L565.714 232.622 L569.997 232.622 Z" fill="#000000" fill-rule="nonzero" fill-opacity="1" /><path clip-path="url(#clip300)" d="M596.154 252.876 Q590.992 252.876 589.001 254.057 Q587.011 255.237 587.011 258.085 Q587.011 260.353 588.492 261.696 Q589.997 263.015 592.566 263.015 Q596.108 263.015 598.237 260.515 Q600.39 257.992 600.39 253.825 L600.39 252.876 L596.154 252.876 M604.649 251.117 L604.649 265.909 L600.39 265.909 L600.39 261.973 Q598.932 264.335 596.756 265.469 Q594.58 266.58 591.432 266.58 Q587.45 266.58 585.089 264.358 Q582.751 262.112 582.751 258.362 Q582.751 253.987 585.668 251.765 Q588.608 249.543 594.418 249.543 L600.39 249.543 L600.39 249.126 Q600.39 246.187 598.446 244.589 Q596.524 242.969 593.029 242.969 Q590.807 242.969 588.7 243.501 Q586.594 244.034 584.649 245.099 L584.649 241.163 Q586.987 240.261 589.186 239.821 Q591.386 239.358 593.469 239.358 Q599.094 239.358 601.872 242.274 Q604.649 245.191 604.649 251.117 Z" fill="#000000" fill-rule="nonzero" fill-opacity="1" /><path clip-path="url(#clip300)" d="M632.033 252.969 Q632.033 248.27 630.089 245.608 Q628.168 242.923 624.788 242.923 Q621.409 242.923 619.464 245.608 Q617.543 248.27 617.543 252.969 Q617.543 257.668 619.464 260.353 Q621.409 263.015 624.788 263.015 Q628.168 263.015 630.089 260.353 Q632.033 257.668 632.033 252.969 M617.543 243.918 Q618.885 241.603 620.922 240.492 Q622.983 239.358 625.83 239.358 Q630.552 239.358 633.492 243.108 Q636.455 246.858 636.455 252.969 Q636.455 259.08 633.492 262.83 Q630.552 266.58 625.83 266.58 Q622.983 266.58 620.922 265.469 Q618.885 264.335 617.543 262.02 L617.543 265.909 L613.26 265.909 L613.26 229.89 L617.543 229.89 L617.543 243.918 Z" fill="#000000" fill-rule="nonzero" fill-opacity="1" /><path clip-path="url(#clip300)" d="M643.515 229.89 L647.774 229.89 L647.774 265.909 L643.515 265.909 L643.515 229.89 Z" fill="#000000" fill-rule="nonzero" fill-opacity="1" /><path clip-path="url(#clip300)" d="M678.862 251.881 L678.862 253.964 L659.279 253.964 Q659.556 258.362 661.918 260.677 Q664.302 262.969 668.538 262.969 Q670.992 262.969 673.283 262.367 Q675.598 261.765 677.867 260.561 L677.867 264.589 Q675.575 265.561 673.167 266.071 Q670.76 266.58 668.283 266.58 Q662.08 266.58 658.445 262.969 Q654.834 259.358 654.834 253.2 Q654.834 246.835 658.26 243.108 Q661.709 239.358 667.543 239.358 Q672.774 239.358 675.806 242.737 Q678.862 246.094 678.862 251.881 M674.603 250.631 Q674.556 247.136 672.635 245.052 Q670.737 242.969 667.589 242.969 Q664.024 242.969 661.871 244.983 Q659.742 246.997 659.418 250.654 L674.603 250.631 Z" fill="#000000" fill-rule="nonzero" fill-opacity="1" /></svg>
