<?xml version="1.0" encoding="utf-8"?>
<svg xmlns="http://www.w3.org/2000/svg" xmlns:xlink="http://www.w3.org/1999/xlink" width="600" height="400" viewBox="0 0 2400 1600">
<defs>
  <clipPath id="clip330">
    <rect x="0" y="0" width="2400" height="1600"/>
  </clipPath>
</defs>
<path clip-path="url(#clip330)" d="M0 1600 L2400 1600 L2400 0 L0 0  Z" fill="#ffffff" fill-rule="evenodd" fill-opacity="1"/>
<defs>
  <clipPath id="clip331">
    <rect x="480" y="0" width="1681" height="1600"/>
  </clipPath>
</defs>
<path clip-path="url(#clip330)" d="M203.964 1423.18 L2352.76 1423.18 L2352.76 47.2441 L203.964 47.2441  Z" fill="#ffffff" fill-rule="evenodd" fill-opacity="1"/>
<defs>
  <clipPath id="clip332">
    <rect x="203" y="47" width="2150" height="1377"/>
  </clipPath>
</defs>
<polyline clip-path="url(#clip332)" style="stroke:#000000; stroke-linecap:round; stroke-linejoin:round; stroke-width:2; stroke-opacity:0.1; fill:none" points="659.791,1423.18 659.791,47.2441 "/>
<polyline clip-path="url(#clip332)" style="stroke:#000000; stroke-linecap:round; stroke-linejoin:round; stroke-width:2; stroke-opacity:0.1; fill:none" points="1203.84,1423.18 1203.84,47.2441 "/>
<polyline clip-path="url(#clip332)" style="stroke:#000000; stroke-linecap:round; stroke-linejoin:round; stroke-width:2; stroke-opacity:0.1; fill:none" points="1747.89,1423.18 1747.89,47.2441 "/>
<polyline clip-path="url(#clip332)" style="stroke:#000000; stroke-linecap:round; stroke-linejoin:round; stroke-width:2; stroke-opacity:0.1; fill:none" points="2291.94,1423.18 2291.94,47.2441 "/>
<polyline clip-path="url(#clip332)" style="stroke:#000000; stroke-linecap:round; stroke-linejoin:round; stroke-width:2; stroke-opacity:0.1; fill:none" points="203.964,1179.86 2352.76,1179.86 "/>
<polyline clip-path="url(#clip332)" style="stroke:#000000; stroke-linecap:round; stroke-linejoin:round; stroke-width:2; stroke-opacity:0.1; fill:none" points="203.964,815.956 2352.76,815.956 "/>
<polyline clip-path="url(#clip332)" style="stroke:#000000; stroke-linecap:round; stroke-linejoin:round; stroke-width:2; stroke-opacity:0.1; fill:none" points="203.964,452.054 2352.76,452.054 "/>
<polyline clip-path="url(#clip332)" style="stroke:#000000; stroke-linecap:round; stroke-linejoin:round; stroke-width:2; stroke-opacity:0.1; fill:none" points="203.964,88.1516 2352.76,88.1516 "/>
<polyline clip-path="url(#clip330)" style="stroke:#000000; stroke-linecap:round; stroke-linejoin:round; stroke-width:4; stroke-opacity:1; fill:none" points="203.964,1423.18 2352.76,1423.18 "/>
<polyline clip-path="url(#clip330)" style="stroke:#000000; stroke-linecap:round; stroke-linejoin:round; stroke-width:4; stroke-opacity:1; fill:none" points="659.791,1423.18 659.791,1404.28 "/>
<polyline clip-path="url(#clip330)" style="stroke:#000000; stroke-linecap:round; stroke-linejoin:round; stroke-width:4; stroke-opacity:1; fill:none" points="1203.84,1423.18 1203.84,1404.28 "/>
<polyline clip-path="url(#clip330)" style="stroke:#000000; stroke-linecap:round; stroke-linejoin:round; stroke-width:4; stroke-opacity:1; fill:none" points="1747.89,1423.18 1747.89,1404.28 "/>
<polyline clip-path="url(#clip330)" style="stroke:#000000; stroke-linecap:round; stroke-linejoin:round; stroke-width:4; stroke-opacity:1; fill:none" points="2291.94,1423.18 2291.94,1404.28 "/>
<path clip-path="url(#clip330)" d="M637.673 1454.1 Q634.062 1454.1 632.234 1457.66 Q630.428 1461.2 630.428 1468.33 Q630.428 1475.44 632.234 1479.01 Q634.062 1482.55 637.673 1482.55 Q641.308 1482.55 643.113 1479.01 Q644.942 1475.44 644.942 1468.33 Q644.942 1461.2 643.113 1457.66 Q641.308 1454.1 637.673 1454.1 M637.673 1450.39 Q643.484 1450.39 646.539 1455 Q649.618 1459.58 649.618 1468.33 Q649.618 1477.06 646.539 1481.67 Q643.484 1486.25 637.673 1486.25 Q631.863 1486.25 628.785 1481.67 Q625.729 1477.06 625.729 1468.33 Q625.729 1459.58 628.785 1455 Q631.863 1450.39 637.673 1450.39 Z" fill="#000000" fill-rule="nonzero" fill-opacity="1" /><path clip-path="url(#clip330)" d="M657.835 1479.7 L662.72 1479.7 L662.72 1485.58 L657.835 1485.58 L657.835 1479.7 Z" fill="#000000" fill-rule="nonzero" fill-opacity="1" /><path clip-path="url(#clip330)" d="M672.951 1451.02 L691.307 1451.02 L691.307 1454.96 L677.233 1454.96 L677.233 1463.43 Q678.252 1463.08 679.27 1462.92 Q680.289 1462.73 681.307 1462.73 Q687.094 1462.73 690.474 1465.9 Q693.854 1469.08 693.854 1474.49 Q693.854 1480.07 690.381 1483.17 Q686.909 1486.25 680.59 1486.25 Q678.414 1486.25 676.145 1485.88 Q673.9 1485.51 671.493 1484.77 L671.493 1480.07 Q673.576 1481.2 675.798 1481.76 Q678.02 1482.32 680.497 1482.32 Q684.502 1482.32 686.84 1480.21 Q689.178 1478.1 689.178 1474.49 Q689.178 1470.88 686.84 1468.77 Q684.502 1466.67 680.497 1466.67 Q678.622 1466.67 676.747 1467.08 Q674.895 1467.5 672.951 1468.38 L672.951 1451.02 Z" fill="#000000" fill-rule="nonzero" fill-opacity="1" /><path clip-path="url(#clip330)" d="M1170.99 1481.64 L1178.63 1481.64 L1178.63 1455.28 L1170.32 1456.95 L1170.32 1452.69 L1178.59 1451.02 L1183.26 1451.02 L1183.26 1481.64 L1190.9 1481.64 L1190.9 1485.58 L1170.99 1485.58 L1170.99 1481.64 Z" fill="#000000" fill-rule="nonzero" fill-opacity="1" /><path clip-path="url(#clip330)" d="M1200.35 1479.7 L1205.23 1479.7 L1205.23 1485.58 L1200.35 1485.58 L1200.35 1479.7 Z" fill="#000000" fill-rule="nonzero" fill-opacity="1" /><path clip-path="url(#clip330)" d="M1225.42 1454.1 Q1221.8 1454.1 1219.98 1457.66 Q1218.17 1461.2 1218.17 1468.33 Q1218.17 1475.44 1219.98 1479.01 Q1221.8 1482.55 1225.42 1482.55 Q1229.05 1482.55 1230.85 1479.01 Q1232.68 1475.44 1232.68 1468.33 Q1232.68 1461.2 1230.85 1457.66 Q1229.05 1454.1 1225.42 1454.1 M1225.42 1450.39 Q1231.23 1450.39 1234.28 1455 Q1237.36 1459.58 1237.36 1468.33 Q1237.36 1477.06 1234.28 1481.67 Q1231.23 1486.25 1225.42 1486.25 Q1219.61 1486.25 1216.53 1481.67 Q1213.47 1477.06 1213.47 1468.33 Q1213.47 1459.58 1216.53 1455 Q1219.61 1450.39 1225.42 1450.39 Z" fill="#000000" fill-rule="nonzero" fill-opacity="1" /><path clip-path="url(#clip330)" d="M1715.54 1481.64 L1723.18 1481.64 L1723.18 1455.28 L1714.87 1456.95 L1714.87 1452.69 L1723.13 1451.02 L1727.81 1451.02 L1727.81 1481.64 L1735.45 1481.64 L1735.45 1485.58 L1715.54 1485.58 L1715.54 1481.64 Z" fill="#000000" fill-rule="nonzero" fill-opacity="1" /><path clip-path="url(#clip330)" d="M1744.89 1479.7 L1749.78 1479.7 L1749.78 1485.58 L1744.89 1485.58 L1744.89 1479.7 Z" fill="#000000" fill-rule="nonzero" fill-opacity="1" /><path clip-path="url(#clip330)" d="M1760.01 1451.02 L1778.37 1451.02 L1778.37 1454.96 L1764.29 1454.96 L1764.29 1463.43 Q1765.31 1463.08 1766.33 1462.92 Q1767.35 1462.73 1768.37 1462.73 Q1774.15 1462.73 1777.53 1465.9 Q1780.91 1469.08 1780.91 1474.49 Q1780.91 1480.07 1777.44 1483.17 Q1773.97 1486.25 1767.65 1486.25 Q1765.47 1486.25 1763.2 1485.88 Q1760.96 1485.51 1758.55 1484.77 L1758.55 1480.07 Q1760.63 1481.2 1762.86 1481.76 Q1765.08 1482.32 1767.56 1482.32 Q1771.56 1482.32 1773.9 1480.21 Q1776.24 1478.1 1776.24 1474.49 Q1776.24 1470.88 1773.9 1468.77 Q1771.56 1466.67 1767.56 1466.67 Q1765.68 1466.67 1763.81 1467.08 Q1761.95 1467.5 1760.01 1468.38 L1760.01 1451.02 Z" fill="#000000" fill-rule="nonzero" fill-opacity="1" /><path clip-path="url(#clip330)" d="M2263.18 1481.64 L2279.5 1481.64 L2279.5 1485.58 L2257.55 1485.58 L2257.55 1481.64 Q2260.22 1478.89 2264.8 1474.26 Q2269.41 1469.61 2270.59 1468.27 Q2272.83 1465.74 2273.71 1464.01 Q2274.61 1462.25 2274.61 1460.56 Q2274.61 1457.8 2272.67 1456.07 Q2270.75 1454.33 2267.65 1454.33 Q2265.45 1454.33 2262.99 1455.09 Q2260.56 1455.86 2257.79 1457.41 L2257.79 1452.69 Q2260.61 1451.55 2263.06 1450.97 Q2265.52 1450.39 2267.55 1450.39 Q2272.92 1450.39 2276.12 1453.08 Q2279.31 1455.77 2279.31 1460.26 Q2279.31 1462.39 2278.5 1464.31 Q2277.72 1466.2 2275.61 1468.8 Q2275.03 1469.47 2271.93 1472.69 Q2268.83 1475.88 2263.18 1481.64 Z" fill="#000000" fill-rule="nonzero" fill-opacity="1" /><path clip-path="url(#clip330)" d="M2289.31 1479.7 L2294.2 1479.7 L2294.2 1485.58 L2289.31 1485.58 L2289.31 1479.7 Z" fill="#000000" fill-rule="nonzero" fill-opacity="1" /><path clip-path="url(#clip330)" d="M2314.38 1454.1 Q2310.77 1454.1 2308.94 1457.66 Q2307.14 1461.2 2307.14 1468.33 Q2307.14 1475.44 2308.94 1479.01 Q2310.77 1482.55 2314.38 1482.55 Q2318.02 1482.55 2319.82 1479.01 Q2321.65 1475.44 2321.65 1468.33 Q2321.65 1461.2 2319.82 1457.66 Q2318.02 1454.1 2314.38 1454.1 M2314.38 1450.39 Q2320.19 1450.39 2323.25 1455 Q2326.33 1459.58 2326.33 1468.33 Q2326.33 1477.06 2323.25 1481.67 Q2320.19 1486.25 2314.38 1486.25 Q2308.57 1486.25 2305.49 1481.67 Q2302.44 1477.06 2302.44 1468.33 Q2302.44 1459.58 2305.49 1455 Q2308.57 1450.39 2314.38 1450.39 Z" fill="#000000" fill-rule="nonzero" fill-opacity="1" /><path clip-path="url(#clip330)" d="M1204.93 1522.27 L1204.93 1532.4 L1216.99 1532.4 L1216.99 1536.95 L1204.93 1536.95 L1204.93 1556.3 Q1204.93 1560.66 1206.11 1561.9 Q1207.32 1563.14 1210.98 1563.14 L1216.99 1563.14 L1216.99 1568.04 L1210.98 1568.04 Q1204.2 1568.04 1201.62 1565.53 Q1199.04 1562.98 1199.04 1556.3 L1199.04 1536.95 L1194.75 1536.95 L1194.75 1532.4 L1199.04 1532.4 L1199.04 1522.27 L1204.93 1522.27 Z" fill="#000000" fill-rule="nonzero" fill-opacity="1" /><path clip-path="url(#clip330)" d="M1254.33 1546.53 L1254.33 1568.04 L1248.47 1568.04 L1248.47 1546.72 Q1248.47 1541.66 1246.5 1539.14 Q1244.53 1536.63 1240.58 1536.63 Q1235.84 1536.63 1233.1 1539.65 Q1230.36 1542.68 1230.36 1547.9 L1230.36 1568.04 L1224.47 1568.04 L1224.47 1518.52 L1230.36 1518.52 L1230.36 1537.93 Q1232.46 1534.72 1235.3 1533.13 Q1238.16 1531.54 1241.88 1531.54 Q1248.03 1531.54 1251.18 1535.36 Q1254.33 1539.14 1254.33 1546.53 Z" fill="#000000" fill-rule="nonzero" fill-opacity="1" /><path clip-path="url(#clip330)" d="M1286.67 1537.87 Q1285.68 1537.3 1284.5 1537.04 Q1283.36 1536.76 1281.96 1536.76 Q1276.99 1536.76 1274.32 1540 Q1271.68 1543.22 1271.68 1549.27 L1271.68 1568.04 L1265.79 1568.04 L1265.79 1532.4 L1271.68 1532.4 L1271.68 1537.93 Q1273.52 1534.69 1276.48 1533.13 Q1279.44 1531.54 1283.68 1531.54 Q1284.28 1531.54 1285.01 1531.63 Q1285.74 1531.7 1286.64 1531.85 L1286.67 1537.87 Z" fill="#000000" fill-rule="nonzero" fill-opacity="1" /><path clip-path="url(#clip330)" d="M1321.87 1548.76 L1321.87 1551.62 L1294.94 1551.62 Q1295.32 1557.67 1298.57 1560.85 Q1301.85 1564 1307.67 1564 Q1311.05 1564 1314.2 1563.17 Q1317.38 1562.35 1320.5 1560.69 L1320.5 1566.23 Q1317.35 1567.57 1314.04 1568.27 Q1310.73 1568.97 1307.32 1568.97 Q1298.79 1568.97 1293.8 1564 Q1288.83 1559.04 1288.83 1550.57 Q1288.83 1541.82 1293.54 1536.69 Q1298.28 1531.54 1306.31 1531.54 Q1313.5 1531.54 1317.67 1536.18 Q1321.87 1540.8 1321.87 1548.76 M1316.01 1547.04 Q1315.95 1542.23 1313.31 1539.37 Q1310.7 1536.5 1306.37 1536.5 Q1301.47 1536.5 1298.51 1539.27 Q1295.58 1542.04 1295.13 1547.07 L1316.01 1547.04 Z" fill="#000000" fill-rule="nonzero" fill-opacity="1" /><path clip-path="url(#clip330)" d="M1361.97 1548.76 L1361.97 1551.62 L1335.05 1551.62 Q1335.43 1557.67 1338.67 1560.85 Q1341.95 1564 1347.78 1564 Q1351.15 1564 1354.3 1563.17 Q1357.49 1562.35 1360.6 1560.69 L1360.6 1566.23 Q1357.45 1567.57 1354.14 1568.27 Q1350.83 1568.97 1347.43 1568.97 Q1338.9 1568.97 1333.9 1564 Q1328.94 1559.04 1328.94 1550.57 Q1328.94 1541.82 1333.65 1536.69 Q1338.39 1531.54 1346.41 1531.54 Q1353.6 1531.54 1357.77 1536.18 Q1361.97 1540.8 1361.97 1548.76 M1356.12 1547.04 Q1356.05 1542.23 1353.41 1539.37 Q1350.8 1536.5 1346.47 1536.5 Q1341.57 1536.5 1338.61 1539.27 Q1335.68 1542.04 1335.24 1547.07 L1356.12 1547.04 Z" fill="#000000" fill-rule="nonzero" fill-opacity="1" /><polyline clip-path="url(#clip330)" style="stroke:#000000; stroke-linecap:round; stroke-linejoin:round; stroke-width:4; stroke-opacity:1; fill:none" points="203.964,1423.18 203.964,47.2441 "/>
<polyline clip-path="url(#clip330)" style="stroke:#000000; stroke-linecap:round; stroke-linejoin:round; stroke-width:4; stroke-opacity:1; fill:none" points="203.964,1179.86 222.861,1179.86 "/>
<polyline clip-path="url(#clip330)" style="stroke:#000000; stroke-linecap:round; stroke-linejoin:round; stroke-width:4; stroke-opacity:1; fill:none" points="203.964,815.956 222.861,815.956 "/>
<polyline clip-path="url(#clip330)" style="stroke:#000000; stroke-linecap:round; stroke-linejoin:round; stroke-width:4; stroke-opacity:1; fill:none" points="203.964,452.054 222.861,452.054 "/>
<polyline clip-path="url(#clip330)" style="stroke:#000000; stroke-linecap:round; stroke-linejoin:round; stroke-width:4; stroke-opacity:1; fill:none" points="203.964,88.1516 222.861,88.1516 "/>
<path clip-path="url(#clip330)" d="M147.061 1162.58 L165.417 1162.58 L165.417 1166.51 L151.343 1166.51 L151.343 1174.99 Q152.362 1174.64 153.38 1174.48 Q154.399 1174.29 155.417 1174.29 Q161.204 1174.29 164.584 1177.46 Q167.964 1180.63 167.964 1186.05 Q167.964 1191.63 164.491 1194.73 Q161.019 1197.81 154.7 1197.81 Q152.524 1197.81 150.255 1197.44 Q148.01 1197.07 145.603 1196.33 L145.603 1191.63 Q147.686 1192.76 149.908 1193.32 Q152.13 1193.87 154.607 1193.87 Q158.612 1193.87 160.95 1191.77 Q163.288 1189.66 163.288 1186.05 Q163.288 1182.44 160.95 1180.33 Q158.612 1178.23 154.607 1178.23 Q152.732 1178.23 150.857 1178.64 Q149.005 1179.06 147.061 1179.94 L147.061 1162.58 Z" fill="#000000" fill-rule="nonzero" fill-opacity="1" /><path clip-path="url(#clip330)" d="M116.668 829.301 L124.306 829.301 L124.306 802.935 L115.996 804.602 L115.996 800.343 L124.26 798.676 L128.936 798.676 L128.936 829.301 L136.575 829.301 L136.575 833.236 L116.668 833.236 L116.668 829.301 Z" fill="#000000" fill-rule="nonzero" fill-opacity="1" /><path clip-path="url(#clip330)" d="M156.019 801.755 Q152.408 801.755 150.579 805.32 Q148.774 808.861 148.774 815.991 Q148.774 823.097 150.579 826.662 Q152.408 830.204 156.019 830.204 Q159.653 830.204 161.459 826.662 Q163.288 823.097 163.288 815.991 Q163.288 808.861 161.459 805.32 Q159.653 801.755 156.019 801.755 M156.019 798.051 Q161.829 798.051 164.885 802.658 Q167.964 807.241 167.964 815.991 Q167.964 824.718 164.885 829.324 Q161.829 833.907 156.019 833.907 Q150.209 833.907 147.13 829.324 Q144.075 824.718 144.075 815.991 Q144.075 807.241 147.13 802.658 Q150.209 798.051 156.019 798.051 Z" fill="#000000" fill-rule="nonzero" fill-opacity="1" /><path clip-path="url(#clip330)" d="M117.663 465.399 L125.302 465.399 L125.302 439.033 L116.992 440.7 L116.992 436.441 L125.255 434.774 L129.931 434.774 L129.931 465.399 L137.57 465.399 L137.57 469.334 L117.663 469.334 L117.663 465.399 Z" fill="#000000" fill-rule="nonzero" fill-opacity="1" /><path clip-path="url(#clip330)" d="M147.061 434.774 L165.417 434.774 L165.417 438.709 L151.343 438.709 L151.343 447.181 Q152.362 446.834 153.38 446.672 Q154.399 446.487 155.417 446.487 Q161.204 446.487 164.584 449.658 Q167.964 452.829 167.964 458.246 Q167.964 463.825 164.491 466.926 Q161.019 470.005 154.7 470.005 Q152.524 470.005 150.255 469.635 Q148.01 469.264 145.603 468.524 L145.603 463.825 Q147.686 464.959 149.908 465.514 Q152.13 466.07 154.607 466.07 Q158.612 466.07 160.95 463.964 Q163.288 461.857 163.288 458.246 Q163.288 454.635 160.95 452.528 Q158.612 450.422 154.607 450.422 Q152.732 450.422 150.857 450.839 Q149.005 451.255 147.061 452.135 L147.061 434.774 Z" fill="#000000" fill-rule="nonzero" fill-opacity="1" /><path clip-path="url(#clip330)" d="M119.885 101.496 L136.204 101.496 L136.204 105.432 L114.26 105.432 L114.26 101.496 Q116.922 98.7418 121.505 94.1122 Q126.112 89.4594 127.292 88.1168 Q129.538 85.5937 130.417 83.8576 Q131.32 82.0983 131.32 80.4085 Q131.32 77.6539 129.376 75.9178 Q127.455 74.1817 124.353 74.1817 Q122.154 74.1817 119.7 74.9456 Q117.269 75.7095 114.492 77.2604 L114.492 72.5382 Q117.316 71.404 119.769 70.8253 Q122.223 70.2466 124.26 70.2466 Q129.63 70.2466 132.825 72.9317 Q136.019 75.6169 136.019 80.1076 Q136.019 82.2372 135.209 84.1585 Q134.422 86.0567 132.316 88.6492 Q131.737 89.3205 128.635 92.5381 Q125.533 95.7325 119.885 101.496 Z" fill="#000000" fill-rule="nonzero" fill-opacity="1" /><path clip-path="url(#clip330)" d="M156.019 73.9502 Q152.408 73.9502 150.579 77.515 Q148.774 81.0567 148.774 88.1863 Q148.774 95.2927 150.579 98.8575 Q152.408 102.399 156.019 102.399 Q159.653 102.399 161.459 98.8575 Q163.288 95.2927 163.288 88.1863 Q163.288 81.0567 161.459 77.515 Q159.653 73.9502 156.019 73.9502 M156.019 70.2466 Q161.829 70.2466 164.885 74.853 Q167.964 79.4363 167.964 88.1863 Q167.964 96.9131 164.885 101.52 Q161.829 106.103 156.019 106.103 Q150.209 106.103 147.13 101.52 Q144.075 96.9131 144.075 88.1863 Q144.075 79.4363 147.13 74.853 Q150.209 70.2466 156.019 70.2466 Z" fill="#000000" fill-rule="nonzero" fill-opacity="1" /><path clip-path="url(#clip330)" d="M28.3562 718.597 L45.7028 731.488 L64.0042 717.929 L64.0042 724.836 L49.9996 735.212 L64.0042 745.588 L64.0042 752.495 L45.3526 738.649 L28.3562 751.317 L28.3562 744.41 L41.0558 734.957 L28.3562 725.504 L28.3562 718.597 Z" fill="#000000" fill-rule="nonzero" fill-opacity="1" /><polyline clip-path="url(#clip332)" style="stroke:#009af9; stroke-linecap:round; stroke-linejoin:round; stroke-width:4; stroke-opacity:1; fill:none" points="659.791,943.066 656.486,945.996 "/>
<polyline clip-path="url(#clip332)" style="stroke:#009af9; stroke-linecap:round; stroke-linejoin:round; stroke-width:4; stroke-opacity:1; fill:none" points="656.486,945.996 651.792,950.167 "/>
<polyline clip-path="url(#clip332)" style="stroke:#009af9; stroke-linecap:round; stroke-linejoin:round; stroke-width:4; stroke-opacity:1; fill:none" points="651.792,950.167 645.135,956.104 "/>
<polyline clip-path="url(#clip332)" style="stroke:#009af9; stroke-linecap:round; stroke-linejoin:round; stroke-width:4; stroke-opacity:1; fill:none" points="645.135,956.104 635.704,964.556 "/>
<polyline clip-path="url(#clip332)" style="stroke:#009af9; stroke-linecap:round; stroke-linejoin:round; stroke-width:4; stroke-opacity:1; fill:none" points="635.704,964.556 622.376,976.592 "/>
<polyline clip-path="url(#clip332)" style="stroke:#009af9; stroke-linecap:round; stroke-linejoin:round; stroke-width:4; stroke-opacity:1; fill:none" points="622.376,976.592 603.596,993.734 "/>
<polyline clip-path="url(#clip332)" style="stroke:#009af9; stroke-linecap:round; stroke-linejoin:round; stroke-width:4; stroke-opacity:1; fill:none" points="603.596,993.734 577.262,1018.15 "/>
<polyline clip-path="url(#clip332)" style="stroke:#009af9; stroke-linecap:round; stroke-linejoin:round; stroke-width:4; stroke-opacity:1; fill:none" points="577.262,1018.15 546.204,1047.55 "/>
<polyline clip-path="url(#clip332)" style="stroke:#009af9; stroke-linecap:round; stroke-linejoin:round; stroke-width:4; stroke-opacity:1; fill:none" points="546.204,1047.55 515.863,1076.97 "/>
<polyline clip-path="url(#clip332)" style="stroke:#009af9; stroke-linecap:round; stroke-linejoin:round; stroke-width:4; stroke-opacity:1; fill:none" points="515.863,1076.97 486.271,1106.37 "/>
<polyline clip-path="url(#clip332)" style="stroke:#009af9; stroke-linecap:round; stroke-linejoin:round; stroke-width:4; stroke-opacity:1; fill:none" points="486.271,1106.37 457.462,1135.75 "/>
<polyline clip-path="url(#clip332)" style="stroke:#009af9; stroke-linecap:round; stroke-linejoin:round; stroke-width:4; stroke-opacity:1; fill:none" points="457.462,1135.75 429.477,1165.07 "/>
<polyline clip-path="url(#clip332)" style="stroke:#009af9; stroke-linecap:round; stroke-linejoin:round; stroke-width:4; stroke-opacity:1; fill:none" points="429.477,1165.07 402.371,1194.3 "/>
<polyline clip-path="url(#clip332)" style="stroke:#009af9; stroke-linecap:round; stroke-linejoin:round; stroke-width:4; stroke-opacity:1; fill:none" points="402.371,1194.3 376.221,1223.39 "/>
<polyline clip-path="url(#clip332)" style="stroke:#009af9; stroke-linecap:round; stroke-linejoin:round; stroke-width:4; stroke-opacity:1; fill:none" points="376.221,1223.39 351.142,1252.29 "/>
<polyline clip-path="url(#clip332)" style="stroke:#009af9; stroke-linecap:round; stroke-linejoin:round; stroke-width:4; stroke-opacity:1; fill:none" points="351.142,1252.29 327.327,1280.88 "/>
<polyline clip-path="url(#clip332)" style="stroke:#009af9; stroke-linecap:round; stroke-linejoin:round; stroke-width:4; stroke-opacity:1; fill:none" points="327.327,1280.88 305.129,1309.02 "/>
<polyline clip-path="url(#clip332)" style="stroke:#009af9; stroke-linecap:round; stroke-linejoin:round; stroke-width:8; stroke-opacity:1; fill:none" points="305.129,1309.02 285.273,1336.42 "/>
<polyline clip-path="url(#clip332)" style="stroke:#009af9; stroke-linecap:round; stroke-linejoin:round; stroke-width:8; stroke-opacity:1; fill:none" points="285.273,1336.42 269.603,1362.39 "/>
<polyline clip-path="url(#clip332)" style="stroke:#009af9; stroke-linecap:round; stroke-linejoin:round; stroke-width:8; stroke-opacity:1; fill:none" points="269.603,1362.39 264.778,1384.24 "/>
<polyline clip-path="url(#clip332)" style="stroke:#009af9; stroke-linecap:round; stroke-linejoin:round; stroke-width:4; stroke-opacity:1; fill:none" points="264.778,1384.24 310.648,1379.37 "/>
<polyline clip-path="url(#clip332)" style="stroke:#009af9; stroke-linecap:round; stroke-linejoin:round; stroke-width:4; stroke-opacity:1; fill:none" points="310.648,1379.37 360.647,1355.05 "/>
<polyline clip-path="url(#clip332)" style="stroke:#009af9; stroke-linecap:round; stroke-linejoin:round; stroke-width:4; stroke-opacity:1; fill:none" points="360.647,1355.05 404.622,1330.38 "/>
<polyline clip-path="url(#clip332)" style="stroke:#009af9; stroke-linecap:round; stroke-linejoin:round; stroke-width:4; stroke-opacity:1; fill:none" points="404.622,1330.38 448.635,1304.21 "/>
<polyline clip-path="url(#clip332)" style="stroke:#009af9; stroke-linecap:round; stroke-linejoin:round; stroke-width:4; stroke-opacity:1; fill:none" points="448.635,1304.21 492.729,1277.11 "/>
<polyline clip-path="url(#clip332)" style="stroke:#009af9; stroke-linecap:round; stroke-linejoin:round; stroke-width:4; stroke-opacity:1; fill:none" points="492.729,1277.11 536.868,1249.41 "/>
<polyline clip-path="url(#clip332)" style="stroke:#009af9; stroke-linecap:round; stroke-linejoin:round; stroke-width:4; stroke-opacity:1; fill:none" points="536.868,1249.41 581.034,1221.3 "/>
<polyline clip-path="url(#clip332)" style="stroke:#009af9; stroke-linecap:round; stroke-linejoin:round; stroke-width:4; stroke-opacity:1; fill:none" points="581.034,1221.3 625.215,1192.9 "/>
<polyline clip-path="url(#clip332)" style="stroke:#009af9; stroke-linecap:round; stroke-linejoin:round; stroke-width:4; stroke-opacity:1; fill:none" points="625.215,1192.9 669.407,1164.28 "/>
<polyline clip-path="url(#clip332)" style="stroke:#009af9; stroke-linecap:round; stroke-linejoin:round; stroke-width:4; stroke-opacity:1; fill:none" points="669.407,1164.28 713.605,1135.51 "/>
<polyline clip-path="url(#clip332)" style="stroke:#009af9; stroke-linecap:round; stroke-linejoin:round; stroke-width:4; stroke-opacity:1; fill:none" points="713.605,1135.51 757.808,1106.61 "/>
<polyline clip-path="url(#clip332)" style="stroke:#009af9; stroke-linecap:round; stroke-linejoin:round; stroke-width:4; stroke-opacity:1; fill:none" points="757.808,1106.61 802.015,1077.61 "/>
<polyline clip-path="url(#clip332)" style="stroke:#009af9; stroke-linecap:round; stroke-linejoin:round; stroke-width:4; stroke-opacity:1; fill:none" points="802.015,1077.61 846.223,1048.54 "/>
<polyline clip-path="url(#clip332)" style="stroke:#009af9; stroke-linecap:round; stroke-linejoin:round; stroke-width:4; stroke-opacity:1; fill:none" points="846.223,1048.54 890.434,1019.4 "/>
<polyline clip-path="url(#clip332)" style="stroke:#009af9; stroke-linecap:round; stroke-linejoin:round; stroke-width:4; stroke-opacity:1; fill:none" points="890.434,1019.4 934.645,990.211 "/>
<polyline clip-path="url(#clip332)" style="stroke:#009af9; stroke-linecap:round; stroke-linejoin:round; stroke-width:4; stroke-opacity:1; fill:none" points="934.645,990.211 978.858,960.976 "/>
<polyline clip-path="url(#clip332)" style="stroke:#009af9; stroke-linecap:round; stroke-linejoin:round; stroke-width:4; stroke-opacity:1; fill:none" points="978.858,960.976 1023.07,931.705 "/>
<polyline clip-path="url(#clip332)" style="stroke:#009af9; stroke-linecap:round; stroke-linejoin:round; stroke-width:4; stroke-opacity:1; fill:none" points="1023.07,931.705 1067.29,902.402 "/>
<polyline clip-path="url(#clip332)" style="stroke:#009af9; stroke-linecap:round; stroke-linejoin:round; stroke-width:4; stroke-opacity:1; fill:none" points="1067.29,902.402 1111.5,873.073 "/>
<polyline clip-path="url(#clip332)" style="stroke:#009af9; stroke-linecap:round; stroke-linejoin:round; stroke-width:4; stroke-opacity:1; fill:none" points="1111.5,873.073 1155.72,843.72 "/>
<polyline clip-path="url(#clip332)" style="stroke:#009af9; stroke-linecap:round; stroke-linejoin:round; stroke-width:4; stroke-opacity:1; fill:none" points="1155.72,843.72 1199.93,814.348 "/>
<polyline clip-path="url(#clip332)" style="stroke:#009af9; stroke-linecap:round; stroke-linejoin:round; stroke-width:4; stroke-opacity:1; fill:none" points="1199.93,814.348 1244.15,784.958 "/>
<polyline clip-path="url(#clip332)" style="stroke:#009af9; stroke-linecap:round; stroke-linejoin:round; stroke-width:4; stroke-opacity:1; fill:none" points="1244.15,784.958 1288.36,755.553 "/>
<polyline clip-path="url(#clip332)" style="stroke:#009af9; stroke-linecap:round; stroke-linejoin:round; stroke-width:4; stroke-opacity:1; fill:none" points="1288.36,755.553 1332.58,726.134 "/>
<polyline clip-path="url(#clip332)" style="stroke:#009af9; stroke-linecap:round; stroke-linejoin:round; stroke-width:4; stroke-opacity:1; fill:none" points="1332.58,726.134 1376.79,696.704 "/>
<polyline clip-path="url(#clip332)" style="stroke:#009af9; stroke-linecap:round; stroke-linejoin:round; stroke-width:4; stroke-opacity:1; fill:none" points="1376.79,696.704 1421.01,667.262 "/>
<polyline clip-path="url(#clip332)" style="stroke:#009af9; stroke-linecap:round; stroke-linejoin:round; stroke-width:4; stroke-opacity:1; fill:none" points="1421.01,667.262 1465.23,637.811 "/>
<polyline clip-path="url(#clip332)" style="stroke:#009af9; stroke-linecap:round; stroke-linejoin:round; stroke-width:4; stroke-opacity:1; fill:none" points="1465.23,637.811 1509.44,608.352 "/>
<polyline clip-path="url(#clip332)" style="stroke:#009af9; stroke-linecap:round; stroke-linejoin:round; stroke-width:4; stroke-opacity:1; fill:none" points="1509.44,608.352 1553.66,578.884 "/>
<polyline clip-path="url(#clip332)" style="stroke:#009af9; stroke-linecap:round; stroke-linejoin:round; stroke-width:4; stroke-opacity:1; fill:none" points="1553.66,578.884 1597.88,549.41 "/>
<polyline clip-path="url(#clip332)" style="stroke:#009af9; stroke-linecap:round; stroke-linejoin:round; stroke-width:4; stroke-opacity:1; fill:none" points="1597.88,549.41 1642.09,519.929 "/>
<polyline clip-path="url(#clip332)" style="stroke:#009af9; stroke-linecap:round; stroke-linejoin:round; stroke-width:4; stroke-opacity:1; fill:none" points="1642.09,519.929 1686.31,490.443 "/>
<polyline clip-path="url(#clip332)" style="stroke:#009af9; stroke-linecap:round; stroke-linejoin:round; stroke-width:4; stroke-opacity:1; fill:none" points="1686.31,490.443 1730.53,460.951 "/>
<polyline clip-path="url(#clip332)" style="stroke:#009af9; stroke-linecap:round; stroke-linejoin:round; stroke-width:4; stroke-opacity:1; fill:none" points="1730.53,460.951 1774.74,431.455 "/>
<polyline clip-path="url(#clip332)" style="stroke:#009af9; stroke-linecap:round; stroke-linejoin:round; stroke-width:4; stroke-opacity:1; fill:none" points="1774.74,431.455 1818.96,401.954 "/>
<polyline clip-path="url(#clip332)" style="stroke:#009af9; stroke-linecap:round; stroke-linejoin:round; stroke-width:4; stroke-opacity:1; fill:none" points="1818.96,401.954 1863.18,372.449 "/>
<polyline clip-path="url(#clip332)" style="stroke:#009af9; stroke-linecap:round; stroke-linejoin:round; stroke-width:4; stroke-opacity:1; fill:none" points="1863.18,372.449 1907.39,342.94 "/>
<polyline clip-path="url(#clip332)" style="stroke:#009af9; stroke-linecap:round; stroke-linejoin:round; stroke-width:4; stroke-opacity:1; fill:none" points="1907.39,342.94 1951.61,313.427 "/>
<polyline clip-path="url(#clip332)" style="stroke:#009af9; stroke-linecap:round; stroke-linejoin:round; stroke-width:4; stroke-opacity:1; fill:none" points="1951.61,313.427 1995.83,283.912 "/>
<polyline clip-path="url(#clip332)" style="stroke:#009af9; stroke-linecap:round; stroke-linejoin:round; stroke-width:4; stroke-opacity:1; fill:none" points="1995.83,283.912 2040.05,254.393 "/>
<polyline clip-path="url(#clip332)" style="stroke:#009af9; stroke-linecap:round; stroke-linejoin:round; stroke-width:4; stroke-opacity:1; fill:none" points="2040.05,254.393 2084.26,224.872 "/>
<polyline clip-path="url(#clip332)" style="stroke:#009af9; stroke-linecap:round; stroke-linejoin:round; stroke-width:4; stroke-opacity:1; fill:none" points="2084.26,224.872 2128.48,195.348 "/>
<polyline clip-path="url(#clip332)" style="stroke:#009af9; stroke-linecap:round; stroke-linejoin:round; stroke-width:4; stroke-opacity:1; fill:none" points="2128.48,195.348 2172.7,165.822 "/>
<polyline clip-path="url(#clip332)" style="stroke:#009af9; stroke-linecap:round; stroke-linejoin:round; stroke-width:4; stroke-opacity:1; fill:none" points="2172.7,165.822 2216.91,136.294 "/>
<polyline clip-path="url(#clip332)" style="stroke:#009af9; stroke-linecap:round; stroke-linejoin:round; stroke-width:4; stroke-opacity:1; fill:none" points="2216.91,136.294 2261.13,106.763 "/>
<polyline clip-path="url(#clip332)" style="stroke:#009af9; stroke-linecap:round; stroke-linejoin:round; stroke-width:4; stroke-opacity:1; fill:none" points="2261.13,106.763 2291.94,86.1857 "/>
<circle clip-path="url(#clip332)" cx="305.129" cy="1309.02" r="10.8" fill="#ff0000" fill-rule="evenodd" fill-opacity="1" stroke="none"/>
<circle clip-path="url(#clip332)" cx="264.778" cy="1384.24" r="10.8" fill="#0000ff" fill-rule="evenodd" fill-opacity="1" stroke="none"/>
<circle clip-path="url(#clip332)" cx="305.129" cy="1309.02" r="10.8" fill="#ff0000" fill-rule="evenodd" fill-opacity="1" stroke="none"/>
<circle clip-path="url(#clip332)" cx="264.778" cy="1384.24" r="10.8" fill="#0000ff" fill-rule="evenodd" fill-opacity="1" stroke="none"/>
<path clip-path="url(#clip330)" d="M275.59 248.629 L592.899 248.629 L592.899 93.1086 L275.59 93.1086  Z" fill="#ffffff" fill-rule="evenodd" fill-opacity="1"/>
<polyline clip-path="url(#clip330)" style="stroke:#000000; stroke-linecap:round; stroke-linejoin:round; stroke-width:4; stroke-opacity:1; fill:none" points="275.59,248.629 592.899,248.629 592.899,93.1086 275.59,93.1086 275.59,248.629 "/>
<circle clip-path="url(#clip330)" cx="371.092" cy="144.949" r="23.04" fill="#ff0000" fill-rule="evenodd" fill-opacity="1" stroke="none"/>
<path clip-path="url(#clip330)" d="M488.307 146.581 L488.307 162.229 L484.047 162.229 L484.047 146.719 Q484.047 143.039 482.612 141.21 Q481.177 139.382 478.307 139.382 Q474.858 139.382 472.867 141.581 Q470.876 143.78 470.876 147.576 L470.876 162.229 L466.594 162.229 L466.594 126.21 L470.876 126.21 L470.876 140.331 Q472.404 137.993 474.464 136.835 Q476.547 135.678 479.256 135.678 Q483.723 135.678 486.015 138.456 Q488.307 141.21 488.307 146.581 Z" fill="#000000" fill-rule="nonzero" fill-opacity="1" /><path clip-path="url(#clip330)" d="M506.848 139.289 Q503.422 139.289 501.432 141.974 Q499.441 144.636 499.441 149.289 Q499.441 153.942 501.408 156.627 Q503.399 159.289 506.848 159.289 Q510.251 159.289 512.242 156.604 Q514.232 153.918 514.232 149.289 Q514.232 144.682 512.242 141.997 Q510.251 139.289 506.848 139.289 M506.848 135.678 Q512.404 135.678 515.575 139.289 Q518.746 142.9 518.746 149.289 Q518.746 155.655 515.575 159.289 Q512.404 162.9 506.848 162.9 Q501.269 162.9 498.098 159.289 Q494.95 155.655 494.95 149.289 Q494.95 142.9 498.098 139.289 Q501.269 135.678 506.848 135.678 Z" fill="#000000" fill-rule="nonzero" fill-opacity="1" /><path clip-path="url(#clip330)" d="M529.927 158.34 L529.927 172.09 L525.644 172.09 L525.644 136.303 L529.927 136.303 L529.927 140.238 Q531.269 137.923 533.306 136.812 Q535.367 135.678 538.214 135.678 Q542.936 135.678 545.876 139.428 Q548.839 143.178 548.839 149.289 Q548.839 155.4 545.876 159.15 Q542.936 162.9 538.214 162.9 Q535.367 162.9 533.306 161.789 Q531.269 160.655 529.927 158.34 M544.417 149.289 Q544.417 144.59 542.473 141.928 Q540.552 139.243 537.172 139.243 Q533.792 139.243 531.848 141.928 Q529.927 144.59 529.927 149.289 Q529.927 153.988 531.848 156.673 Q533.792 159.335 537.172 159.335 Q540.552 159.335 542.473 156.673 Q544.417 153.988 544.417 149.289 Z" fill="#000000" fill-rule="nonzero" fill-opacity="1" /><path clip-path="url(#clip330)" d="M569.024 126.21 L569.024 129.752 L564.95 129.752 Q562.658 129.752 561.755 130.678 Q560.876 131.604 560.876 134.011 L560.876 136.303 L567.89 136.303 L567.89 139.613 L560.876 139.613 L560.876 162.229 L556.593 162.229 L556.593 139.613 L552.519 139.613 L552.519 136.303 L556.593 136.303 L556.593 134.497 Q556.593 130.169 558.607 128.201 Q560.621 126.21 564.996 126.21 L569.024 126.21 Z" fill="#000000" fill-rule="nonzero" fill-opacity="1" /><circle clip-path="url(#clip330)" cx="371.092" cy="196.789" r="23.04" fill="#0000ff" fill-rule="evenodd" fill-opacity="1" stroke="none"/>
<path clip-path="url(#clip330)" d="M485.367 201.129 Q485.367 196.43 483.422 193.768 Q481.501 191.083 478.121 191.083 Q474.742 191.083 472.797 193.768 Q470.876 196.43 470.876 201.129 Q470.876 205.828 472.797 208.513 Q474.742 211.175 478.121 211.175 Q481.501 211.175 483.422 208.513 Q485.367 205.828 485.367 201.129 M470.876 192.078 Q472.219 189.763 474.256 188.652 Q476.316 187.518 479.163 187.518 Q483.885 187.518 486.825 191.268 Q489.788 195.018 489.788 201.129 Q489.788 207.24 486.825 210.99 Q483.885 214.74 479.163 214.74 Q476.316 214.74 474.256 213.629 Q472.219 212.495 470.876 210.18 L470.876 214.069 L466.594 214.069 L466.594 178.05 L470.876 178.05 L470.876 192.078 Z" fill="#000000" fill-rule="nonzero" fill-opacity="1" /><path clip-path="url(#clip330)" d="M500.969 210.18 L500.969 223.93 L496.686 223.93 L496.686 188.143 L500.969 188.143 L500.969 192.078 Q502.311 189.763 504.348 188.652 Q506.408 187.518 509.256 187.518 Q513.978 187.518 516.918 191.268 Q519.88 195.018 519.88 201.129 Q519.88 207.24 516.918 210.99 Q513.978 214.74 509.256 214.74 Q506.408 214.74 504.348 213.629 Q502.311 212.495 500.969 210.18 M515.459 201.129 Q515.459 196.43 513.515 193.768 Q511.594 191.083 508.214 191.083 Q504.834 191.083 502.89 193.768 Q500.969 196.43 500.969 201.129 Q500.969 205.828 502.89 208.513 Q504.834 211.175 508.214 211.175 Q511.594 211.175 513.515 208.513 Q515.459 205.828 515.459 201.129 Z" fill="#000000" fill-rule="nonzero" fill-opacity="1" /></svg>
