<?xml version="1.0" encoding="utf-8"?>
<svg xmlns="http://www.w3.org/2000/svg" xmlns:xlink="http://www.w3.org/1999/xlink" width="600" height="400" viewBox="0 0 2400 1600">
<defs>
  <clipPath id="clip390">
    <rect x="0" y="0" width="2400" height="1600"/>
  </clipPath>
</defs>
<path clip-path="url(#clip390)" d="M0 1600 L2400 1600 L2400 0 L0 0  Z" fill="#ffffff" fill-rule="evenodd" fill-opacity="1"/>
<defs>
  <clipPath id="clip391">
    <rect x="480" y="0" width="1681" height="1600"/>
  </clipPath>
</defs>
<path clip-path="url(#clip390)" d="M204.45 1423.18 L2352.76 1423.18 L2352.76 47.2441 L204.45 47.2441  Z" fill="#ffffff" fill-rule="evenodd" fill-opacity="1"/>
<defs>
  <clipPath id="clip392">
    <rect x="204" y="47" width="2149" height="1377"/>
  </clipPath>
</defs>
<polyline clip-path="url(#clip392)" style="stroke:#000000; stroke-linecap:round; stroke-linejoin:round; stroke-width:2; stroke-opacity:0.1; fill:none" points="204.45,1423.18 204.45,47.2441 "/>
<polyline clip-path="url(#clip392)" style="stroke:#000000; stroke-linecap:round; stroke-linejoin:round; stroke-width:2; stroke-opacity:0.1; fill:none" points="692.701,1423.18 692.701,47.2441 "/>
<polyline clip-path="url(#clip392)" style="stroke:#000000; stroke-linecap:round; stroke-linejoin:round; stroke-width:2; stroke-opacity:0.1; fill:none" points="1180.95,1423.18 1180.95,47.2441 "/>
<polyline clip-path="url(#clip392)" style="stroke:#000000; stroke-linecap:round; stroke-linejoin:round; stroke-width:2; stroke-opacity:0.1; fill:none" points="1669.2,1423.18 1669.2,47.2441 "/>
<polyline clip-path="url(#clip392)" style="stroke:#000000; stroke-linecap:round; stroke-linejoin:round; stroke-width:2; stroke-opacity:0.1; fill:none" points="2157.46,1423.18 2157.46,47.2441 "/>
<polyline clip-path="url(#clip392)" style="stroke:#000000; stroke-linecap:round; stroke-linejoin:round; stroke-width:2; stroke-opacity:0.1; fill:none" points="204.45,1423.18 2352.76,1423.18 "/>
<polyline clip-path="url(#clip392)" style="stroke:#000000; stroke-linecap:round; stroke-linejoin:round; stroke-width:2; stroke-opacity:0.1; fill:none" points="204.45,1193.86 2352.76,1193.86 "/>
<polyline clip-path="url(#clip392)" style="stroke:#000000; stroke-linecap:round; stroke-linejoin:round; stroke-width:2; stroke-opacity:0.1; fill:none" points="204.45,964.535 2352.76,964.535 "/>
<polyline clip-path="url(#clip392)" style="stroke:#000000; stroke-linecap:round; stroke-linejoin:round; stroke-width:2; stroke-opacity:0.1; fill:none" points="204.45,735.212 2352.76,735.212 "/>
<polyline clip-path="url(#clip392)" style="stroke:#000000; stroke-linecap:round; stroke-linejoin:round; stroke-width:2; stroke-opacity:0.1; fill:none" points="204.45,505.889 2352.76,505.889 "/>
<polyline clip-path="url(#clip392)" style="stroke:#000000; stroke-linecap:round; stroke-linejoin:round; stroke-width:2; stroke-opacity:0.1; fill:none" points="204.45,276.567 2352.76,276.567 "/>
<polyline clip-path="url(#clip392)" style="stroke:#000000; stroke-linecap:round; stroke-linejoin:round; stroke-width:2; stroke-opacity:0.1; fill:none" points="204.45,47.2441 2352.76,47.2441 "/>
<polyline clip-path="url(#clip390)" style="stroke:#000000; stroke-linecap:round; stroke-linejoin:round; stroke-width:4; stroke-opacity:1; fill:none" points="204.45,1423.18 2352.76,1423.18 "/>
<polyline clip-path="url(#clip390)" style="stroke:#000000; stroke-linecap:round; stroke-linejoin:round; stroke-width:4; stroke-opacity:1; fill:none" points="204.45,1423.18 204.45,1404.28 "/>
<polyline clip-path="url(#clip390)" style="stroke:#000000; stroke-linecap:round; stroke-linejoin:round; stroke-width:4; stroke-opacity:1; fill:none" points="692.701,1423.18 692.701,1404.28 "/>
<polyline clip-path="url(#clip390)" style="stroke:#000000; stroke-linecap:round; stroke-linejoin:round; stroke-width:4; stroke-opacity:1; fill:none" points="1180.95,1423.18 1180.95,1404.28 "/>
<polyline clip-path="url(#clip390)" style="stroke:#000000; stroke-linecap:round; stroke-linejoin:round; stroke-width:4; stroke-opacity:1; fill:none" points="1669.2,1423.18 1669.2,1404.28 "/>
<polyline clip-path="url(#clip390)" style="stroke:#000000; stroke-linecap:round; stroke-linejoin:round; stroke-width:4; stroke-opacity:1; fill:none" points="2157.46,1423.18 2157.46,1404.28 "/>
<path clip-path="url(#clip390)" d="M166.753 1454.1 Q163.142 1454.1 161.313 1457.66 Q159.508 1461.2 159.508 1468.33 Q159.508 1475.44 161.313 1479.01 Q163.142 1482.55 166.753 1482.55 Q170.387 1482.55 172.193 1479.01 Q174.022 1475.44 174.022 1468.33 Q174.022 1461.2 172.193 1457.66 Q170.387 1454.1 166.753 1454.1 M166.753 1450.39 Q172.563 1450.39 175.619 1455 Q178.698 1459.58 178.698 1468.33 Q178.698 1477.06 175.619 1481.67 Q172.563 1486.25 166.753 1486.25 Q160.943 1486.25 157.864 1481.67 Q154.809 1477.06 154.809 1468.33 Q154.809 1459.58 157.864 1455 Q160.943 1450.39 166.753 1450.39 Z" fill="#000000" fill-rule="nonzero" fill-opacity="1" /><path clip-path="url(#clip390)" d="M186.915 1479.7 L191.799 1479.7 L191.799 1485.58 L186.915 1485.58 L186.915 1479.7 Z" fill="#000000" fill-rule="nonzero" fill-opacity="1" /><path clip-path="url(#clip390)" d="M211.984 1454.1 Q208.373 1454.1 206.545 1457.66 Q204.739 1461.2 204.739 1468.33 Q204.739 1475.44 206.545 1479.01 Q208.373 1482.55 211.984 1482.55 Q215.619 1482.55 217.424 1479.01 Q219.253 1475.44 219.253 1468.33 Q219.253 1461.2 217.424 1457.66 Q215.619 1454.1 211.984 1454.1 M211.984 1450.39 Q217.795 1450.39 220.85 1455 Q223.929 1459.58 223.929 1468.33 Q223.929 1477.06 220.85 1481.67 Q217.795 1486.25 211.984 1486.25 Q206.174 1486.25 203.096 1481.67 Q200.04 1477.06 200.04 1468.33 Q200.04 1459.58 203.096 1455 Q206.174 1450.39 211.984 1450.39 Z" fill="#000000" fill-rule="nonzero" fill-opacity="1" /><path clip-path="url(#clip390)" d="M242.146 1454.1 Q238.535 1454.1 236.706 1457.66 Q234.901 1461.2 234.901 1468.33 Q234.901 1475.44 236.706 1479.01 Q238.535 1482.55 242.146 1482.55 Q245.78 1482.55 247.586 1479.01 Q249.415 1475.44 249.415 1468.33 Q249.415 1461.2 247.586 1457.66 Q245.78 1454.1 242.146 1454.1 M242.146 1450.39 Q247.956 1450.39 251.012 1455 Q254.091 1459.58 254.091 1468.33 Q254.091 1477.06 251.012 1481.67 Q247.956 1486.25 242.146 1486.25 Q236.336 1486.25 233.257 1481.67 Q230.202 1477.06 230.202 1468.33 Q230.202 1459.58 233.257 1455 Q236.336 1450.39 242.146 1450.39 Z" fill="#000000" fill-rule="nonzero" fill-opacity="1" /><path clip-path="url(#clip390)" d="M655.502 1454.1 Q651.891 1454.1 650.062 1457.66 Q648.257 1461.2 648.257 1468.33 Q648.257 1475.44 650.062 1479.01 Q651.891 1482.55 655.502 1482.55 Q659.136 1482.55 660.942 1479.01 Q662.771 1475.44 662.771 1468.33 Q662.771 1461.2 660.942 1457.66 Q659.136 1454.1 655.502 1454.1 M655.502 1450.39 Q661.312 1450.39 664.368 1455 Q667.447 1459.58 667.447 1468.33 Q667.447 1477.06 664.368 1481.67 Q661.312 1486.25 655.502 1486.25 Q649.692 1486.25 646.613 1481.67 Q643.558 1477.06 643.558 1468.33 Q643.558 1459.58 646.613 1455 Q649.692 1450.39 655.502 1450.39 Z" fill="#000000" fill-rule="nonzero" fill-opacity="1" /><path clip-path="url(#clip390)" d="M675.664 1479.7 L680.548 1479.7 L680.548 1485.58 L675.664 1485.58 L675.664 1479.7 Z" fill="#000000" fill-rule="nonzero" fill-opacity="1" /><path clip-path="url(#clip390)" d="M694.761 1481.64 L711.081 1481.64 L711.081 1485.58 L689.136 1485.58 L689.136 1481.64 Q691.798 1478.89 696.382 1474.26 Q700.988 1469.61 702.169 1468.27 Q704.414 1465.74 705.294 1464.01 Q706.196 1462.25 706.196 1460.56 Q706.196 1457.8 704.252 1456.07 Q702.331 1454.33 699.229 1454.33 Q697.03 1454.33 694.576 1455.09 Q692.146 1455.86 689.368 1457.41 L689.368 1452.69 Q692.192 1451.55 694.646 1450.97 Q697.099 1450.39 699.136 1450.39 Q704.507 1450.39 707.701 1453.08 Q710.895 1455.77 710.895 1460.26 Q710.895 1462.39 710.085 1464.31 Q709.298 1466.2 707.192 1468.8 Q706.613 1469.47 703.511 1472.69 Q700.409 1475.88 694.761 1481.64 Z" fill="#000000" fill-rule="nonzero" fill-opacity="1" /><path clip-path="url(#clip390)" d="M720.942 1451.02 L739.298 1451.02 L739.298 1454.96 L725.224 1454.96 L725.224 1463.43 Q726.243 1463.08 727.261 1462.92 Q728.28 1462.73 729.298 1462.73 Q735.085 1462.73 738.465 1465.9 Q741.844 1469.08 741.844 1474.49 Q741.844 1480.07 738.372 1483.17 Q734.9 1486.25 728.581 1486.25 Q726.405 1486.25 724.136 1485.88 Q721.891 1485.51 719.483 1484.77 L719.483 1480.07 Q721.567 1481.2 723.789 1481.76 Q726.011 1482.32 728.488 1482.32 Q732.493 1482.32 734.831 1480.21 Q737.168 1478.1 737.168 1474.49 Q737.168 1470.88 734.831 1468.77 Q732.493 1466.67 728.488 1466.67 Q726.613 1466.67 724.738 1467.08 Q722.886 1467.5 720.942 1468.38 L720.942 1451.02 Z" fill="#000000" fill-rule="nonzero" fill-opacity="1" /><path clip-path="url(#clip390)" d="M1143.26 1454.1 Q1139.64 1454.1 1137.82 1457.66 Q1136.01 1461.2 1136.01 1468.33 Q1136.01 1475.44 1137.82 1479.01 Q1139.64 1482.55 1143.26 1482.55 Q1146.89 1482.55 1148.7 1479.01 Q1150.52 1475.44 1150.52 1468.33 Q1150.52 1461.2 1148.7 1457.66 Q1146.89 1454.1 1143.26 1454.1 M1143.26 1450.39 Q1149.07 1450.39 1152.12 1455 Q1155.2 1459.58 1155.2 1468.33 Q1155.2 1477.06 1152.12 1481.67 Q1149.07 1486.25 1143.26 1486.25 Q1137.45 1486.25 1134.37 1481.67 Q1131.31 1477.06 1131.31 1468.33 Q1131.31 1459.58 1134.37 1455 Q1137.45 1450.39 1143.26 1450.39 Z" fill="#000000" fill-rule="nonzero" fill-opacity="1" /><path clip-path="url(#clip390)" d="M1163.42 1479.7 L1168.3 1479.7 L1168.3 1485.58 L1163.42 1485.58 L1163.42 1479.7 Z" fill="#000000" fill-rule="nonzero" fill-opacity="1" /><path clip-path="url(#clip390)" d="M1178.53 1451.02 L1196.89 1451.02 L1196.89 1454.96 L1182.82 1454.96 L1182.82 1463.43 Q1183.83 1463.08 1184.85 1462.92 Q1185.87 1462.73 1186.89 1462.73 Q1192.68 1462.73 1196.06 1465.9 Q1199.44 1469.08 1199.44 1474.49 Q1199.44 1480.07 1195.96 1483.17 Q1192.49 1486.25 1186.17 1486.25 Q1184 1486.25 1181.73 1485.88 Q1179.48 1485.51 1177.08 1484.77 L1177.08 1480.07 Q1179.16 1481.2 1181.38 1481.76 Q1183.6 1482.32 1186.08 1482.32 Q1190.08 1482.32 1192.42 1480.21 Q1194.76 1478.1 1194.76 1474.49 Q1194.76 1470.88 1192.42 1468.77 Q1190.08 1466.67 1186.08 1466.67 Q1184.2 1466.67 1182.33 1467.08 Q1180.48 1467.5 1178.53 1468.38 L1178.53 1451.02 Z" fill="#000000" fill-rule="nonzero" fill-opacity="1" /><path clip-path="url(#clip390)" d="M1218.65 1454.1 Q1215.04 1454.1 1213.21 1457.66 Q1211.4 1461.2 1211.4 1468.33 Q1211.4 1475.44 1213.21 1479.01 Q1215.04 1482.55 1218.65 1482.55 Q1222.28 1482.55 1224.09 1479.01 Q1225.92 1475.44 1225.92 1468.33 Q1225.92 1461.2 1224.09 1457.66 Q1222.28 1454.1 1218.65 1454.1 M1218.65 1450.39 Q1224.46 1450.39 1227.51 1455 Q1230.59 1459.58 1230.59 1468.33 Q1230.59 1477.06 1227.51 1481.67 Q1224.46 1486.25 1218.65 1486.25 Q1212.84 1486.25 1209.76 1481.67 Q1206.7 1477.06 1206.7 1468.33 Q1206.7 1459.58 1209.76 1455 Q1212.84 1450.39 1218.65 1450.39 Z" fill="#000000" fill-rule="nonzero" fill-opacity="1" /><path clip-path="url(#clip390)" d="M1632.01 1454.1 Q1628.39 1454.1 1626.57 1457.66 Q1624.76 1461.2 1624.76 1468.33 Q1624.76 1475.44 1626.57 1479.01 Q1628.39 1482.55 1632.01 1482.55 Q1635.64 1482.55 1637.44 1479.01 Q1639.27 1475.44 1639.27 1468.33 Q1639.27 1461.2 1637.44 1457.66 Q1635.64 1454.1 1632.01 1454.1 M1632.01 1450.39 Q1637.82 1450.39 1640.87 1455 Q1643.95 1459.58 1643.95 1468.33 Q1643.95 1477.06 1640.87 1481.67 Q1637.82 1486.25 1632.01 1486.25 Q1626.19 1486.25 1623.12 1481.67 Q1620.06 1477.06 1620.06 1468.33 Q1620.06 1459.58 1623.12 1455 Q1626.19 1450.39 1632.01 1450.39 Z" fill="#000000" fill-rule="nonzero" fill-opacity="1" /><path clip-path="url(#clip390)" d="M1652.17 1479.7 L1657.05 1479.7 L1657.05 1485.58 L1652.17 1485.58 L1652.17 1479.7 Z" fill="#000000" fill-rule="nonzero" fill-opacity="1" /><path clip-path="url(#clip390)" d="M1666.06 1451.02 L1688.28 1451.02 L1688.28 1453.01 L1675.73 1485.58 L1670.85 1485.58 L1682.65 1454.96 L1666.06 1454.96 L1666.06 1451.02 Z" fill="#000000" fill-rule="nonzero" fill-opacity="1" /><path clip-path="url(#clip390)" d="M1697.44 1451.02 L1715.8 1451.02 L1715.8 1454.96 L1701.73 1454.96 L1701.73 1463.43 Q1702.75 1463.08 1703.76 1462.92 Q1704.78 1462.73 1705.8 1462.73 Q1711.59 1462.73 1714.97 1465.9 Q1718.35 1469.08 1718.35 1474.49 Q1718.35 1480.07 1714.87 1483.17 Q1711.4 1486.25 1705.08 1486.25 Q1702.91 1486.25 1700.64 1485.88 Q1698.39 1485.51 1695.99 1484.77 L1695.99 1480.07 Q1698.07 1481.2 1700.29 1481.76 Q1702.51 1482.32 1704.99 1482.32 Q1709 1482.32 1711.33 1480.21 Q1713.67 1478.1 1713.67 1474.49 Q1713.67 1470.88 1711.33 1468.77 Q1709 1466.67 1704.99 1466.67 Q1703.12 1466.67 1701.24 1467.08 Q1699.39 1467.5 1697.44 1468.38 L1697.44 1451.02 Z" fill="#000000" fill-rule="nonzero" fill-opacity="1" /><path clip-path="url(#clip390)" d="M2109.53 1481.64 L2117.17 1481.64 L2117.17 1455.28 L2108.86 1456.95 L2108.86 1452.69 L2117.12 1451.02 L2121.8 1451.02 L2121.8 1481.64 L2129.43 1481.64 L2129.43 1485.58 L2109.53 1485.58 L2109.53 1481.64 Z" fill="#000000" fill-rule="nonzero" fill-opacity="1" /><path clip-path="url(#clip390)" d="M2138.88 1479.7 L2143.76 1479.7 L2143.76 1485.58 L2138.88 1485.58 L2138.88 1479.7 Z" fill="#000000" fill-rule="nonzero" fill-opacity="1" /><path clip-path="url(#clip390)" d="M2163.95 1454.1 Q2160.34 1454.1 2158.51 1457.66 Q2156.7 1461.2 2156.7 1468.33 Q2156.7 1475.44 2158.51 1479.01 Q2160.34 1482.55 2163.95 1482.55 Q2167.58 1482.55 2169.39 1479.01 Q2171.22 1475.44 2171.22 1468.33 Q2171.22 1461.2 2169.39 1457.66 Q2167.58 1454.1 2163.95 1454.1 M2163.95 1450.39 Q2169.76 1450.39 2172.81 1455 Q2175.89 1459.58 2175.89 1468.33 Q2175.89 1477.06 2172.81 1481.67 Q2169.76 1486.25 2163.95 1486.25 Q2158.14 1486.25 2155.06 1481.67 Q2152 1477.06 2152 1468.33 Q2152 1459.58 2155.06 1455 Q2158.14 1450.39 2163.95 1450.39 Z" fill="#000000" fill-rule="nonzero" fill-opacity="1" /><path clip-path="url(#clip390)" d="M2194.11 1454.1 Q2190.5 1454.1 2188.67 1457.66 Q2186.86 1461.2 2186.86 1468.33 Q2186.86 1475.44 2188.67 1479.01 Q2190.5 1482.55 2194.11 1482.55 Q2197.74 1482.55 2199.55 1479.01 Q2201.38 1475.44 2201.38 1468.33 Q2201.38 1461.2 2199.55 1457.66 Q2197.74 1454.1 2194.11 1454.1 M2194.11 1450.39 Q2199.92 1450.39 2202.98 1455 Q2206.05 1459.58 2206.05 1468.33 Q2206.05 1477.06 2202.98 1481.67 Q2199.92 1486.25 2194.11 1486.25 Q2188.3 1486.25 2185.22 1481.67 Q2182.17 1477.06 2182.17 1468.33 Q2182.17 1459.58 2185.22 1455 Q2188.3 1450.39 2194.11 1450.39 Z" fill="#000000" fill-rule="nonzero" fill-opacity="1" /><path clip-path="url(#clip390)" d="M769.427 1524.79 Q768.441 1524.22 767.263 1523.96 Q766.117 1523.67 764.717 1523.67 Q759.752 1523.67 757.078 1526.92 Q754.436 1530.14 754.436 1536.18 L754.436 1554.96 L748.548 1554.96 L748.548 1519.31 L754.436 1519.31 L754.436 1524.85 Q756.282 1521.61 759.242 1520.05 Q762.202 1518.45 766.436 1518.45 Q767.04 1518.45 767.772 1518.55 Q768.504 1518.61 769.396 1518.77 L769.427 1524.79 Z" fill="#000000" fill-rule="nonzero" fill-opacity="1" /><path clip-path="url(#clip390)" d="M791.771 1537.04 Q784.673 1537.04 781.936 1538.67 Q779.199 1540.29 779.199 1544.2 Q779.199 1547.32 781.236 1549.17 Q783.305 1550.98 786.838 1550.98 Q791.707 1550.98 794.636 1547.55 Q797.596 1544.08 797.596 1538.35 L797.596 1537.04 L791.771 1537.04 M803.452 1534.62 L803.452 1554.96 L797.596 1554.96 L797.596 1549.55 Q795.591 1552.8 792.599 1554.36 Q789.607 1555.88 785.278 1555.88 Q779.804 1555.88 776.557 1552.83 Q773.342 1549.74 773.342 1544.59 Q773.342 1538.57 777.353 1535.51 Q781.395 1532.46 789.384 1532.46 L797.596 1532.46 L797.596 1531.89 Q797.596 1527.84 794.922 1525.65 Q792.28 1523.42 787.474 1523.42 Q784.419 1523.42 781.522 1524.15 Q778.626 1524.88 775.952 1526.35 L775.952 1520.94 Q779.167 1519.7 782.191 1519.09 Q785.214 1518.45 788.079 1518.45 Q795.813 1518.45 799.633 1522.46 Q803.452 1526.47 803.452 1534.62 Z" fill="#000000" fill-rule="nonzero" fill-opacity="1" /><path clip-path="url(#clip390)" d="M821.308 1509.19 L821.308 1519.31 L833.371 1519.31 L833.371 1523.87 L821.308 1523.87 L821.308 1543.22 Q821.308 1547.58 822.486 1548.82 Q823.695 1550.06 827.355 1550.06 L833.371 1550.06 L833.371 1554.96 L827.355 1554.96 Q820.576 1554.96 817.998 1552.45 Q815.42 1549.9 815.42 1543.22 L815.42 1523.87 L811.123 1523.87 L811.123 1519.31 L815.42 1519.31 L815.42 1509.19 L821.308 1509.19 Z" fill="#000000" fill-rule="nonzero" fill-opacity="1" /><path clip-path="url(#clip390)" d="M871.565 1535.67 L871.565 1538.54 L844.638 1538.54 Q845.02 1544.59 848.267 1547.77 Q851.545 1550.92 857.37 1550.92 Q860.744 1550.92 863.895 1550.09 Q867.077 1549.26 870.197 1547.61 L870.197 1553.15 Q867.046 1554.48 863.735 1555.18 Q860.425 1555.88 857.02 1555.88 Q848.49 1555.88 843.492 1550.92 Q838.527 1545.95 838.527 1537.49 Q838.527 1528.73 843.238 1523.61 Q847.98 1518.45 856.001 1518.45 Q863.194 1518.45 867.364 1523.1 Q871.565 1527.72 871.565 1535.67 M865.709 1533.95 Q865.645 1529.15 863.003 1526.28 Q860.393 1523.42 856.065 1523.42 Q851.163 1523.42 848.203 1526.19 Q845.275 1528.96 844.829 1533.99 L865.709 1533.95 Z" fill="#000000" fill-rule="nonzero" fill-opacity="1" /><path clip-path="url(#clip390)" d="M915.711 1523.42 Q911.001 1523.42 908.264 1527.11 Q905.526 1530.77 905.526 1537.17 Q905.526 1543.57 908.232 1547.26 Q910.969 1550.92 915.711 1550.92 Q920.39 1550.92 923.127 1547.23 Q925.865 1543.54 925.865 1537.17 Q925.865 1530.84 923.127 1527.14 Q920.39 1523.42 915.711 1523.42 M915.711 1518.45 Q923.35 1518.45 927.711 1523.42 Q932.071 1528.38 932.071 1537.17 Q932.071 1545.92 927.711 1550.92 Q923.35 1555.88 915.711 1555.88 Q908.041 1555.88 903.68 1550.92 Q899.352 1545.92 899.352 1537.17 Q899.352 1528.38 903.68 1523.42 Q908.041 1518.45 915.711 1518.45 Z" fill="#000000" fill-rule="nonzero" fill-opacity="1" /><path clip-path="url(#clip390)" d="M959.826 1505.44 L959.826 1510.31 L954.224 1510.31 Q951.073 1510.31 949.832 1511.58 Q948.622 1512.85 948.622 1516.16 L948.622 1519.31 L958.266 1519.31 L958.266 1523.87 L948.622 1523.87 L948.622 1554.96 L942.734 1554.96 L942.734 1523.87 L937.132 1523.87 L937.132 1519.31 L942.734 1519.31 L942.734 1516.83 Q942.734 1510.88 945.503 1508.17 Q948.272 1505.44 954.288 1505.44 L959.826 1505.44 Z" fill="#000000" fill-rule="nonzero" fill-opacity="1" /><path clip-path="url(#clip390)" d="M1004.72 1547.33 Q1004.97 1547.62 1004.97 1547.91 Q1004.97 1548.2 1004.33 1549.04 Q1003.72 1549.87 1002.4 1551 Q1001.08 1552.13 999.369 1553.19 Q997.662 1554.25 995.15 1554.96 Q992.638 1555.7 989.997 1555.7 Q985.07 1555.7 982.171 1552.45 Q979.305 1549.2 979.305 1544.53 Q979.305 1539.99 981.849 1535.64 Q984.393 1531.26 988.516 1528.55 Q992.638 1525.82 996.986 1525.82 Q1000.43 1525.82 1002.59 1527.43 Q1004.75 1529.04 1004.75 1531.48 Q1004.75 1533.38 1003.65 1534.54 Q1002.56 1535.7 1001.08 1535.7 Q1000.05 1535.7 999.337 1535.12 Q998.628 1534.51 998.628 1533.38 Q998.628 1531.93 999.82 1530.81 Q1000.27 1530.36 1000.79 1530.16 Q1001.33 1529.94 1001.66 1529.94 Q1001.98 1529.91 1002.72 1529.91 Q1002.04 1528.65 1000.43 1527.97 Q998.854 1527.26 997.05 1527.26 Q994.377 1527.26 991.833 1529.13 Q989.289 1530.97 987.743 1533.87 Q986.197 1536.7 985.198 1540.73 Q984.2 1544.72 984.2 1547.04 Q984.2 1550.23 985.682 1552.22 Q987.163 1554.22 990.126 1554.22 Q990.706 1554.22 991.318 1554.19 Q991.962 1554.16 993.572 1553.8 Q995.215 1553.45 996.664 1552.84 Q998.113 1552.22 999.949 1550.9 Q1001.82 1549.55 1003.3 1547.72 Q1003.81 1547.04 1004.17 1547.04 Q1004.46 1547.04 1004.72 1547.33 Z" fill="#000000" fill-rule="nonzero" fill-opacity="1" /><path clip-path="url(#clip390)" d="M1031.59 1531.48 Q1031.59 1533.29 1030.68 1534.25 Q1029.78 1535.19 1028.56 1535.19 Q1027.56 1535.19 1027.01 1534.61 Q1026.5 1534.03 1026.5 1533.25 Q1026.5 1532.13 1027.4 1531.23 Q1028.33 1530.32 1029.69 1530.29 Q1029.24 1529.1 1028.04 1528.39 Q1026.85 1527.65 1025.79 1527.46 Q1024.76 1527.26 1023.73 1527.26 Q1021.7 1527.26 1020.15 1527.91 Q1018.61 1528.55 1017.83 1529.55 Q1017.06 1530.52 1016.71 1531.45 Q1016.35 1532.39 1016.35 1533.19 Q1016.35 1533.9 1016.51 1534.48 Q1016.71 1535.03 1017.16 1535.44 Q1017.61 1535.83 1017.93 1536.09 Q1018.29 1536.35 1019.06 1536.57 Q1019.83 1536.8 1020.15 1536.89 Q1020.48 1536.96 1021.38 1537.15 Q1023.24 1537.54 1024.08 1537.76 Q1024.92 1537.96 1026.01 1538.5 Q1027.14 1539.05 1027.98 1539.92 Q1030.01 1541.95 1030.01 1544.75 Q1030.01 1545.78 1029.65 1547.04 Q1029.33 1548.29 1028.4 1549.87 Q1027.46 1551.45 1026.05 1552.71 Q1024.63 1553.96 1022.18 1554.83 Q1019.77 1555.7 1016.74 1555.7 Q1012.52 1555.7 1009.91 1553.93 Q1007.3 1552.13 1007.3 1549.29 Q1007.3 1547.23 1008.43 1546.1 Q1009.56 1544.95 1011.01 1544.95 Q1012.1 1544.95 1012.78 1545.56 Q1013.45 1546.14 1013.45 1547.23 Q1013.45 1548.71 1012.26 1549.84 Q1011.07 1550.97 1009.3 1550.74 Q1010.81 1554.22 1016.8 1554.22 Q1019.06 1554.22 1020.8 1553.64 Q1022.57 1553.03 1023.53 1552.19 Q1024.53 1551.32 1025.18 1550.26 Q1025.82 1549.2 1026.01 1548.39 Q1026.24 1547.59 1026.24 1546.97 Q1026.24 1545.91 1025.82 1545.11 Q1025.4 1544.3 1024.82 1543.85 Q1024.28 1543.37 1023.21 1542.98 Q1022.18 1542.56 1021.44 1542.4 Q1020.7 1542.24 1019.38 1541.98 Q1018.77 1541.85 1018.38 1541.79 Q1018 1541.69 1017.19 1541.44 Q1016.42 1541.15 1015.87 1540.86 Q1015.35 1540.57 1014.68 1540.05 Q1014 1539.53 1013.58 1538.92 Q1013.16 1538.31 1012.87 1537.41 Q1012.58 1536.51 1012.58 1535.44 Q1012.58 1534.48 1012.87 1533.32 Q1013.2 1532.16 1014 1530.81 Q1014.84 1529.45 1016.03 1528.36 Q1017.22 1527.26 1019.22 1526.56 Q1021.25 1525.82 1023.73 1525.82 Q1027.33 1525.82 1029.46 1527.49 Q1031.59 1529.13 1031.59 1531.48 Z" fill="#000000" fill-rule="nonzero" fill-opacity="1" /><path clip-path="url(#clip390)" d="M1066.84 1536.35 Q1066.84 1541.05 1064.46 1545.59 Q1062.11 1550.13 1058.4 1552.93 Q1054.7 1555.7 1050.93 1555.7 Q1048.68 1555.7 1047.16 1554.48 Q1045.68 1553.22 1044.88 1551.45 Q1044.27 1553.64 1042.94 1558.89 Q1041.62 1564.14 1041.62 1564.66 Q1041.62 1564.95 1041.69 1565.07 Q1041.75 1565.2 1042.04 1565.36 Q1042.33 1565.56 1043.04 1565.62 Q1043.75 1565.72 1044.94 1565.72 Q1045.55 1565.72 1045.78 1565.72 Q1046.04 1565.75 1046.26 1565.91 Q1046.52 1566.07 1046.52 1566.43 Q1046.52 1567.75 1045.33 1567.75 Q1044.27 1567.75 1042.08 1567.65 Q1039.89 1567.55 1038.79 1567.55 Q1037.86 1567.55 1035.99 1567.65 Q1034.12 1567.75 1033.25 1567.75 Q1032.38 1567.75 1032.38 1566.97 Q1032.38 1566.52 1032.51 1566.23 Q1032.61 1565.98 1032.86 1565.85 Q1033.12 1565.75 1033.35 1565.72 Q1033.54 1565.72 1033.93 1565.72 Q1035.41 1565.72 1036.05 1565.46 Q1036.7 1565.24 1036.92 1564.75 Q1037.18 1564.3 1037.47 1563.01 L1044.88 1533.64 Q1045.33 1531.68 1045.33 1530.29 Q1045.33 1528.55 1044.78 1527.91 Q1044.23 1527.26 1043.27 1527.26 Q1041.59 1527.26 1040.5 1529.26 Q1039.4 1531.26 1038.47 1535.12 Q1038.18 1536.19 1037.99 1536.41 Q1037.82 1536.64 1037.34 1536.64 Q1036.54 1536.6 1036.54 1535.96 Q1036.54 1535.8 1036.79 1534.77 Q1037.05 1533.71 1037.53 1532.16 Q1038.05 1530.58 1038.6 1529.58 Q1038.92 1528.91 1039.21 1528.46 Q1039.5 1528.01 1040.08 1527.3 Q1040.69 1526.59 1041.56 1526.2 Q1042.43 1525.82 1043.49 1525.82 Q1045.55 1525.82 1047.26 1527.04 Q1048.97 1528.26 1049.42 1530.74 Q1051.25 1528.58 1053.51 1527.2 Q1055.76 1525.82 1058.05 1525.82 Q1061.85 1525.82 1064.33 1528.78 Q1066.84 1531.71 1066.84 1536.35 M1062.08 1533.45 Q1062.08 1530.52 1060.95 1528.91 Q1059.85 1527.26 1057.86 1527.26 Q1055.38 1527.26 1052.51 1529.78 Q1049.68 1532.16 1049.1 1534.38 L1045.84 1547.3 L1045.65 1548.36 Q1045.65 1548.55 1045.75 1549.13 Q1045.88 1549.68 1046.23 1550.58 Q1046.62 1551.48 1047.13 1552.29 Q1047.68 1553.06 1048.65 1553.64 Q1049.64 1554.22 1050.87 1554.22 Q1052.83 1554.22 1054.96 1552.48 Q1057.12 1550.74 1058.73 1547.46 Q1059.72 1545.33 1060.88 1540.76 Q1062.08 1536.15 1062.08 1533.45 Z" fill="#000000" fill-rule="nonzero" fill-opacity="1" /><path clip-path="url(#clip390)" d="M1127.08 1537.54 Q1127.47 1537.92 1127.47 1538.47 Q1127.47 1539.02 1127.08 1539.41 Q1126.7 1539.79 1126.15 1539.79 L1084.86 1539.79 Q1084.31 1539.79 1083.93 1539.41 Q1083.54 1539.02 1083.54 1538.47 Q1083.54 1537.92 1083.93 1537.54 Q1084.31 1537.15 1084.86 1537.15 L1126.15 1537.15 Q1126.7 1537.15 1127.08 1537.54 Z" fill="#000000" fill-rule="nonzero" fill-opacity="1" /><path clip-path="url(#clip390)" d="M1152.66 1517.31 L1152.66 1515.25 Q1160.58 1515.25 1164.67 1511.03 Q1165.8 1511.03 1165.99 1511.29 Q1166.18 1511.55 1166.18 1512.74 L1166.18 1549.74 Q1166.18 1551.71 1167.15 1552.32 Q1168.12 1552.93 1172.33 1552.93 L1174.43 1552.93 L1174.43 1554.96 Q1172.11 1554.77 1163.74 1554.77 Q1155.36 1554.77 1153.08 1554.96 L1153.08 1552.93 L1155.17 1552.93 Q1159.32 1552.93 1160.32 1552.35 Q1161.32 1551.74 1161.32 1549.74 L1161.32 1515.57 Q1157.87 1517.31 1152.66 1517.31 Z" fill="#000000" fill-rule="nonzero" fill-opacity="1" /><path clip-path="url(#clip390)" d="M1226 1523.42 Q1221.29 1523.42 1218.55 1527.11 Q1215.81 1530.77 1215.81 1537.17 Q1215.81 1543.57 1218.52 1547.26 Q1221.25 1550.92 1226 1550.92 Q1230.68 1550.92 1233.41 1547.23 Q1236.15 1543.54 1236.15 1537.17 Q1236.15 1530.84 1233.41 1527.14 Q1230.68 1523.42 1226 1523.42 M1226 1518.45 Q1233.64 1518.45 1238 1523.42 Q1242.36 1528.38 1242.36 1537.17 Q1242.36 1545.92 1238 1550.92 Q1233.64 1555.88 1226 1555.88 Q1218.33 1555.88 1213.97 1550.92 Q1209.64 1545.92 1209.64 1537.17 Q1209.64 1528.38 1213.97 1523.42 Q1218.33 1518.45 1226 1518.45 Z" fill="#000000" fill-rule="nonzero" fill-opacity="1" /><path clip-path="url(#clip390)" d="M1247.86 1519.31 L1254.07 1519.31 L1265.21 1549.23 L1276.35 1519.31 L1282.56 1519.31 L1269.19 1554.96 L1261.23 1554.96 L1247.86 1519.31 Z" fill="#000000" fill-rule="nonzero" fill-opacity="1" /><path clip-path="url(#clip390)" d="M1321.13 1535.67 L1321.13 1538.54 L1294.21 1538.54 Q1294.59 1544.59 1297.83 1547.77 Q1301.11 1550.92 1306.94 1550.92 Q1310.31 1550.92 1313.46 1550.09 Q1316.65 1549.26 1319.76 1547.61 L1319.76 1553.15 Q1316.61 1554.48 1313.3 1555.18 Q1309.99 1555.88 1306.59 1555.88 Q1298.06 1555.88 1293.06 1550.92 Q1288.09 1545.95 1288.09 1537.49 Q1288.09 1528.73 1292.81 1523.61 Q1297.55 1518.45 1305.57 1518.45 Q1312.76 1518.45 1316.93 1523.1 Q1321.13 1527.72 1321.13 1535.67 M1315.28 1533.95 Q1315.21 1529.15 1312.57 1526.28 Q1309.96 1523.42 1305.63 1523.42 Q1300.73 1523.42 1297.77 1526.19 Q1294.84 1528.96 1294.4 1533.99 L1315.28 1533.95 Z" fill="#000000" fill-rule="nonzero" fill-opacity="1" /><path clip-path="url(#clip390)" d="M1351.4 1524.79 Q1350.42 1524.22 1349.24 1523.96 Q1348.09 1523.67 1346.69 1523.67 Q1341.73 1523.67 1339.05 1526.92 Q1336.41 1530.14 1336.41 1536.18 L1336.41 1554.96 L1330.52 1554.96 L1330.52 1519.31 L1336.41 1519.31 L1336.41 1524.85 Q1338.26 1521.61 1341.22 1520.05 Q1344.18 1518.45 1348.41 1518.45 Q1349.01 1518.45 1349.75 1518.55 Q1350.48 1518.61 1351.37 1518.77 L1351.4 1524.79 Z" fill="#000000" fill-rule="nonzero" fill-opacity="1" /><path clip-path="url(#clip390)" d="M1386.6 1535.67 L1386.6 1538.54 L1359.68 1538.54 Q1360.06 1544.59 1363.31 1547.77 Q1366.58 1550.92 1372.41 1550.92 Q1375.78 1550.92 1378.93 1550.09 Q1382.12 1549.26 1385.24 1547.61 L1385.24 1553.15 Q1382.08 1554.48 1378.77 1555.18 Q1375.46 1555.88 1372.06 1555.88 Q1363.53 1555.88 1358.53 1550.92 Q1353.57 1545.95 1353.57 1537.49 Q1353.57 1528.73 1358.28 1523.61 Q1363.02 1518.45 1371.04 1518.45 Q1378.23 1518.45 1382.4 1523.1 Q1386.6 1527.72 1386.6 1535.67 M1380.75 1533.95 Q1380.68 1529.15 1378.04 1526.28 Q1375.43 1523.42 1371.1 1523.42 Q1366.2 1523.42 1363.24 1526.19 Q1360.31 1528.96 1359.87 1533.99 L1380.75 1533.95 Z" fill="#000000" fill-rule="nonzero" fill-opacity="1" /><path clip-path="url(#clip390)" d="M1424.7 1519.31 L1411.81 1536.66 L1425.37 1554.96 L1418.46 1554.96 L1408.09 1540.96 L1397.71 1554.96 L1390.81 1554.96 L1404.65 1536.31 L1391.98 1519.31 L1398.89 1519.31 L1408.34 1532.01 L1417.8 1519.31 L1424.7 1519.31 Z" fill="#000000" fill-rule="nonzero" fill-opacity="1" /><path clip-path="url(#clip390)" d="M1439.31 1549.61 L1439.31 1568.52 L1433.42 1568.52 L1433.42 1519.31 L1439.31 1519.31 L1439.31 1524.72 Q1441.16 1521.54 1443.96 1520.01 Q1446.79 1518.45 1450.71 1518.45 Q1457.2 1518.45 1461.24 1523.61 Q1465.32 1528.77 1465.32 1537.17 Q1465.32 1545.57 1461.24 1550.73 Q1457.2 1555.88 1450.71 1555.88 Q1446.79 1555.88 1443.96 1554.36 Q1441.16 1552.8 1439.31 1549.61 M1459.24 1537.17 Q1459.24 1530.71 1456.56 1527.05 Q1453.92 1523.36 1449.27 1523.36 Q1444.63 1523.36 1441.95 1527.05 Q1439.31 1530.71 1439.31 1537.17 Q1439.31 1543.63 1441.95 1547.32 Q1444.63 1550.98 1449.27 1550.98 Q1453.92 1550.98 1456.56 1547.32 Q1459.24 1543.63 1459.24 1537.17 Z" fill="#000000" fill-rule="nonzero" fill-opacity="1" /><path clip-path="url(#clip390)" d="M1495.68 1524.79 Q1494.69 1524.22 1493.52 1523.96 Q1492.37 1523.67 1490.97 1523.67 Q1486 1523.67 1483.33 1526.92 Q1480.69 1530.14 1480.69 1536.18 L1480.69 1554.96 L1474.8 1554.96 L1474.8 1519.31 L1480.69 1519.31 L1480.69 1524.85 Q1482.54 1521.61 1485.5 1520.05 Q1488.46 1518.45 1492.69 1518.45 Q1493.29 1518.45 1494.03 1518.55 Q1494.76 1518.61 1495.65 1518.77 L1495.68 1524.79 Z" fill="#000000" fill-rule="nonzero" fill-opacity="1" /><path clip-path="url(#clip390)" d="M1530.88 1535.67 L1530.88 1538.54 L1503.96 1538.54 Q1504.34 1544.59 1507.58 1547.77 Q1510.86 1550.92 1516.69 1550.92 Q1520.06 1550.92 1523.21 1550.09 Q1526.4 1549.26 1529.51 1547.61 L1529.51 1553.15 Q1526.36 1554.48 1523.05 1555.18 Q1519.74 1555.88 1516.34 1555.88 Q1507.81 1555.88 1502.81 1550.92 Q1497.84 1545.95 1497.84 1537.49 Q1497.84 1528.73 1502.56 1523.61 Q1507.3 1518.45 1515.32 1518.45 Q1522.51 1518.45 1526.68 1523.1 Q1530.88 1527.72 1530.88 1535.67 M1525.03 1533.95 Q1524.96 1529.15 1522.32 1526.28 Q1519.71 1523.42 1515.38 1523.42 Q1510.48 1523.42 1507.52 1526.19 Q1504.59 1528.96 1504.15 1533.99 L1525.03 1533.95 Z" fill="#000000" fill-rule="nonzero" fill-opacity="1" /><path clip-path="url(#clip390)" d="M1563.22 1520.36 L1563.22 1525.9 Q1560.74 1524.63 1558.06 1523.99 Q1555.39 1523.36 1552.53 1523.36 Q1548.17 1523.36 1545.97 1524.69 Q1543.81 1526.03 1543.81 1528.7 Q1543.81 1530.74 1545.36 1531.92 Q1546.92 1533.06 1551.64 1534.11 L1553.64 1534.56 Q1559.88 1535.9 1562.49 1538.35 Q1565.13 1540.77 1565.13 1545.13 Q1565.13 1550.09 1561.18 1552.99 Q1557.27 1555.88 1550.39 1555.88 Q1547.53 1555.88 1544.41 1555.31 Q1541.32 1554.77 1537.89 1553.66 L1537.89 1547.61 Q1541.13 1549.3 1544.28 1550.16 Q1547.43 1550.98 1550.52 1550.98 Q1554.66 1550.98 1556.89 1549.58 Q1559.11 1548.15 1559.11 1545.57 Q1559.11 1543.18 1557.49 1541.91 Q1555.9 1540.64 1550.46 1539.46 L1548.42 1538.98 Q1542.98 1537.84 1540.56 1535.48 Q1538.14 1533.1 1538.14 1528.96 Q1538.14 1523.93 1541.7 1521.19 Q1545.27 1518.45 1551.83 1518.45 Q1555.07 1518.45 1557.94 1518.93 Q1560.8 1519.41 1563.22 1520.36 Z" fill="#000000" fill-rule="nonzero" fill-opacity="1" /><path clip-path="url(#clip390)" d="M1597.18 1520.36 L1597.18 1525.9 Q1594.7 1524.63 1592.03 1523.99 Q1589.35 1523.36 1586.49 1523.36 Q1582.13 1523.36 1579.93 1524.69 Q1577.77 1526.03 1577.77 1528.7 Q1577.77 1530.74 1579.33 1531.92 Q1580.89 1533.06 1585.6 1534.11 L1587.6 1534.56 Q1593.84 1535.9 1596.45 1538.35 Q1599.09 1540.77 1599.09 1545.13 Q1599.09 1550.09 1595.14 1552.99 Q1591.23 1555.88 1584.35 1555.88 Q1581.49 1555.88 1578.37 1555.31 Q1575.28 1554.77 1571.85 1553.66 L1571.85 1547.61 Q1575.09 1549.3 1578.24 1550.16 Q1581.39 1550.98 1584.48 1550.98 Q1588.62 1550.98 1590.85 1549.58 Q1593.08 1548.15 1593.08 1545.57 Q1593.08 1543.18 1591.45 1541.91 Q1589.86 1540.64 1584.42 1539.46 L1582.38 1538.98 Q1576.94 1537.84 1574.52 1535.48 Q1572.1 1533.1 1572.1 1528.96 Q1572.1 1523.93 1575.67 1521.19 Q1579.23 1518.45 1585.79 1518.45 Q1589.03 1518.45 1591.9 1518.93 Q1594.76 1519.41 1597.18 1520.36 Z" fill="#000000" fill-rule="nonzero" fill-opacity="1" /><path clip-path="url(#clip390)" d="M1608.42 1519.31 L1614.27 1519.31 L1614.27 1554.96 L1608.42 1554.96 L1608.42 1519.31 M1608.42 1505.44 L1614.27 1505.44 L1614.27 1512.85 L1608.42 1512.85 L1608.42 1505.44 Z" fill="#000000" fill-rule="nonzero" fill-opacity="1" /><path clip-path="url(#clip390)" d="M1640.34 1523.42 Q1635.63 1523.42 1632.89 1527.11 Q1630.16 1530.77 1630.16 1537.17 Q1630.16 1543.57 1632.86 1547.26 Q1635.6 1550.92 1640.34 1550.92 Q1645.02 1550.92 1647.76 1547.23 Q1650.49 1543.54 1650.49 1537.17 Q1650.49 1530.84 1647.76 1527.14 Q1645.02 1523.42 1640.34 1523.42 M1640.34 1518.45 Q1647.98 1518.45 1652.34 1523.42 Q1656.7 1528.38 1656.7 1537.17 Q1656.7 1545.92 1652.34 1550.92 Q1647.98 1555.88 1640.34 1555.88 Q1632.67 1555.88 1628.31 1550.92 Q1623.98 1545.92 1623.98 1537.17 Q1623.98 1528.38 1628.31 1523.42 Q1632.67 1518.45 1640.34 1518.45 Z" fill="#000000" fill-rule="nonzero" fill-opacity="1" /><path clip-path="url(#clip390)" d="M1696.04 1533.45 L1696.04 1554.96 L1690.18 1554.96 L1690.18 1533.64 Q1690.18 1528.58 1688.21 1526.06 Q1686.24 1523.55 1682.29 1523.55 Q1677.55 1523.55 1674.81 1526.57 Q1672.07 1529.59 1672.07 1534.81 L1672.07 1554.96 L1666.19 1554.96 L1666.19 1519.31 L1672.07 1519.31 L1672.07 1524.85 Q1674.17 1521.64 1677.01 1520.05 Q1679.87 1518.45 1683.6 1518.45 Q1689.74 1518.45 1692.89 1522.27 Q1696.04 1526.06 1696.04 1533.45 Z" fill="#000000" fill-rule="nonzero" fill-opacity="1" /><path clip-path="url(#clip390)" d="M1752.15 1527.04 Q1752.15 1528.88 1751.03 1529.97 Q1749.93 1531.07 1748.55 1531.07 Q1747.32 1531.07 1746.68 1530.36 Q1746.04 1529.65 1746.04 1528.75 Q1746.04 1528.36 1746.2 1527.88 Q1746.36 1527.36 1746.71 1526.75 Q1747.1 1526.14 1747.9 1525.69 Q1748.71 1525.24 1749.8 1525.17 Q1749.58 1524.95 1749.51 1524.92 Q1749.03 1524.53 1748.13 1524.4 Q1748 1524.34 1747.55 1524.34 Q1745.33 1524.34 1743.07 1525.98 Q1740.85 1527.59 1738.11 1530.65 Q1734.67 1534.22 1732.44 1535.54 Q1742.2 1536.83 1742.2 1542.47 Q1742.2 1543.4 1741.95 1544.53 Q1741.43 1546.65 1741.43 1548.2 Q1741.43 1551.29 1743.52 1551.29 Q1745.55 1551.29 1746.84 1549.23 Q1748.16 1547.17 1749.26 1543.14 Q1749.42 1542.4 1749.58 1542.18 Q1749.74 1541.95 1750.19 1541.95 Q1751 1541.95 1751 1542.6 Q1750.25 1546.36 1748.61 1549.26 Q1746.52 1552.77 1743.39 1552.77 Q1740.79 1552.77 1739.05 1550.97 Q1737.34 1549.13 1737.34 1546.24 Q1737.34 1545.53 1737.6 1543.92 Q1737.79 1543.27 1737.79 1542.53 Q1737.79 1541.02 1736.95 1539.89 Q1736.12 1538.73 1734.76 1538.15 Q1733.41 1537.57 1732.28 1537.32 Q1731.19 1537.03 1730.13 1536.93 Q1726.91 1550.55 1726.45 1551.39 Q1726.16 1551.97 1725.52 1552.36 Q1724.88 1552.77 1724.2 1552.77 Q1723.56 1552.77 1722.91 1552.32 Q1722.3 1551.9 1722.3 1550.91 Q1722.3 1550.39 1722.56 1549.46 L1732.12 1511.45 L1732.32 1510.17 Q1732.32 1509.78 1732.15 1509.59 Q1732.03 1509.36 1731.25 1509.2 Q1730.51 1509.04 1729.03 1509.04 Q1728.42 1509.04 1728.13 1509.01 Q1727.87 1508.97 1727.65 1508.81 Q1727.42 1508.62 1727.42 1508.23 Q1727.42 1507.69 1727.65 1507.4 Q1727.9 1507.07 1728.1 1507.01 Q1728.29 1506.94 1728.68 1506.91 Q1729.22 1506.88 1731.06 1506.72 Q1732.9 1506.53 1734.47 1506.4 Q1736.05 1506.27 1736.73 1506.27 Q1737.11 1506.27 1737.31 1506.46 Q1737.53 1506.62 1737.57 1506.82 L1737.6 1506.98 L1730.74 1534.8 Q1733.57 1533.68 1738.05 1528.68 Q1743.23 1522.89 1747.68 1522.89 Q1749.77 1522.89 1750.96 1524.18 Q1752.15 1525.43 1752.15 1527.04 Z" fill="#000000" fill-rule="nonzero" fill-opacity="1" /><path clip-path="url(#clip390)" d="M1758.9 1556.59 Q1758.9 1549.8 1760.62 1546.1 Q1763.01 1540.6 1768.64 1540.6 Q1769.84 1540.6 1771.08 1540.94 Q1772.34 1541.26 1773.92 1542.5 Q1775.52 1543.74 1776.49 1545.76 Q1778.34 1549.69 1778.34 1556.59 Q1778.34 1563.33 1776.62 1567 Q1774.12 1572.37 1768.6 1572.37 Q1766.52 1572.37 1764.4 1571.31 Q1762.31 1570.25 1760.98 1567.7 Q1758.9 1563.89 1758.9 1556.59 M1762.73 1556.02 Q1762.73 1562.99 1763.23 1565.76 Q1763.79 1568.76 1765.33 1570.07 Q1766.88 1571.35 1768.6 1571.35 Q1770.44 1571.35 1771.98 1569.98 Q1773.53 1568.58 1774.01 1565.58 Q1774.53 1562.63 1774.5 1556.02 Q1774.5 1549.6 1774.05 1547.03 Q1773.44 1544.03 1771.82 1542.83 Q1770.22 1541.62 1768.6 1541.62 Q1767.99 1541.62 1767.33 1541.8 Q1766.7 1541.98 1765.78 1542.5 Q1764.85 1543.01 1764.13 1544.3 Q1763.43 1545.58 1763.1 1547.52 Q1762.73 1550.03 1762.73 1556.02 Z" fill="#000000" fill-rule="nonzero" fill-opacity="1" /><path clip-path="url(#clip390)" d="M1778.75 1563.73 L1778.75 1562.31 L1792.93 1540.65 Q1793.29 1540.08 1793.86 1540.11 Q1794.38 1540.11 1794.49 1540.31 Q1794.6 1540.51 1794.6 1541.3 L1794.6 1562.31 L1799.22 1562.31 L1799.22 1563.73 L1794.6 1563.73 L1794.6 1567.75 Q1794.6 1569.08 1795.14 1569.5 Q1795.71 1569.93 1798.1 1569.93 L1799.07 1569.93 L1799.07 1571.35 Q1797.17 1571.22 1792.8 1571.22 Q1788.45 1571.22 1786.55 1571.35 L1786.55 1569.93 L1787.52 1569.93 Q1789.91 1569.93 1790.48 1569.53 Q1791.04 1569.1 1791.04 1567.75 L1791.04 1563.73 L1778.75 1563.73 M1780.06 1562.31 L1791.31 1562.31 L1791.31 1545.09 L1780.06 1562.31 Z" fill="#000000" fill-rule="nonzero" fill-opacity="1" /><polyline clip-path="url(#clip390)" style="stroke:#000000; stroke-linecap:round; stroke-linejoin:round; stroke-width:4; stroke-opacity:1; fill:none" points="204.45,1423.18 204.45,47.2441 "/>
<polyline clip-path="url(#clip390)" style="stroke:#000000; stroke-linecap:round; stroke-linejoin:round; stroke-width:4; stroke-opacity:1; fill:none" points="204.45,1423.18 223.347,1423.18 "/>
<polyline clip-path="url(#clip390)" style="stroke:#000000; stroke-linecap:round; stroke-linejoin:round; stroke-width:4; stroke-opacity:1; fill:none" points="204.45,1193.86 223.347,1193.86 "/>
<polyline clip-path="url(#clip390)" style="stroke:#000000; stroke-linecap:round; stroke-linejoin:round; stroke-width:4; stroke-opacity:1; fill:none" points="204.45,964.535 223.347,964.535 "/>
<polyline clip-path="url(#clip390)" style="stroke:#000000; stroke-linecap:round; stroke-linejoin:round; stroke-width:4; stroke-opacity:1; fill:none" points="204.45,735.212 223.347,735.212 "/>
<polyline clip-path="url(#clip390)" style="stroke:#000000; stroke-linecap:round; stroke-linejoin:round; stroke-width:4; stroke-opacity:1; fill:none" points="204.45,505.889 223.347,505.889 "/>
<polyline clip-path="url(#clip390)" style="stroke:#000000; stroke-linecap:round; stroke-linejoin:round; stroke-width:4; stroke-opacity:1; fill:none" points="204.45,276.567 223.347,276.567 "/>
<polyline clip-path="url(#clip390)" style="stroke:#000000; stroke-linecap:round; stroke-linejoin:round; stroke-width:4; stroke-opacity:1; fill:none" points="204.45,47.2441 223.347,47.2441 "/>
<path clip-path="url(#clip390)" d="M120.371 1436.52 L136.691 1436.52 L136.691 1440.46 L114.746 1440.46 L114.746 1436.52 Q117.408 1433.77 121.992 1429.14 Q126.598 1424.49 127.779 1423.15 Q130.024 1420.62 130.904 1418.89 Q131.806 1417.13 131.806 1415.44 Q131.806 1412.68 129.862 1410.95 Q127.941 1409.21 124.839 1409.21 Q122.64 1409.21 120.186 1409.97 Q117.756 1410.74 114.978 1412.29 L114.978 1407.57 Q117.802 1406.43 120.255 1405.85 Q122.709 1405.27 124.746 1405.27 Q130.117 1405.27 133.311 1407.96 Q136.505 1410.65 136.505 1415.14 Q136.505 1417.27 135.695 1419.19 Q134.908 1421.08 132.802 1423.68 Q132.223 1424.35 129.121 1427.57 Q126.019 1430.76 120.371 1436.52 Z" fill="#000000" fill-rule="nonzero" fill-opacity="1" /><path clip-path="url(#clip390)" d="M156.505 1408.98 Q152.894 1408.98 151.066 1412.54 Q149.26 1416.08 149.26 1423.21 Q149.26 1430.32 151.066 1433.89 Q152.894 1437.43 156.505 1437.43 Q160.14 1437.43 161.945 1433.89 Q163.774 1430.32 163.774 1423.21 Q163.774 1416.08 161.945 1412.54 Q160.14 1408.98 156.505 1408.98 M156.505 1405.27 Q162.315 1405.27 165.371 1409.88 Q168.45 1414.46 168.45 1423.21 Q168.45 1431.94 165.371 1436.55 Q162.315 1441.13 156.505 1441.13 Q150.695 1441.13 147.616 1436.55 Q144.561 1431.94 144.561 1423.21 Q144.561 1414.46 147.616 1409.88 Q150.695 1405.27 156.505 1405.27 Z" fill="#000000" fill-rule="nonzero" fill-opacity="1" /><path clip-path="url(#clip390)" d="M121.598 1207.2 L137.917 1207.2 L137.917 1211.14 L115.973 1211.14 L115.973 1207.2 Q118.635 1204.45 123.218 1199.82 Q127.825 1195.17 129.005 1193.82 Q131.251 1191.3 132.13 1189.56 Q133.033 1187.8 133.033 1186.11 Q133.033 1183.36 131.089 1181.62 Q129.167 1179.89 126.066 1179.89 Q123.867 1179.89 121.413 1180.65 Q118.982 1181.42 116.205 1182.97 L116.205 1178.24 Q119.029 1177.11 121.482 1176.53 Q123.936 1175.95 125.973 1175.95 Q131.343 1175.95 134.538 1178.64 Q137.732 1181.32 137.732 1185.81 Q137.732 1187.94 136.922 1189.86 Q136.135 1191.76 134.029 1194.35 Q133.45 1195.03 130.348 1198.24 Q127.246 1201.44 121.598 1207.2 Z" fill="#000000" fill-rule="nonzero" fill-opacity="1" /><path clip-path="url(#clip390)" d="M148.542 1207.2 L156.181 1207.2 L156.181 1180.84 L147.871 1182.5 L147.871 1178.24 L156.135 1176.58 L160.811 1176.58 L160.811 1207.2 L168.45 1207.2 L168.45 1211.14 L148.542 1211.14 L148.542 1207.2 Z" fill="#000000" fill-rule="nonzero" fill-opacity="1" /><path clip-path="url(#clip390)" d="M121.968 977.879 L138.288 977.879 L138.288 981.815 L116.343 981.815 L116.343 977.879 Q119.006 975.125 123.589 970.495 Q128.195 965.842 129.376 964.5 Q131.621 961.977 132.501 960.241 Q133.404 958.481 133.404 956.792 Q133.404 954.037 131.459 952.301 Q129.538 950.565 126.436 950.565 Q124.237 950.565 121.783 951.329 Q119.353 952.093 116.575 953.643 L116.575 948.921 Q119.399 947.787 121.853 947.208 Q124.306 946.63 126.343 946.63 Q131.714 946.63 134.908 949.315 Q138.103 952 138.103 956.491 Q138.103 958.62 137.292 960.542 Q136.505 962.44 134.399 965.032 Q133.82 965.704 130.718 968.921 Q127.617 972.116 121.968 977.879 Z" fill="#000000" fill-rule="nonzero" fill-opacity="1" /><path clip-path="url(#clip390)" d="M152.13 977.879 L168.45 977.879 L168.45 981.815 L146.505 981.815 L146.505 977.879 Q149.167 975.125 153.751 970.495 Q158.357 965.842 159.538 964.5 Q161.783 961.977 162.663 960.241 Q163.565 958.481 163.565 956.792 Q163.565 954.037 161.621 952.301 Q159.7 950.565 156.598 950.565 Q154.399 950.565 151.945 951.329 Q149.515 952.093 146.737 953.643 L146.737 948.921 Q149.561 947.787 152.015 947.208 Q154.468 946.63 156.505 946.63 Q161.876 946.63 165.07 949.315 Q168.264 952 168.264 956.491 Q168.264 958.62 167.454 960.542 Q166.667 962.44 164.561 965.032 Q163.982 965.704 160.88 968.921 Q157.778 972.116 152.13 977.879 Z" fill="#000000" fill-rule="nonzero" fill-opacity="1" /><path clip-path="url(#clip390)" d="M121.019 748.557 L137.339 748.557 L137.339 752.492 L115.394 752.492 L115.394 748.557 Q118.056 745.802 122.64 741.173 Q127.246 736.52 128.427 735.177 Q130.672 732.654 131.552 730.918 Q132.455 729.159 132.455 727.469 Q132.455 724.714 130.51 722.978 Q128.589 721.242 125.487 721.242 Q123.288 721.242 120.834 722.006 Q118.404 722.77 115.626 724.321 L115.626 719.599 Q118.45 718.464 120.904 717.886 Q123.357 717.307 125.394 717.307 Q130.765 717.307 133.959 719.992 Q137.154 722.677 137.154 727.168 Q137.154 729.298 136.343 731.219 Q135.556 733.117 133.45 735.71 Q132.871 736.381 129.769 739.599 Q126.667 742.793 121.019 748.557 Z" fill="#000000" fill-rule="nonzero" fill-opacity="1" /><path clip-path="url(#clip390)" d="M161.32 733.858 Q164.677 734.575 166.552 736.844 Q168.45 739.112 168.45 742.446 Q168.45 747.561 164.931 750.362 Q161.413 753.163 154.931 753.163 Q152.755 753.163 150.441 752.723 Q148.149 752.307 145.695 751.45 L145.695 746.936 Q147.64 748.071 149.954 748.649 Q152.269 749.228 154.792 749.228 Q159.19 749.228 161.482 747.492 Q163.797 745.756 163.797 742.446 Q163.797 739.39 161.644 737.677 Q159.515 735.941 155.695 735.941 L151.667 735.941 L151.667 732.099 L155.88 732.099 Q159.329 732.099 161.158 730.733 Q162.987 729.344 162.987 726.751 Q162.987 724.089 161.089 722.677 Q159.214 721.242 155.695 721.242 Q153.774 721.242 151.575 721.659 Q149.376 722.075 146.737 722.955 L146.737 718.788 Q149.399 718.048 151.714 717.677 Q154.052 717.307 156.112 717.307 Q161.436 717.307 164.538 719.738 Q167.64 722.145 167.64 726.265 Q167.64 729.136 165.996 731.126 Q164.352 733.094 161.32 733.858 Z" fill="#000000" fill-rule="nonzero" fill-opacity="1" /><path clip-path="url(#clip390)" d="M119.885 519.234 L136.204 519.234 L136.204 523.169 L114.26 523.169 L114.26 519.234 Q116.922 516.48 121.505 511.85 Q126.112 507.197 127.292 505.855 Q129.538 503.331 130.417 501.595 Q131.32 499.836 131.32 498.146 Q131.32 495.392 129.376 493.656 Q127.455 491.92 124.353 491.92 Q122.154 491.92 119.7 492.683 Q117.269 493.447 114.492 494.998 L114.492 490.276 Q117.316 489.142 119.769 488.563 Q122.223 487.984 124.26 487.984 Q129.63 487.984 132.825 490.67 Q136.019 493.355 136.019 497.845 Q136.019 499.975 135.209 501.896 Q134.422 503.794 132.316 506.387 Q131.737 507.058 128.635 510.276 Q125.533 513.47 119.885 519.234 Z" fill="#000000" fill-rule="nonzero" fill-opacity="1" /><path clip-path="url(#clip390)" d="M158.866 492.683 L147.061 511.132 L158.866 511.132 L158.866 492.683 M157.64 488.609 L163.519 488.609 L163.519 511.132 L168.45 511.132 L168.45 515.021 L163.519 515.021 L163.519 523.169 L158.866 523.169 L158.866 515.021 L143.265 515.021 L143.265 510.507 L157.64 488.609 Z" fill="#000000" fill-rule="nonzero" fill-opacity="1" /><path clip-path="url(#clip390)" d="M121.367 289.912 L137.686 289.912 L137.686 293.847 L115.742 293.847 L115.742 289.912 Q118.404 287.157 122.987 282.527 Q127.593 277.875 128.774 276.532 Q131.019 274.009 131.899 272.273 Q132.802 270.514 132.802 268.824 Q132.802 266.069 130.857 264.333 Q128.936 262.597 125.834 262.597 Q123.635 262.597 121.181 263.361 Q118.751 264.125 115.973 265.676 L115.973 260.953 Q118.797 259.819 121.251 259.24 Q123.705 258.662 125.742 258.662 Q131.112 258.662 134.306 261.347 Q137.501 264.032 137.501 268.523 Q137.501 270.652 136.691 272.574 Q135.904 274.472 133.797 277.064 Q133.218 277.736 130.117 280.953 Q127.015 284.148 121.367 289.912 Z" fill="#000000" fill-rule="nonzero" fill-opacity="1" /><path clip-path="url(#clip390)" d="M147.547 259.287 L165.903 259.287 L165.903 263.222 L151.829 263.222 L151.829 271.694 Q152.848 271.347 153.866 271.185 Q154.885 271 155.903 271 Q161.69 271 165.07 274.171 Q168.45 277.342 168.45 282.759 Q168.45 288.337 164.977 291.439 Q161.505 294.518 155.186 294.518 Q153.01 294.518 150.741 294.148 Q148.496 293.777 146.089 293.037 L146.089 288.337 Q148.172 289.472 150.394 290.027 Q152.616 290.583 155.093 290.583 Q159.098 290.583 161.436 288.476 Q163.774 286.37 163.774 282.759 Q163.774 279.148 161.436 277.041 Q159.098 274.935 155.093 274.935 Q153.218 274.935 151.343 275.351 Q149.491 275.768 147.547 276.648 L147.547 259.287 Z" fill="#000000" fill-rule="nonzero" fill-opacity="1" /><path clip-path="url(#clip390)" d="M120.209 60.5889 L136.529 60.5889 L136.529 64.5241 L114.584 64.5241 L114.584 60.5889 Q117.246 57.8343 121.83 53.2047 Q126.436 48.552 127.617 47.2094 Q129.862 44.6862 130.742 42.9501 Q131.644 41.1909 131.644 39.5011 Q131.644 36.7465 129.7 35.0104 Q127.779 33.2743 124.677 33.2743 Q122.478 33.2743 120.024 34.0381 Q117.593 34.802 114.816 36.3529 L114.816 31.6308 Q117.64 30.4965 120.093 29.9178 Q122.547 29.3391 124.584 29.3391 Q129.955 29.3391 133.149 32.0243 Q136.343 34.7094 136.343 39.2002 Q136.343 41.3298 135.533 43.2511 Q134.746 45.1492 132.64 47.7418 Q132.061 48.4131 128.959 51.6306 Q125.857 54.8251 120.209 60.5889 Z" fill="#000000" fill-rule="nonzero" fill-opacity="1" /><path clip-path="url(#clip390)" d="M156.922 45.3807 Q153.774 45.3807 151.922 47.5334 Q150.093 49.6862 150.093 53.4362 Q150.093 57.163 151.922 59.3389 Q153.774 61.4917 156.922 61.4917 Q160.07 61.4917 161.899 59.3389 Q163.751 57.163 163.751 53.4362 Q163.751 49.6862 161.899 47.5334 Q160.07 45.3807 156.922 45.3807 M166.204 30.728 L166.204 34.9872 Q164.445 34.1539 162.64 33.7141 Q160.857 33.2743 159.098 33.2743 Q154.468 33.2743 152.015 36.3992 Q149.584 39.5242 149.237 45.8436 Q150.603 43.8298 152.663 42.765 Q154.723 41.677 157.2 41.677 Q162.408 41.677 165.417 44.8483 Q168.45 47.9964 168.45 53.4362 Q168.45 58.7602 165.302 61.9778 Q162.153 65.1954 156.922 65.1954 Q150.927 65.1954 147.755 60.6121 Q144.584 56.0056 144.584 47.2788 Q144.584 39.0844 148.473 34.2233 Q152.362 29.3391 158.913 29.3391 Q160.672 29.3391 162.454 29.6863 Q164.26 30.0335 166.204 30.728 Z" fill="#000000" fill-rule="nonzero" fill-opacity="1" /><path clip-path="url(#clip390)" d="M58.657 868.796 L77.5631 868.796 L77.5631 874.685 L28.3562 874.685 L28.3562 868.796 L33.7671 868.796 Q30.5842 866.95 29.0564 864.149 Q27.4968 861.317 27.4968 857.402 Q27.4968 850.909 32.6531 846.866 Q37.8093 842.792 46.212 842.792 Q54.6147 842.792 59.771 846.866 Q64.9272 850.909 64.9272 857.402 Q64.9272 861.317 63.3994 864.149 Q61.8398 866.95 58.657 868.796 M46.212 848.872 Q39.7508 848.872 36.0905 851.545 Q32.3984 854.187 32.3984 858.834 Q32.3984 863.481 36.0905 866.155 Q39.7508 868.796 46.212 868.796 Q52.6732 868.796 56.3653 866.155 Q60.0256 863.481 60.0256 858.834 Q60.0256 854.187 56.3653 851.545 Q52.6732 848.872 46.212 848.872 Z" fill="#000000" fill-rule="nonzero" fill-opacity="1" /><path clip-path="url(#clip390)" d="M44.7161 802.593 L47.5806 802.593 L47.5806 829.52 Q53.6281 829.138 56.8109 825.891 Q59.9619 822.613 59.9619 816.788 Q59.9619 813.415 59.1344 810.264 Q58.3069 807.081 56.6518 803.962 L62.1899 803.962 Q63.5267 807.113 64.227 810.423 Q64.9272 813.733 64.9272 817.139 Q64.9272 825.669 59.9619 830.666 Q54.9967 835.631 46.5303 835.631 Q37.7774 835.631 32.6531 830.92 Q27.4968 826.178 27.4968 818.157 Q27.4968 810.964 32.1438 806.794 Q36.7589 802.593 44.7161 802.593 M42.9973 808.449 Q38.1912 808.513 35.3266 811.155 Q32.4621 813.765 32.4621 818.093 Q32.4621 822.995 35.2312 825.955 Q38.0002 828.883 43.0292 829.329 L42.9973 808.449 Z" fill="#000000" fill-rule="nonzero" fill-opacity="1" /><path clip-path="url(#clip390)" d="M33.8307 772.324 Q33.2578 773.311 33.0032 774.488 Q32.7167 775.634 32.7167 777.035 Q32.7167 782 35.9632 784.674 Q39.1779 787.315 45.2253 787.315 L64.0042 787.315 L64.0042 793.204 L28.3562 793.204 L28.3562 787.315 L33.8944 787.315 Q30.6479 785.469 29.0883 782.509 Q27.4968 779.549 27.4968 775.316 Q27.4968 774.711 27.5923 773.979 Q27.656 773.247 27.8151 772.356 L33.8307 772.324 Z" fill="#000000" fill-rule="nonzero" fill-opacity="1" /><path clip-path="url(#clip390)" d="M28.3562 766.181 L28.3562 760.325 L64.0042 760.325 L64.0042 766.181 L28.3562 766.181 M14.479 766.181 L14.479 760.325 L21.895 760.325 L21.895 766.181 L14.479 766.181 Z" fill="#000000" fill-rule="nonzero" fill-opacity="1" /><path clip-path="url(#clip390)" d="M32.4621 734.257 Q32.4621 738.968 36.1542 741.705 Q39.8145 744.442 46.212 744.442 Q52.6095 744.442 56.3017 741.737 Q59.9619 739 59.9619 734.257 Q59.9619 729.578 56.2698 726.841 Q52.5777 724.104 46.212 724.104 Q39.8781 724.104 36.186 726.841 Q32.4621 729.578 32.4621 734.257 M27.4968 734.257 Q27.4968 726.618 32.4621 722.258 Q37.4273 717.897 46.212 717.897 Q54.9649 717.897 59.9619 722.258 Q64.9272 726.618 64.9272 734.257 Q64.9272 741.928 59.9619 746.288 Q54.9649 750.617 46.212 750.617 Q37.4273 750.617 32.4621 746.288 Q27.4968 741.928 27.4968 734.257 Z" fill="#000000" fill-rule="nonzero" fill-opacity="1" /><path clip-path="url(#clip390)" d="M33.7671 684.732 L14.479 684.732 L14.479 678.875 L64.0042 678.875 L64.0042 684.732 L58.657 684.732 Q61.8398 686.578 63.3994 689.411 Q64.9272 692.212 64.9272 696.158 Q64.9272 702.62 59.771 706.694 Q54.6147 710.736 46.212 710.736 Q37.8093 710.736 32.6531 706.694 Q27.4968 702.62 27.4968 696.158 Q27.4968 692.212 29.0564 689.411 Q30.5842 686.578 33.7671 684.732 M46.212 704.688 Q52.6732 704.688 56.3653 702.047 Q60.0256 699.373 60.0256 694.726 Q60.0256 690.079 56.3653 687.406 Q52.6732 684.732 46.212 684.732 Q39.7508 684.732 36.0905 687.406 Q32.3984 690.079 32.3984 694.726 Q32.3984 699.373 36.0905 702.047 Q39.7508 704.688 46.212 704.688 Z" fill="#000000" fill-rule="nonzero" fill-opacity="1" /><path clip-path="url(#clip390)" d="M55.9197 665.317 L55.9197 658.601 L61.3942 658.601 L71.5793 663.821 L71.5793 667.926 L61.3942 665.317 L55.9197 665.317 Z" fill="#000000" fill-rule="nonzero" fill-opacity="1" /><path clip-path="url(#clip390)" d="M42.4881 595.739 L64.0042 595.739 L64.0042 601.596 L42.679 601.596 Q37.6183 601.596 35.1038 603.569 Q32.5894 605.543 32.5894 609.489 Q32.5894 614.232 35.6131 616.969 Q38.6368 619.706 43.8567 619.706 L64.0042 619.706 L64.0042 625.595 L14.479 625.595 L14.479 619.706 L33.8944 619.706 Q30.6797 617.606 29.0883 614.773 Q27.4968 611.908 27.4968 608.184 Q27.4968 602.041 31.3163 598.89 Q35.1038 595.739 42.4881 595.739 Z" fill="#000000" fill-rule="nonzero" fill-opacity="1" /><polyline clip-path="url(#clip392)" style="stroke:#009af9; stroke-linecap:round; stroke-linejoin:round; stroke-width:8; stroke-opacity:1; fill:none" points="563.906,915.561 561.663,926.226 "/>
<polyline clip-path="url(#clip392)" style="stroke:#009af9; stroke-linecap:round; stroke-linejoin:round; stroke-width:8; stroke-opacity:1; fill:none" points="561.663,926.226 558.679,940.339 "/>
<polyline clip-path="url(#clip392)" style="stroke:#009af9; stroke-linecap:round; stroke-linejoin:round; stroke-width:8; stroke-opacity:1; fill:none" points="558.679,940.339 554.899,958.09 "/>
<polyline clip-path="url(#clip392)" style="stroke:#009af9; stroke-linecap:round; stroke-linejoin:round; stroke-width:8; stroke-opacity:1; fill:none" points="554.899,958.09 550.686,977.708 "/>
<polyline clip-path="url(#clip392)" style="stroke:#009af9; stroke-linecap:round; stroke-linejoin:round; stroke-width:8; stroke-opacity:1; fill:none" points="550.686,977.708 547.139,994.073 "/>
<polyline clip-path="url(#clip392)" style="stroke:#009af9; stroke-linecap:round; stroke-linejoin:round; stroke-width:8; stroke-opacity:1; fill:none" points="547.139,994.073 547.275,993.446 "/>
<polyline clip-path="url(#clip392)" style="stroke:#009af9; stroke-linecap:round; stroke-linejoin:round; stroke-width:8; stroke-opacity:1; fill:none" points="547.275,993.446 557.15,947.538 "/>
<polyline clip-path="url(#clip392)" style="stroke:#009af9; stroke-linecap:round; stroke-linejoin:round; stroke-width:8; stroke-opacity:1; fill:none" points="557.15,947.538 582.764,824.316 "/>
<polyline clip-path="url(#clip392)" style="stroke:#009af9; stroke-linecap:round; stroke-linejoin:round; stroke-width:8; stroke-opacity:1; fill:none" points="582.764,824.316 615.497,662.228 "/>
<polyline clip-path="url(#clip392)" style="stroke:#009af9; stroke-linecap:round; stroke-linejoin:round; stroke-width:8; stroke-opacity:1; fill:none" points="615.497,662.228 651.571,487.773 "/>
<polyline clip-path="url(#clip392)" style="stroke:#009af9; stroke-linecap:round; stroke-linejoin:round; stroke-width:8; stroke-opacity:1; fill:none" points="651.571,487.773 689.37,325.899 "/>
<polyline clip-path="url(#clip392)" style="stroke:#009af9; stroke-linecap:round; stroke-linejoin:round; stroke-width:8; stroke-opacity:1; fill:none" points="689.37,325.899 727.979,203.199 "/>
<polyline clip-path="url(#clip392)" style="stroke:#009af9; stroke-linecap:round; stroke-linejoin:round; stroke-width:8; stroke-opacity:1; fill:none" points="727.979,203.199 766.594,148.546 "/>
<polyline clip-path="url(#clip392)" style="stroke:#009af9; stroke-linecap:round; stroke-linejoin:round; stroke-width:8; stroke-opacity:1; fill:none" points="766.594,148.546 804.185,179.532 "/>
<polyline clip-path="url(#clip392)" style="stroke:#009af9; stroke-linecap:round; stroke-linejoin:round; stroke-width:8; stroke-opacity:1; fill:none" points="804.185,179.532 840.276,269.516 "/>
<polyline clip-path="url(#clip392)" style="stroke:#009af9; stroke-linecap:round; stroke-linejoin:round; stroke-width:8; stroke-opacity:1; fill:none" points="840.276,269.516 875.749,375.911 "/>
<polyline clip-path="url(#clip392)" style="stroke:#009af9; stroke-linecap:round; stroke-linejoin:round; stroke-width:8; stroke-opacity:1; fill:none" points="875.749,375.911 911.618,478.223 "/>
<polyline clip-path="url(#clip392)" style="stroke:#009af9; stroke-linecap:round; stroke-linejoin:round; stroke-width:8; stroke-opacity:1; fill:none" points="911.618,478.223 948.452,570.59 "/>
<polyline clip-path="url(#clip392)" style="stroke:#009af9; stroke-linecap:round; stroke-linejoin:round; stroke-width:8; stroke-opacity:1; fill:none" points="948.452,570.59 986.562,652.405 "/>
<polyline clip-path="url(#clip392)" style="stroke:#009af9; stroke-linecap:round; stroke-linejoin:round; stroke-width:8; stroke-opacity:1; fill:none" points="986.562,652.405 1026.14,724.644 "/>
<polyline clip-path="url(#clip392)" style="stroke:#009af9; stroke-linecap:round; stroke-linejoin:round; stroke-width:8; stroke-opacity:1; fill:none" points="1026.14,724.644 1067.33,788.623 "/>
<polyline clip-path="url(#clip392)" style="stroke:#009af9; stroke-linecap:round; stroke-linejoin:round; stroke-width:8; stroke-opacity:1; fill:none" points="1067.33,788.623 1110.2,845.591 "/>
<polyline clip-path="url(#clip392)" style="stroke:#009af9; stroke-linecap:round; stroke-linejoin:round; stroke-width:8; stroke-opacity:1; fill:none" points="1110.2,845.591 1154.81,896.619 "/>
<polyline clip-path="url(#clip392)" style="stroke:#009af9; stroke-linecap:round; stroke-linejoin:round; stroke-width:8; stroke-opacity:1; fill:none" points="1154.81,896.619 1201.21,942.588 "/>
<polyline clip-path="url(#clip392)" style="stroke:#009af9; stroke-linecap:round; stroke-linejoin:round; stroke-width:8; stroke-opacity:1; fill:none" points="1201.21,942.588 1249.39,984.218 "/>
<polyline clip-path="url(#clip392)" style="stroke:#009af9; stroke-linecap:round; stroke-linejoin:round; stroke-width:8; stroke-opacity:1; fill:none" points="1249.39,984.218 1299.34,1022.09 "/>
<polyline clip-path="url(#clip392)" style="stroke:#009af9; stroke-linecap:round; stroke-linejoin:round; stroke-width:8; stroke-opacity:1; fill:none" points="1299.34,1022.09 1351.04,1056.67 "/>
<polyline clip-path="url(#clip392)" style="stroke:#009af9; stroke-linecap:round; stroke-linejoin:round; stroke-width:8; stroke-opacity:1; fill:none" points="1351.04,1056.67 1404.45,1088.36 "/>
<polyline clip-path="url(#clip392)" style="stroke:#009af9; stroke-linecap:round; stroke-linejoin:round; stroke-width:8; stroke-opacity:1; fill:none" points="1404.45,1088.36 1459.51,1117.47 "/>
<polyline clip-path="url(#clip392)" style="stroke:#009af9; stroke-linecap:round; stroke-linejoin:round; stroke-width:8; stroke-opacity:1; fill:none" points="1459.51,1117.47 1516.15,1144.27 "/>
<polyline clip-path="url(#clip392)" style="stroke:#009af9; stroke-linecap:round; stroke-linejoin:round; stroke-width:8; stroke-opacity:1; fill:none" points="1516.15,1144.27 1574.32,1168.99 "/>
<polyline clip-path="url(#clip392)" style="stroke:#009af9; stroke-linecap:round; stroke-linejoin:round; stroke-width:8; stroke-opacity:1; fill:none" points="1574.32,1168.99 1633.94,1191.82 "/>
<polyline clip-path="url(#clip392)" style="stroke:#009af9; stroke-linecap:round; stroke-linejoin:round; stroke-width:8; stroke-opacity:1; fill:none" points="1633.94,1191.82 1694.92,1212.93 "/>
<polyline clip-path="url(#clip392)" style="stroke:#009af9; stroke-linecap:round; stroke-linejoin:round; stroke-width:8; stroke-opacity:1; fill:none" points="1694.92,1212.93 1757.19,1232.48 "/>
<polyline clip-path="url(#clip392)" style="stroke:#009af9; stroke-linecap:round; stroke-linejoin:round; stroke-width:8; stroke-opacity:1; fill:none" points="1757.19,1232.48 1820.67,1250.6 "/>
<polyline clip-path="url(#clip392)" style="stroke:#009af9; stroke-linecap:round; stroke-linejoin:round; stroke-width:8; stroke-opacity:1; fill:none" points="1820.67,1250.6 1885.28,1267.4 "/>
<polyline clip-path="url(#clip392)" style="stroke:#009af9; stroke-linecap:round; stroke-linejoin:round; stroke-width:8; stroke-opacity:1; fill:none" points="1885.28,1267.4 1950.95,1282.99 "/>
<polyline clip-path="url(#clip392)" style="stroke:#009af9; stroke-linecap:round; stroke-linejoin:round; stroke-width:8; stroke-opacity:1; fill:none" points="1950.95,1282.99 2017.61,1297.46 "/>
<polyline clip-path="url(#clip392)" style="stroke:#009af9; stroke-linecap:round; stroke-linejoin:round; stroke-width:8; stroke-opacity:1; fill:none" points="2017.61,1297.46 2085.17,1310.91 "/>
<polyline clip-path="url(#clip392)" style="stroke:#009af9; stroke-linecap:round; stroke-linejoin:round; stroke-width:8; stroke-opacity:1; fill:none" points="2085.17,1310.91 2153.58,1323.42 "/>
<polyline clip-path="url(#clip392)" style="stroke:#009af9; stroke-linecap:round; stroke-linejoin:round; stroke-width:8; stroke-opacity:1; fill:none" points="2153.58,1323.42 2222.78,1335.06 "/>
<polyline clip-path="url(#clip392)" style="stroke:#009af9; stroke-linecap:round; stroke-linejoin:round; stroke-width:8; stroke-opacity:1; fill:none" points="2222.78,1335.06 2292.7,1345.89 "/>
<polyline clip-path="url(#clip392)" style="stroke:#009af9; stroke-linecap:round; stroke-linejoin:round; stroke-width:8; stroke-opacity:1; fill:none" points="2292.7,1345.89 2363.29,1355.98 "/>
<polyline clip-path="url(#clip392)" style="stroke:#009af9; stroke-linecap:round; stroke-linejoin:round; stroke-width:8; stroke-opacity:1; fill:none" points="2363.29,1355.98 2434.49,1365.38 "/>
<polyline clip-path="url(#clip392)" style="stroke:#009af9; stroke-linecap:round; stroke-linejoin:round; stroke-width:8; stroke-opacity:1; fill:none" points="2434.49,1365.38 2506.27,1374.15 "/>
<polyline clip-path="url(#clip392)" style="stroke:#009af9; stroke-linecap:round; stroke-linejoin:round; stroke-width:8; stroke-opacity:1; fill:none" points="2506.27,1374.15 2578.57,1382.33 "/>
<polyline clip-path="url(#clip392)" style="stroke:#009af9; stroke-linecap:round; stroke-linejoin:round; stroke-width:8; stroke-opacity:1; fill:none" points="2578.57,1382.33 2651.36,1389.97 "/>
<polyline clip-path="url(#clip392)" style="stroke:#009af9; stroke-linecap:round; stroke-linejoin:round; stroke-width:8; stroke-opacity:1; fill:none" points="2651.36,1389.97 2724.6,1397.11 "/>
<polyline clip-path="url(#clip392)" style="stroke:#009af9; stroke-linecap:round; stroke-linejoin:round; stroke-width:8; stroke-opacity:1; fill:none" points="2724.6,1397.11 2798.25,1403.78 "/>
<polyline clip-path="url(#clip392)" style="stroke:#009af9; stroke-linecap:round; stroke-linejoin:round; stroke-width:8; stroke-opacity:1; fill:none" points="2798.25,1403.78 2872.28,1410.02 "/>
<polyline clip-path="url(#clip392)" style="stroke:#009af9; stroke-linecap:round; stroke-linejoin:round; stroke-width:8; stroke-opacity:1; fill:none" points="2872.28,1410.02 2946.67,1415.85 "/>
<polyline clip-path="url(#clip392)" style="stroke:#009af9; stroke-linecap:round; stroke-linejoin:round; stroke-width:8; stroke-opacity:1; fill:none" points="2946.67,1415.85 3021.38,1421.32 "/>
<polyline clip-path="url(#clip392)" style="stroke:#009af9; stroke-linecap:round; stroke-linejoin:round; stroke-width:8; stroke-opacity:1; fill:none" points="3021.38,1421.32 3096.39,1426.44 "/>
<polyline clip-path="url(#clip392)" style="stroke:#009af9; stroke-linecap:round; stroke-linejoin:round; stroke-width:8; stroke-opacity:1; fill:none" points="3096.39,1426.44 3171.68,1431.24 "/>
<polyline clip-path="url(#clip392)" style="stroke:#009af9; stroke-linecap:round; stroke-linejoin:round; stroke-width:8; stroke-opacity:1; fill:none" points="3171.68,1431.24 3247.23,1435.75 "/>
<polyline clip-path="url(#clip392)" style="stroke:#009af9; stroke-linecap:round; stroke-linejoin:round; stroke-width:8; stroke-opacity:1; fill:none" points="3247.23,1435.75 3323.02,1439.97 "/>
<polyline clip-path="url(#clip392)" style="stroke:#009af9; stroke-linecap:round; stroke-linejoin:round; stroke-width:8; stroke-opacity:1; fill:none" points="3323.02,1439.97 3399.02,1443.94 "/>
<polyline clip-path="url(#clip392)" style="stroke:#009af9; stroke-linecap:round; stroke-linejoin:round; stroke-width:8; stroke-opacity:1; fill:none" points="3399.02,1443.94 3475.24,1447.66 "/>
<polyline clip-path="url(#clip392)" style="stroke:#009af9; stroke-linecap:round; stroke-linejoin:round; stroke-width:8; stroke-opacity:1; fill:none" points="3475.24,1447.66 3551.64,1451.17 "/>
<polyline clip-path="url(#clip392)" style="stroke:#009af9; stroke-linecap:round; stroke-linejoin:round; stroke-width:8; stroke-opacity:1; fill:none" points="3551.64,1451.17 3628.22,1454.46 "/>
<polyline clip-path="url(#clip392)" style="stroke:#009af9; stroke-linecap:round; stroke-linejoin:round; stroke-width:8; stroke-opacity:1; fill:none" points="3628.22,1454.46 3704.96,1457.55 "/>
<polyline clip-path="url(#clip392)" style="stroke:#009af9; stroke-linecap:round; stroke-linejoin:round; stroke-width:8; stroke-opacity:1; fill:none" points="3704.96,1457.55 3781.86,1460.47 "/>
<polyline clip-path="url(#clip392)" style="stroke:#009af9; stroke-linecap:round; stroke-linejoin:round; stroke-width:8; stroke-opacity:1; fill:none" points="3781.86,1460.47 3858.9,1463.21 "/>
<polyline clip-path="url(#clip392)" style="stroke:#009af9; stroke-linecap:round; stroke-linejoin:round; stroke-width:8; stroke-opacity:1; fill:none" points="3858.9,1463.21 3936.07,1465.8 "/>
<polyline clip-path="url(#clip392)" style="stroke:#009af9; stroke-linecap:round; stroke-linejoin:round; stroke-width:8; stroke-opacity:1; fill:none" points="3936.07,1465.8 4013.36,1468.23 "/>
<polyline clip-path="url(#clip392)" style="stroke:#009af9; stroke-linecap:round; stroke-linejoin:round; stroke-width:8; stroke-opacity:1; fill:none" points="4013.36,1468.23 4090.77,1470.53 "/>
<polyline clip-path="url(#clip392)" style="stroke:#009af9; stroke-linecap:round; stroke-linejoin:round; stroke-width:8; stroke-opacity:1; fill:none" points="4090.77,1470.53 4110.46,1471.09 "/>
</svg>
